G04 #@! TF.GenerationSoftware,KiCad,Pcbnew,7.0.1*
G04 #@! TF.CreationDate,2023-05-14T23:30:35+02:00*
G04 #@! TF.ProjectId,K_relay,4b5f7265-6c61-4792-9e6b-696361645f70,rev?*
G04 #@! TF.SameCoordinates,Original*
G04 #@! TF.FileFunction,Copper,L1,Top*
G04 #@! TF.FilePolarity,Positive*
%FSLAX46Y46*%
G04 Gerber Fmt 4.6, Leading zero omitted, Abs format (unit mm)*
G04 Created by KiCad (PCBNEW 7.0.1) date 2023-05-14 23:30:35*
%MOMM*%
%LPD*%
G01*
G04 APERTURE LIST*
G04 Aperture macros list*
%AMRoundRect*
0 Rectangle with rounded corners*
0 $1 Rounding radius*
0 $2 $3 $4 $5 $6 $7 $8 $9 X,Y pos of 4 corners*
0 Add a 4 corners polygon primitive as box body*
4,1,4,$2,$3,$4,$5,$6,$7,$8,$9,$2,$3,0*
0 Add four circle primitives for the rounded corners*
1,1,$1+$1,$2,$3*
1,1,$1+$1,$4,$5*
1,1,$1+$1,$6,$7*
1,1,$1+$1,$8,$9*
0 Add four rect primitives between the rounded corners*
20,1,$1+$1,$2,$3,$4,$5,0*
20,1,$1+$1,$4,$5,$6,$7,0*
20,1,$1+$1,$6,$7,$8,$9,0*
20,1,$1+$1,$8,$9,$2,$3,0*%
G04 Aperture macros list end*
G04 #@! TA.AperFunction,ComponentPad*
%ADD10R,1.950000X1.950000*%
G04 #@! TD*
G04 #@! TA.AperFunction,ComponentPad*
%ADD11C,3.600000*%
G04 #@! TD*
G04 #@! TA.AperFunction,ComponentPad*
%ADD12C,1.803400*%
G04 #@! TD*
G04 #@! TA.AperFunction,ComponentPad*
%ADD13R,1.500000X1.500000*%
G04 #@! TD*
G04 #@! TA.AperFunction,ComponentPad*
%ADD14C,1.500000*%
G04 #@! TD*
G04 #@! TA.AperFunction,ComponentPad*
%ADD15C,1.998980*%
G04 #@! TD*
G04 #@! TA.AperFunction,ComponentPad*
%ADD16C,2.499360*%
G04 #@! TD*
G04 #@! TA.AperFunction,ComponentPad*
%ADD17RoundRect,0.250000X0.600000X-0.600000X0.600000X0.600000X-0.600000X0.600000X-0.600000X-0.600000X0*%
G04 #@! TD*
G04 #@! TA.AperFunction,ComponentPad*
%ADD18C,1.700000*%
G04 #@! TD*
G04 #@! TA.AperFunction,ComponentPad*
%ADD19C,6.000000*%
G04 #@! TD*
G04 #@! TA.AperFunction,ViaPad*
%ADD20C,0.800000*%
G04 #@! TD*
G04 #@! TA.AperFunction,Conductor*
%ADD21C,0.600000*%
G04 #@! TD*
G04 APERTURE END LIST*
D10*
X190000000Y-106560000D03*
D11*
X186560000Y-103120000D03*
X186560000Y-110000000D03*
X193440000Y-103120000D03*
X193440000Y-110000000D03*
D12*
X226199996Y-80250000D03*
X211199996Y-80250000D03*
X206199995Y-80250000D03*
X201199995Y-80250000D03*
X201199995Y-87750000D03*
X206199995Y-87750000D03*
X211199996Y-87750000D03*
X226199996Y-87750000D03*
D13*
X247160000Y-81380000D03*
D14*
X244620000Y-81380000D03*
X242080000Y-81380000D03*
X239540000Y-81380000D03*
X237000000Y-81380000D03*
X237000000Y-89000000D03*
X239540000Y-89000000D03*
X242080000Y-89000000D03*
X244620000Y-89000000D03*
X247160000Y-89000000D03*
D15*
X247540000Y-68540000D03*
D16*
X245000000Y-66000000D03*
X245000000Y-71080000D03*
X250080000Y-66000000D03*
X250080000Y-71080000D03*
D12*
X186500000Y-63000000D03*
X186500000Y-78000000D03*
X186500000Y-83000001D03*
X186500000Y-88000001D03*
X194000000Y-88000001D03*
X194000000Y-83000001D03*
X194000000Y-78000000D03*
X194000000Y-63000000D03*
D10*
X260000000Y-118000000D03*
D11*
X256560000Y-114560000D03*
X256560000Y-121440000D03*
X263440000Y-114560000D03*
X263440000Y-121440000D03*
D10*
X238000000Y-118000000D03*
D11*
X234560000Y-114560000D03*
X234560000Y-121440000D03*
X241440000Y-114560000D03*
X241440000Y-121440000D03*
D17*
X232840000Y-55000000D03*
D18*
X232840000Y-52460000D03*
X235380000Y-55000000D03*
X235380000Y-52460000D03*
X237920000Y-55000000D03*
X237920000Y-52460000D03*
X240460000Y-55000000D03*
X240460000Y-52460000D03*
X243000000Y-55000000D03*
X243000000Y-52460000D03*
D15*
X232000000Y-68540000D03*
D16*
X229460000Y-66000000D03*
X229460000Y-71080000D03*
X234540000Y-66000000D03*
X234540000Y-71080000D03*
D15*
X259500000Y-76250000D03*
D16*
X256960000Y-73710000D03*
X256960000Y-78790000D03*
X262040000Y-73710000D03*
X262040000Y-78790000D03*
D12*
X155800004Y-87750000D03*
X170800004Y-87750000D03*
X175800005Y-87750000D03*
X180800005Y-87750000D03*
X180800005Y-80250000D03*
X175800005Y-80250000D03*
X170800004Y-80250000D03*
X155800004Y-80250000D03*
X251000000Y-95250000D03*
X236000000Y-95250000D03*
X230999999Y-95250000D03*
X225999999Y-95250000D03*
X225999999Y-102750000D03*
X230999999Y-102750000D03*
X236000000Y-102750000D03*
X251000000Y-102750000D03*
D19*
X168748000Y-61096000D03*
X178000000Y-70288000D03*
X178000000Y-52000000D03*
X159712000Y-70288000D03*
X159712000Y-52000000D03*
X211036000Y-60808000D03*
X220288000Y-70000000D03*
X220288000Y-51712000D03*
X202000000Y-70000000D03*
X202000000Y-51712000D03*
X210748000Y-107096000D03*
X220000000Y-116288000D03*
X220000000Y-98000000D03*
X201712000Y-116288000D03*
X201712000Y-98000000D03*
X169036000Y-107096000D03*
X178288000Y-116288000D03*
X178288000Y-98000000D03*
X160000000Y-116288000D03*
X160000000Y-98000000D03*
D20*
X248000002Y-50500000D03*
X226000000Y-58000000D03*
X230636043Y-50500000D03*
X228500000Y-96500000D03*
X240000000Y-57500000D03*
X208750000Y-81500000D03*
X241000000Y-44000000D03*
X243500000Y-57500000D03*
X192500000Y-80500000D03*
X197000000Y-69000000D03*
X184000000Y-61000000D03*
X208750000Y-87500000D03*
X244000000Y-60500000D03*
X246000000Y-93000000D03*
X247000000Y-60500000D03*
X250000000Y-93000000D03*
X165000000Y-90000000D03*
X203750000Y-85500000D03*
X155000000Y-122500000D03*
X225000000Y-78000000D03*
X194500000Y-80500000D03*
X184000000Y-65000000D03*
X225000000Y-90000000D03*
X234000000Y-75000000D03*
X173250000Y-79500000D03*
X246000000Y-105000000D03*
X242000000Y-57500000D03*
X155000000Y-105000000D03*
X221000000Y-78000000D03*
X192500000Y-85500000D03*
X197000000Y-65000000D03*
X249000000Y-74650500D03*
X228500000Y-94500000D03*
X233500000Y-94500000D03*
X190500000Y-85500000D03*
X160000000Y-122500000D03*
X170000000Y-122500000D03*
X185000000Y-122500000D03*
X251000000Y-83000000D03*
X248000000Y-105000000D03*
X221000000Y-90000000D03*
X178250000Y-79500000D03*
X228500000Y-102500000D03*
X233500000Y-102500000D03*
X200000000Y-122500000D03*
X178250000Y-85500000D03*
X203750000Y-81500000D03*
X208500000Y-79500000D03*
X157000000Y-78000000D03*
X248000000Y-93000000D03*
X220000000Y-122500000D03*
X186500000Y-80500000D03*
X155000000Y-110000000D03*
X165000000Y-78000000D03*
X228500000Y-100500000D03*
X210000000Y-122500000D03*
X217000000Y-78000000D03*
X203750000Y-79500000D03*
X155000000Y-95000000D03*
X251000000Y-85000000D03*
X251000000Y-79000000D03*
X184500000Y-80500000D03*
X184000000Y-69000000D03*
X215000000Y-122500000D03*
X250000000Y-105000000D03*
X194500000Y-85500000D03*
X208750000Y-83500000D03*
X161000000Y-90000000D03*
X234000000Y-80000000D03*
X173250000Y-81500000D03*
X234000000Y-85000000D03*
X230000000Y-85000000D03*
X230000000Y-80000000D03*
X233500000Y-96500000D03*
X197000000Y-61000000D03*
X205000000Y-122500000D03*
X178250000Y-87500000D03*
X155000000Y-120000000D03*
X186500000Y-85500000D03*
X173250000Y-85500000D03*
X195000000Y-122500000D03*
X188500000Y-85500000D03*
X165000000Y-122500000D03*
X208750000Y-85500000D03*
X236000000Y-44000000D03*
X231000000Y-44000000D03*
X173250000Y-83500000D03*
X188500000Y-80500000D03*
X228500000Y-98500000D03*
X233500000Y-98500000D03*
X225000000Y-122500000D03*
X157000000Y-90000000D03*
X249000000Y-79000000D03*
X261000000Y-44000000D03*
X253000000Y-97000000D03*
X250000000Y-60500000D03*
X247000000Y-79000000D03*
X161000000Y-78000000D03*
X228500000Y-104500000D03*
X247000000Y-74650500D03*
X173250000Y-89500000D03*
X253000000Y-60500000D03*
X252000000Y-105000000D03*
X251000000Y-44000000D03*
X173250000Y-87500000D03*
X253000000Y-99000000D03*
X217000000Y-90000000D03*
X246000000Y-44000000D03*
X155000000Y-100000000D03*
X252000000Y-93000000D03*
X230000000Y-75000000D03*
X203750000Y-83500000D03*
X233500000Y-104250000D03*
X178250000Y-81500000D03*
X230000000Y-90000000D03*
X232500000Y-61500000D03*
X190000000Y-122500000D03*
X197000000Y-73000000D03*
X245063688Y-74650500D03*
X233500000Y-100500000D03*
X190500000Y-80500000D03*
X155000000Y-115000000D03*
X175000000Y-122500000D03*
X234000000Y-90000000D03*
X245500000Y-122500000D03*
X203750000Y-87500000D03*
X245000000Y-79000000D03*
X253000000Y-101000000D03*
X251000000Y-122500000D03*
X180000000Y-122500000D03*
X184000000Y-73000000D03*
X178250000Y-83500000D03*
X256000000Y-44000000D03*
X242500000Y-62000000D03*
X264000000Y-82750000D03*
X238500000Y-62000000D03*
X264000000Y-80000000D03*
X194000000Y-44750000D03*
X198000000Y-46000000D03*
X231000000Y-57000000D03*
D21*
X264000000Y-80000000D02*
X264000000Y-82750000D01*
X234500000Y-50500000D02*
X237000000Y-50500000D01*
X234500000Y-51580000D02*
X235380000Y-52460000D01*
X237000000Y-50500000D02*
X248000002Y-50500000D01*
X234500000Y-50500000D02*
X234500000Y-51580000D01*
X226000000Y-53500000D02*
X229000000Y-50500000D01*
X229000000Y-50500000D02*
X234500000Y-50500000D01*
X226000000Y-58000000D02*
X226000000Y-53500000D01*
X237000000Y-50840000D02*
X235380000Y-52460000D01*
X237000000Y-50500000D02*
X237000000Y-50840000D01*
X238500000Y-62000000D02*
X242500000Y-62000000D01*
X237920000Y-55000000D02*
X235920000Y-57000000D01*
X198000000Y-46000000D02*
X195250000Y-46000000D01*
X235920000Y-57000000D02*
X231000000Y-57000000D01*
X195250000Y-46000000D02*
X194000000Y-44750000D01*
G04 #@! TA.AperFunction,Conductor*
G36*
X239466537Y-51314015D02*
G01*
X239510560Y-51351615D01*
X239532715Y-51405102D01*
X239528173Y-51462818D01*
X239497923Y-51512181D01*
X239421508Y-51588595D01*
X239421505Y-51588598D01*
X239421505Y-51588599D01*
X239335099Y-51712001D01*
X239291270Y-51774595D01*
X239246952Y-51813460D01*
X239189695Y-51827471D01*
X239132438Y-51813460D01*
X239088120Y-51774595D01*
X239034925Y-51698626D01*
X239034925Y-51698625D01*
X238273553Y-52460000D01*
X238273553Y-52460001D01*
X239034925Y-53221373D01*
X239088119Y-53145405D01*
X239132437Y-53106539D01*
X239189694Y-53092528D01*
X239246951Y-53106539D01*
X239291267Y-53145402D01*
X239421505Y-53331401D01*
X239588599Y-53498495D01*
X239774160Y-53628426D01*
X239813024Y-53672743D01*
X239827035Y-53730000D01*
X239813024Y-53787257D01*
X239774160Y-53831574D01*
X239631677Y-53931342D01*
X239588595Y-53961508D01*
X239421505Y-54128598D01*
X239291575Y-54314159D01*
X239247257Y-54353025D01*
X239190000Y-54367036D01*
X239132743Y-54353025D01*
X239088425Y-54314159D01*
X238983124Y-54163773D01*
X238958495Y-54128599D01*
X238791401Y-53961505D01*
X238605402Y-53831267D01*
X238566539Y-53786951D01*
X238552528Y-53729694D01*
X238566539Y-53672437D01*
X238605405Y-53628119D01*
X238681373Y-53574925D01*
X237920000Y-52813553D01*
X237158625Y-53574925D01*
X237234594Y-53628119D01*
X237273460Y-53672437D01*
X237287471Y-53729694D01*
X237273461Y-53786950D01*
X237234595Y-53831269D01*
X237048595Y-53961508D01*
X236881505Y-54128598D01*
X236751575Y-54314159D01*
X236707257Y-54353025D01*
X236650000Y-54367036D01*
X236592743Y-54353025D01*
X236548425Y-54314159D01*
X236443124Y-54163773D01*
X236418495Y-54128599D01*
X236251401Y-53961505D01*
X236065839Y-53831573D01*
X236026974Y-53787255D01*
X236012964Y-53729999D01*
X236026975Y-53672742D01*
X236065837Y-53628428D01*
X236251401Y-53498495D01*
X236418495Y-53331401D01*
X236548732Y-53145402D01*
X236593048Y-53106539D01*
X236650305Y-53092528D01*
X236707562Y-53106539D01*
X236751880Y-53145405D01*
X236805073Y-53221373D01*
X238689628Y-51336819D01*
X238729856Y-51309939D01*
X238777309Y-51300500D01*
X239410242Y-51300500D01*
X239466537Y-51314015D01*
G37*
G04 #@! TD.AperFunction*
G04 #@! TA.AperFunction,Conductor*
G36*
X267937500Y-42517113D02*
G01*
X267982887Y-42562500D01*
X267999500Y-42624500D01*
X267999500Y-124374961D01*
X267982798Y-124437115D01*
X267937191Y-124482526D01*
X267874966Y-124498960D01*
X152123966Y-124000035D01*
X152062192Y-123983245D01*
X152017024Y-123937882D01*
X152000500Y-123876036D01*
X152000500Y-123235025D01*
X233118528Y-123235025D01*
X233156843Y-123268628D01*
X233407532Y-123436132D01*
X233677941Y-123569483D01*
X233963438Y-123666396D01*
X234259139Y-123725215D01*
X234560000Y-123744934D01*
X234860860Y-123725215D01*
X235156561Y-123666396D01*
X235442058Y-123569483D01*
X235712467Y-123436132D01*
X235963153Y-123268630D01*
X236001469Y-123235025D01*
X239998528Y-123235025D01*
X240036843Y-123268628D01*
X240287532Y-123436132D01*
X240557941Y-123569483D01*
X240843438Y-123666396D01*
X241139139Y-123725215D01*
X241440000Y-123744934D01*
X241740860Y-123725215D01*
X242036561Y-123666396D01*
X242322058Y-123569483D01*
X242592467Y-123436132D01*
X242843153Y-123268630D01*
X242881469Y-123235025D01*
X255118528Y-123235025D01*
X255156843Y-123268628D01*
X255407532Y-123436132D01*
X255677941Y-123569483D01*
X255963438Y-123666396D01*
X256259139Y-123725215D01*
X256560000Y-123744934D01*
X256860860Y-123725215D01*
X257156561Y-123666396D01*
X257442058Y-123569483D01*
X257712467Y-123436132D01*
X257963153Y-123268630D01*
X258001469Y-123235025D01*
X261998528Y-123235025D01*
X262036843Y-123268628D01*
X262287532Y-123436132D01*
X262557941Y-123569483D01*
X262843438Y-123666396D01*
X263139139Y-123725215D01*
X263440000Y-123744934D01*
X263740860Y-123725215D01*
X264036561Y-123666396D01*
X264322058Y-123569483D01*
X264592467Y-123436132D01*
X264843153Y-123268630D01*
X264881470Y-123235024D01*
X264881470Y-123235023D01*
X263440001Y-121793553D01*
X263440000Y-121793553D01*
X261998528Y-123235024D01*
X261998528Y-123235025D01*
X258001469Y-123235025D01*
X258001470Y-123235024D01*
X258001470Y-123235023D01*
X256560001Y-121793553D01*
X256560000Y-121793553D01*
X255118528Y-123235024D01*
X255118528Y-123235025D01*
X242881469Y-123235025D01*
X242881470Y-123235024D01*
X242881470Y-123235023D01*
X241440001Y-121793553D01*
X241440000Y-121793553D01*
X239998528Y-123235024D01*
X239998528Y-123235025D01*
X236001469Y-123235025D01*
X236001470Y-123235024D01*
X236001470Y-123235023D01*
X234560001Y-121793553D01*
X234560000Y-121793553D01*
X233118528Y-123235024D01*
X233118528Y-123235025D01*
X152000500Y-123235025D01*
X152000500Y-121439999D01*
X232255065Y-121439999D01*
X232274784Y-121740860D01*
X232333603Y-122036561D01*
X232430516Y-122322058D01*
X232563867Y-122592467D01*
X232731371Y-122843156D01*
X232764973Y-122881470D01*
X232764974Y-122881470D01*
X234206446Y-121440001D01*
X234913553Y-121440001D01*
X236355023Y-122881470D01*
X236355024Y-122881470D01*
X236388630Y-122843153D01*
X236556132Y-122592467D01*
X236689483Y-122322058D01*
X236786396Y-122036561D01*
X236845215Y-121740860D01*
X236864934Y-121439999D01*
X239135065Y-121439999D01*
X239154784Y-121740860D01*
X239213603Y-122036561D01*
X239310516Y-122322058D01*
X239443867Y-122592467D01*
X239611371Y-122843156D01*
X239644973Y-122881470D01*
X239644974Y-122881470D01*
X241086446Y-121440001D01*
X241793553Y-121440001D01*
X243235023Y-122881470D01*
X243235024Y-122881470D01*
X243268630Y-122843153D01*
X243436132Y-122592467D01*
X243569483Y-122322058D01*
X243666396Y-122036561D01*
X243725215Y-121740860D01*
X243744934Y-121439999D01*
X254255065Y-121439999D01*
X254274784Y-121740860D01*
X254333603Y-122036561D01*
X254430516Y-122322058D01*
X254563867Y-122592467D01*
X254731371Y-122843156D01*
X254764973Y-122881470D01*
X254764974Y-122881470D01*
X256206446Y-121440001D01*
X256913553Y-121440001D01*
X258355023Y-122881470D01*
X258355024Y-122881470D01*
X258388630Y-122843153D01*
X258556132Y-122592467D01*
X258689483Y-122322058D01*
X258786396Y-122036561D01*
X258845215Y-121740860D01*
X258864934Y-121439999D01*
X261135065Y-121439999D01*
X261154784Y-121740860D01*
X261213603Y-122036561D01*
X261310516Y-122322058D01*
X261443867Y-122592467D01*
X261611371Y-122843156D01*
X261644973Y-122881470D01*
X261644974Y-122881470D01*
X263086446Y-121440001D01*
X263793553Y-121440001D01*
X265235023Y-122881470D01*
X265235024Y-122881470D01*
X265268630Y-122843153D01*
X265436132Y-122592467D01*
X265569483Y-122322058D01*
X265666396Y-122036561D01*
X265725215Y-121740860D01*
X265744934Y-121439999D01*
X265725215Y-121139139D01*
X265666396Y-120843438D01*
X265569483Y-120557942D01*
X265436130Y-120287529D01*
X265268631Y-120036846D01*
X265235025Y-119998528D01*
X265235024Y-119998528D01*
X263793553Y-121440000D01*
X263793553Y-121440001D01*
X263086446Y-121440001D01*
X263086446Y-121439999D01*
X261644974Y-119998527D01*
X261644973Y-119998527D01*
X261611371Y-120036844D01*
X261443867Y-120287533D01*
X261310516Y-120557942D01*
X261213603Y-120843438D01*
X261154784Y-121139139D01*
X261135065Y-121439999D01*
X258864934Y-121439999D01*
X258845215Y-121139139D01*
X258786396Y-120843438D01*
X258689483Y-120557942D01*
X258556130Y-120287529D01*
X258388631Y-120036846D01*
X258355025Y-119998528D01*
X258355024Y-119998528D01*
X256913553Y-121440000D01*
X256913553Y-121440001D01*
X256206446Y-121440001D01*
X256206446Y-121439999D01*
X254764974Y-119998527D01*
X254764973Y-119998527D01*
X254731371Y-120036844D01*
X254563867Y-120287533D01*
X254430516Y-120557942D01*
X254333603Y-120843438D01*
X254274784Y-121139139D01*
X254255065Y-121439999D01*
X243744934Y-121439999D01*
X243725215Y-121139139D01*
X243666396Y-120843438D01*
X243569483Y-120557942D01*
X243436130Y-120287529D01*
X243268631Y-120036846D01*
X243235025Y-119998528D01*
X243235024Y-119998528D01*
X241793553Y-121440000D01*
X241793553Y-121440001D01*
X241086446Y-121440001D01*
X241086446Y-121439999D01*
X239644974Y-119998527D01*
X239644973Y-119998527D01*
X239611371Y-120036844D01*
X239443867Y-120287533D01*
X239310516Y-120557942D01*
X239213603Y-120843438D01*
X239154784Y-121139139D01*
X239135065Y-121439999D01*
X236864934Y-121439999D01*
X236845215Y-121139139D01*
X236786396Y-120843438D01*
X236689483Y-120557942D01*
X236556130Y-120287529D01*
X236388631Y-120036846D01*
X236355025Y-119998528D01*
X236355024Y-119998528D01*
X234913553Y-121440000D01*
X234913553Y-121440001D01*
X234206446Y-121440001D01*
X234206446Y-121439999D01*
X232764974Y-119998527D01*
X232764973Y-119998527D01*
X232731371Y-120036844D01*
X232563867Y-120287533D01*
X232430516Y-120557942D01*
X232333603Y-120843438D01*
X232274784Y-121139139D01*
X232255065Y-121439999D01*
X152000500Y-121439999D01*
X152000500Y-118934701D01*
X157706851Y-118934701D01*
X157939931Y-119123447D01*
X158247593Y-119323246D01*
X158574468Y-119489797D01*
X158916954Y-119621265D01*
X159271316Y-119716216D01*
X159633645Y-119773602D01*
X160000000Y-119792802D01*
X160366354Y-119773602D01*
X160728683Y-119716216D01*
X161083045Y-119621265D01*
X161425531Y-119489797D01*
X161752406Y-119323246D01*
X162060069Y-119123447D01*
X162293148Y-118934702D01*
X162293148Y-118934701D01*
X175994851Y-118934701D01*
X176227931Y-119123447D01*
X176535593Y-119323246D01*
X176862468Y-119489797D01*
X177204954Y-119621265D01*
X177559316Y-119716216D01*
X177921645Y-119773602D01*
X178288000Y-119792802D01*
X178654354Y-119773602D01*
X179016683Y-119716216D01*
X179371045Y-119621265D01*
X179713531Y-119489797D01*
X180040406Y-119323246D01*
X180348069Y-119123447D01*
X180581148Y-118934702D01*
X180581148Y-118934701D01*
X199418851Y-118934701D01*
X199651931Y-119123447D01*
X199959593Y-119323246D01*
X200286468Y-119489797D01*
X200628954Y-119621265D01*
X200983316Y-119716216D01*
X201345645Y-119773602D01*
X201712000Y-119792802D01*
X202078354Y-119773602D01*
X202440683Y-119716216D01*
X202795045Y-119621265D01*
X203137531Y-119489797D01*
X203464406Y-119323246D01*
X203772069Y-119123447D01*
X204005148Y-118934702D01*
X204005148Y-118934701D01*
X217706851Y-118934701D01*
X217939931Y-119123447D01*
X218247593Y-119323246D01*
X218574468Y-119489797D01*
X218916954Y-119621265D01*
X219271316Y-119716216D01*
X219633645Y-119773602D01*
X220000000Y-119792802D01*
X220366354Y-119773602D01*
X220728683Y-119716216D01*
X220994562Y-119644974D01*
X233118527Y-119644974D01*
X234560000Y-121086446D01*
X234560001Y-121086446D01*
X236001470Y-119644974D01*
X239998527Y-119644974D01*
X241440000Y-121086446D01*
X241440001Y-121086446D01*
X242881470Y-119644974D01*
X255118527Y-119644974D01*
X256560000Y-121086446D01*
X256560001Y-121086446D01*
X258001470Y-119644974D01*
X261998527Y-119644974D01*
X263440000Y-121086446D01*
X263440001Y-121086446D01*
X264881470Y-119644974D01*
X264881470Y-119644973D01*
X264843156Y-119611371D01*
X264592467Y-119443867D01*
X264322058Y-119310516D01*
X264036561Y-119213603D01*
X263740860Y-119154784D01*
X263440000Y-119135065D01*
X263139139Y-119154784D01*
X262843438Y-119213603D01*
X262557942Y-119310516D01*
X262287533Y-119443867D01*
X262036844Y-119611371D01*
X261998527Y-119644973D01*
X261998527Y-119644974D01*
X258001470Y-119644974D01*
X258001470Y-119644973D01*
X257963156Y-119611371D01*
X257712467Y-119443867D01*
X257442058Y-119310516D01*
X257156561Y-119213603D01*
X256860860Y-119154784D01*
X256560000Y-119135065D01*
X256259139Y-119154784D01*
X255963438Y-119213603D01*
X255677942Y-119310516D01*
X255407533Y-119443867D01*
X255156844Y-119611371D01*
X255118527Y-119644973D01*
X255118527Y-119644974D01*
X242881470Y-119644974D01*
X242881470Y-119644973D01*
X242843156Y-119611371D01*
X242592467Y-119443867D01*
X242322058Y-119310516D01*
X242036561Y-119213603D01*
X241740860Y-119154784D01*
X241440000Y-119135065D01*
X241139139Y-119154784D01*
X240843438Y-119213603D01*
X240557942Y-119310516D01*
X240287533Y-119443867D01*
X240036844Y-119611371D01*
X239998527Y-119644973D01*
X239998527Y-119644974D01*
X236001470Y-119644974D01*
X236001470Y-119644973D01*
X235963156Y-119611371D01*
X235712467Y-119443867D01*
X235442058Y-119310516D01*
X235156561Y-119213603D01*
X234860860Y-119154784D01*
X234560000Y-119135065D01*
X234259139Y-119154784D01*
X233963438Y-119213603D01*
X233677942Y-119310516D01*
X233407533Y-119443867D01*
X233156844Y-119611371D01*
X233118527Y-119644973D01*
X233118527Y-119644974D01*
X220994562Y-119644974D01*
X221083045Y-119621265D01*
X221425531Y-119489797D01*
X221752406Y-119323246D01*
X222060069Y-119123447D01*
X222184272Y-119022869D01*
X236524500Y-119022869D01*
X236530909Y-119082484D01*
X236550521Y-119135065D01*
X236581204Y-119217331D01*
X236667454Y-119332546D01*
X236782669Y-119418796D01*
X236917517Y-119469091D01*
X236977127Y-119475500D01*
X239022872Y-119475499D01*
X239082483Y-119469091D01*
X239217331Y-119418796D01*
X239332546Y-119332546D01*
X239418796Y-119217331D01*
X239469091Y-119082483D01*
X239475500Y-119022873D01*
X239475500Y-119022869D01*
X258524500Y-119022869D01*
X258530909Y-119082484D01*
X258550521Y-119135065D01*
X258581204Y-119217331D01*
X258667454Y-119332546D01*
X258782669Y-119418796D01*
X258917517Y-119469091D01*
X258977127Y-119475500D01*
X261022872Y-119475499D01*
X261082483Y-119469091D01*
X261217331Y-119418796D01*
X261332546Y-119332546D01*
X261418796Y-119217331D01*
X261469091Y-119082483D01*
X261475500Y-119022873D01*
X261475499Y-116977128D01*
X261469091Y-116917517D01*
X261418796Y-116782669D01*
X261332546Y-116667454D01*
X261217331Y-116581204D01*
X261082483Y-116530909D01*
X261022873Y-116524500D01*
X261022869Y-116524500D01*
X258977130Y-116524500D01*
X258917515Y-116530909D01*
X258782669Y-116581204D01*
X258667454Y-116667454D01*
X258581204Y-116782668D01*
X258530909Y-116917516D01*
X258524500Y-116977130D01*
X258524500Y-119022869D01*
X239475500Y-119022869D01*
X239475499Y-116977128D01*
X239469091Y-116917517D01*
X239418796Y-116782669D01*
X239332546Y-116667454D01*
X239217331Y-116581204D01*
X239082483Y-116530909D01*
X239022873Y-116524500D01*
X239022869Y-116524500D01*
X236977130Y-116524500D01*
X236917515Y-116530909D01*
X236782669Y-116581204D01*
X236667454Y-116667454D01*
X236581204Y-116782668D01*
X236530909Y-116917516D01*
X236524500Y-116977130D01*
X236524500Y-119022869D01*
X222184272Y-119022869D01*
X222293148Y-118934702D01*
X222293148Y-118934701D01*
X220000001Y-116641553D01*
X220000000Y-116641553D01*
X217706851Y-118934701D01*
X204005148Y-118934701D01*
X201712001Y-116641553D01*
X201712000Y-116641553D01*
X199418851Y-118934701D01*
X180581148Y-118934701D01*
X178288001Y-116641553D01*
X178288000Y-116641553D01*
X175994851Y-118934701D01*
X162293148Y-118934701D01*
X160000001Y-116641553D01*
X160000000Y-116641553D01*
X157706851Y-118934701D01*
X152000500Y-118934701D01*
X152000500Y-116288000D01*
X156495197Y-116288000D01*
X156514397Y-116654354D01*
X156571783Y-117016683D01*
X156666734Y-117371045D01*
X156798202Y-117713531D01*
X156964753Y-118040406D01*
X157164552Y-118348068D01*
X157353297Y-118581147D01*
X159646445Y-116288001D01*
X160353553Y-116288001D01*
X162646701Y-118581148D01*
X162646702Y-118581148D01*
X162835447Y-118348069D01*
X163035246Y-118040406D01*
X163201797Y-117713531D01*
X163333265Y-117371045D01*
X163428216Y-117016683D01*
X163485602Y-116654354D01*
X163504802Y-116288000D01*
X174783197Y-116288000D01*
X174802397Y-116654354D01*
X174859783Y-117016683D01*
X174954734Y-117371045D01*
X175086202Y-117713531D01*
X175252753Y-118040406D01*
X175452552Y-118348068D01*
X175641297Y-118581147D01*
X177934445Y-116288001D01*
X178641553Y-116288001D01*
X180934701Y-118581148D01*
X180934702Y-118581148D01*
X181123447Y-118348069D01*
X181323246Y-118040406D01*
X181489797Y-117713531D01*
X181621265Y-117371045D01*
X181716216Y-117016683D01*
X181773602Y-116654354D01*
X181792802Y-116288000D01*
X198207197Y-116288000D01*
X198226397Y-116654354D01*
X198283783Y-117016683D01*
X198378734Y-117371045D01*
X198510202Y-117713531D01*
X198676753Y-118040406D01*
X198876552Y-118348068D01*
X199065297Y-118581147D01*
X201358446Y-116288001D01*
X202065553Y-116288001D01*
X204358701Y-118581148D01*
X204358702Y-118581148D01*
X204547447Y-118348069D01*
X204747246Y-118040406D01*
X204913797Y-117713531D01*
X205045265Y-117371045D01*
X205140216Y-117016683D01*
X205197602Y-116654354D01*
X205216802Y-116288000D01*
X216495197Y-116288000D01*
X216514397Y-116654354D01*
X216571783Y-117016683D01*
X216666734Y-117371045D01*
X216798202Y-117713531D01*
X216964753Y-118040406D01*
X217164552Y-118348068D01*
X217353297Y-118581147D01*
X219646446Y-116288001D01*
X220353553Y-116288001D01*
X222646701Y-118581148D01*
X222646702Y-118581148D01*
X222835447Y-118348069D01*
X223035246Y-118040406D01*
X223201797Y-117713531D01*
X223333265Y-117371045D01*
X223428216Y-117016683D01*
X223485602Y-116654354D01*
X223501289Y-116355025D01*
X233118528Y-116355025D01*
X233156843Y-116388628D01*
X233407532Y-116556132D01*
X233677941Y-116689483D01*
X233963438Y-116786396D01*
X234259139Y-116845215D01*
X234560000Y-116864934D01*
X234860860Y-116845215D01*
X235156561Y-116786396D01*
X235442058Y-116689483D01*
X235712467Y-116556132D01*
X235963153Y-116388630D01*
X236001469Y-116355025D01*
X239998528Y-116355025D01*
X240036843Y-116388628D01*
X240287532Y-116556132D01*
X240557941Y-116689483D01*
X240843438Y-116786396D01*
X241139139Y-116845215D01*
X241440000Y-116864934D01*
X241740860Y-116845215D01*
X242036561Y-116786396D01*
X242322058Y-116689483D01*
X242592467Y-116556132D01*
X242843153Y-116388630D01*
X242881469Y-116355025D01*
X255118528Y-116355025D01*
X255156843Y-116388628D01*
X255407532Y-116556132D01*
X255677941Y-116689483D01*
X255963438Y-116786396D01*
X256259139Y-116845215D01*
X256560000Y-116864934D01*
X256860860Y-116845215D01*
X257156561Y-116786396D01*
X257442058Y-116689483D01*
X257712467Y-116556132D01*
X257963153Y-116388630D01*
X258001469Y-116355025D01*
X261998528Y-116355025D01*
X262036843Y-116388628D01*
X262287532Y-116556132D01*
X262557941Y-116689483D01*
X262843438Y-116786396D01*
X263139139Y-116845215D01*
X263440000Y-116864934D01*
X263740860Y-116845215D01*
X264036561Y-116786396D01*
X264322058Y-116689483D01*
X264592467Y-116556132D01*
X264843153Y-116388630D01*
X264881470Y-116355024D01*
X264881470Y-116355023D01*
X263440001Y-114913553D01*
X263440000Y-114913553D01*
X261998528Y-116355024D01*
X261998528Y-116355025D01*
X258001469Y-116355025D01*
X258001470Y-116355024D01*
X258001470Y-116355023D01*
X256560001Y-114913553D01*
X256560000Y-114913553D01*
X255118528Y-116355024D01*
X255118528Y-116355025D01*
X242881469Y-116355025D01*
X242881470Y-116355024D01*
X242881470Y-116355023D01*
X241440001Y-114913553D01*
X241440000Y-114913553D01*
X239998528Y-116355024D01*
X239998528Y-116355025D01*
X236001469Y-116355025D01*
X236001470Y-116355024D01*
X236001470Y-116355023D01*
X234560001Y-114913553D01*
X234560000Y-114913553D01*
X233118528Y-116355024D01*
X233118528Y-116355025D01*
X223501289Y-116355025D01*
X223504802Y-116288000D01*
X223485602Y-115921645D01*
X223428216Y-115559316D01*
X223333265Y-115204954D01*
X223201797Y-114862468D01*
X223047681Y-114559999D01*
X232255065Y-114559999D01*
X232274784Y-114860860D01*
X232333603Y-115156561D01*
X232430516Y-115442058D01*
X232563867Y-115712467D01*
X232731371Y-115963156D01*
X232764973Y-116001470D01*
X232764974Y-116001470D01*
X234206446Y-114560001D01*
X234913553Y-114560001D01*
X236355023Y-116001470D01*
X236355024Y-116001470D01*
X236388630Y-115963153D01*
X236556132Y-115712467D01*
X236689483Y-115442058D01*
X236786396Y-115156561D01*
X236845215Y-114860860D01*
X236864934Y-114559999D01*
X239135065Y-114559999D01*
X239154784Y-114860860D01*
X239213603Y-115156561D01*
X239310516Y-115442058D01*
X239443867Y-115712467D01*
X239611371Y-115963156D01*
X239644973Y-116001470D01*
X239644974Y-116001470D01*
X241086446Y-114560001D01*
X241793553Y-114560001D01*
X243235023Y-116001470D01*
X243235024Y-116001470D01*
X243268630Y-115963153D01*
X243436132Y-115712467D01*
X243569483Y-115442058D01*
X243666396Y-115156561D01*
X243725215Y-114860860D01*
X243744934Y-114559999D01*
X254255065Y-114559999D01*
X254274784Y-114860860D01*
X254333603Y-115156561D01*
X254430516Y-115442058D01*
X254563867Y-115712467D01*
X254731371Y-115963156D01*
X254764973Y-116001470D01*
X254764974Y-116001470D01*
X256206446Y-114560001D01*
X256913553Y-114560001D01*
X258355023Y-116001470D01*
X258355024Y-116001470D01*
X258388630Y-115963153D01*
X258556132Y-115712467D01*
X258689483Y-115442058D01*
X258786396Y-115156561D01*
X258845215Y-114860860D01*
X258864934Y-114559999D01*
X261135065Y-114559999D01*
X261154784Y-114860860D01*
X261213603Y-115156561D01*
X261310516Y-115442058D01*
X261443867Y-115712467D01*
X261611371Y-115963156D01*
X261644973Y-116001470D01*
X261644974Y-116001470D01*
X263086446Y-114560001D01*
X263793553Y-114560001D01*
X265235023Y-116001470D01*
X265235024Y-116001470D01*
X265268630Y-115963153D01*
X265436132Y-115712467D01*
X265569483Y-115442058D01*
X265666396Y-115156561D01*
X265725215Y-114860860D01*
X265744934Y-114559999D01*
X265725215Y-114259139D01*
X265666396Y-113963438D01*
X265569483Y-113677942D01*
X265436130Y-113407529D01*
X265268631Y-113156846D01*
X265235025Y-113118528D01*
X265235024Y-113118528D01*
X263793553Y-114560000D01*
X263793553Y-114560001D01*
X263086446Y-114560001D01*
X263086446Y-114559999D01*
X261644974Y-113118527D01*
X261644973Y-113118527D01*
X261611371Y-113156844D01*
X261443867Y-113407533D01*
X261310516Y-113677942D01*
X261213603Y-113963438D01*
X261154784Y-114259139D01*
X261135065Y-114559999D01*
X258864934Y-114559999D01*
X258845215Y-114259139D01*
X258786396Y-113963438D01*
X258689483Y-113677942D01*
X258556130Y-113407529D01*
X258388631Y-113156846D01*
X258355025Y-113118528D01*
X258355024Y-113118528D01*
X256913553Y-114560000D01*
X256913553Y-114560001D01*
X256206446Y-114560001D01*
X256206446Y-114559999D01*
X254764974Y-113118527D01*
X254764973Y-113118527D01*
X254731371Y-113156844D01*
X254563867Y-113407533D01*
X254430516Y-113677942D01*
X254333603Y-113963438D01*
X254274784Y-114259139D01*
X254255065Y-114559999D01*
X243744934Y-114559999D01*
X243725215Y-114259139D01*
X243666396Y-113963438D01*
X243569483Y-113677942D01*
X243436130Y-113407529D01*
X243268631Y-113156846D01*
X243235025Y-113118528D01*
X243235024Y-113118528D01*
X241793553Y-114560000D01*
X241793553Y-114560001D01*
X241086446Y-114560001D01*
X241086446Y-114559999D01*
X239644974Y-113118527D01*
X239644973Y-113118527D01*
X239611371Y-113156844D01*
X239443867Y-113407533D01*
X239310516Y-113677942D01*
X239213603Y-113963438D01*
X239154784Y-114259139D01*
X239135065Y-114559999D01*
X236864934Y-114559999D01*
X236845215Y-114259139D01*
X236786396Y-113963438D01*
X236689483Y-113677942D01*
X236556130Y-113407529D01*
X236388631Y-113156846D01*
X236355025Y-113118528D01*
X236355024Y-113118528D01*
X234913553Y-114560000D01*
X234913553Y-114560001D01*
X234206446Y-114560001D01*
X234206446Y-114559999D01*
X232764974Y-113118527D01*
X232764973Y-113118527D01*
X232731371Y-113156844D01*
X232563867Y-113407533D01*
X232430516Y-113677942D01*
X232333603Y-113963438D01*
X232274784Y-114259139D01*
X232255065Y-114559999D01*
X223047681Y-114559999D01*
X223035246Y-114535594D01*
X222835447Y-114227931D01*
X222646701Y-113994851D01*
X220353553Y-116288000D01*
X220353553Y-116288001D01*
X219646446Y-116288001D01*
X219646446Y-116288000D01*
X217353297Y-113994851D01*
X217164552Y-114227931D01*
X216964753Y-114535594D01*
X216798202Y-114862468D01*
X216666734Y-115204954D01*
X216571783Y-115559316D01*
X216514397Y-115921645D01*
X216495197Y-116288000D01*
X205216802Y-116288000D01*
X205197602Y-115921645D01*
X205140216Y-115559316D01*
X205045265Y-115204954D01*
X204913797Y-114862468D01*
X204747246Y-114535594D01*
X204547447Y-114227931D01*
X204358701Y-113994851D01*
X202065553Y-116288000D01*
X202065553Y-116288001D01*
X201358446Y-116288001D01*
X201358446Y-116288000D01*
X199065297Y-113994851D01*
X198876552Y-114227931D01*
X198676753Y-114535594D01*
X198510202Y-114862468D01*
X198378734Y-115204954D01*
X198283783Y-115559316D01*
X198226397Y-115921645D01*
X198207197Y-116288000D01*
X181792802Y-116288000D01*
X181773602Y-115921645D01*
X181716216Y-115559316D01*
X181621265Y-115204954D01*
X181489797Y-114862468D01*
X181323246Y-114535594D01*
X181123447Y-114227931D01*
X180934701Y-113994851D01*
X178641553Y-116288000D01*
X178641553Y-116288001D01*
X177934445Y-116288001D01*
X177934446Y-116288000D01*
X175641297Y-113994851D01*
X175452552Y-114227931D01*
X175252753Y-114535594D01*
X175086202Y-114862468D01*
X174954734Y-115204954D01*
X174859783Y-115559316D01*
X174802397Y-115921645D01*
X174783197Y-116288000D01*
X163504802Y-116288000D01*
X163485602Y-115921645D01*
X163428216Y-115559316D01*
X163333265Y-115204954D01*
X163201797Y-114862468D01*
X163035246Y-114535594D01*
X162835447Y-114227931D01*
X162646701Y-113994851D01*
X160353553Y-116288000D01*
X160353553Y-116288001D01*
X159646445Y-116288001D01*
X159646446Y-116288000D01*
X157353297Y-113994851D01*
X157164552Y-114227931D01*
X156964753Y-114535594D01*
X156798202Y-114862468D01*
X156666734Y-115204954D01*
X156571783Y-115559316D01*
X156514397Y-115921645D01*
X156495197Y-116288000D01*
X152000500Y-116288000D01*
X152000500Y-113641297D01*
X157706851Y-113641297D01*
X160000000Y-115934446D01*
X160000001Y-115934446D01*
X162293148Y-113641297D01*
X175994851Y-113641297D01*
X178288000Y-115934446D01*
X178288001Y-115934446D01*
X180581148Y-113641297D01*
X199418851Y-113641297D01*
X201712000Y-115934446D01*
X201712001Y-115934446D01*
X204005148Y-113641297D01*
X217706851Y-113641297D01*
X220000000Y-115934446D01*
X220000001Y-115934446D01*
X222293148Y-113641297D01*
X222060068Y-113452552D01*
X221752406Y-113252753D01*
X221425531Y-113086202D01*
X221083045Y-112954734D01*
X220728683Y-112859783D01*
X220366354Y-112802397D01*
X220000000Y-112783197D01*
X219633645Y-112802397D01*
X219271316Y-112859783D01*
X218916954Y-112954734D01*
X218574468Y-113086202D01*
X218247594Y-113252753D01*
X217939931Y-113452552D01*
X217706851Y-113641297D01*
X204005148Y-113641297D01*
X203772068Y-113452552D01*
X203464406Y-113252753D01*
X203137531Y-113086202D01*
X202795045Y-112954734D01*
X202440683Y-112859783D01*
X202078354Y-112802397D01*
X201712000Y-112783197D01*
X201345645Y-112802397D01*
X200983316Y-112859783D01*
X200628954Y-112954734D01*
X200286468Y-113086202D01*
X199959594Y-113252753D01*
X199651931Y-113452552D01*
X199418851Y-113641297D01*
X180581148Y-113641297D01*
X180348068Y-113452552D01*
X180040406Y-113252753D01*
X179713531Y-113086202D01*
X179371045Y-112954734D01*
X179016683Y-112859783D01*
X178654354Y-112802397D01*
X178288000Y-112783197D01*
X177921645Y-112802397D01*
X177559316Y-112859783D01*
X177204954Y-112954734D01*
X176862468Y-113086202D01*
X176535594Y-113252753D01*
X176227931Y-113452552D01*
X175994851Y-113641297D01*
X162293148Y-113641297D01*
X162060068Y-113452552D01*
X161752406Y-113252753D01*
X161425531Y-113086202D01*
X161083045Y-112954734D01*
X160728683Y-112859783D01*
X160366354Y-112802397D01*
X160000000Y-112783197D01*
X159633645Y-112802397D01*
X159271316Y-112859783D01*
X158916954Y-112954734D01*
X158574468Y-113086202D01*
X158247594Y-113252753D01*
X157939931Y-113452552D01*
X157706851Y-113641297D01*
X152000500Y-113641297D01*
X152000500Y-112764974D01*
X233118527Y-112764974D01*
X234560000Y-114206446D01*
X234560001Y-114206446D01*
X236001470Y-112764974D01*
X239998527Y-112764974D01*
X241440000Y-114206446D01*
X241440001Y-114206446D01*
X242881470Y-112764974D01*
X255118527Y-112764974D01*
X256560000Y-114206446D01*
X256560001Y-114206446D01*
X258001470Y-112764974D01*
X261998527Y-112764974D01*
X263440000Y-114206446D01*
X263440001Y-114206446D01*
X264881470Y-112764974D01*
X264881470Y-112764973D01*
X264843156Y-112731371D01*
X264592467Y-112563867D01*
X264322058Y-112430516D01*
X264036561Y-112333603D01*
X263740860Y-112274784D01*
X263440000Y-112255065D01*
X263139139Y-112274784D01*
X262843438Y-112333603D01*
X262557942Y-112430516D01*
X262287533Y-112563867D01*
X262036844Y-112731371D01*
X261998527Y-112764973D01*
X261998527Y-112764974D01*
X258001470Y-112764974D01*
X258001470Y-112764973D01*
X257963156Y-112731371D01*
X257712467Y-112563867D01*
X257442058Y-112430516D01*
X257156561Y-112333603D01*
X256860860Y-112274784D01*
X256560000Y-112255065D01*
X256259139Y-112274784D01*
X255963438Y-112333603D01*
X255677942Y-112430516D01*
X255407533Y-112563867D01*
X255156844Y-112731371D01*
X255118527Y-112764973D01*
X255118527Y-112764974D01*
X242881470Y-112764974D01*
X242881470Y-112764973D01*
X242843156Y-112731371D01*
X242592467Y-112563867D01*
X242322058Y-112430516D01*
X242036561Y-112333603D01*
X241740860Y-112274784D01*
X241440000Y-112255065D01*
X241139139Y-112274784D01*
X240843438Y-112333603D01*
X240557942Y-112430516D01*
X240287533Y-112563867D01*
X240036844Y-112731371D01*
X239998527Y-112764973D01*
X239998527Y-112764974D01*
X236001470Y-112764974D01*
X236001470Y-112764973D01*
X235963156Y-112731371D01*
X235712467Y-112563867D01*
X235442058Y-112430516D01*
X235156561Y-112333603D01*
X234860860Y-112274784D01*
X234560000Y-112255065D01*
X234259139Y-112274784D01*
X233963438Y-112333603D01*
X233677942Y-112430516D01*
X233407533Y-112563867D01*
X233156844Y-112731371D01*
X233118527Y-112764973D01*
X233118527Y-112764974D01*
X152000500Y-112764974D01*
X152000500Y-111795025D01*
X185118528Y-111795025D01*
X185156843Y-111828628D01*
X185407532Y-111996132D01*
X185677941Y-112129483D01*
X185963438Y-112226396D01*
X186259139Y-112285215D01*
X186560000Y-112304934D01*
X186860860Y-112285215D01*
X187156561Y-112226396D01*
X187442058Y-112129483D01*
X187712467Y-111996132D01*
X187963153Y-111828630D01*
X188001469Y-111795025D01*
X191998528Y-111795025D01*
X192036843Y-111828628D01*
X192287532Y-111996132D01*
X192557941Y-112129483D01*
X192843438Y-112226396D01*
X193139139Y-112285215D01*
X193440000Y-112304934D01*
X193740860Y-112285215D01*
X194036561Y-112226396D01*
X194322058Y-112129483D01*
X194592467Y-111996132D01*
X194843153Y-111828630D01*
X194881470Y-111795024D01*
X194881470Y-111795023D01*
X193440001Y-110353553D01*
X193440000Y-110353553D01*
X191998528Y-111795024D01*
X191998528Y-111795025D01*
X188001469Y-111795025D01*
X188001470Y-111795024D01*
X188001470Y-111795023D01*
X186560001Y-110353553D01*
X186560000Y-110353553D01*
X185118528Y-111795024D01*
X185118528Y-111795025D01*
X152000500Y-111795025D01*
X152000500Y-107095999D01*
X165530696Y-107095999D01*
X165549897Y-107462406D01*
X165607293Y-107824788D01*
X165702258Y-108179200D01*
X165833744Y-108521735D01*
X166000320Y-108848656D01*
X166200146Y-109156363D01*
X166315600Y-109298936D01*
X166431051Y-109441506D01*
X166690494Y-109700949D01*
X166880587Y-109854883D01*
X166975636Y-109931853D01*
X167283343Y-110131679D01*
X167283348Y-110131682D01*
X167610264Y-110298255D01*
X167952801Y-110429742D01*
X168307206Y-110524705D01*
X168307209Y-110524705D01*
X168307211Y-110524706D01*
X168669593Y-110582102D01*
X168719373Y-110584710D01*
X169036000Y-110601304D01*
X169367645Y-110583923D01*
X169402406Y-110582102D01*
X169764788Y-110524706D01*
X169764788Y-110524705D01*
X169764794Y-110524705D01*
X170119199Y-110429742D01*
X170461736Y-110298255D01*
X170788652Y-110131682D01*
X170991427Y-109999999D01*
X184255065Y-109999999D01*
X184274784Y-110300860D01*
X184333603Y-110596561D01*
X184430516Y-110882058D01*
X184563867Y-111152467D01*
X184731371Y-111403156D01*
X184764973Y-111441470D01*
X184764974Y-111441470D01*
X186206446Y-110000000D01*
X186913553Y-110000000D01*
X188355023Y-111441470D01*
X188355024Y-111441470D01*
X188388630Y-111403153D01*
X188556132Y-111152467D01*
X188689483Y-110882058D01*
X188786396Y-110596561D01*
X188845215Y-110300860D01*
X188864934Y-109999999D01*
X191135065Y-109999999D01*
X191154784Y-110300860D01*
X191213603Y-110596561D01*
X191310516Y-110882058D01*
X191443867Y-111152467D01*
X191611371Y-111403156D01*
X191644973Y-111441470D01*
X191644974Y-111441470D01*
X193086444Y-110000001D01*
X193793553Y-110000001D01*
X195235023Y-111441470D01*
X195235024Y-111441470D01*
X195268630Y-111403153D01*
X195436132Y-111152467D01*
X195569483Y-110882058D01*
X195666396Y-110596561D01*
X195725215Y-110300860D01*
X195744934Y-109999999D01*
X195725215Y-109699139D01*
X195666396Y-109403438D01*
X195569483Y-109117942D01*
X195436130Y-108847529D01*
X195268631Y-108596846D01*
X195235025Y-108558528D01*
X195235024Y-108558528D01*
X193793553Y-110000000D01*
X193793553Y-110000001D01*
X193086444Y-110000001D01*
X193086446Y-109999999D01*
X191644974Y-108558527D01*
X191644973Y-108558527D01*
X191611371Y-108596844D01*
X191443867Y-108847533D01*
X191310516Y-109117942D01*
X191213603Y-109403438D01*
X191154784Y-109699139D01*
X191135065Y-109999999D01*
X188864934Y-109999999D01*
X188845215Y-109699139D01*
X188786396Y-109403438D01*
X188689483Y-109117942D01*
X188556130Y-108847529D01*
X188388631Y-108596846D01*
X188355025Y-108558528D01*
X188355024Y-108558528D01*
X186913553Y-110000000D01*
X186206446Y-110000000D01*
X186206446Y-109999998D01*
X184764974Y-108558527D01*
X184764973Y-108558527D01*
X184731371Y-108596844D01*
X184563867Y-108847533D01*
X184430516Y-109117942D01*
X184333603Y-109403438D01*
X184274784Y-109699139D01*
X184255065Y-109999999D01*
X170991427Y-109999999D01*
X171096366Y-109931851D01*
X171381506Y-109700949D01*
X171640949Y-109441506D01*
X171871851Y-109156366D01*
X172071682Y-108848652D01*
X172238255Y-108521736D01*
X172359848Y-108204974D01*
X185118527Y-108204974D01*
X186560000Y-109646446D01*
X186560001Y-109646446D01*
X188001470Y-108204974D01*
X191998527Y-108204974D01*
X193440000Y-109646446D01*
X193440001Y-109646446D01*
X194881470Y-108204974D01*
X194881470Y-108204973D01*
X194843156Y-108171371D01*
X194592467Y-108003867D01*
X194322058Y-107870516D01*
X194036561Y-107773603D01*
X193740860Y-107714784D01*
X193440000Y-107695065D01*
X193139139Y-107714784D01*
X192843438Y-107773603D01*
X192557942Y-107870516D01*
X192287533Y-108003867D01*
X192036844Y-108171371D01*
X191998527Y-108204973D01*
X191998527Y-108204974D01*
X188001470Y-108204974D01*
X188001470Y-108204973D01*
X187963156Y-108171371D01*
X187712467Y-108003867D01*
X187442058Y-107870516D01*
X187156561Y-107773603D01*
X186860860Y-107714784D01*
X186560000Y-107695065D01*
X186259139Y-107714784D01*
X185963438Y-107773603D01*
X185677942Y-107870516D01*
X185407533Y-108003867D01*
X185156844Y-108171371D01*
X185118527Y-108204973D01*
X185118527Y-108204974D01*
X172359848Y-108204974D01*
X172369742Y-108179199D01*
X172464705Y-107824794D01*
X172503022Y-107582869D01*
X188524500Y-107582869D01*
X188530909Y-107642483D01*
X188581204Y-107777331D01*
X188667454Y-107892546D01*
X188782669Y-107978796D01*
X188917517Y-108029091D01*
X188977127Y-108035500D01*
X191022872Y-108035499D01*
X191082483Y-108029091D01*
X191217331Y-107978796D01*
X191332546Y-107892546D01*
X191418796Y-107777331D01*
X191469091Y-107642483D01*
X191475500Y-107582873D01*
X191475500Y-107095999D01*
X207242696Y-107095999D01*
X207261897Y-107462406D01*
X207319293Y-107824788D01*
X207414258Y-108179200D01*
X207545744Y-108521735D01*
X207712320Y-108848656D01*
X207912146Y-109156363D01*
X208027600Y-109298936D01*
X208143051Y-109441506D01*
X208402494Y-109700949D01*
X208592587Y-109854883D01*
X208687636Y-109931853D01*
X208995343Y-110131679D01*
X208995348Y-110131682D01*
X209322264Y-110298255D01*
X209664801Y-110429742D01*
X210019206Y-110524705D01*
X210019209Y-110524705D01*
X210019211Y-110524706D01*
X210381593Y-110582102D01*
X210431373Y-110584710D01*
X210748000Y-110601304D01*
X211079645Y-110583923D01*
X211114406Y-110582102D01*
X211476788Y-110524706D01*
X211476788Y-110524705D01*
X211476794Y-110524705D01*
X211831199Y-110429742D01*
X212173736Y-110298255D01*
X212500652Y-110131682D01*
X212808366Y-109931851D01*
X213093506Y-109700949D01*
X213352949Y-109441506D01*
X213583851Y-109156366D01*
X213783682Y-108848652D01*
X213950255Y-108521736D01*
X214081742Y-108179199D01*
X214176705Y-107824794D01*
X214234102Y-107462404D01*
X214253304Y-107096000D01*
X214234102Y-106729596D01*
X214176705Y-106367206D01*
X214081742Y-106012801D01*
X213950255Y-105670264D01*
X213783682Y-105343348D01*
X213783241Y-105342669D01*
X213583853Y-105035636D01*
X213486182Y-104915023D01*
X213352949Y-104750494D01*
X213093506Y-104491051D01*
X212950936Y-104375600D01*
X212808363Y-104260146D01*
X212500656Y-104060320D01*
X212173735Y-103893744D01*
X211831200Y-103762258D01*
X211476788Y-103667293D01*
X211114406Y-103609897D01*
X210764592Y-103591565D01*
X210748000Y-103590696D01*
X210747999Y-103590696D01*
X210381593Y-103609897D01*
X210019211Y-103667293D01*
X209664799Y-103762258D01*
X209322264Y-103893744D01*
X208995343Y-104060320D01*
X208687636Y-104260146D01*
X208402490Y-104491054D01*
X208143054Y-104750490D01*
X207912146Y-105035636D01*
X207712320Y-105343343D01*
X207545744Y-105670264D01*
X207414258Y-106012799D01*
X207319293Y-106367211D01*
X207261897Y-106729593D01*
X207242696Y-107095999D01*
X191475500Y-107095999D01*
X191475499Y-105537128D01*
X191469091Y-105477517D01*
X191418796Y-105342669D01*
X191332546Y-105227454D01*
X191217331Y-105141204D01*
X191082483Y-105090909D01*
X191022873Y-105084500D01*
X191022869Y-105084500D01*
X188977130Y-105084500D01*
X188917515Y-105090909D01*
X188782669Y-105141204D01*
X188667454Y-105227454D01*
X188581204Y-105342668D01*
X188530909Y-105477516D01*
X188524500Y-105537130D01*
X188524500Y-107582869D01*
X172503022Y-107582869D01*
X172522102Y-107462404D01*
X172541304Y-107096000D01*
X172522102Y-106729596D01*
X172464705Y-106367206D01*
X172369742Y-106012801D01*
X172238255Y-105670264D01*
X172071682Y-105343348D01*
X172071241Y-105342669D01*
X171871853Y-105035636D01*
X171774184Y-104915025D01*
X185118528Y-104915025D01*
X185156843Y-104948628D01*
X185407532Y-105116132D01*
X185677941Y-105249483D01*
X185963438Y-105346396D01*
X186259139Y-105405215D01*
X186560000Y-105424934D01*
X186860860Y-105405215D01*
X187156561Y-105346396D01*
X187442058Y-105249483D01*
X187712467Y-105116132D01*
X187963153Y-104948630D01*
X188001469Y-104915025D01*
X191998528Y-104915025D01*
X192036843Y-104948628D01*
X192287532Y-105116132D01*
X192557941Y-105249483D01*
X192843438Y-105346396D01*
X193139139Y-105405215D01*
X193440000Y-105424934D01*
X193740860Y-105405215D01*
X194036561Y-105346396D01*
X194322058Y-105249483D01*
X194592467Y-105116132D01*
X194843153Y-104948630D01*
X194881470Y-104915024D01*
X194881470Y-104915023D01*
X193440001Y-103473553D01*
X193440000Y-103473553D01*
X191998528Y-104915024D01*
X191998528Y-104915025D01*
X188001469Y-104915025D01*
X188001470Y-104915024D01*
X188001470Y-104915023D01*
X186560001Y-103473553D01*
X186560000Y-103473553D01*
X185118528Y-104915024D01*
X185118528Y-104915025D01*
X171774184Y-104915025D01*
X171774182Y-104915023D01*
X171640949Y-104750494D01*
X171381506Y-104491051D01*
X171238936Y-104375600D01*
X171096363Y-104260146D01*
X170788656Y-104060320D01*
X170461735Y-103893744D01*
X170119200Y-103762258D01*
X169764788Y-103667293D01*
X169402406Y-103609897D01*
X169036000Y-103590696D01*
X168669593Y-103609897D01*
X168307211Y-103667293D01*
X167952799Y-103762258D01*
X167610264Y-103893744D01*
X167283343Y-104060320D01*
X166975636Y-104260146D01*
X166690490Y-104491054D01*
X166431054Y-104750490D01*
X166200146Y-105035636D01*
X166000320Y-105343343D01*
X165833744Y-105670264D01*
X165702258Y-106012799D01*
X165607293Y-106367211D01*
X165549897Y-106729593D01*
X165530696Y-107095999D01*
X152000500Y-107095999D01*
X152000500Y-103119999D01*
X184255065Y-103119999D01*
X184274784Y-103420860D01*
X184333603Y-103716561D01*
X184430516Y-104002058D01*
X184563867Y-104272467D01*
X184731371Y-104523156D01*
X184764973Y-104561470D01*
X184764974Y-104561470D01*
X186206446Y-103120001D01*
X186206446Y-103120000D01*
X186913553Y-103120000D01*
X188355023Y-104561470D01*
X188355024Y-104561470D01*
X188388630Y-104523153D01*
X188556132Y-104272467D01*
X188689483Y-104002058D01*
X188786396Y-103716561D01*
X188845215Y-103420860D01*
X188864934Y-103119999D01*
X191135065Y-103119999D01*
X191154784Y-103420860D01*
X191213603Y-103716561D01*
X191310516Y-104002058D01*
X191443867Y-104272467D01*
X191611371Y-104523156D01*
X191644973Y-104561470D01*
X191644974Y-104561470D01*
X193086446Y-103120001D01*
X193793553Y-103120001D01*
X195235023Y-104561470D01*
X195235024Y-104561470D01*
X195268630Y-104523153D01*
X195436132Y-104272467D01*
X195569483Y-104002058D01*
X195666396Y-103716561D01*
X195725215Y-103420860D01*
X195744934Y-103119999D01*
X195725215Y-102819139D01*
X195711462Y-102750000D01*
X224592992Y-102750000D01*
X224612182Y-102981581D01*
X224612182Y-102981584D01*
X224612183Y-102981586D01*
X224669228Y-103206854D01*
X224762574Y-103419661D01*
X224889674Y-103614201D01*
X225047060Y-103785168D01*
X225230440Y-103927898D01*
X225434811Y-104038499D01*
X225654599Y-104113952D01*
X225883809Y-104152200D01*
X226116189Y-104152200D01*
X226345399Y-104113952D01*
X226565187Y-104038499D01*
X226769558Y-103927898D01*
X226952938Y-103785168D01*
X227110324Y-103614201D01*
X227237424Y-103419661D01*
X227330770Y-103206854D01*
X227387815Y-102981586D01*
X227407005Y-102750000D01*
X229592992Y-102750000D01*
X229612182Y-102981581D01*
X229612182Y-102981584D01*
X229612183Y-102981586D01*
X229669228Y-103206854D01*
X229762574Y-103419661D01*
X229889674Y-103614201D01*
X230047060Y-103785168D01*
X230230440Y-103927898D01*
X230434811Y-104038499D01*
X230654599Y-104113952D01*
X230883809Y-104152200D01*
X231116189Y-104152200D01*
X231345399Y-104113952D01*
X231565187Y-104038499D01*
X231769558Y-103927898D01*
X231952938Y-103785168D01*
X232110324Y-103614201D01*
X232237424Y-103419661D01*
X232330770Y-103206854D01*
X232387815Y-102981586D01*
X232407005Y-102750000D01*
X234592993Y-102750000D01*
X234612183Y-102981581D01*
X234612183Y-102981584D01*
X234612184Y-102981586D01*
X234669229Y-103206854D01*
X234762575Y-103419661D01*
X234889675Y-103614201D01*
X235047061Y-103785168D01*
X235230441Y-103927898D01*
X235434812Y-104038499D01*
X235654600Y-104113952D01*
X235883810Y-104152200D01*
X236116190Y-104152200D01*
X236345400Y-104113952D01*
X236565188Y-104038499D01*
X236769559Y-103927898D01*
X236952939Y-103785168D01*
X237110325Y-103614201D01*
X237237425Y-103419661D01*
X237330771Y-103206854D01*
X237387816Y-102981586D01*
X237407006Y-102750000D01*
X249592993Y-102750000D01*
X249612183Y-102981581D01*
X249612183Y-102981584D01*
X249612184Y-102981586D01*
X249669229Y-103206854D01*
X249762575Y-103419661D01*
X249889675Y-103614201D01*
X250047061Y-103785168D01*
X250230441Y-103927898D01*
X250434812Y-104038499D01*
X250654600Y-104113952D01*
X250883810Y-104152200D01*
X251116190Y-104152200D01*
X251345400Y-104113952D01*
X251565188Y-104038499D01*
X251769559Y-103927898D01*
X251952939Y-103785168D01*
X252110325Y-103614201D01*
X252237425Y-103419661D01*
X252330771Y-103206854D01*
X252387816Y-102981586D01*
X252407006Y-102750000D01*
X252387816Y-102518414D01*
X252330771Y-102293146D01*
X252237425Y-102080339D01*
X252110325Y-101885799D01*
X251952939Y-101714832D01*
X251769559Y-101572102D01*
X251565188Y-101461501D01*
X251468232Y-101428216D01*
X251345401Y-101386048D01*
X251116190Y-101347800D01*
X250883810Y-101347800D01*
X250654598Y-101386048D01*
X250434811Y-101461501D01*
X250230444Y-101572100D01*
X250047060Y-101714832D01*
X249901257Y-101873216D01*
X249889675Y-101885799D01*
X249762575Y-102080339D01*
X249762574Y-102080341D01*
X249669230Y-102293144D01*
X249612183Y-102518418D01*
X249592993Y-102750000D01*
X237407006Y-102750000D01*
X237387816Y-102518414D01*
X237330771Y-102293146D01*
X237237425Y-102080339D01*
X237110325Y-101885799D01*
X236952939Y-101714832D01*
X236769559Y-101572102D01*
X236565188Y-101461501D01*
X236468232Y-101428216D01*
X236345401Y-101386048D01*
X236116190Y-101347800D01*
X235883810Y-101347800D01*
X235654598Y-101386048D01*
X235434811Y-101461501D01*
X235230444Y-101572100D01*
X235047060Y-101714832D01*
X234901257Y-101873216D01*
X234889675Y-101885799D01*
X234762575Y-102080339D01*
X234762574Y-102080341D01*
X234669230Y-102293144D01*
X234612183Y-102518418D01*
X234592993Y-102750000D01*
X232407005Y-102750000D01*
X232387815Y-102518414D01*
X232330770Y-102293146D01*
X232237424Y-102080339D01*
X232110324Y-101885799D01*
X231952938Y-101714832D01*
X231769558Y-101572102D01*
X231565187Y-101461501D01*
X231468231Y-101428216D01*
X231345400Y-101386048D01*
X231116189Y-101347800D01*
X230883809Y-101347800D01*
X230654597Y-101386048D01*
X230434810Y-101461501D01*
X230230443Y-101572100D01*
X230047059Y-101714832D01*
X229901256Y-101873216D01*
X229889674Y-101885799D01*
X229762574Y-102080339D01*
X229762573Y-102080341D01*
X229669229Y-102293144D01*
X229612182Y-102518418D01*
X229592992Y-102750000D01*
X227407005Y-102750000D01*
X227387815Y-102518414D01*
X227330770Y-102293146D01*
X227237424Y-102080339D01*
X227110324Y-101885799D01*
X226952938Y-101714832D01*
X226769558Y-101572102D01*
X226565187Y-101461501D01*
X226468231Y-101428216D01*
X226345400Y-101386048D01*
X226116189Y-101347800D01*
X225883809Y-101347800D01*
X225654597Y-101386048D01*
X225434810Y-101461501D01*
X225230443Y-101572100D01*
X225047059Y-101714832D01*
X224901256Y-101873216D01*
X224889674Y-101885799D01*
X224762574Y-102080339D01*
X224762573Y-102080341D01*
X224669229Y-102293144D01*
X224612182Y-102518418D01*
X224592992Y-102750000D01*
X195711462Y-102750000D01*
X195666396Y-102523438D01*
X195569483Y-102237942D01*
X195436130Y-101967529D01*
X195268631Y-101716846D01*
X195235025Y-101678528D01*
X195235024Y-101678528D01*
X193793553Y-103120000D01*
X193793553Y-103120001D01*
X193086446Y-103120001D01*
X193086446Y-103120000D01*
X191644974Y-101678527D01*
X191644973Y-101678527D01*
X191611371Y-101716844D01*
X191443867Y-101967533D01*
X191310516Y-102237942D01*
X191213603Y-102523438D01*
X191154784Y-102819139D01*
X191135065Y-103119999D01*
X188864934Y-103119999D01*
X188845215Y-102819139D01*
X188786396Y-102523438D01*
X188689483Y-102237942D01*
X188556130Y-101967529D01*
X188388631Y-101716846D01*
X188355025Y-101678528D01*
X188355024Y-101678528D01*
X186913553Y-103120000D01*
X186206446Y-103120000D01*
X184764974Y-101678527D01*
X184764973Y-101678527D01*
X184731371Y-101716844D01*
X184563867Y-101967533D01*
X184430516Y-102237942D01*
X184333603Y-102523438D01*
X184274784Y-102819139D01*
X184255065Y-103119999D01*
X152000500Y-103119999D01*
X152000500Y-100646701D01*
X157706851Y-100646701D01*
X157939931Y-100835447D01*
X158247593Y-101035246D01*
X158574468Y-101201797D01*
X158916954Y-101333265D01*
X159271316Y-101428216D01*
X159633645Y-101485602D01*
X159999999Y-101504802D01*
X160366354Y-101485602D01*
X160728683Y-101428216D01*
X161083045Y-101333265D01*
X161425531Y-101201797D01*
X161752406Y-101035246D01*
X162060069Y-100835447D01*
X162293148Y-100646702D01*
X162293148Y-100646701D01*
X175994851Y-100646701D01*
X176227931Y-100835447D01*
X176535593Y-101035246D01*
X176862468Y-101201797D01*
X177204954Y-101333265D01*
X177559316Y-101428216D01*
X177921645Y-101485602D01*
X178287999Y-101504802D01*
X178654354Y-101485602D01*
X179016683Y-101428216D01*
X179371045Y-101333265D01*
X179392644Y-101324974D01*
X185118527Y-101324974D01*
X186560000Y-102766446D01*
X186560001Y-102766446D01*
X188001470Y-101324974D01*
X191998527Y-101324974D01*
X193440000Y-102766446D01*
X193440001Y-102766446D01*
X194881470Y-101324974D01*
X194881470Y-101324973D01*
X194843156Y-101291371D01*
X194592467Y-101123867D01*
X194322058Y-100990516D01*
X194036561Y-100893603D01*
X193740860Y-100834784D01*
X193440000Y-100815065D01*
X193139139Y-100834784D01*
X192843438Y-100893603D01*
X192557942Y-100990516D01*
X192287533Y-101123867D01*
X192036844Y-101291371D01*
X191998527Y-101324973D01*
X191998527Y-101324974D01*
X188001470Y-101324974D01*
X188001470Y-101324973D01*
X187963156Y-101291371D01*
X187712467Y-101123867D01*
X187442058Y-100990516D01*
X187156561Y-100893603D01*
X186860860Y-100834784D01*
X186560000Y-100815065D01*
X186259139Y-100834784D01*
X185963438Y-100893603D01*
X185677942Y-100990516D01*
X185407533Y-101123867D01*
X185156844Y-101291371D01*
X185118527Y-101324973D01*
X185118527Y-101324974D01*
X179392644Y-101324974D01*
X179713531Y-101201797D01*
X180040406Y-101035246D01*
X180348069Y-100835447D01*
X180581148Y-100646702D01*
X180581148Y-100646701D01*
X199418851Y-100646701D01*
X199651931Y-100835447D01*
X199959593Y-101035246D01*
X200286468Y-101201797D01*
X200628954Y-101333265D01*
X200983316Y-101428216D01*
X201345645Y-101485602D01*
X201711999Y-101504802D01*
X202078354Y-101485602D01*
X202440683Y-101428216D01*
X202795045Y-101333265D01*
X203137531Y-101201797D01*
X203464406Y-101035246D01*
X203772069Y-100835447D01*
X204005148Y-100646702D01*
X204005148Y-100646701D01*
X217706851Y-100646701D01*
X217939931Y-100835447D01*
X218247593Y-101035246D01*
X218574468Y-101201797D01*
X218916954Y-101333265D01*
X219271316Y-101428216D01*
X219633645Y-101485602D01*
X219999999Y-101504802D01*
X220366354Y-101485602D01*
X220728683Y-101428216D01*
X221083045Y-101333265D01*
X221425531Y-101201797D01*
X221752406Y-101035246D01*
X222060069Y-100835447D01*
X222293148Y-100646702D01*
X222293148Y-100646701D01*
X220000001Y-98353553D01*
X220000000Y-98353553D01*
X217706851Y-100646701D01*
X204005148Y-100646701D01*
X201712001Y-98353553D01*
X201712000Y-98353553D01*
X199418851Y-100646701D01*
X180581148Y-100646701D01*
X178288001Y-98353553D01*
X178288000Y-98353553D01*
X175994851Y-100646701D01*
X162293148Y-100646701D01*
X160000001Y-98353553D01*
X160000000Y-98353553D01*
X157706851Y-100646701D01*
X152000500Y-100646701D01*
X152000500Y-97999999D01*
X156495197Y-97999999D01*
X156514397Y-98366354D01*
X156571783Y-98728683D01*
X156666734Y-99083045D01*
X156798202Y-99425531D01*
X156964753Y-99752406D01*
X157164552Y-100060068D01*
X157353297Y-100293147D01*
X159646445Y-98000001D01*
X160353553Y-98000001D01*
X162646701Y-100293148D01*
X162646702Y-100293148D01*
X162835447Y-100060069D01*
X163035246Y-99752406D01*
X163201797Y-99425531D01*
X163333265Y-99083045D01*
X163428216Y-98728683D01*
X163485602Y-98366354D01*
X163504802Y-97999999D01*
X174783197Y-97999999D01*
X174802397Y-98366354D01*
X174859783Y-98728683D01*
X174954734Y-99083045D01*
X175086202Y-99425531D01*
X175252753Y-99752406D01*
X175452552Y-100060068D01*
X175641297Y-100293147D01*
X177934445Y-98000001D01*
X178641553Y-98000001D01*
X180934701Y-100293148D01*
X180934702Y-100293148D01*
X181123447Y-100060069D01*
X181323246Y-99752406D01*
X181489797Y-99425531D01*
X181621265Y-99083045D01*
X181716216Y-98728683D01*
X181773602Y-98366354D01*
X181792802Y-97999999D01*
X198207197Y-97999999D01*
X198226397Y-98366354D01*
X198283783Y-98728683D01*
X198378734Y-99083045D01*
X198510202Y-99425531D01*
X198676753Y-99752406D01*
X198876552Y-100060068D01*
X199065297Y-100293147D01*
X201358446Y-98000001D01*
X202065553Y-98000001D01*
X204358701Y-100293148D01*
X204358702Y-100293148D01*
X204547447Y-100060069D01*
X204747246Y-99752406D01*
X204913797Y-99425531D01*
X205045265Y-99083045D01*
X205140216Y-98728683D01*
X205197602Y-98366354D01*
X205216802Y-97999999D01*
X216495197Y-97999999D01*
X216514397Y-98366354D01*
X216571783Y-98728683D01*
X216666734Y-99083045D01*
X216798202Y-99425531D01*
X216964753Y-99752406D01*
X217164552Y-100060068D01*
X217353297Y-100293147D01*
X219646446Y-98000001D01*
X220353553Y-98000001D01*
X222646701Y-100293148D01*
X222646702Y-100293148D01*
X222835447Y-100060069D01*
X223035246Y-99752406D01*
X223201797Y-99425531D01*
X223333265Y-99083045D01*
X223428216Y-98728683D01*
X223485602Y-98366354D01*
X223504802Y-97999999D01*
X223485602Y-97633645D01*
X223428216Y-97271316D01*
X223333265Y-96916954D01*
X223201797Y-96574468D01*
X223035246Y-96247594D01*
X222835447Y-95939931D01*
X222646701Y-95706851D01*
X220353553Y-98000000D01*
X220353553Y-98000001D01*
X219646446Y-98000001D01*
X219646446Y-98000000D01*
X217353297Y-95706851D01*
X217164552Y-95939931D01*
X216964753Y-96247594D01*
X216798202Y-96574468D01*
X216666734Y-96916954D01*
X216571783Y-97271316D01*
X216514397Y-97633645D01*
X216495197Y-97999999D01*
X205216802Y-97999999D01*
X205197602Y-97633645D01*
X205140216Y-97271316D01*
X205045265Y-96916954D01*
X204913797Y-96574468D01*
X204747246Y-96247594D01*
X204547447Y-95939931D01*
X204358701Y-95706851D01*
X202065553Y-98000000D01*
X202065553Y-98000001D01*
X201358446Y-98000001D01*
X201358446Y-98000000D01*
X199065297Y-95706851D01*
X198876552Y-95939931D01*
X198676753Y-96247594D01*
X198510202Y-96574468D01*
X198378734Y-96916954D01*
X198283783Y-97271316D01*
X198226397Y-97633645D01*
X198207197Y-97999999D01*
X181792802Y-97999999D01*
X181773602Y-97633645D01*
X181716216Y-97271316D01*
X181621265Y-96916954D01*
X181489797Y-96574468D01*
X181323246Y-96247594D01*
X181123447Y-95939931D01*
X180934701Y-95706851D01*
X178641553Y-98000000D01*
X178641553Y-98000001D01*
X177934445Y-98000001D01*
X177934446Y-98000000D01*
X175641297Y-95706851D01*
X175452552Y-95939931D01*
X175252753Y-96247594D01*
X175086202Y-96574468D01*
X174954734Y-96916954D01*
X174859783Y-97271316D01*
X174802397Y-97633645D01*
X174783197Y-97999999D01*
X163504802Y-97999999D01*
X163485602Y-97633645D01*
X163428216Y-97271316D01*
X163333265Y-96916954D01*
X163201797Y-96574468D01*
X163035246Y-96247594D01*
X162835447Y-95939931D01*
X162646701Y-95706851D01*
X160353553Y-98000000D01*
X160353553Y-98000001D01*
X159646445Y-98000001D01*
X159646446Y-98000000D01*
X159646446Y-97999998D01*
X157353297Y-95706851D01*
X157164552Y-95939931D01*
X156964753Y-96247594D01*
X156798202Y-96574468D01*
X156666734Y-96916954D01*
X156571783Y-97271316D01*
X156514397Y-97633645D01*
X156495197Y-97999999D01*
X152000500Y-97999999D01*
X152000500Y-95353297D01*
X157706851Y-95353297D01*
X160000000Y-97646446D01*
X160000001Y-97646446D01*
X162293148Y-95353297D01*
X175994851Y-95353297D01*
X178288000Y-97646446D01*
X178288001Y-97646446D01*
X180581148Y-95353297D01*
X199418851Y-95353297D01*
X201712000Y-97646446D01*
X201712001Y-97646446D01*
X204005148Y-95353297D01*
X217706851Y-95353297D01*
X220000000Y-97646446D01*
X220000001Y-97646446D01*
X222293148Y-95353297D01*
X222165587Y-95250000D01*
X224592992Y-95250000D01*
X224612182Y-95481581D01*
X224612182Y-95481584D01*
X224612183Y-95481586D01*
X224669228Y-95706854D01*
X224762574Y-95919661D01*
X224889674Y-96114201D01*
X225047060Y-96285168D01*
X225230440Y-96427898D01*
X225434811Y-96538499D01*
X225654599Y-96613952D01*
X225883809Y-96652200D01*
X226116189Y-96652200D01*
X226345399Y-96613952D01*
X226565187Y-96538499D01*
X226769558Y-96427898D01*
X226952938Y-96285168D01*
X227110324Y-96114201D01*
X227237424Y-95919661D01*
X227330770Y-95706854D01*
X227387815Y-95481586D01*
X227407005Y-95250000D01*
X229592992Y-95250000D01*
X229612182Y-95481581D01*
X229612182Y-95481584D01*
X229612183Y-95481586D01*
X229669228Y-95706854D01*
X229762574Y-95919661D01*
X229889674Y-96114201D01*
X230047060Y-96285168D01*
X230230440Y-96427898D01*
X230434811Y-96538499D01*
X230654599Y-96613952D01*
X230883809Y-96652200D01*
X231116189Y-96652200D01*
X231345399Y-96613952D01*
X231565187Y-96538499D01*
X231769558Y-96427898D01*
X231952938Y-96285168D01*
X232110324Y-96114201D01*
X232237424Y-95919661D01*
X232330770Y-95706854D01*
X232387815Y-95481586D01*
X232407005Y-95250000D01*
X234592993Y-95250000D01*
X234612183Y-95481581D01*
X234612183Y-95481584D01*
X234612184Y-95481586D01*
X234669229Y-95706854D01*
X234762575Y-95919661D01*
X234889675Y-96114201D01*
X235047061Y-96285168D01*
X235230441Y-96427898D01*
X235434812Y-96538499D01*
X235654600Y-96613952D01*
X235883810Y-96652200D01*
X236116190Y-96652200D01*
X236345400Y-96613952D01*
X236565188Y-96538499D01*
X236769559Y-96427898D01*
X236952939Y-96285168D01*
X237110325Y-96114201D01*
X237237425Y-95919661D01*
X237330771Y-95706854D01*
X237387816Y-95481586D01*
X237407006Y-95250000D01*
X249592993Y-95250000D01*
X249612183Y-95481581D01*
X249612183Y-95481584D01*
X249612184Y-95481586D01*
X249669229Y-95706854D01*
X249762575Y-95919661D01*
X249889675Y-96114201D01*
X250047061Y-96285168D01*
X250230441Y-96427898D01*
X250434812Y-96538499D01*
X250654600Y-96613952D01*
X250883810Y-96652200D01*
X251116190Y-96652200D01*
X251345400Y-96613952D01*
X251565188Y-96538499D01*
X251769559Y-96427898D01*
X251952939Y-96285168D01*
X252110325Y-96114201D01*
X252237425Y-95919661D01*
X252330771Y-95706854D01*
X252387816Y-95481586D01*
X252407006Y-95250000D01*
X252387816Y-95018414D01*
X252330771Y-94793146D01*
X252237425Y-94580339D01*
X252110325Y-94385799D01*
X251952939Y-94214832D01*
X251769559Y-94072102D01*
X251565188Y-93961501D01*
X251345401Y-93886048D01*
X251116190Y-93847800D01*
X250883810Y-93847800D01*
X250654598Y-93886048D01*
X250434811Y-93961501D01*
X250230444Y-94072100D01*
X250047060Y-94214832D01*
X249901257Y-94373216D01*
X249889675Y-94385799D01*
X249768165Y-94571783D01*
X249762574Y-94580341D01*
X249669230Y-94793144D01*
X249612183Y-95018418D01*
X249592993Y-95250000D01*
X237407006Y-95250000D01*
X237387816Y-95018414D01*
X237330771Y-94793146D01*
X237237425Y-94580339D01*
X237110325Y-94385799D01*
X236952939Y-94214832D01*
X236769559Y-94072102D01*
X236565188Y-93961501D01*
X236345401Y-93886048D01*
X236116190Y-93847800D01*
X235883810Y-93847800D01*
X235654598Y-93886048D01*
X235434811Y-93961501D01*
X235230444Y-94072100D01*
X235047060Y-94214832D01*
X234901257Y-94373216D01*
X234889675Y-94385799D01*
X234768165Y-94571783D01*
X234762574Y-94580341D01*
X234669230Y-94793144D01*
X234612183Y-95018418D01*
X234592993Y-95250000D01*
X232407005Y-95250000D01*
X232387815Y-95018414D01*
X232330770Y-94793146D01*
X232237424Y-94580339D01*
X232110324Y-94385799D01*
X231952938Y-94214832D01*
X231769558Y-94072102D01*
X231565187Y-93961501D01*
X231345400Y-93886048D01*
X231116189Y-93847800D01*
X230883809Y-93847800D01*
X230654597Y-93886048D01*
X230434810Y-93961501D01*
X230230443Y-94072100D01*
X230047059Y-94214832D01*
X229901256Y-94373216D01*
X229889674Y-94385799D01*
X229768164Y-94571783D01*
X229762573Y-94580341D01*
X229669229Y-94793144D01*
X229612182Y-95018418D01*
X229592992Y-95250000D01*
X227407005Y-95250000D01*
X227387815Y-95018414D01*
X227330770Y-94793146D01*
X227237424Y-94580339D01*
X227110324Y-94385799D01*
X226952938Y-94214832D01*
X226769558Y-94072102D01*
X226565187Y-93961501D01*
X226345400Y-93886048D01*
X226116189Y-93847800D01*
X225883809Y-93847800D01*
X225654597Y-93886048D01*
X225434810Y-93961501D01*
X225230443Y-94072100D01*
X225047059Y-94214832D01*
X224901256Y-94373216D01*
X224889674Y-94385799D01*
X224768164Y-94571783D01*
X224762573Y-94580341D01*
X224669229Y-94793144D01*
X224612182Y-95018418D01*
X224592992Y-95250000D01*
X222165587Y-95250000D01*
X222060068Y-95164552D01*
X221752406Y-94964753D01*
X221425531Y-94798202D01*
X221083045Y-94666734D01*
X220728683Y-94571783D01*
X220366354Y-94514397D01*
X220000000Y-94495197D01*
X219633645Y-94514397D01*
X219271316Y-94571783D01*
X218916954Y-94666734D01*
X218574468Y-94798202D01*
X218247594Y-94964753D01*
X217939931Y-95164552D01*
X217706851Y-95353297D01*
X204005148Y-95353297D01*
X203772068Y-95164552D01*
X203464406Y-94964753D01*
X203137531Y-94798202D01*
X202795045Y-94666734D01*
X202440683Y-94571783D01*
X202078354Y-94514397D01*
X201712000Y-94495197D01*
X201345645Y-94514397D01*
X200983316Y-94571783D01*
X200628954Y-94666734D01*
X200286468Y-94798202D01*
X199959594Y-94964753D01*
X199651931Y-95164552D01*
X199418851Y-95353297D01*
X180581148Y-95353297D01*
X180348068Y-95164552D01*
X180040406Y-94964753D01*
X179713531Y-94798202D01*
X179371045Y-94666734D01*
X179016683Y-94571783D01*
X178654354Y-94514397D01*
X178288000Y-94495197D01*
X177921645Y-94514397D01*
X177559316Y-94571783D01*
X177204954Y-94666734D01*
X176862468Y-94798202D01*
X176535594Y-94964753D01*
X176227931Y-95164552D01*
X175994851Y-95353297D01*
X162293148Y-95353297D01*
X162060068Y-95164552D01*
X161752406Y-94964753D01*
X161425531Y-94798202D01*
X161083045Y-94666734D01*
X160728683Y-94571783D01*
X160366354Y-94514397D01*
X160000000Y-94495197D01*
X159633645Y-94514397D01*
X159271316Y-94571783D01*
X158916954Y-94666734D01*
X158574468Y-94798202D01*
X158247594Y-94964753D01*
X157939931Y-95164552D01*
X157706851Y-95353297D01*
X152000500Y-95353297D01*
X152000500Y-87749999D01*
X154392997Y-87749999D01*
X154412187Y-87981581D01*
X154412187Y-87981584D01*
X154412188Y-87981586D01*
X154469233Y-88206854D01*
X154562579Y-88419661D01*
X154689679Y-88614201D01*
X154847065Y-88785168D01*
X155030445Y-88927898D01*
X155234816Y-89038499D01*
X155454604Y-89113952D01*
X155683814Y-89152200D01*
X155916194Y-89152200D01*
X156145404Y-89113952D01*
X156365192Y-89038499D01*
X156569563Y-88927898D01*
X156752943Y-88785168D01*
X156910329Y-88614201D01*
X157037429Y-88419661D01*
X157130775Y-88206854D01*
X157187820Y-87981586D01*
X157207010Y-87750000D01*
X157207010Y-87749999D01*
X169392997Y-87749999D01*
X169412187Y-87981581D01*
X169412187Y-87981584D01*
X169412188Y-87981586D01*
X169469233Y-88206854D01*
X169562579Y-88419661D01*
X169689679Y-88614201D01*
X169847065Y-88785168D01*
X170030445Y-88927898D01*
X170234816Y-89038499D01*
X170454604Y-89113952D01*
X170683814Y-89152200D01*
X170916194Y-89152200D01*
X171145404Y-89113952D01*
X171365192Y-89038499D01*
X171569563Y-88927898D01*
X171752943Y-88785168D01*
X171910329Y-88614201D01*
X172037429Y-88419661D01*
X172130775Y-88206854D01*
X172187820Y-87981586D01*
X172207010Y-87750000D01*
X172207010Y-87749999D01*
X174392998Y-87749999D01*
X174412188Y-87981581D01*
X174412188Y-87981584D01*
X174412189Y-87981586D01*
X174469234Y-88206854D01*
X174562580Y-88419661D01*
X174689680Y-88614201D01*
X174847066Y-88785168D01*
X175030446Y-88927898D01*
X175234817Y-89038499D01*
X175454605Y-89113952D01*
X175683815Y-89152200D01*
X175916195Y-89152200D01*
X176145405Y-89113952D01*
X176365193Y-89038499D01*
X176569564Y-88927898D01*
X176752944Y-88785168D01*
X176910330Y-88614201D01*
X177037430Y-88419661D01*
X177130776Y-88206854D01*
X177187821Y-87981586D01*
X177207011Y-87750000D01*
X177207011Y-87749999D01*
X179392998Y-87749999D01*
X179412188Y-87981581D01*
X179412188Y-87981584D01*
X179412189Y-87981586D01*
X179469234Y-88206854D01*
X179562580Y-88419661D01*
X179689680Y-88614201D01*
X179847066Y-88785168D01*
X180030446Y-88927898D01*
X180234817Y-89038499D01*
X180454605Y-89113952D01*
X180683815Y-89152200D01*
X180916195Y-89152200D01*
X181145405Y-89113952D01*
X181365193Y-89038499D01*
X181569564Y-88927898D01*
X181752944Y-88785168D01*
X181910330Y-88614201D01*
X182037430Y-88419661D01*
X182130776Y-88206854D01*
X182183158Y-88000001D01*
X185092993Y-88000001D01*
X185112183Y-88231582D01*
X185112183Y-88231585D01*
X185112184Y-88231587D01*
X185169229Y-88456855D01*
X185262575Y-88669662D01*
X185389675Y-88864202D01*
X185547061Y-89035169D01*
X185730441Y-89177899D01*
X185934812Y-89288500D01*
X186154600Y-89363953D01*
X186383810Y-89402201D01*
X186616190Y-89402201D01*
X186845400Y-89363953D01*
X187065188Y-89288500D01*
X187269559Y-89177899D01*
X187452939Y-89035169D01*
X187610325Y-88864202D01*
X187737425Y-88669662D01*
X187830771Y-88456855D01*
X187887816Y-88231587D01*
X187907006Y-88000001D01*
X192592993Y-88000001D01*
X192612183Y-88231582D01*
X192612183Y-88231585D01*
X192612184Y-88231587D01*
X192669229Y-88456855D01*
X192762575Y-88669662D01*
X192889675Y-88864202D01*
X193047061Y-89035169D01*
X193230441Y-89177899D01*
X193434812Y-89288500D01*
X193654600Y-89363953D01*
X193883810Y-89402201D01*
X194116190Y-89402201D01*
X194345400Y-89363953D01*
X194565188Y-89288500D01*
X194769559Y-89177899D01*
X194952939Y-89035169D01*
X195110325Y-88864202D01*
X195237425Y-88669662D01*
X195330771Y-88456855D01*
X195387816Y-88231587D01*
X195407006Y-88000001D01*
X195387816Y-87768415D01*
X195383152Y-87749999D01*
X199792988Y-87749999D01*
X199812178Y-87981581D01*
X199812178Y-87981584D01*
X199812179Y-87981586D01*
X199869224Y-88206854D01*
X199962570Y-88419661D01*
X200089670Y-88614201D01*
X200247056Y-88785168D01*
X200430436Y-88927898D01*
X200634807Y-89038499D01*
X200854595Y-89113952D01*
X201083805Y-89152200D01*
X201316185Y-89152200D01*
X201545395Y-89113952D01*
X201765183Y-89038499D01*
X201969554Y-88927898D01*
X202152934Y-88785168D01*
X202310320Y-88614201D01*
X202437420Y-88419661D01*
X202530766Y-88206854D01*
X202587811Y-87981586D01*
X202607001Y-87750000D01*
X202607001Y-87749999D01*
X204792988Y-87749999D01*
X204812178Y-87981581D01*
X204812178Y-87981584D01*
X204812179Y-87981586D01*
X204869224Y-88206854D01*
X204962570Y-88419661D01*
X205089670Y-88614201D01*
X205247056Y-88785168D01*
X205430436Y-88927898D01*
X205634807Y-89038499D01*
X205854595Y-89113952D01*
X206083805Y-89152200D01*
X206316185Y-89152200D01*
X206545395Y-89113952D01*
X206765183Y-89038499D01*
X206969554Y-88927898D01*
X207152934Y-88785168D01*
X207310320Y-88614201D01*
X207437420Y-88419661D01*
X207530766Y-88206854D01*
X207587811Y-87981586D01*
X207607001Y-87750000D01*
X207607001Y-87749999D01*
X209792989Y-87749999D01*
X209812179Y-87981581D01*
X209812179Y-87981584D01*
X209812180Y-87981586D01*
X209869225Y-88206854D01*
X209962571Y-88419661D01*
X210089671Y-88614201D01*
X210247057Y-88785168D01*
X210430437Y-88927898D01*
X210634808Y-89038499D01*
X210854596Y-89113952D01*
X211083806Y-89152200D01*
X211316186Y-89152200D01*
X211545396Y-89113952D01*
X211765184Y-89038499D01*
X211969555Y-88927898D01*
X212152935Y-88785168D01*
X212310321Y-88614201D01*
X212437421Y-88419661D01*
X212530767Y-88206854D01*
X212587812Y-87981586D01*
X212607002Y-87750000D01*
X212607002Y-87749999D01*
X224792989Y-87749999D01*
X224812179Y-87981581D01*
X224812179Y-87981584D01*
X224812180Y-87981586D01*
X224869225Y-88206854D01*
X224962571Y-88419661D01*
X225089671Y-88614201D01*
X225247057Y-88785168D01*
X225430437Y-88927898D01*
X225634808Y-89038499D01*
X225854596Y-89113952D01*
X226083806Y-89152200D01*
X226316186Y-89152200D01*
X226545396Y-89113952D01*
X226765184Y-89038499D01*
X226836325Y-88999999D01*
X235744722Y-88999999D01*
X235763792Y-89217974D01*
X235782689Y-89288500D01*
X235820425Y-89429330D01*
X235912898Y-89627639D01*
X236038402Y-89806877D01*
X236193123Y-89961598D01*
X236372361Y-90087102D01*
X236570670Y-90179575D01*
X236782023Y-90236207D01*
X237000000Y-90255277D01*
X237217977Y-90236207D01*
X237429330Y-90179575D01*
X237627639Y-90087102D01*
X237806877Y-89961598D01*
X237961598Y-89806877D01*
X238087102Y-89627639D01*
X238157617Y-89476417D01*
X238203375Y-89424241D01*
X238270000Y-89404822D01*
X238336625Y-89424241D01*
X238382382Y-89476417D01*
X238452898Y-89627639D01*
X238578402Y-89806877D01*
X238733123Y-89961598D01*
X238912361Y-90087102D01*
X239110670Y-90179575D01*
X239322023Y-90236207D01*
X239540000Y-90255277D01*
X239757977Y-90236207D01*
X239969330Y-90179575D01*
X240167639Y-90087102D01*
X240346877Y-89961598D01*
X240501598Y-89806877D01*
X240627102Y-89627639D01*
X240697617Y-89476417D01*
X240743375Y-89424241D01*
X240810000Y-89404822D01*
X240876625Y-89424241D01*
X240922382Y-89476417D01*
X240992898Y-89627639D01*
X241118402Y-89806877D01*
X241273123Y-89961598D01*
X241452361Y-90087102D01*
X241650670Y-90179575D01*
X241862023Y-90236207D01*
X242080000Y-90255277D01*
X242297977Y-90236207D01*
X242509330Y-90179575D01*
X242707639Y-90087102D01*
X242886877Y-89961598D01*
X243041598Y-89806877D01*
X243167102Y-89627639D01*
X243237617Y-89476417D01*
X243283375Y-89424241D01*
X243350000Y-89404822D01*
X243416625Y-89424241D01*
X243462382Y-89476417D01*
X243532898Y-89627639D01*
X243658402Y-89806877D01*
X243813123Y-89961598D01*
X243992361Y-90087102D01*
X244190670Y-90179575D01*
X244402023Y-90236207D01*
X244620000Y-90255277D01*
X244837977Y-90236207D01*
X245049330Y-90179575D01*
X245247639Y-90087102D01*
X245426877Y-89961598D01*
X245581598Y-89806877D01*
X245707102Y-89627639D01*
X245777617Y-89476417D01*
X245823375Y-89424241D01*
X245890000Y-89404822D01*
X245956625Y-89424241D01*
X246002382Y-89476417D01*
X246072898Y-89627639D01*
X246198402Y-89806877D01*
X246353123Y-89961598D01*
X246532361Y-90087102D01*
X246730670Y-90179575D01*
X246942023Y-90236207D01*
X247160000Y-90255277D01*
X247377977Y-90236207D01*
X247589330Y-90179575D01*
X247787639Y-90087102D01*
X247966877Y-89961598D01*
X248121598Y-89806877D01*
X248247102Y-89627639D01*
X248339575Y-89429330D01*
X248396207Y-89217977D01*
X248415277Y-89000000D01*
X248396207Y-88782023D01*
X248339575Y-88570670D01*
X248247102Y-88372362D01*
X248121598Y-88193123D01*
X247966877Y-88038402D01*
X247787639Y-87912898D01*
X247696205Y-87870261D01*
X247589331Y-87820425D01*
X247377974Y-87763792D01*
X247159999Y-87744722D01*
X246942025Y-87763792D01*
X246730668Y-87820425D01*
X246532361Y-87912898D01*
X246353122Y-88038402D01*
X246198402Y-88193122D01*
X246072898Y-88372361D01*
X246002382Y-88523583D01*
X245956625Y-88575759D01*
X245890000Y-88595178D01*
X245823375Y-88575759D01*
X245777618Y-88523583D01*
X245729158Y-88419661D01*
X245707102Y-88372362D01*
X245581598Y-88193123D01*
X245426877Y-88038402D01*
X245247639Y-87912898D01*
X245156205Y-87870261D01*
X245049331Y-87820425D01*
X244837974Y-87763792D01*
X244619999Y-87744722D01*
X244402025Y-87763792D01*
X244190668Y-87820425D01*
X243992361Y-87912898D01*
X243813122Y-88038402D01*
X243658402Y-88193122D01*
X243532898Y-88372361D01*
X243462382Y-88523583D01*
X243416625Y-88575759D01*
X243350000Y-88595178D01*
X243283375Y-88575759D01*
X243237618Y-88523583D01*
X243189158Y-88419661D01*
X243167102Y-88372362D01*
X243041598Y-88193123D01*
X242886877Y-88038402D01*
X242707639Y-87912898D01*
X242616205Y-87870261D01*
X242509331Y-87820425D01*
X242297974Y-87763792D01*
X242079999Y-87744722D01*
X241862025Y-87763792D01*
X241650668Y-87820425D01*
X241452361Y-87912898D01*
X241273122Y-88038402D01*
X241118402Y-88193122D01*
X240992898Y-88372361D01*
X240922382Y-88523583D01*
X240876625Y-88575759D01*
X240810000Y-88595178D01*
X240743375Y-88575759D01*
X240697618Y-88523583D01*
X240649158Y-88419661D01*
X240627102Y-88372362D01*
X240501598Y-88193123D01*
X240346877Y-88038402D01*
X240167639Y-87912898D01*
X240076205Y-87870261D01*
X239969331Y-87820425D01*
X239757974Y-87763792D01*
X239539999Y-87744722D01*
X239322025Y-87763792D01*
X239110668Y-87820425D01*
X238912361Y-87912898D01*
X238733122Y-88038402D01*
X238578402Y-88193122D01*
X238452898Y-88372361D01*
X238382382Y-88523583D01*
X238336625Y-88575759D01*
X238270000Y-88595178D01*
X238203375Y-88575759D01*
X238157618Y-88523583D01*
X238109158Y-88419661D01*
X238087102Y-88372362D01*
X237961598Y-88193123D01*
X237806877Y-88038402D01*
X237627639Y-87912898D01*
X237536205Y-87870261D01*
X237429331Y-87820425D01*
X237217974Y-87763792D01*
X236999999Y-87744722D01*
X236782025Y-87763792D01*
X236570668Y-87820425D01*
X236372361Y-87912898D01*
X236193122Y-88038402D01*
X236038402Y-88193122D01*
X235912898Y-88372361D01*
X235820425Y-88570668D01*
X235763792Y-88782025D01*
X235744722Y-88999999D01*
X226836325Y-88999999D01*
X226969555Y-88927898D01*
X227152935Y-88785168D01*
X227310321Y-88614201D01*
X227437421Y-88419661D01*
X227530767Y-88206854D01*
X227587812Y-87981586D01*
X227607002Y-87750000D01*
X227587812Y-87518414D01*
X227530767Y-87293146D01*
X227437421Y-87080339D01*
X227310321Y-86885799D01*
X227152935Y-86714832D01*
X226969555Y-86572102D01*
X226765184Y-86461501D01*
X226765183Y-86461500D01*
X226545397Y-86386048D01*
X226316186Y-86347800D01*
X226083806Y-86347800D01*
X225854594Y-86386048D01*
X225634807Y-86461501D01*
X225430440Y-86572100D01*
X225247056Y-86714832D01*
X225148309Y-86822101D01*
X225089671Y-86885799D01*
X224962571Y-87080339D01*
X224869225Y-87293146D01*
X224859806Y-87330342D01*
X224812179Y-87518418D01*
X224792989Y-87749999D01*
X212607002Y-87749999D01*
X212587812Y-87518414D01*
X212530767Y-87293146D01*
X212437421Y-87080339D01*
X212310321Y-86885799D01*
X212152935Y-86714832D01*
X211969555Y-86572102D01*
X211765184Y-86461501D01*
X211765183Y-86461500D01*
X211545397Y-86386048D01*
X211316186Y-86347800D01*
X211083806Y-86347800D01*
X210854594Y-86386048D01*
X210634807Y-86461501D01*
X210430440Y-86572100D01*
X210247056Y-86714832D01*
X210148309Y-86822101D01*
X210089671Y-86885799D01*
X209962571Y-87080339D01*
X209869225Y-87293146D01*
X209859806Y-87330342D01*
X209812179Y-87518418D01*
X209792989Y-87749999D01*
X207607001Y-87749999D01*
X207587811Y-87518414D01*
X207530766Y-87293146D01*
X207437420Y-87080339D01*
X207310320Y-86885799D01*
X207152934Y-86714832D01*
X206969554Y-86572102D01*
X206765183Y-86461501D01*
X206765182Y-86461500D01*
X206545396Y-86386048D01*
X206316185Y-86347800D01*
X206083805Y-86347800D01*
X205854593Y-86386048D01*
X205634806Y-86461501D01*
X205430439Y-86572100D01*
X205247055Y-86714832D01*
X205148308Y-86822101D01*
X205089670Y-86885799D01*
X204962570Y-87080339D01*
X204869224Y-87293146D01*
X204859805Y-87330342D01*
X204812178Y-87518418D01*
X204792988Y-87749999D01*
X202607001Y-87749999D01*
X202587811Y-87518414D01*
X202530766Y-87293146D01*
X202437420Y-87080339D01*
X202310320Y-86885799D01*
X202152934Y-86714832D01*
X201969554Y-86572102D01*
X201765183Y-86461501D01*
X201765182Y-86461500D01*
X201545396Y-86386048D01*
X201316185Y-86347800D01*
X201083805Y-86347800D01*
X200854593Y-86386048D01*
X200634806Y-86461501D01*
X200430439Y-86572100D01*
X200247055Y-86714832D01*
X200148308Y-86822101D01*
X200089670Y-86885799D01*
X199962570Y-87080339D01*
X199869224Y-87293146D01*
X199859805Y-87330342D01*
X199812178Y-87518418D01*
X199792988Y-87749999D01*
X195383152Y-87749999D01*
X195330771Y-87543147D01*
X195237425Y-87330340D01*
X195110325Y-87135800D01*
X194952939Y-86964833D01*
X194769559Y-86822103D01*
X194565188Y-86711502D01*
X194345401Y-86636049D01*
X194116190Y-86597801D01*
X193883810Y-86597801D01*
X193654598Y-86636049D01*
X193434811Y-86711502D01*
X193230444Y-86822101D01*
X193047060Y-86964833D01*
X192901257Y-87123217D01*
X192889675Y-87135800D01*
X192786875Y-87293146D01*
X192762574Y-87330342D01*
X192669230Y-87543145D01*
X192612183Y-87768419D01*
X192592993Y-88000001D01*
X187907006Y-88000001D01*
X187887816Y-87768415D01*
X187830771Y-87543147D01*
X187737425Y-87330340D01*
X187610325Y-87135800D01*
X187452939Y-86964833D01*
X187269559Y-86822103D01*
X187065188Y-86711502D01*
X186845401Y-86636049D01*
X186616190Y-86597801D01*
X186383810Y-86597801D01*
X186154598Y-86636049D01*
X185934811Y-86711502D01*
X185730444Y-86822101D01*
X185547060Y-86964833D01*
X185401257Y-87123217D01*
X185389675Y-87135800D01*
X185286875Y-87293146D01*
X185262574Y-87330342D01*
X185169230Y-87543145D01*
X185112183Y-87768419D01*
X185092993Y-88000001D01*
X182183158Y-88000001D01*
X182187821Y-87981586D01*
X182207011Y-87750000D01*
X182187821Y-87518414D01*
X182130776Y-87293146D01*
X182037430Y-87080339D01*
X181910330Y-86885799D01*
X181752944Y-86714832D01*
X181569564Y-86572102D01*
X181365193Y-86461501D01*
X181365192Y-86461500D01*
X181145406Y-86386048D01*
X180916195Y-86347800D01*
X180683815Y-86347800D01*
X180454603Y-86386048D01*
X180234816Y-86461501D01*
X180030449Y-86572100D01*
X179847065Y-86714832D01*
X179748318Y-86822101D01*
X179689680Y-86885799D01*
X179562580Y-87080339D01*
X179469234Y-87293146D01*
X179459815Y-87330342D01*
X179412188Y-87518418D01*
X179392998Y-87749999D01*
X177207011Y-87749999D01*
X177187821Y-87518414D01*
X177130776Y-87293146D01*
X177037430Y-87080339D01*
X176910330Y-86885799D01*
X176752944Y-86714832D01*
X176569564Y-86572102D01*
X176365193Y-86461501D01*
X176365192Y-86461500D01*
X176145406Y-86386048D01*
X175916195Y-86347800D01*
X175683815Y-86347800D01*
X175454603Y-86386048D01*
X175234816Y-86461501D01*
X175030449Y-86572100D01*
X174847065Y-86714832D01*
X174748318Y-86822101D01*
X174689680Y-86885799D01*
X174562580Y-87080339D01*
X174469234Y-87293146D01*
X174459815Y-87330342D01*
X174412188Y-87518418D01*
X174392998Y-87749999D01*
X172207010Y-87749999D01*
X172187820Y-87518414D01*
X172130775Y-87293146D01*
X172037429Y-87080339D01*
X171910329Y-86885799D01*
X171752943Y-86714832D01*
X171569563Y-86572102D01*
X171365192Y-86461501D01*
X171365191Y-86461500D01*
X171145405Y-86386048D01*
X170916194Y-86347800D01*
X170683814Y-86347800D01*
X170454602Y-86386048D01*
X170234815Y-86461501D01*
X170030448Y-86572100D01*
X169847064Y-86714832D01*
X169748317Y-86822101D01*
X169689679Y-86885799D01*
X169562579Y-87080339D01*
X169469233Y-87293146D01*
X169459814Y-87330342D01*
X169412187Y-87518418D01*
X169392997Y-87749999D01*
X157207010Y-87749999D01*
X157187820Y-87518414D01*
X157130775Y-87293146D01*
X157037429Y-87080339D01*
X156910329Y-86885799D01*
X156752943Y-86714832D01*
X156569563Y-86572102D01*
X156365192Y-86461501D01*
X156365191Y-86461500D01*
X156145405Y-86386048D01*
X155916194Y-86347800D01*
X155683814Y-86347800D01*
X155454602Y-86386048D01*
X155234815Y-86461501D01*
X155030448Y-86572100D01*
X154847064Y-86714832D01*
X154748317Y-86822101D01*
X154689679Y-86885799D01*
X154562579Y-87080339D01*
X154469233Y-87293146D01*
X154459814Y-87330342D01*
X154412187Y-87518418D01*
X154392997Y-87749999D01*
X152000500Y-87749999D01*
X152000500Y-83000000D01*
X185092993Y-83000000D01*
X185112183Y-83231582D01*
X185112183Y-83231585D01*
X185112184Y-83231587D01*
X185169229Y-83456855D01*
X185262575Y-83669662D01*
X185389675Y-83864202D01*
X185547061Y-84035169D01*
X185730441Y-84177899D01*
X185934812Y-84288500D01*
X186154600Y-84363953D01*
X186383810Y-84402201D01*
X186616190Y-84402201D01*
X186845400Y-84363953D01*
X187065188Y-84288500D01*
X187269559Y-84177899D01*
X187452939Y-84035169D01*
X187610325Y-83864202D01*
X187737425Y-83669662D01*
X187830771Y-83456855D01*
X187887816Y-83231587D01*
X187907006Y-83000001D01*
X187907006Y-83000000D01*
X192592993Y-83000000D01*
X192612183Y-83231582D01*
X192612183Y-83231585D01*
X192612184Y-83231587D01*
X192669229Y-83456855D01*
X192762575Y-83669662D01*
X192889675Y-83864202D01*
X193047061Y-84035169D01*
X193230441Y-84177899D01*
X193434812Y-84288500D01*
X193654600Y-84363953D01*
X193883810Y-84402201D01*
X194116190Y-84402201D01*
X194345400Y-84363953D01*
X194565188Y-84288500D01*
X194769559Y-84177899D01*
X194952939Y-84035169D01*
X195110325Y-83864202D01*
X195237425Y-83669662D01*
X195330771Y-83456855D01*
X195387816Y-83231587D01*
X195407006Y-83000001D01*
X195387816Y-82768415D01*
X195330771Y-82543147D01*
X195237425Y-82330340D01*
X195110325Y-82135800D01*
X194952939Y-81964833D01*
X194769559Y-81822103D01*
X194565188Y-81711502D01*
X194345401Y-81636049D01*
X194116190Y-81597801D01*
X193883810Y-81597801D01*
X193654598Y-81636049D01*
X193434811Y-81711502D01*
X193230444Y-81822101D01*
X193047060Y-81964833D01*
X192911715Y-82111858D01*
X192889675Y-82135800D01*
X192762575Y-82330340D01*
X192762574Y-82330342D01*
X192757637Y-82341598D01*
X192669229Y-82543147D01*
X192645899Y-82635277D01*
X192612183Y-82768419D01*
X192592993Y-83000000D01*
X187907006Y-83000000D01*
X187887816Y-82768415D01*
X187830771Y-82543147D01*
X187737425Y-82330340D01*
X187610325Y-82135800D01*
X187452939Y-81964833D01*
X187269559Y-81822103D01*
X187065188Y-81711502D01*
X186845401Y-81636049D01*
X186616190Y-81597801D01*
X186383810Y-81597801D01*
X186154598Y-81636049D01*
X185934811Y-81711502D01*
X185730444Y-81822101D01*
X185547060Y-81964833D01*
X185411715Y-82111858D01*
X185389675Y-82135800D01*
X185262575Y-82330340D01*
X185262574Y-82330342D01*
X185257637Y-82341598D01*
X185169229Y-82543147D01*
X185145899Y-82635277D01*
X185112183Y-82768419D01*
X185092993Y-83000000D01*
X152000500Y-83000000D01*
X152000500Y-80249999D01*
X154392997Y-80249999D01*
X154412187Y-80481581D01*
X154412187Y-80481584D01*
X154412188Y-80481586D01*
X154469233Y-80706854D01*
X154562579Y-80919661D01*
X154689679Y-81114201D01*
X154847065Y-81285168D01*
X155030445Y-81427898D01*
X155234816Y-81538499D01*
X155454604Y-81613952D01*
X155683814Y-81652200D01*
X155916194Y-81652200D01*
X156145404Y-81613952D01*
X156365192Y-81538499D01*
X156569563Y-81427898D01*
X156752943Y-81285168D01*
X156910329Y-81114201D01*
X157037429Y-80919661D01*
X157130775Y-80706854D01*
X157187820Y-80481586D01*
X157207010Y-80250000D01*
X157207010Y-80249999D01*
X169392997Y-80249999D01*
X169412187Y-80481581D01*
X169412187Y-80481584D01*
X169412188Y-80481586D01*
X169469233Y-80706854D01*
X169562579Y-80919661D01*
X169689679Y-81114201D01*
X169847065Y-81285168D01*
X170030445Y-81427898D01*
X170234816Y-81538499D01*
X170454604Y-81613952D01*
X170683814Y-81652200D01*
X170916194Y-81652200D01*
X171145404Y-81613952D01*
X171365192Y-81538499D01*
X171569563Y-81427898D01*
X171752943Y-81285168D01*
X171910329Y-81114201D01*
X172037429Y-80919661D01*
X172130775Y-80706854D01*
X172187820Y-80481586D01*
X172207010Y-80250000D01*
X172207010Y-80249999D01*
X174392998Y-80249999D01*
X174412188Y-80481581D01*
X174412188Y-80481584D01*
X174412189Y-80481586D01*
X174469234Y-80706854D01*
X174562580Y-80919661D01*
X174689680Y-81114201D01*
X174847066Y-81285168D01*
X175030446Y-81427898D01*
X175234817Y-81538499D01*
X175454605Y-81613952D01*
X175683815Y-81652200D01*
X175916195Y-81652200D01*
X176145405Y-81613952D01*
X176365193Y-81538499D01*
X176569564Y-81427898D01*
X176752944Y-81285168D01*
X176910330Y-81114201D01*
X177037430Y-80919661D01*
X177130776Y-80706854D01*
X177187821Y-80481586D01*
X177207011Y-80250000D01*
X177207011Y-80249999D01*
X179392998Y-80249999D01*
X179412188Y-80481581D01*
X179412188Y-80481584D01*
X179412189Y-80481586D01*
X179469234Y-80706854D01*
X179562580Y-80919661D01*
X179689680Y-81114201D01*
X179847066Y-81285168D01*
X180030446Y-81427898D01*
X180234817Y-81538499D01*
X180454605Y-81613952D01*
X180683815Y-81652200D01*
X180916195Y-81652200D01*
X181145405Y-81613952D01*
X181365193Y-81538499D01*
X181569564Y-81427898D01*
X181752944Y-81285168D01*
X181910330Y-81114201D01*
X182037430Y-80919661D01*
X182130776Y-80706854D01*
X182187821Y-80481586D01*
X182207011Y-80250000D01*
X182207011Y-80249999D01*
X199792988Y-80249999D01*
X199812178Y-80481581D01*
X199812178Y-80481584D01*
X199812179Y-80481586D01*
X199869224Y-80706854D01*
X199962570Y-80919661D01*
X200089670Y-81114201D01*
X200247056Y-81285168D01*
X200430436Y-81427898D01*
X200634807Y-81538499D01*
X200854595Y-81613952D01*
X201083805Y-81652200D01*
X201316185Y-81652200D01*
X201545395Y-81613952D01*
X201765183Y-81538499D01*
X201969554Y-81427898D01*
X202152934Y-81285168D01*
X202310320Y-81114201D01*
X202437420Y-80919661D01*
X202530766Y-80706854D01*
X202587811Y-80481586D01*
X202607001Y-80250000D01*
X202607001Y-80249999D01*
X204792988Y-80249999D01*
X204812178Y-80481581D01*
X204812178Y-80481584D01*
X204812179Y-80481586D01*
X204869224Y-80706854D01*
X204962570Y-80919661D01*
X205089670Y-81114201D01*
X205247056Y-81285168D01*
X205430436Y-81427898D01*
X205634807Y-81538499D01*
X205854595Y-81613952D01*
X206083805Y-81652200D01*
X206316185Y-81652200D01*
X206545395Y-81613952D01*
X206765183Y-81538499D01*
X206969554Y-81427898D01*
X207152934Y-81285168D01*
X207310320Y-81114201D01*
X207437420Y-80919661D01*
X207530766Y-80706854D01*
X207587811Y-80481586D01*
X207607001Y-80250000D01*
X207607001Y-80249999D01*
X209792989Y-80249999D01*
X209812179Y-80481581D01*
X209812179Y-80481584D01*
X209812180Y-80481586D01*
X209869225Y-80706854D01*
X209962571Y-80919661D01*
X210089671Y-81114201D01*
X210247057Y-81285168D01*
X210430437Y-81427898D01*
X210634808Y-81538499D01*
X210854596Y-81613952D01*
X211083806Y-81652200D01*
X211316186Y-81652200D01*
X211545396Y-81613952D01*
X211765184Y-81538499D01*
X211969555Y-81427898D01*
X212152935Y-81285168D01*
X212310321Y-81114201D01*
X212437421Y-80919661D01*
X212530767Y-80706854D01*
X212587812Y-80481586D01*
X212607002Y-80250000D01*
X212607002Y-80249999D01*
X224792989Y-80249999D01*
X224812179Y-80481581D01*
X224812179Y-80481584D01*
X224812180Y-80481586D01*
X224869225Y-80706854D01*
X224962571Y-80919661D01*
X225089671Y-81114201D01*
X225247057Y-81285168D01*
X225430437Y-81427898D01*
X225634808Y-81538499D01*
X225854596Y-81613952D01*
X226083806Y-81652200D01*
X226316186Y-81652200D01*
X226545396Y-81613952D01*
X226765184Y-81538499D01*
X226969555Y-81427898D01*
X227031095Y-81380000D01*
X235744722Y-81380000D01*
X235763792Y-81597974D01*
X235763793Y-81597977D01*
X235820425Y-81809330D01*
X235912898Y-82007639D01*
X236038402Y-82186877D01*
X236193123Y-82341598D01*
X236372361Y-82467102D01*
X236570670Y-82559575D01*
X236782023Y-82616207D01*
X237000000Y-82635277D01*
X237217977Y-82616207D01*
X237429330Y-82559575D01*
X237627639Y-82467102D01*
X237806877Y-82341598D01*
X237961598Y-82186877D01*
X238087102Y-82007639D01*
X238157617Y-81856417D01*
X238203375Y-81804241D01*
X238270000Y-81784822D01*
X238336625Y-81804241D01*
X238382382Y-81856417D01*
X238452898Y-82007639D01*
X238578402Y-82186877D01*
X238733123Y-82341598D01*
X238912361Y-82467102D01*
X239110670Y-82559575D01*
X239322023Y-82616207D01*
X239540000Y-82635277D01*
X239757977Y-82616207D01*
X239969330Y-82559575D01*
X240167639Y-82467102D01*
X240346877Y-82341598D01*
X240501598Y-82186877D01*
X240627102Y-82007639D01*
X240697617Y-81856417D01*
X240743375Y-81804241D01*
X240810000Y-81784822D01*
X240876625Y-81804241D01*
X240922382Y-81856417D01*
X240992898Y-82007639D01*
X241118402Y-82186877D01*
X241273123Y-82341598D01*
X241452361Y-82467102D01*
X241650670Y-82559575D01*
X241862023Y-82616207D01*
X242080000Y-82635277D01*
X242297977Y-82616207D01*
X242509330Y-82559575D01*
X242707639Y-82467102D01*
X242886877Y-82341598D01*
X243041598Y-82186877D01*
X243167102Y-82007639D01*
X243237617Y-81856417D01*
X243283375Y-81804241D01*
X243350000Y-81784822D01*
X243416625Y-81804241D01*
X243462382Y-81856417D01*
X243532898Y-82007639D01*
X243658402Y-82186877D01*
X243813123Y-82341598D01*
X243992361Y-82467102D01*
X244190670Y-82559575D01*
X244402023Y-82616207D01*
X244620000Y-82635277D01*
X244837977Y-82616207D01*
X245049330Y-82559575D01*
X245247639Y-82467102D01*
X245426877Y-82341598D01*
X245581598Y-82186877D01*
X245683928Y-82040733D01*
X245731141Y-82000410D01*
X245791989Y-81988030D01*
X245851209Y-82006701D01*
X245893952Y-82051742D01*
X245909500Y-82111858D01*
X245909500Y-82177869D01*
X245910469Y-82186878D01*
X245915909Y-82237483D01*
X245966204Y-82372331D01*
X246052454Y-82487546D01*
X246167669Y-82573796D01*
X246302517Y-82624091D01*
X246362127Y-82630500D01*
X247957872Y-82630499D01*
X248017483Y-82624091D01*
X248152331Y-82573796D01*
X248267546Y-82487546D01*
X248353796Y-82372331D01*
X248404091Y-82237483D01*
X248410500Y-82177873D01*
X248410499Y-80582128D01*
X248404091Y-80522517D01*
X248353796Y-80387669D01*
X248267546Y-80272454D01*
X248160728Y-80192490D01*
X255911061Y-80192490D01*
X256082705Y-80309515D01*
X256318978Y-80423297D01*
X256569568Y-80500595D01*
X256828879Y-80539680D01*
X257091121Y-80539680D01*
X257350431Y-80500595D01*
X257601021Y-80423297D01*
X257837290Y-80309516D01*
X258008937Y-80192490D01*
X260991061Y-80192490D01*
X261162705Y-80309515D01*
X261398978Y-80423297D01*
X261649568Y-80500595D01*
X261908879Y-80539680D01*
X262171121Y-80539680D01*
X262430431Y-80500595D01*
X262681021Y-80423297D01*
X262917291Y-80309516D01*
X262974179Y-80270730D01*
X263027386Y-80250305D01*
X263084109Y-80255838D01*
X263132366Y-80286160D01*
X263161961Y-80334863D01*
X263172820Y-80368283D01*
X263172821Y-80368284D01*
X263182887Y-80385718D01*
X263199500Y-80447718D01*
X263199500Y-82302282D01*
X263182887Y-82364282D01*
X263172821Y-82381715D01*
X263114326Y-82561742D01*
X263094540Y-82749999D01*
X263094540Y-82750000D01*
X263096476Y-82768419D01*
X263114326Y-82938257D01*
X263172820Y-83118284D01*
X263267466Y-83282216D01*
X263394129Y-83422889D01*
X263547269Y-83534151D01*
X263720197Y-83611144D01*
X263905352Y-83650500D01*
X263905354Y-83650500D01*
X264094646Y-83650500D01*
X264094648Y-83650500D01*
X264218084Y-83624262D01*
X264279803Y-83611144D01*
X264452730Y-83534151D01*
X264559118Y-83456856D01*
X264605870Y-83422889D01*
X264732533Y-83282216D01*
X264827179Y-83118284D01*
X264827178Y-83118284D01*
X264885674Y-82938256D01*
X264905460Y-82750000D01*
X264885674Y-82561744D01*
X264827179Y-82381716D01*
X264817112Y-82364280D01*
X264800500Y-82302282D01*
X264800500Y-80447718D01*
X264817113Y-80385718D01*
X264827179Y-80368284D01*
X264885674Y-80188256D01*
X264905460Y-80000000D01*
X264885674Y-79811744D01*
X264827179Y-79631716D01*
X264827179Y-79631715D01*
X264732533Y-79467783D01*
X264605870Y-79327110D01*
X264452730Y-79215848D01*
X264279802Y-79138855D01*
X264094648Y-79099500D01*
X264094646Y-79099500D01*
X263905354Y-79099500D01*
X263905033Y-79099500D01*
X263840375Y-79081308D01*
X263794689Y-79032070D01*
X263781380Y-78966234D01*
X263794586Y-78790000D01*
X263774989Y-78528495D01*
X263716634Y-78272826D01*
X263620826Y-78028713D01*
X263489705Y-77801604D01*
X263441897Y-77741654D01*
X262040000Y-79143553D01*
X260991061Y-80192490D01*
X258008937Y-80192490D01*
X256960001Y-79143553D01*
X256960000Y-79143553D01*
X255911061Y-80192490D01*
X248160728Y-80192490D01*
X248152331Y-80186204D01*
X248017483Y-80135909D01*
X247957873Y-80129500D01*
X247957869Y-80129500D01*
X246362130Y-80129500D01*
X246302515Y-80135909D01*
X246167669Y-80186204D01*
X246052454Y-80272454D01*
X245966204Y-80387668D01*
X245915909Y-80522515D01*
X245915909Y-80522517D01*
X245910469Y-80573122D01*
X245909500Y-80582131D01*
X245909500Y-80648138D01*
X245893953Y-80708254D01*
X245851210Y-80753296D01*
X245791990Y-80771968D01*
X245731142Y-80759589D01*
X245683925Y-80719262D01*
X245676217Y-80708254D01*
X245581598Y-80573123D01*
X245426877Y-80418402D01*
X245247639Y-80292898D01*
X245155642Y-80249999D01*
X245049331Y-80200425D01*
X244837974Y-80143792D01*
X244620000Y-80124722D01*
X244402025Y-80143792D01*
X244190668Y-80200425D01*
X243992361Y-80292898D01*
X243813122Y-80418402D01*
X243658402Y-80573122D01*
X243532898Y-80752361D01*
X243462382Y-80903583D01*
X243416625Y-80955759D01*
X243350000Y-80975178D01*
X243283375Y-80955759D01*
X243237618Y-80903583D01*
X243170472Y-80759589D01*
X243167102Y-80752362D01*
X243041598Y-80573123D01*
X242886877Y-80418402D01*
X242707639Y-80292898D01*
X242615642Y-80249999D01*
X242509331Y-80200425D01*
X242297974Y-80143792D01*
X242080000Y-80124722D01*
X241862025Y-80143792D01*
X241650668Y-80200425D01*
X241452361Y-80292898D01*
X241273122Y-80418402D01*
X241118402Y-80573122D01*
X240992898Y-80752361D01*
X240922382Y-80903583D01*
X240876625Y-80955759D01*
X240810000Y-80975178D01*
X240743375Y-80955759D01*
X240697618Y-80903583D01*
X240630472Y-80759589D01*
X240627102Y-80752362D01*
X240501598Y-80573123D01*
X240346877Y-80418402D01*
X240167639Y-80292898D01*
X240075642Y-80249999D01*
X239969331Y-80200425D01*
X239757974Y-80143792D01*
X239540000Y-80124722D01*
X239322025Y-80143792D01*
X239110668Y-80200425D01*
X238912361Y-80292898D01*
X238733122Y-80418402D01*
X238578402Y-80573122D01*
X238452898Y-80752361D01*
X238382382Y-80903583D01*
X238336625Y-80955759D01*
X238270000Y-80975178D01*
X238203375Y-80955759D01*
X238157618Y-80903583D01*
X238090472Y-80759589D01*
X238087102Y-80752362D01*
X237961598Y-80573123D01*
X237806877Y-80418402D01*
X237627639Y-80292898D01*
X237535642Y-80249999D01*
X237429331Y-80200425D01*
X237217974Y-80143792D01*
X237000000Y-80124722D01*
X236782025Y-80143792D01*
X236570668Y-80200425D01*
X236372361Y-80292898D01*
X236193122Y-80418402D01*
X236038402Y-80573122D01*
X235912898Y-80752361D01*
X235820425Y-80950668D01*
X235763792Y-81162025D01*
X235744722Y-81380000D01*
X227031095Y-81380000D01*
X227152935Y-81285168D01*
X227310321Y-81114201D01*
X227437421Y-80919661D01*
X227530767Y-80706854D01*
X227587812Y-80481586D01*
X227607002Y-80250000D01*
X227587812Y-80018414D01*
X227530767Y-79793146D01*
X227437421Y-79580339D01*
X227310321Y-79385799D01*
X227152935Y-79214832D01*
X226969555Y-79072102D01*
X226765184Y-78961501D01*
X226765183Y-78961500D01*
X226545397Y-78886048D01*
X226316186Y-78847800D01*
X226083806Y-78847800D01*
X225854594Y-78886048D01*
X225634807Y-78961501D01*
X225430440Y-79072100D01*
X225247056Y-79214832D01*
X225101253Y-79373216D01*
X225089671Y-79385799D01*
X224962571Y-79580339D01*
X224869225Y-79793146D01*
X224816843Y-80000000D01*
X224812179Y-80018418D01*
X224792989Y-80249999D01*
X212607002Y-80249999D01*
X212587812Y-80018414D01*
X212530767Y-79793146D01*
X212437421Y-79580339D01*
X212310321Y-79385799D01*
X212152935Y-79214832D01*
X211969555Y-79072102D01*
X211765184Y-78961501D01*
X211765183Y-78961500D01*
X211545397Y-78886048D01*
X211316186Y-78847800D01*
X211083806Y-78847800D01*
X210854594Y-78886048D01*
X210634807Y-78961501D01*
X210430440Y-79072100D01*
X210247056Y-79214832D01*
X210101253Y-79373216D01*
X210089671Y-79385799D01*
X209962571Y-79580339D01*
X209869225Y-79793146D01*
X209816843Y-80000000D01*
X209812179Y-80018418D01*
X209792989Y-80249999D01*
X207607001Y-80249999D01*
X207587811Y-80018414D01*
X207530766Y-79793146D01*
X207437420Y-79580339D01*
X207310320Y-79385799D01*
X207152934Y-79214832D01*
X206969554Y-79072102D01*
X206765183Y-78961501D01*
X206765182Y-78961500D01*
X206545396Y-78886048D01*
X206316185Y-78847800D01*
X206083805Y-78847800D01*
X205854593Y-78886048D01*
X205634806Y-78961501D01*
X205430439Y-79072100D01*
X205247055Y-79214832D01*
X205101252Y-79373216D01*
X205089670Y-79385799D01*
X204962570Y-79580339D01*
X204869224Y-79793146D01*
X204816842Y-80000000D01*
X204812178Y-80018418D01*
X204792988Y-80249999D01*
X202607001Y-80249999D01*
X202587811Y-80018414D01*
X202530766Y-79793146D01*
X202437420Y-79580339D01*
X202310320Y-79385799D01*
X202152934Y-79214832D01*
X201969554Y-79072102D01*
X201765183Y-78961501D01*
X201765182Y-78961500D01*
X201545396Y-78886048D01*
X201316185Y-78847800D01*
X201083805Y-78847800D01*
X200854593Y-78886048D01*
X200634806Y-78961501D01*
X200430439Y-79072100D01*
X200247055Y-79214832D01*
X200101252Y-79373216D01*
X200089670Y-79385799D01*
X199962570Y-79580339D01*
X199869224Y-79793146D01*
X199816842Y-80000000D01*
X199812178Y-80018418D01*
X199792988Y-80249999D01*
X182207011Y-80249999D01*
X182187821Y-80018414D01*
X182130776Y-79793146D01*
X182037430Y-79580339D01*
X181910330Y-79385799D01*
X181752944Y-79214832D01*
X181569564Y-79072102D01*
X181365193Y-78961501D01*
X181365192Y-78961500D01*
X181145406Y-78886048D01*
X180916195Y-78847800D01*
X180683815Y-78847800D01*
X180454603Y-78886048D01*
X180234816Y-78961501D01*
X180030449Y-79072100D01*
X179847065Y-79214832D01*
X179701262Y-79373216D01*
X179689680Y-79385799D01*
X179562580Y-79580339D01*
X179469234Y-79793146D01*
X179416852Y-80000000D01*
X179412188Y-80018418D01*
X179392998Y-80249999D01*
X177207011Y-80249999D01*
X177187821Y-80018414D01*
X177130776Y-79793146D01*
X177037430Y-79580339D01*
X176910330Y-79385799D01*
X176752944Y-79214832D01*
X176569564Y-79072102D01*
X176365193Y-78961501D01*
X176365192Y-78961500D01*
X176145406Y-78886048D01*
X175916195Y-78847800D01*
X175683815Y-78847800D01*
X175454603Y-78886048D01*
X175234816Y-78961501D01*
X175030449Y-79072100D01*
X174847065Y-79214832D01*
X174701262Y-79373216D01*
X174689680Y-79385799D01*
X174562580Y-79580339D01*
X174469234Y-79793146D01*
X174416852Y-80000000D01*
X174412188Y-80018418D01*
X174392998Y-80249999D01*
X172207010Y-80249999D01*
X172187820Y-80018414D01*
X172130775Y-79793146D01*
X172037429Y-79580339D01*
X171910329Y-79385799D01*
X171752943Y-79214832D01*
X171569563Y-79072102D01*
X171365192Y-78961501D01*
X171365191Y-78961500D01*
X171145405Y-78886048D01*
X170916194Y-78847800D01*
X170683814Y-78847800D01*
X170454602Y-78886048D01*
X170234815Y-78961501D01*
X170030448Y-79072100D01*
X169847064Y-79214832D01*
X169701261Y-79373216D01*
X169689679Y-79385799D01*
X169562579Y-79580339D01*
X169469233Y-79793146D01*
X169416851Y-80000000D01*
X169412187Y-80018418D01*
X169392997Y-80249999D01*
X157207010Y-80249999D01*
X157187820Y-80018414D01*
X157130775Y-79793146D01*
X157037429Y-79580339D01*
X156910329Y-79385799D01*
X156752943Y-79214832D01*
X156569563Y-79072102D01*
X156365192Y-78961501D01*
X156365191Y-78961500D01*
X156145405Y-78886048D01*
X155916194Y-78847800D01*
X155683814Y-78847800D01*
X155454602Y-78886048D01*
X155234815Y-78961501D01*
X155030448Y-79072100D01*
X154847064Y-79214832D01*
X154701261Y-79373216D01*
X154689679Y-79385799D01*
X154562579Y-79580339D01*
X154469233Y-79793146D01*
X154416851Y-80000000D01*
X154412187Y-80018418D01*
X154392997Y-80249999D01*
X152000500Y-80249999D01*
X152000500Y-77999999D01*
X185092993Y-77999999D01*
X185112183Y-78231581D01*
X185112183Y-78231584D01*
X185112184Y-78231586D01*
X185169229Y-78456854D01*
X185262575Y-78669661D01*
X185389675Y-78864201D01*
X185547061Y-79035168D01*
X185730441Y-79177898D01*
X185934812Y-79288499D01*
X186154600Y-79363952D01*
X186383810Y-79402200D01*
X186616190Y-79402200D01*
X186845400Y-79363952D01*
X187065188Y-79288499D01*
X187269559Y-79177898D01*
X187452939Y-79035168D01*
X187610325Y-78864201D01*
X187737425Y-78669661D01*
X187830771Y-78456854D01*
X187887816Y-78231586D01*
X187907006Y-78000000D01*
X187907006Y-77999999D01*
X192592993Y-77999999D01*
X192612183Y-78231581D01*
X192612183Y-78231584D01*
X192612184Y-78231586D01*
X192669229Y-78456854D01*
X192762575Y-78669661D01*
X192889675Y-78864201D01*
X193047061Y-79035168D01*
X193230441Y-79177898D01*
X193434812Y-79288499D01*
X193654600Y-79363952D01*
X193883810Y-79402200D01*
X194116190Y-79402200D01*
X194345400Y-79363952D01*
X194565188Y-79288499D01*
X194769559Y-79177898D01*
X194952939Y-79035168D01*
X195110325Y-78864201D01*
X195158804Y-78789999D01*
X255205413Y-78789999D01*
X255225010Y-79051504D01*
X255283365Y-79307173D01*
X255379173Y-79551286D01*
X255510291Y-79778390D01*
X255558102Y-79838343D01*
X256606446Y-78790001D01*
X256606446Y-78790000D01*
X257313553Y-78790000D01*
X258361896Y-79838344D01*
X258361897Y-79838343D01*
X258409707Y-79778392D01*
X258540826Y-79551287D01*
X258636634Y-79307173D01*
X258694989Y-79051504D01*
X258714586Y-78789999D01*
X260285413Y-78789999D01*
X260305010Y-79051504D01*
X260363365Y-79307173D01*
X260459173Y-79551286D01*
X260590291Y-79778390D01*
X260638102Y-79838343D01*
X261686446Y-78790001D01*
X261686446Y-78790000D01*
X260638102Y-77741655D01*
X260590291Y-77801609D01*
X260459173Y-78028713D01*
X260363365Y-78272826D01*
X260305010Y-78528495D01*
X260285413Y-78789999D01*
X258714586Y-78789999D01*
X258694989Y-78528495D01*
X258636634Y-78272826D01*
X258540826Y-78028713D01*
X258409705Y-77801604D01*
X258361897Y-77741654D01*
X257313553Y-78790000D01*
X256606446Y-78790000D01*
X255558102Y-77741655D01*
X255510291Y-77801609D01*
X255379173Y-78028713D01*
X255283365Y-78272826D01*
X255225010Y-78528495D01*
X255205413Y-78789999D01*
X195158804Y-78789999D01*
X195237425Y-78669661D01*
X195330771Y-78456854D01*
X195387816Y-78231586D01*
X195407006Y-78000000D01*
X195387816Y-77768414D01*
X195330771Y-77543146D01*
X195262502Y-77387508D01*
X255911062Y-77387508D01*
X256960000Y-78436446D01*
X256960001Y-78436446D01*
X258008936Y-77387508D01*
X260991062Y-77387508D01*
X262040000Y-78436446D01*
X262040001Y-78436446D01*
X263088937Y-77387507D01*
X262917294Y-77270484D01*
X262681021Y-77156702D01*
X262430431Y-77079404D01*
X262171121Y-77040320D01*
X261908879Y-77040320D01*
X261649568Y-77079404D01*
X261398978Y-77156702D01*
X261162706Y-77270484D01*
X260991062Y-77387508D01*
X258008936Y-77387508D01*
X258008937Y-77387507D01*
X257837294Y-77270484D01*
X257601021Y-77156702D01*
X257350431Y-77079404D01*
X257091121Y-77040320D01*
X256828879Y-77040320D01*
X256569568Y-77079404D01*
X256318978Y-77156702D01*
X256082706Y-77270484D01*
X255911062Y-77387508D01*
X195262502Y-77387508D01*
X195237425Y-77330339D01*
X195110325Y-77135799D01*
X194952939Y-76964832D01*
X194769559Y-76822102D01*
X194565188Y-76711501D01*
X194345401Y-76636048D01*
X194116190Y-76597800D01*
X193883810Y-76597800D01*
X193654598Y-76636048D01*
X193434811Y-76711501D01*
X193230444Y-76822100D01*
X193230442Y-76822101D01*
X193230441Y-76822102D01*
X193175265Y-76865046D01*
X193047060Y-76964832D01*
X192977569Y-77040320D01*
X192889675Y-77135799D01*
X192774803Y-77311623D01*
X192762574Y-77330341D01*
X192737499Y-77387507D01*
X192669229Y-77543146D01*
X192618960Y-77741655D01*
X192612183Y-77768418D01*
X192592993Y-77999999D01*
X187907006Y-77999999D01*
X187887816Y-77768414D01*
X187830771Y-77543146D01*
X187737425Y-77330339D01*
X187610325Y-77135799D01*
X187452939Y-76964832D01*
X187269559Y-76822102D01*
X187065188Y-76711501D01*
X186845401Y-76636048D01*
X186616190Y-76597800D01*
X186383810Y-76597800D01*
X186154598Y-76636048D01*
X185934811Y-76711501D01*
X185730444Y-76822100D01*
X185730442Y-76822101D01*
X185730441Y-76822102D01*
X185675265Y-76865046D01*
X185547060Y-76964832D01*
X185477569Y-77040320D01*
X185389675Y-77135799D01*
X185274803Y-77311623D01*
X185262574Y-77330341D01*
X185237499Y-77387507D01*
X185169229Y-77543146D01*
X185118960Y-77741655D01*
X185112183Y-77768418D01*
X185092993Y-77999999D01*
X152000500Y-77999999D01*
X152000500Y-76249999D01*
X258396242Y-76249999D01*
X258415035Y-76452816D01*
X258470775Y-76648723D01*
X258561563Y-76831051D01*
X258684313Y-76993598D01*
X258834834Y-77130816D01*
X258834836Y-77130817D01*
X258834837Y-77130818D01*
X259008013Y-77238044D01*
X259197942Y-77311623D01*
X259398158Y-77349050D01*
X259601840Y-77349050D01*
X259601842Y-77349050D01*
X259802058Y-77311623D01*
X259991987Y-77238044D01*
X260165163Y-77130818D01*
X260315687Y-76993597D01*
X260438434Y-76831054D01*
X260438434Y-76831052D01*
X260438436Y-76831051D01*
X260529224Y-76648723D01*
X260584964Y-76452816D01*
X260586433Y-76436960D01*
X260603758Y-76250000D01*
X260584964Y-76047185D01*
X260584964Y-76047183D01*
X260529224Y-75851276D01*
X260438436Y-75668948D01*
X260315686Y-75506401D01*
X260165165Y-75369183D01*
X259991987Y-75261956D01*
X259802058Y-75188377D01*
X259601842Y-75150950D01*
X259398158Y-75150950D01*
X259197942Y-75188376D01*
X259197942Y-75188377D01*
X259008012Y-75261956D01*
X258834834Y-75369183D01*
X258684313Y-75506401D01*
X258561563Y-75668948D01*
X258470775Y-75851276D01*
X258415035Y-76047183D01*
X258396242Y-76249999D01*
X152000500Y-76249999D01*
X152000500Y-75112490D01*
X255911061Y-75112490D01*
X256082705Y-75229515D01*
X256318978Y-75343297D01*
X256569568Y-75420595D01*
X256828879Y-75459680D01*
X257091121Y-75459680D01*
X257350431Y-75420595D01*
X257601021Y-75343297D01*
X257837290Y-75229516D01*
X258008937Y-75112490D01*
X260991061Y-75112490D01*
X261162705Y-75229515D01*
X261398978Y-75343297D01*
X261649568Y-75420595D01*
X261908879Y-75459680D01*
X262171121Y-75459680D01*
X262430431Y-75420595D01*
X262681021Y-75343297D01*
X262917290Y-75229516D01*
X263088937Y-75112490D01*
X262040001Y-74063553D01*
X262040000Y-74063553D01*
X260991061Y-75112490D01*
X258008937Y-75112490D01*
X256960001Y-74063553D01*
X256960000Y-74063553D01*
X255911061Y-75112490D01*
X152000500Y-75112490D01*
X152000500Y-72934701D01*
X157418851Y-72934701D01*
X157651931Y-73123447D01*
X157959593Y-73323246D01*
X158286468Y-73489797D01*
X158628954Y-73621265D01*
X158983316Y-73716216D01*
X159345645Y-73773602D01*
X159711999Y-73792802D01*
X160078354Y-73773602D01*
X160440683Y-73716216D01*
X160795045Y-73621265D01*
X161137531Y-73489797D01*
X161464406Y-73323246D01*
X161772069Y-73123447D01*
X162005148Y-72934702D01*
X162005148Y-72934701D01*
X175706851Y-72934701D01*
X175939931Y-73123447D01*
X176247593Y-73323246D01*
X176574468Y-73489797D01*
X176916954Y-73621265D01*
X177271316Y-73716216D01*
X177633645Y-73773602D01*
X177999999Y-73792802D01*
X178366354Y-73773602D01*
X178728683Y-73716216D01*
X178751881Y-73710000D01*
X255205413Y-73710000D01*
X255225010Y-73971504D01*
X255283365Y-74227173D01*
X255379173Y-74471286D01*
X255510291Y-74698390D01*
X255558102Y-74758343D01*
X256606446Y-73710001D01*
X256606446Y-73710000D01*
X257313553Y-73710000D01*
X258361896Y-74758344D01*
X258361897Y-74758343D01*
X258409707Y-74698392D01*
X258540826Y-74471287D01*
X258636634Y-74227173D01*
X258694989Y-73971504D01*
X258714586Y-73710000D01*
X260285413Y-73710000D01*
X260305010Y-73971504D01*
X260363365Y-74227173D01*
X260459173Y-74471286D01*
X260590291Y-74698390D01*
X260638102Y-74758343D01*
X261686446Y-73710001D01*
X261686446Y-73710000D01*
X262393553Y-73710000D01*
X263441896Y-74758344D01*
X263441897Y-74758343D01*
X263489707Y-74698392D01*
X263620826Y-74471287D01*
X263716634Y-74227173D01*
X263774989Y-73971504D01*
X263794586Y-73709999D01*
X263774989Y-73448495D01*
X263716634Y-73192826D01*
X263620826Y-72948713D01*
X263489705Y-72721604D01*
X263441897Y-72661654D01*
X262393553Y-73710000D01*
X261686446Y-73710000D01*
X260638102Y-72661655D01*
X260590291Y-72721609D01*
X260459173Y-72948713D01*
X260363365Y-73192826D01*
X260305010Y-73448495D01*
X260285413Y-73710000D01*
X258714586Y-73710000D01*
X258694989Y-73448495D01*
X258636634Y-73192826D01*
X258540826Y-72948713D01*
X258409705Y-72721604D01*
X258361897Y-72661654D01*
X257313553Y-73710000D01*
X256606446Y-73710000D01*
X255558102Y-72661655D01*
X255510291Y-72721609D01*
X255379173Y-72948713D01*
X255283365Y-73192826D01*
X255225010Y-73448495D01*
X255205413Y-73710000D01*
X178751881Y-73710000D01*
X179083045Y-73621265D01*
X179425531Y-73489797D01*
X179752406Y-73323246D01*
X180060069Y-73123447D01*
X180293148Y-72934702D01*
X180293148Y-72934701D01*
X180005148Y-72646701D01*
X199706851Y-72646701D01*
X199939931Y-72835447D01*
X200247593Y-73035246D01*
X200574468Y-73201797D01*
X200916954Y-73333265D01*
X201271316Y-73428216D01*
X201633645Y-73485602D01*
X202000000Y-73504802D01*
X202366354Y-73485602D01*
X202728683Y-73428216D01*
X203083045Y-73333265D01*
X203425531Y-73201797D01*
X203752406Y-73035246D01*
X204060069Y-72835447D01*
X204293148Y-72646702D01*
X204293148Y-72646701D01*
X217994851Y-72646701D01*
X218227931Y-72835447D01*
X218535593Y-73035246D01*
X218862468Y-73201797D01*
X219204954Y-73333265D01*
X219559316Y-73428216D01*
X219921645Y-73485602D01*
X220288000Y-73504802D01*
X220654354Y-73485602D01*
X221016683Y-73428216D01*
X221371045Y-73333265D01*
X221713531Y-73201797D01*
X222040406Y-73035246D01*
X222348069Y-72835447D01*
X222581148Y-72646702D01*
X222581148Y-72646701D01*
X222416937Y-72482490D01*
X228411061Y-72482490D01*
X228582705Y-72599515D01*
X228818978Y-72713297D01*
X229069568Y-72790595D01*
X229328879Y-72829680D01*
X229591121Y-72829680D01*
X229850431Y-72790595D01*
X230101021Y-72713297D01*
X230337290Y-72599516D01*
X230508937Y-72482490D01*
X233491061Y-72482490D01*
X233662705Y-72599515D01*
X233898978Y-72713297D01*
X234149568Y-72790595D01*
X234408879Y-72829680D01*
X234671121Y-72829680D01*
X234930431Y-72790595D01*
X235181021Y-72713297D01*
X235417290Y-72599516D01*
X235588937Y-72482490D01*
X243951061Y-72482490D01*
X244122705Y-72599515D01*
X244358978Y-72713297D01*
X244609568Y-72790595D01*
X244868879Y-72829680D01*
X245131121Y-72829680D01*
X245390431Y-72790595D01*
X245641021Y-72713297D01*
X245877290Y-72599516D01*
X246048937Y-72482490D01*
X249031061Y-72482490D01*
X249202705Y-72599515D01*
X249438978Y-72713297D01*
X249689568Y-72790595D01*
X249948879Y-72829680D01*
X250211121Y-72829680D01*
X250470431Y-72790595D01*
X250721021Y-72713297D01*
X250957290Y-72599516D01*
X251128937Y-72482490D01*
X250953955Y-72307508D01*
X255911062Y-72307508D01*
X256960000Y-73356446D01*
X256960001Y-73356446D01*
X258008936Y-72307508D01*
X260991062Y-72307508D01*
X262040000Y-73356446D01*
X262040001Y-73356446D01*
X263088937Y-72307507D01*
X262917294Y-72190484D01*
X262681021Y-72076702D01*
X262430431Y-71999404D01*
X262171121Y-71960320D01*
X261908879Y-71960320D01*
X261649568Y-71999404D01*
X261398978Y-72076702D01*
X261162706Y-72190484D01*
X260991062Y-72307508D01*
X258008936Y-72307508D01*
X258008937Y-72307507D01*
X257837294Y-72190484D01*
X257601021Y-72076702D01*
X257350431Y-71999404D01*
X257091121Y-71960320D01*
X256828879Y-71960320D01*
X256569568Y-71999404D01*
X256318978Y-72076702D01*
X256082706Y-72190484D01*
X255911062Y-72307508D01*
X250953955Y-72307508D01*
X250080001Y-71433553D01*
X250080000Y-71433553D01*
X249031061Y-72482490D01*
X246048937Y-72482490D01*
X245000001Y-71433553D01*
X245000000Y-71433553D01*
X243951061Y-72482490D01*
X235588937Y-72482490D01*
X234540001Y-71433553D01*
X234540000Y-71433553D01*
X233491061Y-72482490D01*
X230508937Y-72482490D01*
X229460001Y-71433553D01*
X229460000Y-71433553D01*
X228411061Y-72482490D01*
X222416937Y-72482490D01*
X220288001Y-70353553D01*
X220288000Y-70353553D01*
X217994851Y-72646701D01*
X204293148Y-72646701D01*
X202000001Y-70353553D01*
X202000000Y-70353553D01*
X199706851Y-72646701D01*
X180005148Y-72646701D01*
X178000001Y-70641553D01*
X178000000Y-70641553D01*
X175706851Y-72934701D01*
X162005148Y-72934701D01*
X159712001Y-70641553D01*
X159712000Y-70641553D01*
X157418851Y-72934701D01*
X152000500Y-72934701D01*
X152000500Y-70287999D01*
X156207197Y-70287999D01*
X156226397Y-70654354D01*
X156283783Y-71016683D01*
X156378734Y-71371045D01*
X156510202Y-71713531D01*
X156676753Y-72040406D01*
X156876552Y-72348068D01*
X157065297Y-72581147D01*
X159358446Y-70288001D01*
X160065553Y-70288001D01*
X162358701Y-72581148D01*
X162358702Y-72581148D01*
X162547447Y-72348069D01*
X162747246Y-72040406D01*
X162913797Y-71713531D01*
X163045265Y-71371045D01*
X163140216Y-71016683D01*
X163197602Y-70654354D01*
X163216802Y-70287999D01*
X174495197Y-70287999D01*
X174514397Y-70654354D01*
X174571783Y-71016683D01*
X174666734Y-71371045D01*
X174798202Y-71713531D01*
X174964753Y-72040406D01*
X175164552Y-72348068D01*
X175353297Y-72581147D01*
X177646446Y-70288001D01*
X178353553Y-70288001D01*
X180646701Y-72581148D01*
X180646702Y-72581148D01*
X180835447Y-72348069D01*
X181035246Y-72040406D01*
X181201797Y-71713531D01*
X181333265Y-71371045D01*
X181428216Y-71016683D01*
X181485602Y-70654354D01*
X181504802Y-70287999D01*
X181489708Y-69999999D01*
X198495197Y-69999999D01*
X198514397Y-70366354D01*
X198571783Y-70728683D01*
X198666734Y-71083045D01*
X198798202Y-71425531D01*
X198964753Y-71752406D01*
X199164552Y-72060068D01*
X199353297Y-72293147D01*
X201646445Y-70000001D01*
X202353553Y-70000001D01*
X204646701Y-72293148D01*
X204646702Y-72293148D01*
X204835447Y-72060069D01*
X205035246Y-71752406D01*
X205201797Y-71425531D01*
X205333265Y-71083045D01*
X205428216Y-70728683D01*
X205485602Y-70366354D01*
X205504802Y-69999999D01*
X216783197Y-69999999D01*
X216802397Y-70366354D01*
X216859783Y-70728683D01*
X216954734Y-71083045D01*
X217086202Y-71425531D01*
X217252753Y-71752406D01*
X217452552Y-72060068D01*
X217641297Y-72293147D01*
X219934446Y-70000001D01*
X220641553Y-70000001D01*
X222934701Y-72293148D01*
X222934702Y-72293148D01*
X223123447Y-72060069D01*
X223323246Y-71752406D01*
X223489797Y-71425531D01*
X223621265Y-71083045D01*
X223622081Y-71079999D01*
X227705413Y-71079999D01*
X227725010Y-71341504D01*
X227783365Y-71597173D01*
X227879173Y-71841286D01*
X228010291Y-72068390D01*
X228058102Y-72128343D01*
X229106446Y-71080001D01*
X229106446Y-71080000D01*
X229813553Y-71080000D01*
X230861896Y-72128344D01*
X230861897Y-72128343D01*
X230909707Y-72068392D01*
X231040826Y-71841287D01*
X231136634Y-71597173D01*
X231194989Y-71341504D01*
X231214586Y-71079999D01*
X232785413Y-71079999D01*
X232805010Y-71341504D01*
X232863365Y-71597173D01*
X232959173Y-71841286D01*
X233090291Y-72068390D01*
X233138102Y-72128343D01*
X234186446Y-71080001D01*
X234186446Y-71080000D01*
X234893553Y-71080000D01*
X235941896Y-72128344D01*
X235941897Y-72128343D01*
X235989707Y-72068392D01*
X236120826Y-71841287D01*
X236216634Y-71597173D01*
X236274989Y-71341504D01*
X236294586Y-71079999D01*
X243245413Y-71079999D01*
X243265010Y-71341504D01*
X243323365Y-71597173D01*
X243419173Y-71841286D01*
X243550291Y-72068390D01*
X243598102Y-72128343D01*
X244646446Y-71080001D01*
X244646446Y-71080000D01*
X245353553Y-71080000D01*
X246401896Y-72128344D01*
X246401897Y-72128343D01*
X246449707Y-72068392D01*
X246580826Y-71841287D01*
X246676634Y-71597173D01*
X246734989Y-71341504D01*
X246754586Y-71079999D01*
X248325413Y-71079999D01*
X248345010Y-71341504D01*
X248403365Y-71597173D01*
X248499173Y-71841286D01*
X248630291Y-72068390D01*
X248678102Y-72128343D01*
X249726446Y-71080001D01*
X249726446Y-71080000D01*
X250433553Y-71080000D01*
X251481896Y-72128344D01*
X251481897Y-72128343D01*
X251529707Y-72068392D01*
X251660826Y-71841287D01*
X251756634Y-71597173D01*
X251814989Y-71341504D01*
X251834586Y-71079999D01*
X251814989Y-70818495D01*
X251756634Y-70562826D01*
X251660826Y-70318713D01*
X251529705Y-70091604D01*
X251481897Y-70031654D01*
X250433553Y-71080000D01*
X249726446Y-71080000D01*
X248678102Y-70031655D01*
X248630291Y-70091609D01*
X248499173Y-70318713D01*
X248403365Y-70562826D01*
X248345010Y-70818495D01*
X248325413Y-71079999D01*
X246754586Y-71079999D01*
X246734989Y-70818495D01*
X246676634Y-70562826D01*
X246580826Y-70318713D01*
X246449705Y-70091604D01*
X246401897Y-70031654D01*
X245353553Y-71080000D01*
X244646446Y-71080000D01*
X243598102Y-70031655D01*
X243550291Y-70091609D01*
X243419173Y-70318713D01*
X243323365Y-70562826D01*
X243265010Y-70818495D01*
X243245413Y-71079999D01*
X236294586Y-71079999D01*
X236274989Y-70818495D01*
X236216634Y-70562826D01*
X236120826Y-70318713D01*
X235989705Y-70091604D01*
X235941897Y-70031654D01*
X234893553Y-71080000D01*
X234186446Y-71080000D01*
X233138102Y-70031655D01*
X233090291Y-70091609D01*
X232959173Y-70318713D01*
X232863365Y-70562826D01*
X232805010Y-70818495D01*
X232785413Y-71079999D01*
X231214586Y-71079999D01*
X231194989Y-70818495D01*
X231136634Y-70562826D01*
X231040826Y-70318713D01*
X230909705Y-70091604D01*
X230861897Y-70031654D01*
X229813553Y-71080000D01*
X229106446Y-71080000D01*
X229106446Y-71079999D01*
X228058102Y-70031655D01*
X228010291Y-70091609D01*
X227879173Y-70318713D01*
X227783365Y-70562826D01*
X227725010Y-70818495D01*
X227705413Y-71079999D01*
X223622081Y-71079999D01*
X223716216Y-70728683D01*
X223773602Y-70366354D01*
X223792802Y-69999999D01*
X223775901Y-69677508D01*
X228411062Y-69677508D01*
X229460000Y-70726446D01*
X229460001Y-70726446D01*
X230508936Y-69677508D01*
X233491062Y-69677508D01*
X234540000Y-70726446D01*
X234540001Y-70726446D01*
X235588936Y-69677508D01*
X243951062Y-69677508D01*
X245000000Y-70726446D01*
X245000001Y-70726446D01*
X246048936Y-69677508D01*
X249031062Y-69677508D01*
X250080000Y-70726446D01*
X250080001Y-70726446D01*
X251128937Y-69677507D01*
X250957294Y-69560484D01*
X250721021Y-69446702D01*
X250470431Y-69369404D01*
X250211121Y-69330320D01*
X249948879Y-69330320D01*
X249689568Y-69369404D01*
X249438978Y-69446702D01*
X249202706Y-69560484D01*
X249031062Y-69677508D01*
X246048936Y-69677508D01*
X246048937Y-69677507D01*
X245877294Y-69560484D01*
X245641021Y-69446702D01*
X245390431Y-69369404D01*
X245131121Y-69330320D01*
X244868879Y-69330320D01*
X244609568Y-69369404D01*
X244358978Y-69446702D01*
X244122706Y-69560484D01*
X243951062Y-69677508D01*
X235588936Y-69677508D01*
X235588937Y-69677507D01*
X235417294Y-69560484D01*
X235181021Y-69446702D01*
X234930431Y-69369404D01*
X234671121Y-69330320D01*
X234408879Y-69330320D01*
X234149568Y-69369404D01*
X233898978Y-69446702D01*
X233662706Y-69560484D01*
X233491062Y-69677508D01*
X230508936Y-69677508D01*
X230508937Y-69677507D01*
X230337294Y-69560484D01*
X230101021Y-69446702D01*
X229850431Y-69369404D01*
X229591121Y-69330320D01*
X229328879Y-69330320D01*
X229069568Y-69369404D01*
X228818978Y-69446702D01*
X228582706Y-69560484D01*
X228411062Y-69677508D01*
X223775901Y-69677508D01*
X223773602Y-69633645D01*
X223716216Y-69271316D01*
X223621265Y-68916954D01*
X223489797Y-68574468D01*
X223472235Y-68540000D01*
X230896242Y-68540000D01*
X230915035Y-68742816D01*
X230970775Y-68938723D01*
X231061563Y-69121051D01*
X231184313Y-69283598D01*
X231334834Y-69420816D01*
X231334836Y-69420817D01*
X231334837Y-69420818D01*
X231508013Y-69528044D01*
X231697942Y-69601623D01*
X231898158Y-69639050D01*
X232101840Y-69639050D01*
X232101842Y-69639050D01*
X232302058Y-69601623D01*
X232491987Y-69528044D01*
X232665163Y-69420818D01*
X232815687Y-69283597D01*
X232938434Y-69121054D01*
X232938434Y-69121052D01*
X232938436Y-69121051D01*
X233029224Y-68938723D01*
X233084964Y-68742816D01*
X233086557Y-68725615D01*
X233103758Y-68540000D01*
X246436242Y-68540000D01*
X246455035Y-68742816D01*
X246510775Y-68938723D01*
X246601563Y-69121051D01*
X246724313Y-69283598D01*
X246874834Y-69420816D01*
X246874836Y-69420817D01*
X246874837Y-69420818D01*
X247048013Y-69528044D01*
X247237942Y-69601623D01*
X247438158Y-69639050D01*
X247641840Y-69639050D01*
X247641842Y-69639050D01*
X247842058Y-69601623D01*
X248031987Y-69528044D01*
X248205163Y-69420818D01*
X248355687Y-69283597D01*
X248478434Y-69121054D01*
X248478434Y-69121052D01*
X248478436Y-69121051D01*
X248569224Y-68938723D01*
X248624964Y-68742816D01*
X248626557Y-68725615D01*
X248643758Y-68540000D01*
X248624964Y-68337185D01*
X248624964Y-68337183D01*
X248569224Y-68141276D01*
X248478436Y-67958948D01*
X248355686Y-67796401D01*
X248205165Y-67659183D01*
X248031987Y-67551956D01*
X247842058Y-67478377D01*
X247641842Y-67440950D01*
X247438158Y-67440950D01*
X247237941Y-67478377D01*
X247237942Y-67478377D01*
X247048012Y-67551956D01*
X246874834Y-67659183D01*
X246724313Y-67796401D01*
X246601563Y-67958948D01*
X246510775Y-68141276D01*
X246455035Y-68337183D01*
X246436242Y-68540000D01*
X233103758Y-68540000D01*
X233084964Y-68337185D01*
X233084964Y-68337183D01*
X233029224Y-68141276D01*
X232938436Y-67958948D01*
X232815686Y-67796401D01*
X232665165Y-67659183D01*
X232491987Y-67551956D01*
X232302058Y-67478377D01*
X232101842Y-67440950D01*
X231898158Y-67440950D01*
X231697941Y-67478377D01*
X231697942Y-67478377D01*
X231508012Y-67551956D01*
X231334834Y-67659183D01*
X231184313Y-67796401D01*
X231061563Y-67958948D01*
X230970775Y-68141276D01*
X230915035Y-68337183D01*
X230896242Y-68540000D01*
X223472235Y-68540000D01*
X223323246Y-68247594D01*
X223123447Y-67939931D01*
X222934701Y-67706851D01*
X220641553Y-70000000D01*
X220641553Y-70000001D01*
X219934446Y-70000001D01*
X219934446Y-70000000D01*
X217641297Y-67706851D01*
X217452552Y-67939931D01*
X217252753Y-68247594D01*
X217086202Y-68574468D01*
X216954734Y-68916954D01*
X216859783Y-69271316D01*
X216802397Y-69633645D01*
X216783197Y-69999999D01*
X205504802Y-69999999D01*
X205485602Y-69633645D01*
X205428216Y-69271316D01*
X205333265Y-68916954D01*
X205201797Y-68574468D01*
X205035246Y-68247594D01*
X204835447Y-67939931D01*
X204646701Y-67706851D01*
X202353553Y-70000000D01*
X202353553Y-70000001D01*
X201646445Y-70000001D01*
X201646446Y-70000000D01*
X199353297Y-67706851D01*
X199164552Y-67939931D01*
X198964753Y-68247594D01*
X198798202Y-68574468D01*
X198666734Y-68916954D01*
X198571783Y-69271316D01*
X198514397Y-69633645D01*
X198495197Y-69999999D01*
X181489708Y-69999999D01*
X181485602Y-69921645D01*
X181428216Y-69559316D01*
X181333265Y-69204954D01*
X181201797Y-68862468D01*
X181035246Y-68535594D01*
X180835447Y-68227931D01*
X180646701Y-67994851D01*
X178353553Y-70288000D01*
X178353553Y-70288001D01*
X177646446Y-70288001D01*
X177646446Y-70288000D01*
X175353297Y-67994851D01*
X175164552Y-68227931D01*
X174964753Y-68535594D01*
X174798202Y-68862468D01*
X174666734Y-69204954D01*
X174571783Y-69559316D01*
X174514397Y-69921645D01*
X174495197Y-70287999D01*
X163216802Y-70287999D01*
X163197602Y-69921645D01*
X163140216Y-69559316D01*
X163045265Y-69204954D01*
X162913797Y-68862468D01*
X162747246Y-68535594D01*
X162547447Y-68227931D01*
X162358701Y-67994851D01*
X160065553Y-70288000D01*
X160065553Y-70288001D01*
X159358446Y-70288001D01*
X159358446Y-70288000D01*
X157065297Y-67994851D01*
X156876552Y-68227931D01*
X156676753Y-68535594D01*
X156510202Y-68862468D01*
X156378734Y-69204954D01*
X156283783Y-69559316D01*
X156226397Y-69921645D01*
X156207197Y-70287999D01*
X152000500Y-70287999D01*
X152000500Y-67641297D01*
X157418851Y-67641297D01*
X159712000Y-69934446D01*
X159712001Y-69934446D01*
X162005148Y-67641297D01*
X175706851Y-67641297D01*
X178000000Y-69934446D01*
X178000001Y-69934446D01*
X180293148Y-67641297D01*
X180060068Y-67452552D01*
X179907229Y-67353297D01*
X199706851Y-67353297D01*
X202000000Y-69646446D01*
X202000001Y-69646446D01*
X204293148Y-67353297D01*
X217994851Y-67353297D01*
X220288000Y-69646446D01*
X220288001Y-69646446D01*
X222531955Y-67402490D01*
X228411061Y-67402490D01*
X228582705Y-67519515D01*
X228818978Y-67633297D01*
X229069568Y-67710595D01*
X229328879Y-67749680D01*
X229591121Y-67749680D01*
X229850431Y-67710595D01*
X230101021Y-67633297D01*
X230337290Y-67519516D01*
X230508937Y-67402490D01*
X233491061Y-67402490D01*
X233662705Y-67519515D01*
X233898978Y-67633297D01*
X234149568Y-67710595D01*
X234408879Y-67749680D01*
X234671121Y-67749680D01*
X234930431Y-67710595D01*
X235181021Y-67633297D01*
X235417290Y-67519516D01*
X235588937Y-67402490D01*
X243951061Y-67402490D01*
X244122705Y-67519515D01*
X244358978Y-67633297D01*
X244609568Y-67710595D01*
X244868879Y-67749680D01*
X245131121Y-67749680D01*
X245390431Y-67710595D01*
X245641021Y-67633297D01*
X245877290Y-67519516D01*
X246048937Y-67402490D01*
X249031061Y-67402490D01*
X249202705Y-67519515D01*
X249438978Y-67633297D01*
X249689568Y-67710595D01*
X249948879Y-67749680D01*
X250211121Y-67749680D01*
X250470431Y-67710595D01*
X250721021Y-67633297D01*
X250957290Y-67519516D01*
X251128937Y-67402490D01*
X250080001Y-66353553D01*
X250080000Y-66353553D01*
X249031061Y-67402490D01*
X246048937Y-67402490D01*
X245000001Y-66353553D01*
X245000000Y-66353553D01*
X243951061Y-67402490D01*
X235588937Y-67402490D01*
X234540001Y-66353553D01*
X234540000Y-66353553D01*
X233491061Y-67402490D01*
X230508937Y-67402490D01*
X229460001Y-66353553D01*
X229460000Y-66353553D01*
X228411061Y-67402490D01*
X222531955Y-67402490D01*
X222581148Y-67353297D01*
X222348068Y-67164552D01*
X222040406Y-66964753D01*
X221713531Y-66798202D01*
X221371045Y-66666734D01*
X221016683Y-66571783D01*
X220654354Y-66514397D01*
X220288000Y-66495197D01*
X219921645Y-66514397D01*
X219559316Y-66571783D01*
X219204954Y-66666734D01*
X218862468Y-66798202D01*
X218535594Y-66964753D01*
X218227931Y-67164552D01*
X217994851Y-67353297D01*
X204293148Y-67353297D01*
X204060068Y-67164552D01*
X203752406Y-66964753D01*
X203425531Y-66798202D01*
X203083045Y-66666734D01*
X202728683Y-66571783D01*
X202366354Y-66514397D01*
X202000000Y-66495197D01*
X201633645Y-66514397D01*
X201271316Y-66571783D01*
X200916954Y-66666734D01*
X200574468Y-66798202D01*
X200247594Y-66964753D01*
X199939931Y-67164552D01*
X199706851Y-67353297D01*
X179907229Y-67353297D01*
X179752406Y-67252753D01*
X179425531Y-67086202D01*
X179083045Y-66954734D01*
X178728683Y-66859783D01*
X178366354Y-66802397D01*
X178000000Y-66783197D01*
X177633645Y-66802397D01*
X177271316Y-66859783D01*
X176916954Y-66954734D01*
X176574468Y-67086202D01*
X176247594Y-67252753D01*
X175939931Y-67452552D01*
X175706851Y-67641297D01*
X162005148Y-67641297D01*
X161772068Y-67452552D01*
X161464406Y-67252753D01*
X161137531Y-67086202D01*
X160795045Y-66954734D01*
X160440683Y-66859783D01*
X160078354Y-66802397D01*
X159712000Y-66783197D01*
X159345645Y-66802397D01*
X158983316Y-66859783D01*
X158628954Y-66954734D01*
X158286468Y-67086202D01*
X157959594Y-67252753D01*
X157651931Y-67452552D01*
X157418851Y-67641297D01*
X152000500Y-67641297D01*
X152000500Y-66000000D01*
X227705413Y-66000000D01*
X227725010Y-66261504D01*
X227783365Y-66517173D01*
X227879173Y-66761286D01*
X228010291Y-66988390D01*
X228058102Y-67048343D01*
X229106446Y-66000001D01*
X229106446Y-65999999D01*
X229813553Y-65999999D01*
X230861896Y-67048344D01*
X230861897Y-67048343D01*
X230909707Y-66988392D01*
X231040826Y-66761287D01*
X231136634Y-66517173D01*
X231194989Y-66261504D01*
X231214586Y-66000000D01*
X232785413Y-66000000D01*
X232805010Y-66261504D01*
X232863365Y-66517173D01*
X232959173Y-66761286D01*
X233090291Y-66988390D01*
X233138102Y-67048343D01*
X234186446Y-66000001D01*
X234186446Y-66000000D01*
X234186445Y-65999999D01*
X234893553Y-65999999D01*
X235941896Y-67048344D01*
X235941897Y-67048343D01*
X235989707Y-66988392D01*
X236120826Y-66761287D01*
X236216634Y-66517173D01*
X236274989Y-66261504D01*
X236294586Y-66000000D01*
X243245413Y-66000000D01*
X243265010Y-66261504D01*
X243323365Y-66517173D01*
X243419173Y-66761286D01*
X243550291Y-66988390D01*
X243598102Y-67048343D01*
X244646446Y-66000001D01*
X244646446Y-66000000D01*
X244646445Y-65999999D01*
X245353553Y-65999999D01*
X246401896Y-67048344D01*
X246401897Y-67048343D01*
X246449707Y-66988392D01*
X246580826Y-66761287D01*
X246676634Y-66517173D01*
X246734989Y-66261504D01*
X246754586Y-66000000D01*
X248325413Y-66000000D01*
X248345010Y-66261504D01*
X248403365Y-66517173D01*
X248499173Y-66761286D01*
X248630291Y-66988390D01*
X248678102Y-67048343D01*
X249726446Y-66000001D01*
X249726446Y-66000000D01*
X249726445Y-65999999D01*
X250433553Y-65999999D01*
X251481896Y-67048344D01*
X251481897Y-67048343D01*
X251529707Y-66988392D01*
X251660826Y-66761287D01*
X251756634Y-66517173D01*
X251814989Y-66261504D01*
X251834586Y-66000000D01*
X251814989Y-65738495D01*
X251756634Y-65482826D01*
X251660826Y-65238713D01*
X251529705Y-65011604D01*
X251481897Y-64951654D01*
X250433553Y-65999999D01*
X249726445Y-65999999D01*
X248678102Y-64951655D01*
X248630291Y-65011609D01*
X248499173Y-65238713D01*
X248403365Y-65482826D01*
X248345010Y-65738495D01*
X248325413Y-66000000D01*
X246754586Y-66000000D01*
X246734989Y-65738495D01*
X246676634Y-65482826D01*
X246580826Y-65238713D01*
X246449705Y-65011604D01*
X246401897Y-64951654D01*
X245353553Y-65999999D01*
X244646445Y-65999999D01*
X243598102Y-64951655D01*
X243550291Y-65011609D01*
X243419173Y-65238713D01*
X243323365Y-65482826D01*
X243265010Y-65738495D01*
X243245413Y-66000000D01*
X236294586Y-66000000D01*
X236274989Y-65738495D01*
X236216634Y-65482826D01*
X236120826Y-65238713D01*
X235989705Y-65011604D01*
X235941897Y-64951654D01*
X234893553Y-65999999D01*
X234186445Y-65999999D01*
X233138102Y-64951655D01*
X233090291Y-65011609D01*
X232959173Y-65238713D01*
X232863365Y-65482826D01*
X232805010Y-65738495D01*
X232785413Y-66000000D01*
X231214586Y-66000000D01*
X231194989Y-65738495D01*
X231136634Y-65482826D01*
X231040826Y-65238713D01*
X230909705Y-65011604D01*
X230861897Y-64951654D01*
X229813553Y-65999999D01*
X229106446Y-65999999D01*
X228058102Y-64951655D01*
X228010291Y-65011609D01*
X227879173Y-65238713D01*
X227783365Y-65482826D01*
X227725010Y-65738495D01*
X227705413Y-66000000D01*
X152000500Y-66000000D01*
X152000500Y-61096000D01*
X165242696Y-61096000D01*
X165261897Y-61462406D01*
X165319293Y-61824788D01*
X165414258Y-62179200D01*
X165545744Y-62521735D01*
X165712320Y-62848656D01*
X165912146Y-63156363D01*
X165973057Y-63231581D01*
X166143051Y-63441506D01*
X166402494Y-63700949D01*
X166592587Y-63854883D01*
X166687636Y-63931853D01*
X166995343Y-64131679D01*
X166995348Y-64131682D01*
X167322264Y-64298255D01*
X167664801Y-64429742D01*
X168019206Y-64524705D01*
X168019209Y-64524705D01*
X168019211Y-64524706D01*
X168381593Y-64582102D01*
X168431373Y-64584710D01*
X168748000Y-64601304D01*
X168820431Y-64597508D01*
X228411062Y-64597508D01*
X229460000Y-65646446D01*
X229460001Y-65646446D01*
X230508936Y-64597508D01*
X233491062Y-64597508D01*
X234540000Y-65646446D01*
X234540001Y-65646446D01*
X235588936Y-64597508D01*
X243951062Y-64597508D01*
X245000000Y-65646446D01*
X245000001Y-65646446D01*
X246048936Y-64597508D01*
X249031062Y-64597508D01*
X250080000Y-65646446D01*
X250080001Y-65646446D01*
X251128937Y-64597507D01*
X250957294Y-64480484D01*
X250721021Y-64366702D01*
X250470431Y-64289404D01*
X250211121Y-64250320D01*
X249948879Y-64250320D01*
X249689568Y-64289404D01*
X249438978Y-64366702D01*
X249202706Y-64480484D01*
X249031062Y-64597508D01*
X246048936Y-64597508D01*
X246048937Y-64597507D01*
X245877294Y-64480484D01*
X245641021Y-64366702D01*
X245390431Y-64289404D01*
X245131121Y-64250320D01*
X244868879Y-64250320D01*
X244609568Y-64289404D01*
X244358978Y-64366702D01*
X244122706Y-64480484D01*
X243951062Y-64597508D01*
X235588936Y-64597508D01*
X235588937Y-64597507D01*
X235417294Y-64480484D01*
X235181021Y-64366702D01*
X234930431Y-64289404D01*
X234671121Y-64250320D01*
X234408879Y-64250320D01*
X234149568Y-64289404D01*
X233898978Y-64366702D01*
X233662706Y-64480484D01*
X233491062Y-64597508D01*
X230508936Y-64597508D01*
X230508937Y-64597507D01*
X230337294Y-64480484D01*
X230101021Y-64366702D01*
X229850431Y-64289404D01*
X229591121Y-64250320D01*
X229328879Y-64250320D01*
X229069568Y-64289404D01*
X228818978Y-64366702D01*
X228582706Y-64480484D01*
X228411062Y-64597508D01*
X168820431Y-64597508D01*
X169079645Y-64583923D01*
X169114406Y-64582102D01*
X169476788Y-64524706D01*
X169476788Y-64524705D01*
X169476794Y-64524705D01*
X169831199Y-64429742D01*
X170173736Y-64298255D01*
X170500652Y-64131682D01*
X170808366Y-63931851D01*
X171093506Y-63700949D01*
X171352949Y-63441506D01*
X171583851Y-63156366D01*
X171685397Y-62999999D01*
X185092993Y-62999999D01*
X185112183Y-63231581D01*
X185112183Y-63231584D01*
X185112184Y-63231586D01*
X185169229Y-63456854D01*
X185262575Y-63669661D01*
X185389675Y-63864201D01*
X185547061Y-64035168D01*
X185730441Y-64177898D01*
X185934812Y-64288499D01*
X186154600Y-64363952D01*
X186383810Y-64402200D01*
X186616190Y-64402200D01*
X186845400Y-64363952D01*
X187065188Y-64288499D01*
X187269559Y-64177898D01*
X187452939Y-64035168D01*
X187610325Y-63864201D01*
X187737425Y-63669661D01*
X187830771Y-63456854D01*
X187887816Y-63231586D01*
X187907006Y-63000000D01*
X187907006Y-62999999D01*
X192592993Y-62999999D01*
X192612183Y-63231581D01*
X192612183Y-63231584D01*
X192612184Y-63231586D01*
X192669229Y-63456854D01*
X192762575Y-63669661D01*
X192889675Y-63864201D01*
X193047061Y-64035168D01*
X193230441Y-64177898D01*
X193434812Y-64288499D01*
X193654600Y-64363952D01*
X193883810Y-64402200D01*
X194116190Y-64402200D01*
X194345400Y-64363952D01*
X194565188Y-64288499D01*
X194769559Y-64177898D01*
X194952939Y-64035168D01*
X195110325Y-63864201D01*
X195237425Y-63669661D01*
X195330771Y-63456854D01*
X195387816Y-63231586D01*
X195407006Y-63000000D01*
X195387816Y-62768414D01*
X195330771Y-62543146D01*
X195237425Y-62330339D01*
X195110325Y-62135799D01*
X194952939Y-61964832D01*
X194769559Y-61822102D01*
X194565188Y-61711501D01*
X194345401Y-61636048D01*
X194116190Y-61597800D01*
X193883810Y-61597800D01*
X193654598Y-61636048D01*
X193434811Y-61711501D01*
X193230444Y-61822100D01*
X193230442Y-61822101D01*
X193230441Y-61822102D01*
X193175265Y-61865046D01*
X193047060Y-61964832D01*
X192901257Y-62123216D01*
X192889675Y-62135799D01*
X192762575Y-62330339D01*
X192762574Y-62330341D01*
X192669230Y-62543144D01*
X192612183Y-62768418D01*
X192592993Y-62999999D01*
X187907006Y-62999999D01*
X187887816Y-62768414D01*
X187830771Y-62543146D01*
X187737425Y-62330339D01*
X187610325Y-62135799D01*
X187452939Y-61964832D01*
X187269559Y-61822102D01*
X187065188Y-61711501D01*
X186845401Y-61636048D01*
X186616190Y-61597800D01*
X186383810Y-61597800D01*
X186154598Y-61636048D01*
X185934811Y-61711501D01*
X185730444Y-61822100D01*
X185730442Y-61822101D01*
X185730441Y-61822102D01*
X185675265Y-61865046D01*
X185547060Y-61964832D01*
X185401257Y-62123216D01*
X185389675Y-62135799D01*
X185262575Y-62330339D01*
X185262574Y-62330341D01*
X185169230Y-62543144D01*
X185112183Y-62768418D01*
X185092993Y-62999999D01*
X171685397Y-62999999D01*
X171783682Y-62848652D01*
X171950255Y-62521736D01*
X172081742Y-62179199D01*
X172176705Y-61824794D01*
X172194649Y-61711501D01*
X172234102Y-61462406D01*
X172241192Y-61327110D01*
X172253304Y-61096000D01*
X172238211Y-60807999D01*
X207530696Y-60807999D01*
X207549897Y-61174406D01*
X207607293Y-61536788D01*
X207702258Y-61891200D01*
X207833744Y-62233735D01*
X208000320Y-62560656D01*
X208200146Y-62868363D01*
X208306743Y-62999999D01*
X208431051Y-63153506D01*
X208690494Y-63412949D01*
X208880587Y-63566883D01*
X208975636Y-63643853D01*
X209283343Y-63843679D01*
X209283348Y-63843682D01*
X209610264Y-64010255D01*
X209952801Y-64141742D01*
X210307206Y-64236705D01*
X210307209Y-64236705D01*
X210307211Y-64236706D01*
X210669593Y-64294102D01*
X210719373Y-64296710D01*
X211036000Y-64313304D01*
X211367645Y-64295923D01*
X211402406Y-64294102D01*
X211764788Y-64236706D01*
X211764788Y-64236705D01*
X211764794Y-64236705D01*
X212119199Y-64141742D01*
X212461736Y-64010255D01*
X212788652Y-63843682D01*
X213096366Y-63643851D01*
X213381506Y-63412949D01*
X213640949Y-63153506D01*
X213871851Y-62868366D01*
X214071682Y-62560652D01*
X214238255Y-62233736D01*
X214327977Y-62000000D01*
X237594540Y-62000000D01*
X237614326Y-62188257D01*
X237672820Y-62368284D01*
X237767466Y-62532216D01*
X237894129Y-62672889D01*
X238047269Y-62784151D01*
X238220197Y-62861144D01*
X238405352Y-62900500D01*
X238405354Y-62900500D01*
X238594646Y-62900500D01*
X238594648Y-62900500D01*
X238718083Y-62874262D01*
X238779803Y-62861144D01*
X238891930Y-62811221D01*
X238942367Y-62800500D01*
X242057633Y-62800500D01*
X242108069Y-62811221D01*
X242220197Y-62861144D01*
X242405352Y-62900500D01*
X242405354Y-62900500D01*
X242594646Y-62900500D01*
X242594648Y-62900500D01*
X242718083Y-62874262D01*
X242779803Y-62861144D01*
X242952730Y-62784151D01*
X243105871Y-62672888D01*
X243232533Y-62532216D01*
X243327179Y-62368284D01*
X243385674Y-62188256D01*
X243405460Y-62000000D01*
X243385674Y-61811744D01*
X243327179Y-61631716D01*
X243327179Y-61631715D01*
X243232533Y-61467783D01*
X243105870Y-61327110D01*
X242952730Y-61215848D01*
X242779802Y-61138855D01*
X242594648Y-61099500D01*
X242594646Y-61099500D01*
X242405354Y-61099500D01*
X242405352Y-61099500D01*
X242220197Y-61138855D01*
X242108069Y-61188779D01*
X242057633Y-61199500D01*
X238942367Y-61199500D01*
X238891931Y-61188779D01*
X238779802Y-61138855D01*
X238594648Y-61099500D01*
X238594646Y-61099500D01*
X238405354Y-61099500D01*
X238405352Y-61099500D01*
X238220197Y-61138855D01*
X238047269Y-61215848D01*
X237894129Y-61327110D01*
X237767466Y-61467783D01*
X237672820Y-61631715D01*
X237614326Y-61811742D01*
X237594540Y-62000000D01*
X214327977Y-62000000D01*
X214369742Y-61891199D01*
X214464705Y-61536794D01*
X214476487Y-61462404D01*
X214522102Y-61174406D01*
X214526211Y-61096000D01*
X214541304Y-60808000D01*
X214522102Y-60441596D01*
X214464705Y-60079206D01*
X214369742Y-59724801D01*
X214238255Y-59382264D01*
X214071682Y-59055348D01*
X213945565Y-58861144D01*
X213871853Y-58747636D01*
X213794883Y-58652587D01*
X213640949Y-58462494D01*
X213381506Y-58203051D01*
X213205246Y-58060318D01*
X213130758Y-57999999D01*
X225094540Y-57999999D01*
X225114326Y-58188257D01*
X225172820Y-58368284D01*
X225267466Y-58532216D01*
X225394129Y-58672889D01*
X225547269Y-58784151D01*
X225720197Y-58861144D01*
X225905352Y-58900500D01*
X225905354Y-58900500D01*
X226094646Y-58900500D01*
X226094648Y-58900500D01*
X226218084Y-58874262D01*
X226279803Y-58861144D01*
X226452730Y-58784151D01*
X226605871Y-58672888D01*
X226732533Y-58532216D01*
X226827179Y-58368284D01*
X226885674Y-58188256D01*
X226905460Y-58000000D01*
X226885674Y-57811744D01*
X226827179Y-57631716D01*
X226817112Y-57614280D01*
X226800500Y-57552282D01*
X226800500Y-53882940D01*
X226809939Y-53835487D01*
X226836819Y-53795259D01*
X229295258Y-51336819D01*
X229335486Y-51309939D01*
X229382939Y-51300500D01*
X230193676Y-51300500D01*
X230244112Y-51311221D01*
X230356240Y-51361144D01*
X230541395Y-51400500D01*
X230541397Y-51400500D01*
X230730689Y-51400500D01*
X230730691Y-51400500D01*
X230854182Y-51374251D01*
X230915846Y-51361144D01*
X230992236Y-51327132D01*
X231027974Y-51311221D01*
X231078410Y-51300500D01*
X231790242Y-51300500D01*
X231846537Y-51314015D01*
X231890560Y-51351615D01*
X231912715Y-51405102D01*
X231908173Y-51462818D01*
X231877923Y-51512181D01*
X231801505Y-51588598D01*
X231665965Y-51782170D01*
X231566097Y-51996336D01*
X231504936Y-52224592D01*
X231484340Y-52460000D01*
X231504936Y-52695407D01*
X231531634Y-52795045D01*
X231566097Y-52923663D01*
X231665965Y-53137830D01*
X231801505Y-53331401D01*
X231801507Y-53331403D01*
X231801508Y-53331404D01*
X231976270Y-53506166D01*
X231973692Y-53508743D01*
X232003754Y-53545664D01*
X232012574Y-53612742D01*
X231984871Y-53674465D01*
X231928892Y-53712460D01*
X231920666Y-53715185D01*
X231771342Y-53807288D01*
X231647288Y-53931342D01*
X231555186Y-54080665D01*
X231500000Y-54247202D01*
X231489500Y-54349990D01*
X231489500Y-55650008D01*
X231500000Y-55752796D01*
X231555186Y-55919334D01*
X231611358Y-56010404D01*
X231629790Y-56072796D01*
X231614096Y-56135932D01*
X231568598Y-56182434D01*
X231505819Y-56199500D01*
X231442367Y-56199500D01*
X231391931Y-56188779D01*
X231279802Y-56138855D01*
X231094648Y-56099500D01*
X231094646Y-56099500D01*
X230905354Y-56099500D01*
X230905352Y-56099500D01*
X230720197Y-56138855D01*
X230547269Y-56215848D01*
X230394129Y-56327110D01*
X230267466Y-56467783D01*
X230172820Y-56631715D01*
X230114326Y-56811742D01*
X230094540Y-56999999D01*
X230114326Y-57188257D01*
X230172820Y-57368284D01*
X230267466Y-57532216D01*
X230394129Y-57672889D01*
X230547269Y-57784151D01*
X230720197Y-57861144D01*
X230905352Y-57900500D01*
X230905354Y-57900500D01*
X231094646Y-57900500D01*
X231094648Y-57900500D01*
X231218084Y-57874262D01*
X231279803Y-57861144D01*
X231390756Y-57811744D01*
X231391931Y-57811221D01*
X231442367Y-57800500D01*
X236010195Y-57800500D01*
X236021009Y-57798031D01*
X236047520Y-57791980D01*
X236061197Y-57789655D01*
X236099255Y-57785368D01*
X236135399Y-57772720D01*
X236148721Y-57768882D01*
X236186061Y-57760360D01*
X236220549Y-57743750D01*
X236233391Y-57738431D01*
X236269522Y-57725789D01*
X236301932Y-57705423D01*
X236314103Y-57698697D01*
X236348587Y-57682091D01*
X236378515Y-57658222D01*
X236389834Y-57650190D01*
X236422262Y-57629816D01*
X236549816Y-57502262D01*
X236549816Y-57502261D01*
X237673521Y-56378555D01*
X237718790Y-56349716D01*
X237772005Y-56342710D01*
X237920000Y-56355659D01*
X237920000Y-56355658D01*
X237920001Y-56355659D01*
X238068004Y-56342710D01*
X238155408Y-56335063D01*
X238383663Y-56273903D01*
X238597830Y-56174035D01*
X238791401Y-56038495D01*
X238958495Y-55871401D01*
X239088426Y-55685839D01*
X239132743Y-55646975D01*
X239190000Y-55632964D01*
X239247257Y-55646975D01*
X239291573Y-55685839D01*
X239421505Y-55871401D01*
X239588599Y-56038495D01*
X239782170Y-56174035D01*
X239996337Y-56273903D01*
X240224592Y-56335063D01*
X240460000Y-56355659D01*
X240695408Y-56335063D01*
X240923663Y-56273903D01*
X241137830Y-56174035D01*
X241331401Y-56038495D01*
X241498495Y-55871401D01*
X241628426Y-55685839D01*
X241672743Y-55646975D01*
X241730000Y-55632964D01*
X241787257Y-55646975D01*
X241831573Y-55685839D01*
X241961505Y-55871401D01*
X242128599Y-56038495D01*
X242322170Y-56174035D01*
X242536337Y-56273903D01*
X242764592Y-56335063D01*
X243000000Y-56355659D01*
X243235408Y-56335063D01*
X243463663Y-56273903D01*
X243677830Y-56174035D01*
X243871401Y-56038495D01*
X244038495Y-55871401D01*
X244174035Y-55677830D01*
X244273903Y-55463663D01*
X244335063Y-55235408D01*
X244355659Y-55000000D01*
X244335063Y-54764592D01*
X244273903Y-54536337D01*
X244174035Y-54322171D01*
X244038495Y-54128599D01*
X243871401Y-53961505D01*
X243685839Y-53831573D01*
X243646974Y-53787255D01*
X243632964Y-53729999D01*
X243646975Y-53672742D01*
X243685837Y-53628428D01*
X243871401Y-53498495D01*
X244038495Y-53331401D01*
X244174035Y-53137830D01*
X244273903Y-52923663D01*
X244335063Y-52695408D01*
X244355659Y-52460000D01*
X244335063Y-52224592D01*
X244273903Y-51996337D01*
X244174035Y-51782171D01*
X244038495Y-51588599D01*
X243962077Y-51512180D01*
X243931827Y-51462818D01*
X243927285Y-51405102D01*
X243949440Y-51351615D01*
X243993463Y-51314015D01*
X244049758Y-51300500D01*
X247557635Y-51300500D01*
X247608071Y-51311221D01*
X247720199Y-51361144D01*
X247905354Y-51400500D01*
X247905356Y-51400500D01*
X248094648Y-51400500D01*
X248094650Y-51400500D01*
X248218141Y-51374251D01*
X248279805Y-51361144D01*
X248452732Y-51284151D01*
X248605873Y-51172888D01*
X248732535Y-51032216D01*
X248827181Y-50868284D01*
X248885676Y-50688256D01*
X248905462Y-50500000D01*
X248885676Y-50311744D01*
X248827181Y-50131716D01*
X248827181Y-50131715D01*
X248732535Y-49967783D01*
X248605872Y-49827110D01*
X248452732Y-49715848D01*
X248279804Y-49638855D01*
X248094650Y-49599500D01*
X248094648Y-49599500D01*
X247905356Y-49599500D01*
X247905354Y-49599500D01*
X247720199Y-49638855D01*
X247608071Y-49688779D01*
X247557635Y-49699500D01*
X237051915Y-49699500D01*
X237038032Y-49698720D01*
X237033591Y-49698219D01*
X237000000Y-49694434D01*
X236966408Y-49698219D01*
X236961967Y-49698720D01*
X236948085Y-49699500D01*
X234551915Y-49699500D01*
X234538032Y-49698720D01*
X234533591Y-49698219D01*
X234500000Y-49694434D01*
X234466408Y-49698219D01*
X234461967Y-49698720D01*
X234448085Y-49699500D01*
X231078410Y-49699500D01*
X231027974Y-49688779D01*
X230915845Y-49638855D01*
X230730691Y-49599500D01*
X230730689Y-49599500D01*
X230541397Y-49599500D01*
X230541395Y-49599500D01*
X230356240Y-49638855D01*
X230244112Y-49688779D01*
X230193676Y-49699500D01*
X228909803Y-49699500D01*
X228872480Y-49708017D01*
X228858780Y-49710345D01*
X228820743Y-49714631D01*
X228784623Y-49727270D01*
X228771268Y-49731118D01*
X228733939Y-49739639D01*
X228699441Y-49756251D01*
X228686604Y-49761568D01*
X228650476Y-49774211D01*
X228618067Y-49794574D01*
X228605902Y-49801298D01*
X228571412Y-49817908D01*
X228541488Y-49841772D01*
X228530149Y-49849818D01*
X228497739Y-49870182D01*
X228433962Y-49933959D01*
X228370184Y-49997738D01*
X228370182Y-49997740D01*
X225480297Y-52887624D01*
X225370185Y-52997735D01*
X225349817Y-53030151D01*
X225341772Y-53041489D01*
X225317908Y-53071413D01*
X225301300Y-53105899D01*
X225294576Y-53118064D01*
X225274211Y-53150475D01*
X225261565Y-53186613D01*
X225256246Y-53199453D01*
X225239639Y-53233938D01*
X225231118Y-53271268D01*
X225227270Y-53284623D01*
X225214631Y-53320743D01*
X225210345Y-53358780D01*
X225208017Y-53372480D01*
X225199500Y-53409803D01*
X225199500Y-57552282D01*
X225182887Y-57614282D01*
X225172821Y-57631715D01*
X225114326Y-57811742D01*
X225094540Y-57999999D01*
X213130758Y-57999999D01*
X213096363Y-57972146D01*
X212788656Y-57772320D01*
X212461735Y-57605744D01*
X212119200Y-57474258D01*
X211764788Y-57379293D01*
X211402406Y-57321897D01*
X211036000Y-57302696D01*
X210669593Y-57321897D01*
X210307211Y-57379293D01*
X209952799Y-57474258D01*
X209610264Y-57605744D01*
X209283343Y-57772320D01*
X208975636Y-57972146D01*
X208690490Y-58203054D01*
X208431054Y-58462490D01*
X208200146Y-58747636D01*
X208000320Y-59055343D01*
X207833744Y-59382264D01*
X207702258Y-59724799D01*
X207607293Y-60079211D01*
X207549897Y-60441593D01*
X207530696Y-60807999D01*
X172238211Y-60807999D01*
X172234102Y-60729596D01*
X172176705Y-60367206D01*
X172081742Y-60012801D01*
X171950255Y-59670264D01*
X171783682Y-59343348D01*
X171783679Y-59343343D01*
X171583853Y-59035636D01*
X171506883Y-58940587D01*
X171352949Y-58750494D01*
X171093506Y-58491051D01*
X170950935Y-58375599D01*
X170808363Y-58260146D01*
X170500656Y-58060320D01*
X170173735Y-57893744D01*
X169831200Y-57762258D01*
X169476788Y-57667293D01*
X169114406Y-57609897D01*
X168748000Y-57590696D01*
X168381593Y-57609897D01*
X168019211Y-57667293D01*
X167664799Y-57762258D01*
X167322264Y-57893744D01*
X166995343Y-58060320D01*
X166687636Y-58260146D01*
X166402490Y-58491054D01*
X166143054Y-58750490D01*
X165912146Y-59035636D01*
X165712320Y-59343343D01*
X165545744Y-59670264D01*
X165414258Y-60012799D01*
X165319293Y-60367211D01*
X165261897Y-60729593D01*
X165242696Y-61096000D01*
X152000500Y-61096000D01*
X152000500Y-54646701D01*
X157418851Y-54646701D01*
X157651931Y-54835447D01*
X157959593Y-55035246D01*
X158286468Y-55201797D01*
X158628954Y-55333265D01*
X158983316Y-55428216D01*
X159345645Y-55485602D01*
X159712000Y-55504802D01*
X160078354Y-55485602D01*
X160440683Y-55428216D01*
X160795045Y-55333265D01*
X161137531Y-55201797D01*
X161464406Y-55035246D01*
X161772069Y-54835447D01*
X162005148Y-54646702D01*
X162005148Y-54646701D01*
X175706851Y-54646701D01*
X175939931Y-54835447D01*
X176247593Y-55035246D01*
X176574468Y-55201797D01*
X176916954Y-55333265D01*
X177271316Y-55428216D01*
X177633645Y-55485602D01*
X178000000Y-55504802D01*
X178366354Y-55485602D01*
X178728683Y-55428216D01*
X179083045Y-55333265D01*
X179425531Y-55201797D01*
X179752406Y-55035246D01*
X180060069Y-54835447D01*
X180293148Y-54646702D01*
X180293148Y-54646701D01*
X180005148Y-54358701D01*
X199706851Y-54358701D01*
X199939931Y-54547447D01*
X200247593Y-54747246D01*
X200574468Y-54913797D01*
X200916954Y-55045265D01*
X201271316Y-55140216D01*
X201633645Y-55197602D01*
X202000000Y-55216802D01*
X202366354Y-55197602D01*
X202728683Y-55140216D01*
X203083045Y-55045265D01*
X203425531Y-54913797D01*
X203752406Y-54747246D01*
X204060069Y-54547447D01*
X204293148Y-54358702D01*
X204293148Y-54358701D01*
X217994851Y-54358701D01*
X218227931Y-54547447D01*
X218535593Y-54747246D01*
X218862468Y-54913797D01*
X219204954Y-55045265D01*
X219559316Y-55140216D01*
X219921645Y-55197602D01*
X220288000Y-55216802D01*
X220654354Y-55197602D01*
X221016683Y-55140216D01*
X221371045Y-55045265D01*
X221713531Y-54913797D01*
X222040406Y-54747246D01*
X222348069Y-54547447D01*
X222581148Y-54358702D01*
X222581148Y-54358701D01*
X220288001Y-52065553D01*
X220288000Y-52065553D01*
X217994851Y-54358701D01*
X204293148Y-54358701D01*
X202000001Y-52065553D01*
X202000000Y-52065553D01*
X199706851Y-54358701D01*
X180005148Y-54358701D01*
X178000001Y-52353553D01*
X178000000Y-52353553D01*
X175706851Y-54646701D01*
X162005148Y-54646701D01*
X159712001Y-52353553D01*
X159712000Y-52353553D01*
X157418851Y-54646701D01*
X152000500Y-54646701D01*
X152000500Y-52000000D01*
X156207197Y-52000000D01*
X156226397Y-52366354D01*
X156283783Y-52728683D01*
X156378734Y-53083045D01*
X156510202Y-53425531D01*
X156676753Y-53752406D01*
X156876552Y-54060068D01*
X157065297Y-54293147D01*
X159358446Y-52000001D01*
X160065553Y-52000001D01*
X162358701Y-54293148D01*
X162358702Y-54293148D01*
X162547447Y-54060069D01*
X162747246Y-53752406D01*
X162913797Y-53425531D01*
X163045265Y-53083045D01*
X163140216Y-52728683D01*
X163197602Y-52366354D01*
X163216802Y-52000000D01*
X174495197Y-52000000D01*
X174514397Y-52366354D01*
X174571783Y-52728683D01*
X174666734Y-53083045D01*
X174798202Y-53425531D01*
X174964753Y-53752406D01*
X175164552Y-54060068D01*
X175353297Y-54293147D01*
X177646446Y-52000001D01*
X178353553Y-52000001D01*
X180646701Y-54293148D01*
X180646702Y-54293148D01*
X180835447Y-54060069D01*
X181035246Y-53752406D01*
X181201797Y-53425531D01*
X181333265Y-53083045D01*
X181428216Y-52728683D01*
X181485602Y-52366354D01*
X181504802Y-52000000D01*
X181489708Y-51712000D01*
X198495197Y-51712000D01*
X198514397Y-52078354D01*
X198571783Y-52440683D01*
X198666734Y-52795045D01*
X198798202Y-53137531D01*
X198964753Y-53464406D01*
X199164552Y-53772068D01*
X199353297Y-54005147D01*
X201646446Y-51712000D01*
X202353553Y-51712000D01*
X204646702Y-54005148D01*
X204835447Y-53772069D01*
X205035246Y-53464406D01*
X205201797Y-53137531D01*
X205333265Y-52795045D01*
X205428216Y-52440683D01*
X205485602Y-52078354D01*
X205504802Y-51712000D01*
X216783197Y-51712000D01*
X216802397Y-52078354D01*
X216859783Y-52440683D01*
X216954734Y-52795045D01*
X217086202Y-53137531D01*
X217252753Y-53464406D01*
X217452552Y-53772068D01*
X217641297Y-54005147D01*
X219934445Y-51712001D01*
X220641553Y-51712001D01*
X222934701Y-54005148D01*
X222934702Y-54005148D01*
X223123447Y-53772069D01*
X223323246Y-53464406D01*
X223489797Y-53137531D01*
X223621265Y-52795045D01*
X223716216Y-52440683D01*
X223773602Y-52078354D01*
X223792802Y-51712000D01*
X223773602Y-51345645D01*
X223716216Y-50983316D01*
X223621265Y-50628954D01*
X223489797Y-50286468D01*
X223323246Y-49959594D01*
X223123447Y-49651931D01*
X222934701Y-49418851D01*
X220641553Y-51712000D01*
X220641553Y-51712001D01*
X219934445Y-51712001D01*
X219934446Y-51712000D01*
X219934446Y-51711998D01*
X217641297Y-49418851D01*
X217452552Y-49651931D01*
X217252753Y-49959594D01*
X217086202Y-50286468D01*
X216954734Y-50628954D01*
X216859783Y-50983316D01*
X216802397Y-51345645D01*
X216783197Y-51712000D01*
X205504802Y-51712000D01*
X205485602Y-51345645D01*
X205428216Y-50983316D01*
X205333265Y-50628954D01*
X205201797Y-50286468D01*
X205035246Y-49959594D01*
X204835447Y-49651931D01*
X204646701Y-49418851D01*
X202353553Y-51711998D01*
X202353553Y-51712000D01*
X201646446Y-51712000D01*
X201646446Y-51711998D01*
X199353297Y-49418851D01*
X199164552Y-49651931D01*
X198964753Y-49959594D01*
X198798202Y-50286468D01*
X198666734Y-50628954D01*
X198571783Y-50983316D01*
X198514397Y-51345645D01*
X198495197Y-51712000D01*
X181489708Y-51712000D01*
X181485602Y-51633645D01*
X181428216Y-51271316D01*
X181333265Y-50916954D01*
X181201797Y-50574468D01*
X181035246Y-50247594D01*
X180835447Y-49939931D01*
X180646701Y-49706851D01*
X178353553Y-52000000D01*
X178353553Y-52000001D01*
X177646446Y-52000001D01*
X177646446Y-52000000D01*
X175353297Y-49706851D01*
X175164552Y-49939931D01*
X174964753Y-50247594D01*
X174798202Y-50574468D01*
X174666734Y-50916954D01*
X174571783Y-51271316D01*
X174514397Y-51633645D01*
X174495197Y-52000000D01*
X163216802Y-52000000D01*
X163197602Y-51633645D01*
X163140216Y-51271316D01*
X163045265Y-50916954D01*
X162913797Y-50574468D01*
X162747246Y-50247594D01*
X162547447Y-49939931D01*
X162358701Y-49706851D01*
X160065553Y-52000000D01*
X160065553Y-52000001D01*
X159358446Y-52000001D01*
X159358446Y-52000000D01*
X157065297Y-49706851D01*
X156876552Y-49939931D01*
X156676753Y-50247594D01*
X156510202Y-50574468D01*
X156378734Y-50916954D01*
X156283783Y-51271316D01*
X156226397Y-51633645D01*
X156207197Y-52000000D01*
X152000500Y-52000000D01*
X152000500Y-49353297D01*
X157418851Y-49353297D01*
X159712000Y-51646446D01*
X159712001Y-51646446D01*
X162005148Y-49353297D01*
X175706851Y-49353297D01*
X178000000Y-51646446D01*
X178000001Y-51646446D01*
X180293148Y-49353297D01*
X180060068Y-49164552D01*
X179907229Y-49065297D01*
X199706851Y-49065297D01*
X202000000Y-51358446D01*
X202000001Y-51358446D01*
X204293148Y-49065297D01*
X217994851Y-49065297D01*
X220288000Y-51358446D01*
X220288001Y-51358446D01*
X222581148Y-49065297D01*
X222348068Y-48876552D01*
X222040406Y-48676753D01*
X221713531Y-48510202D01*
X221371045Y-48378734D01*
X221016683Y-48283783D01*
X220654354Y-48226397D01*
X220288000Y-48207197D01*
X219921645Y-48226397D01*
X219559316Y-48283783D01*
X219204954Y-48378734D01*
X218862468Y-48510202D01*
X218535594Y-48676753D01*
X218227931Y-48876552D01*
X217994851Y-49065297D01*
X204293148Y-49065297D01*
X204060068Y-48876552D01*
X203752406Y-48676753D01*
X203425531Y-48510202D01*
X203083045Y-48378734D01*
X202728683Y-48283783D01*
X202366354Y-48226397D01*
X202000000Y-48207197D01*
X201633645Y-48226397D01*
X201271316Y-48283783D01*
X200916954Y-48378734D01*
X200574468Y-48510202D01*
X200247594Y-48676753D01*
X199939931Y-48876552D01*
X199706851Y-49065297D01*
X179907229Y-49065297D01*
X179752406Y-48964753D01*
X179425531Y-48798202D01*
X179083045Y-48666734D01*
X178728683Y-48571783D01*
X178366354Y-48514397D01*
X178000000Y-48495197D01*
X177633645Y-48514397D01*
X177271316Y-48571783D01*
X176916954Y-48666734D01*
X176574468Y-48798202D01*
X176247594Y-48964753D01*
X175939931Y-49164552D01*
X175706851Y-49353297D01*
X162005148Y-49353297D01*
X161772068Y-49164552D01*
X161464406Y-48964753D01*
X161137531Y-48798202D01*
X160795045Y-48666734D01*
X160440683Y-48571783D01*
X160078354Y-48514397D01*
X159712000Y-48495197D01*
X159345645Y-48514397D01*
X158983316Y-48571783D01*
X158628954Y-48666734D01*
X158286468Y-48798202D01*
X157959594Y-48964753D01*
X157651931Y-49164552D01*
X157418851Y-49353297D01*
X152000500Y-49353297D01*
X152000500Y-44749999D01*
X193094540Y-44749999D01*
X193114326Y-44938257D01*
X193172820Y-45118284D01*
X193267466Y-45282216D01*
X193394129Y-45422889D01*
X193547265Y-45534149D01*
X193587714Y-45552158D01*
X193715192Y-45608916D01*
X193752435Y-45634513D01*
X194602742Y-46484819D01*
X194602743Y-46484821D01*
X194747738Y-46629816D01*
X194780143Y-46650177D01*
X194791486Y-46658225D01*
X194821414Y-46682092D01*
X194855895Y-46698697D01*
X194868066Y-46705423D01*
X194900480Y-46725790D01*
X194936608Y-46738432D01*
X194949450Y-46743750D01*
X194983938Y-46760359D01*
X194983939Y-46760360D01*
X195021250Y-46768876D01*
X195034611Y-46772725D01*
X195070745Y-46785368D01*
X195108776Y-46789653D01*
X195122481Y-46791981D01*
X195159806Y-46800500D01*
X195205046Y-46800500D01*
X195340194Y-46800500D01*
X197557633Y-46800500D01*
X197608069Y-46811221D01*
X197720197Y-46861144D01*
X197905352Y-46900500D01*
X197905354Y-46900500D01*
X198094646Y-46900500D01*
X198094648Y-46900500D01*
X198218084Y-46874262D01*
X198279803Y-46861144D01*
X198452730Y-46784151D01*
X198515657Y-46738432D01*
X198605870Y-46672889D01*
X198732533Y-46532216D01*
X198827179Y-46368284D01*
X198827178Y-46368284D01*
X198885674Y-46188256D01*
X198905460Y-46000000D01*
X198885674Y-45811744D01*
X198827179Y-45631716D01*
X198827179Y-45631715D01*
X198732533Y-45467783D01*
X198605870Y-45327110D01*
X198452730Y-45215848D01*
X198279802Y-45138855D01*
X198094648Y-45099500D01*
X198094646Y-45099500D01*
X197905354Y-45099500D01*
X197905352Y-45099500D01*
X197720197Y-45138855D01*
X197608069Y-45188779D01*
X197557633Y-45199500D01*
X195632940Y-45199500D01*
X195585487Y-45190061D01*
X195545259Y-45163181D01*
X194878737Y-44496659D01*
X194848487Y-44447295D01*
X194827179Y-44381716D01*
X194732533Y-44217783D01*
X194605870Y-44077110D01*
X194452730Y-43965848D01*
X194279802Y-43888855D01*
X194094648Y-43849500D01*
X194094646Y-43849500D01*
X193905354Y-43849500D01*
X193905352Y-43849500D01*
X193720197Y-43888855D01*
X193547269Y-43965848D01*
X193394129Y-44077110D01*
X193267466Y-44217783D01*
X193172820Y-44381715D01*
X193114326Y-44561742D01*
X193094540Y-44749999D01*
X152000500Y-44749999D01*
X152000500Y-42624500D01*
X152017113Y-42562500D01*
X152062500Y-42517113D01*
X152124500Y-42500500D01*
X267875500Y-42500500D01*
X267937500Y-42517113D01*
G37*
G04 #@! TD.AperFunction*
M02*
