%TF.GenerationSoftware,KiCad,Pcbnew,7.0.1*%
%TF.CreationDate,2023-05-14T23:30:54+02:00*%
%TF.ProjectId,K_relay,4b5f7265-6c61-4792-9e6b-696361645f70,rev?*%
%TF.SameCoordinates,Original*%
%TF.FileFunction,Drillmap*%
%TF.FilePolarity,Positive*%
%FSLAX45Y45*%
G04 Gerber Fmt 4.5, Leading zero omitted, Abs format (unit mm)*
G04 Created by KiCad (PCBNEW 7.0.1) date 2023-05-14 23:30:54*
%MOMM*%
%LPD*%
G01*
G04 APERTURE LIST*
%ADD10C,0.100000*%
%ADD11C,0.200000*%
%ADD12C,0.040000*%
%ADD13C,0.129540*%
%ADD14C,0.130000*%
%ADD15C,0.130048*%
%ADD16C,0.240000*%
%ADD17C,0.330000*%
G04 APERTURE END LIST*
D10*
X26800000Y-12450000D02*
X15200000Y-12400000D01*
X26800000Y-4250000D02*
X26800000Y-12450000D01*
X15200000Y-4250000D02*
X15200000Y-12400000D01*
X15200000Y-4250000D02*
X26800000Y-4250000D01*
D11*
D12*
X15480000Y-9480000D02*
X15520000Y-9520000D01*
X15520000Y-9480000D02*
X15480000Y-9520000D01*
X15480000Y-9980000D02*
X15520000Y-10020000D01*
X15520000Y-9980000D02*
X15480000Y-10020000D01*
X15480000Y-10480000D02*
X15520000Y-10520000D01*
X15520000Y-10480000D02*
X15480000Y-10520000D01*
X15480000Y-10980000D02*
X15520000Y-11020000D01*
X15520000Y-10980000D02*
X15480000Y-11020000D01*
X15480000Y-11480000D02*
X15520000Y-11520000D01*
X15520000Y-11480000D02*
X15480000Y-11520000D01*
X15480000Y-11980000D02*
X15520000Y-12020000D01*
X15520000Y-11980000D02*
X15480000Y-12020000D01*
X15480000Y-12230000D02*
X15520000Y-12270000D01*
X15520000Y-12230000D02*
X15480000Y-12270000D01*
X15680000Y-7780000D02*
X15720000Y-7820000D01*
X15720000Y-7780000D02*
X15680000Y-7820000D01*
X15680000Y-8980000D02*
X15720000Y-9020000D01*
X15720000Y-8980000D02*
X15680000Y-9020000D01*
X15980000Y-12230000D02*
X16020000Y-12270000D01*
X16020000Y-12230000D02*
X15980000Y-12270000D01*
X16080000Y-7780000D02*
X16120000Y-7820000D01*
X16120000Y-7780000D02*
X16080000Y-7820000D01*
X16080000Y-8980000D02*
X16120000Y-9020000D01*
X16120000Y-8980000D02*
X16080000Y-9020000D01*
X16480000Y-7780000D02*
X16520000Y-7820000D01*
X16520000Y-7780000D02*
X16480000Y-7820000D01*
X16480000Y-8980000D02*
X16520000Y-9020000D01*
X16520000Y-8980000D02*
X16480000Y-9020000D01*
X16480000Y-12230000D02*
X16520000Y-12270000D01*
X16520000Y-12230000D02*
X16480000Y-12270000D01*
X16980000Y-12230000D02*
X17020000Y-12270000D01*
X17020000Y-12230000D02*
X16980000Y-12270000D01*
X17305000Y-7930000D02*
X17345000Y-7970000D01*
X17345000Y-7930000D02*
X17305000Y-7970000D01*
X17305000Y-8130000D02*
X17345000Y-8170000D01*
X17345000Y-8130000D02*
X17305000Y-8170000D01*
X17305000Y-8330000D02*
X17345000Y-8370000D01*
X17345000Y-8330000D02*
X17305000Y-8370000D01*
X17305000Y-8530000D02*
X17345000Y-8570000D01*
X17345000Y-8530000D02*
X17305000Y-8570000D01*
X17305000Y-8730000D02*
X17345000Y-8770000D01*
X17345000Y-8730000D02*
X17305000Y-8770000D01*
X17305000Y-8930000D02*
X17345000Y-8970000D01*
X17345000Y-8930000D02*
X17305000Y-8970000D01*
X17480000Y-12230000D02*
X17520000Y-12270000D01*
X17520000Y-12230000D02*
X17480000Y-12270000D01*
X17805000Y-7930000D02*
X17845000Y-7970000D01*
X17845000Y-7930000D02*
X17805000Y-7970000D01*
X17805000Y-8130000D02*
X17845000Y-8170000D01*
X17845000Y-8130000D02*
X17805000Y-8170000D01*
X17805000Y-8330000D02*
X17845000Y-8370000D01*
X17845000Y-8330000D02*
X17805000Y-8370000D01*
X17805000Y-8530000D02*
X17845000Y-8570000D01*
X17845000Y-8530000D02*
X17805000Y-8570000D01*
X17805000Y-8730000D02*
X17845000Y-8770000D01*
X17845000Y-8730000D02*
X17805000Y-8770000D01*
X17980000Y-12230000D02*
X18020000Y-12270000D01*
X18020000Y-12230000D02*
X17980000Y-12270000D01*
X18380000Y-6080000D02*
X18420000Y-6120000D01*
X18420000Y-6080000D02*
X18380000Y-6120000D01*
X18380000Y-6480000D02*
X18420000Y-6520000D01*
X18420000Y-6480000D02*
X18380000Y-6520000D01*
X18380000Y-6880000D02*
X18420000Y-6920000D01*
X18420000Y-6880000D02*
X18380000Y-6920000D01*
X18380000Y-7280000D02*
X18420000Y-7320000D01*
X18420000Y-7280000D02*
X18380000Y-7320000D01*
X18430000Y-8030000D02*
X18470000Y-8070000D01*
X18470000Y-8030000D02*
X18430000Y-8070000D01*
X18480000Y-12230000D02*
X18520000Y-12270000D01*
X18520000Y-12230000D02*
X18480000Y-12270000D01*
X18630000Y-8030000D02*
X18670000Y-8070000D01*
X18670000Y-8030000D02*
X18630000Y-8070000D01*
X18630000Y-8530000D02*
X18670000Y-8570000D01*
X18670000Y-8530000D02*
X18630000Y-8570000D01*
X18830000Y-8030000D02*
X18870000Y-8070000D01*
X18870000Y-8030000D02*
X18830000Y-8070000D01*
X18830000Y-8530000D02*
X18870000Y-8570000D01*
X18870000Y-8530000D02*
X18830000Y-8570000D01*
X18980000Y-12230000D02*
X19020000Y-12270000D01*
X19020000Y-12230000D02*
X18980000Y-12270000D01*
X19030000Y-8030000D02*
X19070000Y-8070000D01*
X19070000Y-8030000D02*
X19030000Y-8070000D01*
X19030000Y-8530000D02*
X19070000Y-8570000D01*
X19070000Y-8530000D02*
X19030000Y-8570000D01*
X19230000Y-8030000D02*
X19270000Y-8070000D01*
X19270000Y-8030000D02*
X19230000Y-8070000D01*
X19230000Y-8530000D02*
X19270000Y-8570000D01*
X19270000Y-8530000D02*
X19230000Y-8570000D01*
X19380000Y-4455000D02*
X19420000Y-4495000D01*
X19420000Y-4455000D02*
X19380000Y-4495000D01*
X19430000Y-8030000D02*
X19470000Y-8070000D01*
X19470000Y-8030000D02*
X19430000Y-8070000D01*
X19430000Y-8530000D02*
X19470000Y-8570000D01*
X19470000Y-8530000D02*
X19430000Y-8570000D01*
X19480000Y-12230000D02*
X19520000Y-12270000D01*
X19520000Y-12230000D02*
X19480000Y-12270000D01*
X19680000Y-6080000D02*
X19720000Y-6120000D01*
X19720000Y-6080000D02*
X19680000Y-6120000D01*
X19680000Y-6480000D02*
X19720000Y-6520000D01*
X19720000Y-6480000D02*
X19680000Y-6520000D01*
X19680000Y-6880000D02*
X19720000Y-6920000D01*
X19720000Y-6880000D02*
X19680000Y-6920000D01*
X19680000Y-7280000D02*
X19720000Y-7320000D01*
X19720000Y-7280000D02*
X19680000Y-7320000D01*
X19780000Y-4580000D02*
X19820000Y-4620000D01*
X19820000Y-4580000D02*
X19780000Y-4620000D01*
X19980000Y-12230000D02*
X20020000Y-12270000D01*
X20020000Y-12230000D02*
X19980000Y-12270000D01*
X20355000Y-7930000D02*
X20395000Y-7970000D01*
X20395000Y-7930000D02*
X20355000Y-7970000D01*
X20355000Y-8130000D02*
X20395000Y-8170000D01*
X20395000Y-8130000D02*
X20355000Y-8170000D01*
X20355000Y-8330000D02*
X20395000Y-8370000D01*
X20395000Y-8330000D02*
X20355000Y-8370000D01*
X20355000Y-8530000D02*
X20395000Y-8570000D01*
X20395000Y-8530000D02*
X20355000Y-8570000D01*
X20355000Y-8730000D02*
X20395000Y-8770000D01*
X20395000Y-8730000D02*
X20355000Y-8770000D01*
X20480000Y-12230000D02*
X20520000Y-12270000D01*
X20520000Y-12230000D02*
X20480000Y-12270000D01*
X20830000Y-7930000D02*
X20870000Y-7970000D01*
X20870000Y-7930000D02*
X20830000Y-7970000D01*
X20855000Y-8130000D02*
X20895000Y-8170000D01*
X20895000Y-8130000D02*
X20855000Y-8170000D01*
X20855000Y-8330000D02*
X20895000Y-8370000D01*
X20895000Y-8330000D02*
X20855000Y-8370000D01*
X20855000Y-8530000D02*
X20895000Y-8570000D01*
X20895000Y-8530000D02*
X20855000Y-8570000D01*
X20855000Y-8730000D02*
X20895000Y-8770000D01*
X20895000Y-8730000D02*
X20855000Y-8770000D01*
X20980000Y-12230000D02*
X21020000Y-12270000D01*
X21020000Y-12230000D02*
X20980000Y-12270000D01*
X21480000Y-12230000D02*
X21520000Y-12270000D01*
X21520000Y-12230000D02*
X21480000Y-12270000D01*
X21680000Y-7780000D02*
X21720000Y-7820000D01*
X21720000Y-7780000D02*
X21680000Y-7820000D01*
X21680000Y-8980000D02*
X21720000Y-9020000D01*
X21720000Y-8980000D02*
X21680000Y-9020000D01*
X21980000Y-12230000D02*
X22020000Y-12270000D01*
X22020000Y-12230000D02*
X21980000Y-12270000D01*
X22080000Y-7780000D02*
X22120000Y-7820000D01*
X22120000Y-7780000D02*
X22080000Y-7820000D01*
X22080000Y-8980000D02*
X22120000Y-9020000D01*
X22120000Y-8980000D02*
X22080000Y-9020000D01*
X22480000Y-7780000D02*
X22520000Y-7820000D01*
X22520000Y-7780000D02*
X22480000Y-7820000D01*
X22480000Y-8980000D02*
X22520000Y-9020000D01*
X22520000Y-8980000D02*
X22480000Y-9020000D01*
X22480000Y-12230000D02*
X22520000Y-12270000D01*
X22520000Y-12230000D02*
X22480000Y-12270000D01*
X22580000Y-5780000D02*
X22620000Y-5820000D01*
X22620000Y-5780000D02*
X22580000Y-5820000D01*
X22830000Y-9430000D02*
X22870000Y-9470000D01*
X22870000Y-9430000D02*
X22830000Y-9470000D01*
X22830000Y-9630000D02*
X22870000Y-9670000D01*
X22870000Y-9630000D02*
X22830000Y-9670000D01*
X22830000Y-9830000D02*
X22870000Y-9870000D01*
X22870000Y-9830000D02*
X22830000Y-9870000D01*
X22830000Y-10030000D02*
X22870000Y-10070000D01*
X22870000Y-10030000D02*
X22830000Y-10070000D01*
X22830000Y-10230000D02*
X22870000Y-10270000D01*
X22870000Y-10230000D02*
X22830000Y-10270000D01*
X22830000Y-10430000D02*
X22870000Y-10470000D01*
X22870000Y-10430000D02*
X22830000Y-10470000D01*
X22980000Y-7480000D02*
X23020000Y-7520000D01*
X23020000Y-7480000D02*
X22980000Y-7520000D01*
X22980000Y-7980000D02*
X23020000Y-8020000D01*
X23020000Y-7980000D02*
X22980000Y-8020000D01*
X22980000Y-8480000D02*
X23020000Y-8520000D01*
X23020000Y-8480000D02*
X22980000Y-8520000D01*
X22980000Y-8980000D02*
X23020000Y-9020000D01*
X23020000Y-8980000D02*
X22980000Y-9020000D01*
X23043604Y-5030000D02*
X23083604Y-5070000D01*
X23083604Y-5030000D02*
X23043604Y-5070000D01*
X23080000Y-4380000D02*
X23120000Y-4420000D01*
X23120000Y-4380000D02*
X23080000Y-4420000D01*
X23080000Y-5680000D02*
X23120000Y-5720000D01*
X23120000Y-5680000D02*
X23080000Y-5720000D01*
X23230000Y-6130000D02*
X23270000Y-6170000D01*
X23270000Y-6130000D02*
X23230000Y-6170000D01*
X23330000Y-9430000D02*
X23370000Y-9470000D01*
X23370000Y-9430000D02*
X23330000Y-9470000D01*
X23330000Y-9630000D02*
X23370000Y-9670000D01*
X23370000Y-9630000D02*
X23330000Y-9670000D01*
X23330000Y-9830000D02*
X23370000Y-9870000D01*
X23370000Y-9830000D02*
X23330000Y-9870000D01*
X23330000Y-10030000D02*
X23370000Y-10070000D01*
X23370000Y-10030000D02*
X23330000Y-10070000D01*
X23330000Y-10230000D02*
X23370000Y-10270000D01*
X23370000Y-10230000D02*
X23330000Y-10270000D01*
X23330000Y-10405000D02*
X23370000Y-10445000D01*
X23370000Y-10405000D02*
X23330000Y-10445000D01*
X23380000Y-7480000D02*
X23420000Y-7520000D01*
X23420000Y-7480000D02*
X23380000Y-7520000D01*
X23380000Y-7980000D02*
X23420000Y-8020000D01*
X23420000Y-7980000D02*
X23380000Y-8020000D01*
X23380000Y-8480000D02*
X23420000Y-8520000D01*
X23420000Y-8480000D02*
X23380000Y-8520000D01*
X23380000Y-8980000D02*
X23420000Y-9020000D01*
X23420000Y-8980000D02*
X23380000Y-9020000D01*
X23580000Y-4380000D02*
X23620000Y-4420000D01*
X23620000Y-4380000D02*
X23580000Y-4420000D01*
X23830000Y-6180000D02*
X23870000Y-6220000D01*
X23870000Y-6180000D02*
X23830000Y-6220000D01*
X23980000Y-5730000D02*
X24020000Y-5770000D01*
X24020000Y-5730000D02*
X23980000Y-5770000D01*
X24080000Y-4380000D02*
X24120000Y-4420000D01*
X24120000Y-4380000D02*
X24080000Y-4420000D01*
X24180000Y-5730000D02*
X24220000Y-5770000D01*
X24220000Y-5730000D02*
X24180000Y-5770000D01*
X24230000Y-6180000D02*
X24270000Y-6220000D01*
X24270000Y-6180000D02*
X24230000Y-6220000D01*
X24330000Y-5730000D02*
X24370000Y-5770000D01*
X24370000Y-5730000D02*
X24330000Y-5770000D01*
X24380000Y-6030000D02*
X24420000Y-6070000D01*
X24420000Y-6030000D02*
X24380000Y-6070000D01*
X24480000Y-7880000D02*
X24520000Y-7920000D01*
X24520000Y-7880000D02*
X24480000Y-7920000D01*
X24486369Y-7445050D02*
X24526369Y-7485050D01*
X24526369Y-7445050D02*
X24486369Y-7485050D01*
X24530000Y-12230000D02*
X24570000Y-12270000D01*
X24570000Y-12230000D02*
X24530000Y-12270000D01*
X24580000Y-4380000D02*
X24620000Y-4420000D01*
X24620000Y-4380000D02*
X24580000Y-4420000D01*
X24580000Y-9280000D02*
X24620000Y-9320000D01*
X24620000Y-9280000D02*
X24580000Y-9320000D01*
X24580000Y-10480000D02*
X24620000Y-10520000D01*
X24620000Y-10480000D02*
X24580000Y-10520000D01*
X24680000Y-6030000D02*
X24720000Y-6070000D01*
X24720000Y-6030000D02*
X24680000Y-6070000D01*
X24680000Y-7445050D02*
X24720000Y-7485050D01*
X24720000Y-7445050D02*
X24680000Y-7485050D01*
X24680000Y-7880000D02*
X24720000Y-7920000D01*
X24720000Y-7880000D02*
X24680000Y-7920000D01*
X24780000Y-9280000D02*
X24820000Y-9320000D01*
X24820000Y-9280000D02*
X24780000Y-9320000D01*
X24780000Y-10480000D02*
X24820000Y-10520000D01*
X24820000Y-10480000D02*
X24780000Y-10520000D01*
X24780000Y-5030000D02*
X24820000Y-5070000D01*
X24820000Y-5030000D02*
X24780000Y-5070000D01*
X24880000Y-7445050D02*
X24920000Y-7485050D01*
X24920000Y-7445050D02*
X24880000Y-7485050D01*
X24880000Y-7880000D02*
X24920000Y-7920000D01*
X24920000Y-7880000D02*
X24880000Y-7920000D01*
X24980000Y-6030000D02*
X25020000Y-6070000D01*
X25020000Y-6030000D02*
X24980000Y-6070000D01*
X24980000Y-9280000D02*
X25020000Y-9320000D01*
X25020000Y-9280000D02*
X24980000Y-9320000D01*
X24980000Y-10480000D02*
X25020000Y-10520000D01*
X25020000Y-10480000D02*
X24980000Y-10520000D01*
X25080000Y-4380000D02*
X25120000Y-4420000D01*
X25120000Y-4380000D02*
X25080000Y-4420000D01*
X25080000Y-7880000D02*
X25120000Y-7920000D01*
X25120000Y-7880000D02*
X25080000Y-7920000D01*
X25080000Y-8280000D02*
X25120000Y-8320000D01*
X25120000Y-8280000D02*
X25080000Y-8320000D01*
X25080000Y-8480000D02*
X25120000Y-8520000D01*
X25120000Y-8480000D02*
X25080000Y-8520000D01*
X25080000Y-12230000D02*
X25120000Y-12270000D01*
X25120000Y-12230000D02*
X25080000Y-12270000D01*
X25180000Y-9280000D02*
X25220000Y-9320000D01*
X25220000Y-9280000D02*
X25180000Y-9320000D01*
X25180000Y-10480000D02*
X25220000Y-10520000D01*
X25220000Y-10480000D02*
X25180000Y-10520000D01*
X25280000Y-6030000D02*
X25320000Y-6070000D01*
X25320000Y-6030000D02*
X25280000Y-6070000D01*
X25280000Y-9680000D02*
X25320000Y-9720000D01*
X25320000Y-9680000D02*
X25280000Y-9720000D01*
X25280000Y-9880000D02*
X25320000Y-9920000D01*
X25320000Y-9880000D02*
X25280000Y-9920000D01*
X25280000Y-10080000D02*
X25320000Y-10120000D01*
X25320000Y-10080000D02*
X25280000Y-10120000D01*
X25580000Y-4380000D02*
X25620000Y-4420000D01*
X25620000Y-4380000D02*
X25580000Y-4420000D01*
X26080000Y-4380000D02*
X26120000Y-4420000D01*
X26120000Y-4380000D02*
X26080000Y-4420000D01*
X26380000Y-7980000D02*
X26420000Y-8020000D01*
X26420000Y-7980000D02*
X26380000Y-8020000D01*
X26380000Y-8255000D02*
X26420000Y-8295000D01*
X26420000Y-8255000D02*
X26380000Y-8295000D01*
D10*
X23334000Y-5246000D02*
G75*
G03*
X23334000Y-5246000I-50000J0D01*
G01*
X23334000Y-5500000D02*
G75*
G03*
X23334000Y-5500000I-50000J0D01*
G01*
X23588000Y-5246000D02*
G75*
G03*
X23588000Y-5246000I-50000J0D01*
G01*
X23588000Y-5500000D02*
G75*
G03*
X23588000Y-5500000I-50000J0D01*
G01*
X23750000Y-8138000D02*
G75*
G03*
X23750000Y-8138000I-50000J0D01*
G01*
X23750000Y-8900000D02*
G75*
G03*
X23750000Y-8900000I-50000J0D01*
G01*
X23842000Y-5246000D02*
G75*
G03*
X23842000Y-5246000I-50000J0D01*
G01*
X23842000Y-5500000D02*
G75*
G03*
X23842000Y-5500000I-50000J0D01*
G01*
X24004000Y-8138000D02*
G75*
G03*
X24004000Y-8138000I-50000J0D01*
G01*
X24004000Y-8900000D02*
G75*
G03*
X24004000Y-8900000I-50000J0D01*
G01*
X24096000Y-5246000D02*
G75*
G03*
X24096000Y-5246000I-50000J0D01*
G01*
X24096000Y-5500000D02*
G75*
G03*
X24096000Y-5500000I-50000J0D01*
G01*
X24258000Y-8138000D02*
G75*
G03*
X24258000Y-8138000I-50000J0D01*
G01*
X24258000Y-8900000D02*
G75*
G03*
X24258000Y-8900000I-50000J0D01*
G01*
X24350000Y-5246000D02*
G75*
G03*
X24350000Y-5246000I-50000J0D01*
G01*
X24350000Y-5500000D02*
G75*
G03*
X24350000Y-5500000I-50000J0D01*
G01*
X24512000Y-8138000D02*
G75*
G03*
X24512000Y-8138000I-50000J0D01*
G01*
X24512000Y-8900000D02*
G75*
G03*
X24512000Y-8900000I-50000J0D01*
G01*
X24766000Y-8138000D02*
G75*
G03*
X24766000Y-8138000I-50000J0D01*
G01*
X24766000Y-8900000D02*
G75*
G03*
X24766000Y-8900000I-50000J0D01*
G01*
D13*
X15580000Y-7960230D02*
X15580000Y-8089770D01*
X15515230Y-8025000D02*
X15644770Y-8025000D01*
X15580000Y-8710230D02*
X15580000Y-8839770D01*
X15515230Y-8775000D02*
X15644770Y-8775000D01*
X17080000Y-7960230D02*
X17080000Y-8089770D01*
X17015230Y-8025000D02*
X17144770Y-8025000D01*
X17080000Y-8710230D02*
X17080000Y-8839770D01*
X17015230Y-8775000D02*
X17144770Y-8775000D01*
X17580001Y-7960230D02*
X17580001Y-8089770D01*
X17515231Y-8025000D02*
X17644771Y-8025000D01*
X17580001Y-8710230D02*
X17580001Y-8839770D01*
X17515231Y-8775000D02*
X17644771Y-8775000D01*
X18080001Y-7960230D02*
X18080001Y-8089770D01*
X18015231Y-8025000D02*
X18144771Y-8025000D01*
X18080001Y-8710230D02*
X18080001Y-8839770D01*
X18015231Y-8775000D02*
X18144771Y-8775000D01*
X18650000Y-6235230D02*
X18650000Y-6364770D01*
X18585230Y-6300000D02*
X18714770Y-6300000D01*
X18650000Y-7735230D02*
X18650000Y-7864770D01*
X18585230Y-7800000D02*
X18714770Y-7800000D01*
X18650000Y-8235230D02*
X18650000Y-8364770D01*
X18585230Y-8300000D02*
X18714770Y-8300000D01*
X18650000Y-8735230D02*
X18650000Y-8864770D01*
X18585230Y-8800000D02*
X18714770Y-8800000D01*
X19400000Y-6235230D02*
X19400000Y-6364770D01*
X19335230Y-6300000D02*
X19464770Y-6300000D01*
X19400000Y-7735230D02*
X19400000Y-7864770D01*
X19335230Y-7800000D02*
X19464770Y-7800000D01*
X19400000Y-8235230D02*
X19400000Y-8364770D01*
X19335230Y-8300000D02*
X19464770Y-8300000D01*
X19400000Y-8735230D02*
X19400000Y-8864770D01*
X19335230Y-8800000D02*
X19464770Y-8800000D01*
X20120000Y-7960230D02*
X20120000Y-8089770D01*
X20055230Y-8025000D02*
X20184770Y-8025000D01*
X20120000Y-8710230D02*
X20120000Y-8839770D01*
X20055230Y-8775000D02*
X20184770Y-8775000D01*
X20620000Y-7960230D02*
X20620000Y-8089770D01*
X20555230Y-8025000D02*
X20684770Y-8025000D01*
X20620000Y-8710230D02*
X20620000Y-8839770D01*
X20555230Y-8775000D02*
X20684770Y-8775000D01*
X21120000Y-7960230D02*
X21120000Y-8089770D01*
X21055230Y-8025000D02*
X21184770Y-8025000D01*
X21120000Y-8710230D02*
X21120000Y-8839770D01*
X21055230Y-8775000D02*
X21184770Y-8775000D01*
X22600000Y-9460230D02*
X22600000Y-9589770D01*
X22535230Y-9525000D02*
X22664770Y-9525000D01*
X22600000Y-10210230D02*
X22600000Y-10339770D01*
X22535230Y-10275000D02*
X22664770Y-10275000D01*
X22620000Y-7960230D02*
X22620000Y-8089770D01*
X22555230Y-8025000D02*
X22684770Y-8025000D01*
X22620000Y-8710230D02*
X22620000Y-8839770D01*
X22555230Y-8775000D02*
X22684770Y-8775000D01*
X23100000Y-9460230D02*
X23100000Y-9589770D01*
X23035230Y-9525000D02*
X23164770Y-9525000D01*
X23100000Y-10210230D02*
X23100000Y-10339770D01*
X23035230Y-10275000D02*
X23164770Y-10275000D01*
X23600000Y-9460230D02*
X23600000Y-9589770D01*
X23535230Y-9525000D02*
X23664770Y-9525000D01*
X23600000Y-10210230D02*
X23600000Y-10339770D01*
X23535230Y-10275000D02*
X23664770Y-10275000D01*
X25100000Y-9460230D02*
X25100000Y-9589770D01*
X25035230Y-9525000D02*
X25164770Y-9525000D01*
X25100000Y-10210230D02*
X25100000Y-10339770D01*
X25035230Y-10275000D02*
X25164770Y-10275000D01*
D14*
X19045962Y-10701962D02*
X19045962Y-10610038D01*
X18954038Y-10610038D01*
X18954038Y-10701962D01*
X19045962Y-10701962D01*
X23845962Y-11845962D02*
X23845962Y-11754038D01*
X23754038Y-11754038D01*
X23754038Y-11845962D01*
X23845962Y-11845962D01*
X26045962Y-11845962D02*
X26045962Y-11754038D01*
X25954038Y-11754038D01*
X25954038Y-11845962D01*
X26045962Y-11845962D01*
D15*
X22946000Y-6665024D02*
X23011024Y-6600000D01*
X22946000Y-6534976D01*
X22880976Y-6600000D01*
X22946000Y-6665024D01*
X22946000Y-7173024D02*
X23011024Y-7108000D01*
X22946000Y-7042976D01*
X22880976Y-7108000D01*
X22946000Y-7173024D01*
X23200000Y-6919024D02*
X23265024Y-6854000D01*
X23200000Y-6788976D01*
X23134976Y-6854000D01*
X23200000Y-6919024D01*
X23454000Y-6665024D02*
X23519024Y-6600000D01*
X23454000Y-6534976D01*
X23388976Y-6600000D01*
X23454000Y-6665024D01*
X23454000Y-7173024D02*
X23519024Y-7108000D01*
X23454000Y-7042976D01*
X23388976Y-7108000D01*
X23454000Y-7173024D01*
X24500000Y-6665024D02*
X24565024Y-6600000D01*
X24500000Y-6534976D01*
X24434976Y-6600000D01*
X24500000Y-6665024D01*
X24500000Y-7173024D02*
X24565024Y-7108000D01*
X24500000Y-7042976D01*
X24434976Y-7108000D01*
X24500000Y-7173024D01*
X24754000Y-6919024D02*
X24819024Y-6854000D01*
X24754000Y-6788976D01*
X24688976Y-6854000D01*
X24754000Y-6919024D01*
X25008000Y-6665024D02*
X25073024Y-6600000D01*
X25008000Y-6534976D01*
X24942976Y-6600000D01*
X25008000Y-6665024D01*
X25008000Y-7173024D02*
X25073024Y-7108000D01*
X25008000Y-7042976D01*
X24942976Y-7108000D01*
X25008000Y-7173024D01*
X25696000Y-7436024D02*
X25761024Y-7371000D01*
X25696000Y-7305976D01*
X25630976Y-7371000D01*
X25696000Y-7436024D01*
X25696000Y-7944024D02*
X25761024Y-7879000D01*
X25696000Y-7813976D01*
X25630976Y-7879000D01*
X25696000Y-7944024D01*
X25950000Y-7690024D02*
X26015024Y-7625000D01*
X25950000Y-7559976D01*
X25884976Y-7625000D01*
X25950000Y-7690024D01*
X26204000Y-7436024D02*
X26269024Y-7371000D01*
X26204000Y-7305976D01*
X26138976Y-7371000D01*
X26204000Y-7436024D01*
X26204000Y-7944024D02*
X26269024Y-7879000D01*
X26204000Y-7813976D01*
X26138976Y-7879000D01*
X26204000Y-7944024D01*
D16*
X18536000Y-10192000D02*
X18776000Y-10432000D01*
X18776000Y-10192000D02*
X18536000Y-10432000D01*
X18776000Y-10312000D02*
G75*
G03*
X18776000Y-10312000I-120000J0D01*
G01*
X18536000Y-10880000D02*
X18776000Y-11120000D01*
X18776000Y-10880000D02*
X18536000Y-11120000D01*
X18776000Y-11000000D02*
G75*
G03*
X18776000Y-11000000I-120000J0D01*
G01*
X19224000Y-10192000D02*
X19464000Y-10432000D01*
X19464000Y-10192000D02*
X19224000Y-10432000D01*
X19464000Y-10312000D02*
G75*
G03*
X19464000Y-10312000I-120000J0D01*
G01*
X19224000Y-10880000D02*
X19464000Y-11120000D01*
X19464000Y-10880000D02*
X19224000Y-11120000D01*
X19464000Y-11000000D02*
G75*
G03*
X19464000Y-11000000I-120000J0D01*
G01*
X23336000Y-11336000D02*
X23576000Y-11576000D01*
X23576000Y-11336000D02*
X23336000Y-11576000D01*
X23576000Y-11456000D02*
G75*
G03*
X23576000Y-11456000I-120000J0D01*
G01*
X23336000Y-12024000D02*
X23576000Y-12264000D01*
X23576000Y-12024000D02*
X23336000Y-12264000D01*
X23576000Y-12144000D02*
G75*
G03*
X23576000Y-12144000I-120000J0D01*
G01*
X24024000Y-11336000D02*
X24264000Y-11576000D01*
X24264000Y-11336000D02*
X24024000Y-11576000D01*
X24264000Y-11456000D02*
G75*
G03*
X24264000Y-11456000I-120000J0D01*
G01*
X24024000Y-12024000D02*
X24264000Y-12264000D01*
X24264000Y-12024000D02*
X24024000Y-12264000D01*
X24264000Y-12144000D02*
G75*
G03*
X24264000Y-12144000I-120000J0D01*
G01*
X25536000Y-11336000D02*
X25776000Y-11576000D01*
X25776000Y-11336000D02*
X25536000Y-11576000D01*
X25776000Y-11456000D02*
G75*
G03*
X25776000Y-11456000I-120000J0D01*
G01*
X25536000Y-12024000D02*
X25776000Y-12264000D01*
X25776000Y-12024000D02*
X25536000Y-12264000D01*
X25776000Y-12144000D02*
G75*
G03*
X25776000Y-12144000I-120000J0D01*
G01*
X26224000Y-11336000D02*
X26464000Y-11576000D01*
X26464000Y-11336000D02*
X26224000Y-11576000D01*
X26464000Y-11456000D02*
G75*
G03*
X26464000Y-11456000I-120000J0D01*
G01*
X26224000Y-12024000D02*
X26464000Y-12264000D01*
X26464000Y-12024000D02*
X26224000Y-12264000D01*
X26464000Y-12144000D02*
G75*
G03*
X26464000Y-12144000I-120000J0D01*
G01*
D17*
X15806200Y-5035000D02*
X16136200Y-5365000D01*
X16136200Y-5035000D02*
X15806200Y-5365000D01*
X15971200Y-5035000D02*
X15971200Y-5365000D01*
X15806200Y-5200000D02*
X16136200Y-5200000D01*
X15806200Y-6863800D02*
X16136200Y-7193800D01*
X16136200Y-6863800D02*
X15806200Y-7193800D01*
X15971200Y-6863800D02*
X15971200Y-7193800D01*
X15806200Y-7028800D02*
X16136200Y-7028800D01*
X15835000Y-9635000D02*
X16165000Y-9965000D01*
X16165000Y-9635000D02*
X15835000Y-9965000D01*
X16000000Y-9635000D02*
X16000000Y-9965000D01*
X15835000Y-9800000D02*
X16165000Y-9800000D01*
X15835000Y-11463800D02*
X16165000Y-11793800D01*
X16165000Y-11463800D02*
X15835000Y-11793800D01*
X16000000Y-11463800D02*
X16000000Y-11793800D01*
X15835000Y-11628800D02*
X16165000Y-11628800D01*
X16709800Y-5944600D02*
X17039800Y-6274600D01*
X17039800Y-5944600D02*
X16709800Y-6274600D01*
X16874800Y-5944600D02*
X16874800Y-6274600D01*
X16709800Y-6109600D02*
X17039800Y-6109600D01*
X16738600Y-10544600D02*
X17068600Y-10874600D01*
X17068600Y-10544600D02*
X16738600Y-10874600D01*
X16903600Y-10544600D02*
X16903600Y-10874600D01*
X16738600Y-10709600D02*
X17068600Y-10709600D01*
X17635000Y-5035000D02*
X17965000Y-5365000D01*
X17965000Y-5035000D02*
X17635000Y-5365000D01*
X17800000Y-5035000D02*
X17800000Y-5365000D01*
X17635000Y-5200000D02*
X17965000Y-5200000D01*
X17635000Y-6863800D02*
X17965000Y-7193800D01*
X17965000Y-6863800D02*
X17635000Y-7193800D01*
X17800000Y-6863800D02*
X17800000Y-7193800D01*
X17635000Y-7028800D02*
X17965000Y-7028800D01*
X17663800Y-9635000D02*
X17993800Y-9965000D01*
X17993800Y-9635000D02*
X17663800Y-9965000D01*
X17828800Y-9635000D02*
X17828800Y-9965000D01*
X17663800Y-9800000D02*
X17993800Y-9800000D01*
X17663800Y-11463800D02*
X17993800Y-11793800D01*
X17993800Y-11463800D02*
X17663800Y-11793800D01*
X17828800Y-11463800D02*
X17828800Y-11793800D01*
X17663800Y-11628800D02*
X17993800Y-11628800D01*
X20006200Y-9635000D02*
X20336200Y-9965000D01*
X20336200Y-9635000D02*
X20006200Y-9965000D01*
X20171200Y-9635000D02*
X20171200Y-9965000D01*
X20006200Y-9800000D02*
X20336200Y-9800000D01*
X20006200Y-11463800D02*
X20336200Y-11793800D01*
X20336200Y-11463800D02*
X20006200Y-11793800D01*
X20171200Y-11463800D02*
X20171200Y-11793800D01*
X20006200Y-11628800D02*
X20336200Y-11628800D01*
X20035000Y-5006200D02*
X20365000Y-5336200D01*
X20365000Y-5006200D02*
X20035000Y-5336200D01*
X20200000Y-5006200D02*
X20200000Y-5336200D01*
X20035000Y-5171200D02*
X20365000Y-5171200D01*
X20035000Y-6835000D02*
X20365000Y-7165000D01*
X20365000Y-6835000D02*
X20035000Y-7165000D01*
X20200000Y-6835000D02*
X20200000Y-7165000D01*
X20035000Y-7000000D02*
X20365000Y-7000000D01*
X20909800Y-10544600D02*
X21239800Y-10874600D01*
X21239800Y-10544600D02*
X20909800Y-10874600D01*
X21074800Y-10544600D02*
X21074800Y-10874600D01*
X20909800Y-10709600D02*
X21239800Y-10709600D01*
X20938600Y-5915800D02*
X21268600Y-6245800D01*
X21268600Y-5915800D02*
X20938600Y-6245800D01*
X21103600Y-5915800D02*
X21103600Y-6245800D01*
X20938600Y-6080800D02*
X21268600Y-6080800D01*
X21835000Y-9635000D02*
X22165000Y-9965000D01*
X22165000Y-9635000D02*
X21835000Y-9965000D01*
X22000000Y-9635000D02*
X22000000Y-9965000D01*
X21835000Y-9800000D02*
X22165000Y-9800000D01*
X21835000Y-11463800D02*
X22165000Y-11793800D01*
X22165000Y-11463800D02*
X21835000Y-11793800D01*
X22000000Y-11463800D02*
X22000000Y-11793800D01*
X21835000Y-11628800D02*
X22165000Y-11628800D01*
X21863800Y-5006200D02*
X22193800Y-5336200D01*
X22193800Y-5006200D02*
X21863800Y-5336200D01*
X22028800Y-5006200D02*
X22028800Y-5336200D01*
X21863800Y-5171200D02*
X22193800Y-5171200D01*
X21863800Y-6835000D02*
X22193800Y-7165000D01*
X22193800Y-6835000D02*
X21863800Y-7165000D01*
X22028800Y-6835000D02*
X22028800Y-7165000D01*
X21863800Y-7000000D02*
X22193800Y-7000000D01*
D11*
X15442619Y-12767524D02*
X15442619Y-12567524D01*
X15442619Y-12567524D02*
X15490238Y-12567524D01*
X15490238Y-12567524D02*
X15518809Y-12577048D01*
X15518809Y-12577048D02*
X15537857Y-12596095D01*
X15537857Y-12596095D02*
X15547381Y-12615143D01*
X15547381Y-12615143D02*
X15556905Y-12653238D01*
X15556905Y-12653238D02*
X15556905Y-12681809D01*
X15556905Y-12681809D02*
X15547381Y-12719905D01*
X15547381Y-12719905D02*
X15537857Y-12738952D01*
X15537857Y-12738952D02*
X15518809Y-12758000D01*
X15518809Y-12758000D02*
X15490238Y-12767524D01*
X15490238Y-12767524D02*
X15442619Y-12767524D01*
X15642619Y-12767524D02*
X15642619Y-12634190D01*
X15642619Y-12672286D02*
X15652143Y-12653238D01*
X15652143Y-12653238D02*
X15661667Y-12643714D01*
X15661667Y-12643714D02*
X15680714Y-12634190D01*
X15680714Y-12634190D02*
X15699762Y-12634190D01*
X15766428Y-12767524D02*
X15766428Y-12634190D01*
X15766428Y-12567524D02*
X15756905Y-12577048D01*
X15756905Y-12577048D02*
X15766428Y-12586571D01*
X15766428Y-12586571D02*
X15775952Y-12577048D01*
X15775952Y-12577048D02*
X15766428Y-12567524D01*
X15766428Y-12567524D02*
X15766428Y-12586571D01*
X15890238Y-12767524D02*
X15871190Y-12758000D01*
X15871190Y-12758000D02*
X15861667Y-12738952D01*
X15861667Y-12738952D02*
X15861667Y-12567524D01*
X15995000Y-12767524D02*
X15975952Y-12758000D01*
X15975952Y-12758000D02*
X15966428Y-12738952D01*
X15966428Y-12738952D02*
X15966428Y-12567524D01*
X16223571Y-12767524D02*
X16223571Y-12567524D01*
X16223571Y-12567524D02*
X16290238Y-12710381D01*
X16290238Y-12710381D02*
X16356905Y-12567524D01*
X16356905Y-12567524D02*
X16356905Y-12767524D01*
X16537857Y-12767524D02*
X16537857Y-12662762D01*
X16537857Y-12662762D02*
X16528333Y-12643714D01*
X16528333Y-12643714D02*
X16509286Y-12634190D01*
X16509286Y-12634190D02*
X16471190Y-12634190D01*
X16471190Y-12634190D02*
X16452143Y-12643714D01*
X16537857Y-12758000D02*
X16518809Y-12767524D01*
X16518809Y-12767524D02*
X16471190Y-12767524D01*
X16471190Y-12767524D02*
X16452143Y-12758000D01*
X16452143Y-12758000D02*
X16442619Y-12738952D01*
X16442619Y-12738952D02*
X16442619Y-12719905D01*
X16442619Y-12719905D02*
X16452143Y-12700857D01*
X16452143Y-12700857D02*
X16471190Y-12691333D01*
X16471190Y-12691333D02*
X16518809Y-12691333D01*
X16518809Y-12691333D02*
X16537857Y-12681809D01*
X16633095Y-12634190D02*
X16633095Y-12834190D01*
X16633095Y-12643714D02*
X16652143Y-12634190D01*
X16652143Y-12634190D02*
X16690238Y-12634190D01*
X16690238Y-12634190D02*
X16709286Y-12643714D01*
X16709286Y-12643714D02*
X16718809Y-12653238D01*
X16718809Y-12653238D02*
X16728333Y-12672286D01*
X16728333Y-12672286D02*
X16728333Y-12729428D01*
X16728333Y-12729428D02*
X16718809Y-12748476D01*
X16718809Y-12748476D02*
X16709286Y-12758000D01*
X16709286Y-12758000D02*
X16690238Y-12767524D01*
X16690238Y-12767524D02*
X16652143Y-12767524D01*
X16652143Y-12767524D02*
X16633095Y-12758000D01*
X16814048Y-12748476D02*
X16823571Y-12758000D01*
X16823571Y-12758000D02*
X16814048Y-12767524D01*
X16814048Y-12767524D02*
X16804524Y-12758000D01*
X16804524Y-12758000D02*
X16814048Y-12748476D01*
X16814048Y-12748476D02*
X16814048Y-12767524D01*
X16814048Y-12643714D02*
X16823571Y-12653238D01*
X16823571Y-12653238D02*
X16814048Y-12662762D01*
X16814048Y-12662762D02*
X16804524Y-12653238D01*
X16804524Y-12653238D02*
X16814048Y-12643714D01*
X16814048Y-12643714D02*
X16814048Y-12662762D01*
D12*
X15155000Y-13075000D02*
X15195000Y-13115000D01*
X15195000Y-13075000D02*
X15155000Y-13115000D01*
D11*
X15480714Y-12987524D02*
X15499762Y-12987524D01*
X15499762Y-12987524D02*
X15518809Y-12997048D01*
X15518809Y-12997048D02*
X15528333Y-13006571D01*
X15528333Y-13006571D02*
X15537857Y-13025619D01*
X15537857Y-13025619D02*
X15547381Y-13063714D01*
X15547381Y-13063714D02*
X15547381Y-13111333D01*
X15547381Y-13111333D02*
X15537857Y-13149428D01*
X15537857Y-13149428D02*
X15528333Y-13168476D01*
X15528333Y-13168476D02*
X15518809Y-13178000D01*
X15518809Y-13178000D02*
X15499762Y-13187524D01*
X15499762Y-13187524D02*
X15480714Y-13187524D01*
X15480714Y-13187524D02*
X15461667Y-13178000D01*
X15461667Y-13178000D02*
X15452143Y-13168476D01*
X15452143Y-13168476D02*
X15442619Y-13149428D01*
X15442619Y-13149428D02*
X15433095Y-13111333D01*
X15433095Y-13111333D02*
X15433095Y-13063714D01*
X15433095Y-13063714D02*
X15442619Y-13025619D01*
X15442619Y-13025619D02*
X15452143Y-13006571D01*
X15452143Y-13006571D02*
X15461667Y-12997048D01*
X15461667Y-12997048D02*
X15480714Y-12987524D01*
X15633095Y-13168476D02*
X15642619Y-13178000D01*
X15642619Y-13178000D02*
X15633095Y-13187524D01*
X15633095Y-13187524D02*
X15623571Y-13178000D01*
X15623571Y-13178000D02*
X15633095Y-13168476D01*
X15633095Y-13168476D02*
X15633095Y-13187524D01*
X15814048Y-13054190D02*
X15814048Y-13187524D01*
X15766428Y-12978000D02*
X15718809Y-13120857D01*
X15718809Y-13120857D02*
X15842619Y-13120857D01*
X15956905Y-12987524D02*
X15975952Y-12987524D01*
X15975952Y-12987524D02*
X15995000Y-12997048D01*
X15995000Y-12997048D02*
X16004524Y-13006571D01*
X16004524Y-13006571D02*
X16014048Y-13025619D01*
X16014048Y-13025619D02*
X16023571Y-13063714D01*
X16023571Y-13063714D02*
X16023571Y-13111333D01*
X16023571Y-13111333D02*
X16014048Y-13149428D01*
X16014048Y-13149428D02*
X16004524Y-13168476D01*
X16004524Y-13168476D02*
X15995000Y-13178000D01*
X15995000Y-13178000D02*
X15975952Y-13187524D01*
X15975952Y-13187524D02*
X15956905Y-13187524D01*
X15956905Y-13187524D02*
X15937857Y-13178000D01*
X15937857Y-13178000D02*
X15928333Y-13168476D01*
X15928333Y-13168476D02*
X15918809Y-13149428D01*
X15918809Y-13149428D02*
X15909286Y-13111333D01*
X15909286Y-13111333D02*
X15909286Y-13063714D01*
X15909286Y-13063714D02*
X15918809Y-13025619D01*
X15918809Y-13025619D02*
X15928333Y-13006571D01*
X15928333Y-13006571D02*
X15937857Y-12997048D01*
X15937857Y-12997048D02*
X15956905Y-12987524D01*
X16147381Y-12987524D02*
X16166429Y-12987524D01*
X16166429Y-12987524D02*
X16185476Y-12997048D01*
X16185476Y-12997048D02*
X16195000Y-13006571D01*
X16195000Y-13006571D02*
X16204524Y-13025619D01*
X16204524Y-13025619D02*
X16214048Y-13063714D01*
X16214048Y-13063714D02*
X16214048Y-13111333D01*
X16214048Y-13111333D02*
X16204524Y-13149428D01*
X16204524Y-13149428D02*
X16195000Y-13168476D01*
X16195000Y-13168476D02*
X16185476Y-13178000D01*
X16185476Y-13178000D02*
X16166429Y-13187524D01*
X16166429Y-13187524D02*
X16147381Y-13187524D01*
X16147381Y-13187524D02*
X16128333Y-13178000D01*
X16128333Y-13178000D02*
X16118809Y-13168476D01*
X16118809Y-13168476D02*
X16109286Y-13149428D01*
X16109286Y-13149428D02*
X16099762Y-13111333D01*
X16099762Y-13111333D02*
X16099762Y-13063714D01*
X16099762Y-13063714D02*
X16109286Y-13025619D01*
X16109286Y-13025619D02*
X16118809Y-13006571D01*
X16118809Y-13006571D02*
X16128333Y-12997048D01*
X16128333Y-12997048D02*
X16147381Y-12987524D01*
X16299762Y-13187524D02*
X16299762Y-13054190D01*
X16299762Y-13073238D02*
X16309286Y-13063714D01*
X16309286Y-13063714D02*
X16328333Y-13054190D01*
X16328333Y-13054190D02*
X16356905Y-13054190D01*
X16356905Y-13054190D02*
X16375952Y-13063714D01*
X16375952Y-13063714D02*
X16385476Y-13082762D01*
X16385476Y-13082762D02*
X16385476Y-13187524D01*
X16385476Y-13082762D02*
X16395000Y-13063714D01*
X16395000Y-13063714D02*
X16414048Y-13054190D01*
X16414048Y-13054190D02*
X16442619Y-13054190D01*
X16442619Y-13054190D02*
X16461667Y-13063714D01*
X16461667Y-13063714D02*
X16471190Y-13082762D01*
X16471190Y-13082762D02*
X16471190Y-13187524D01*
X16566429Y-13187524D02*
X16566429Y-13054190D01*
X16566429Y-13073238D02*
X16575952Y-13063714D01*
X16575952Y-13063714D02*
X16595000Y-13054190D01*
X16595000Y-13054190D02*
X16623571Y-13054190D01*
X16623571Y-13054190D02*
X16642619Y-13063714D01*
X16642619Y-13063714D02*
X16652143Y-13082762D01*
X16652143Y-13082762D02*
X16652143Y-13187524D01*
X16652143Y-13082762D02*
X16661667Y-13063714D01*
X16661667Y-13063714D02*
X16680714Y-13054190D01*
X16680714Y-13054190D02*
X16709286Y-13054190D01*
X16709286Y-13054190D02*
X16728333Y-13063714D01*
X16728333Y-13063714D02*
X16737857Y-13082762D01*
X16737857Y-13082762D02*
X16737857Y-13187524D01*
X17128333Y-12978000D02*
X16956905Y-13235143D01*
X17385476Y-12987524D02*
X17404524Y-12987524D01*
X17404524Y-12987524D02*
X17423572Y-12997048D01*
X17423572Y-12997048D02*
X17433095Y-13006571D01*
X17433095Y-13006571D02*
X17442619Y-13025619D01*
X17442619Y-13025619D02*
X17452143Y-13063714D01*
X17452143Y-13063714D02*
X17452143Y-13111333D01*
X17452143Y-13111333D02*
X17442619Y-13149428D01*
X17442619Y-13149428D02*
X17433095Y-13168476D01*
X17433095Y-13168476D02*
X17423572Y-13178000D01*
X17423572Y-13178000D02*
X17404524Y-13187524D01*
X17404524Y-13187524D02*
X17385476Y-13187524D01*
X17385476Y-13187524D02*
X17366429Y-13178000D01*
X17366429Y-13178000D02*
X17356905Y-13168476D01*
X17356905Y-13168476D02*
X17347381Y-13149428D01*
X17347381Y-13149428D02*
X17337857Y-13111333D01*
X17337857Y-13111333D02*
X17337857Y-13063714D01*
X17337857Y-13063714D02*
X17347381Y-13025619D01*
X17347381Y-13025619D02*
X17356905Y-13006571D01*
X17356905Y-13006571D02*
X17366429Y-12997048D01*
X17366429Y-12997048D02*
X17385476Y-12987524D01*
X17537857Y-13168476D02*
X17547381Y-13178000D01*
X17547381Y-13178000D02*
X17537857Y-13187524D01*
X17537857Y-13187524D02*
X17528334Y-13178000D01*
X17528334Y-13178000D02*
X17537857Y-13168476D01*
X17537857Y-13168476D02*
X17537857Y-13187524D01*
X17671191Y-12987524D02*
X17690238Y-12987524D01*
X17690238Y-12987524D02*
X17709286Y-12997048D01*
X17709286Y-12997048D02*
X17718810Y-13006571D01*
X17718810Y-13006571D02*
X17728334Y-13025619D01*
X17728334Y-13025619D02*
X17737857Y-13063714D01*
X17737857Y-13063714D02*
X17737857Y-13111333D01*
X17737857Y-13111333D02*
X17728334Y-13149428D01*
X17728334Y-13149428D02*
X17718810Y-13168476D01*
X17718810Y-13168476D02*
X17709286Y-13178000D01*
X17709286Y-13178000D02*
X17690238Y-13187524D01*
X17690238Y-13187524D02*
X17671191Y-13187524D01*
X17671191Y-13187524D02*
X17652143Y-13178000D01*
X17652143Y-13178000D02*
X17642619Y-13168476D01*
X17642619Y-13168476D02*
X17633095Y-13149428D01*
X17633095Y-13149428D02*
X17623572Y-13111333D01*
X17623572Y-13111333D02*
X17623572Y-13063714D01*
X17623572Y-13063714D02*
X17633095Y-13025619D01*
X17633095Y-13025619D02*
X17642619Y-13006571D01*
X17642619Y-13006571D02*
X17652143Y-12997048D01*
X17652143Y-12997048D02*
X17671191Y-12987524D01*
X17928334Y-13187524D02*
X17814048Y-13187524D01*
X17871191Y-13187524D02*
X17871191Y-12987524D01*
X17871191Y-12987524D02*
X17852143Y-13016095D01*
X17852143Y-13016095D02*
X17833095Y-13035143D01*
X17833095Y-13035143D02*
X17814048Y-13044667D01*
X18109286Y-12987524D02*
X18014048Y-12987524D01*
X18014048Y-12987524D02*
X18004524Y-13082762D01*
X18004524Y-13082762D02*
X18014048Y-13073238D01*
X18014048Y-13073238D02*
X18033095Y-13063714D01*
X18033095Y-13063714D02*
X18080715Y-13063714D01*
X18080715Y-13063714D02*
X18099762Y-13073238D01*
X18099762Y-13073238D02*
X18109286Y-13082762D01*
X18109286Y-13082762D02*
X18118810Y-13101809D01*
X18118810Y-13101809D02*
X18118810Y-13149428D01*
X18118810Y-13149428D02*
X18109286Y-13168476D01*
X18109286Y-13168476D02*
X18099762Y-13178000D01*
X18099762Y-13178000D02*
X18080715Y-13187524D01*
X18080715Y-13187524D02*
X18033095Y-13187524D01*
X18033095Y-13187524D02*
X18014048Y-13178000D01*
X18014048Y-13178000D02*
X18004524Y-13168476D01*
X18185476Y-12987524D02*
X18318810Y-12987524D01*
X18318810Y-12987524D02*
X18233095Y-13187524D01*
X18385476Y-12987524D02*
X18385476Y-13025619D01*
X18461667Y-12987524D02*
X18461667Y-13025619D01*
X18756905Y-13263714D02*
X18747381Y-13254190D01*
X18747381Y-13254190D02*
X18728334Y-13225619D01*
X18728334Y-13225619D02*
X18718810Y-13206571D01*
X18718810Y-13206571D02*
X18709286Y-13178000D01*
X18709286Y-13178000D02*
X18699762Y-13130381D01*
X18699762Y-13130381D02*
X18699762Y-13092286D01*
X18699762Y-13092286D02*
X18709286Y-13044667D01*
X18709286Y-13044667D02*
X18718810Y-13016095D01*
X18718810Y-13016095D02*
X18728334Y-12997048D01*
X18728334Y-12997048D02*
X18747381Y-12968476D01*
X18747381Y-12968476D02*
X18756905Y-12958952D01*
X18937857Y-13187524D02*
X18823572Y-13187524D01*
X18880715Y-13187524D02*
X18880715Y-12987524D01*
X18880715Y-12987524D02*
X18861667Y-13016095D01*
X18861667Y-13016095D02*
X18842619Y-13035143D01*
X18842619Y-13035143D02*
X18823572Y-13044667D01*
X19109286Y-13054190D02*
X19109286Y-13187524D01*
X19061667Y-12978000D02*
X19014048Y-13120857D01*
X19014048Y-13120857D02*
X19137857Y-13120857D01*
X19252143Y-12987524D02*
X19271191Y-12987524D01*
X19271191Y-12987524D02*
X19290238Y-12997048D01*
X19290238Y-12997048D02*
X19299762Y-13006571D01*
X19299762Y-13006571D02*
X19309286Y-13025619D01*
X19309286Y-13025619D02*
X19318810Y-13063714D01*
X19318810Y-13063714D02*
X19318810Y-13111333D01*
X19318810Y-13111333D02*
X19309286Y-13149428D01*
X19309286Y-13149428D02*
X19299762Y-13168476D01*
X19299762Y-13168476D02*
X19290238Y-13178000D01*
X19290238Y-13178000D02*
X19271191Y-13187524D01*
X19271191Y-13187524D02*
X19252143Y-13187524D01*
X19252143Y-13187524D02*
X19233096Y-13178000D01*
X19233096Y-13178000D02*
X19223572Y-13168476D01*
X19223572Y-13168476D02*
X19214048Y-13149428D01*
X19214048Y-13149428D02*
X19204524Y-13111333D01*
X19204524Y-13111333D02*
X19204524Y-13063714D01*
X19204524Y-13063714D02*
X19214048Y-13025619D01*
X19214048Y-13025619D02*
X19223572Y-13006571D01*
X19223572Y-13006571D02*
X19233096Y-12997048D01*
X19233096Y-12997048D02*
X19252143Y-12987524D01*
X19556905Y-13187524D02*
X19556905Y-12987524D01*
X19642619Y-13187524D02*
X19642619Y-13082762D01*
X19642619Y-13082762D02*
X19633096Y-13063714D01*
X19633096Y-13063714D02*
X19614048Y-13054190D01*
X19614048Y-13054190D02*
X19585477Y-13054190D01*
X19585477Y-13054190D02*
X19566429Y-13063714D01*
X19566429Y-13063714D02*
X19556905Y-13073238D01*
X19766429Y-13187524D02*
X19747381Y-13178000D01*
X19747381Y-13178000D02*
X19737858Y-13168476D01*
X19737858Y-13168476D02*
X19728334Y-13149428D01*
X19728334Y-13149428D02*
X19728334Y-13092286D01*
X19728334Y-13092286D02*
X19737858Y-13073238D01*
X19737858Y-13073238D02*
X19747381Y-13063714D01*
X19747381Y-13063714D02*
X19766429Y-13054190D01*
X19766429Y-13054190D02*
X19795000Y-13054190D01*
X19795000Y-13054190D02*
X19814048Y-13063714D01*
X19814048Y-13063714D02*
X19823572Y-13073238D01*
X19823572Y-13073238D02*
X19833096Y-13092286D01*
X19833096Y-13092286D02*
X19833096Y-13149428D01*
X19833096Y-13149428D02*
X19823572Y-13168476D01*
X19823572Y-13168476D02*
X19814048Y-13178000D01*
X19814048Y-13178000D02*
X19795000Y-13187524D01*
X19795000Y-13187524D02*
X19766429Y-13187524D01*
X19947381Y-13187524D02*
X19928334Y-13178000D01*
X19928334Y-13178000D02*
X19918810Y-13158952D01*
X19918810Y-13158952D02*
X19918810Y-12987524D01*
X20099762Y-13178000D02*
X20080715Y-13187524D01*
X20080715Y-13187524D02*
X20042619Y-13187524D01*
X20042619Y-13187524D02*
X20023572Y-13178000D01*
X20023572Y-13178000D02*
X20014048Y-13158952D01*
X20014048Y-13158952D02*
X20014048Y-13082762D01*
X20014048Y-13082762D02*
X20023572Y-13063714D01*
X20023572Y-13063714D02*
X20042619Y-13054190D01*
X20042619Y-13054190D02*
X20080715Y-13054190D01*
X20080715Y-13054190D02*
X20099762Y-13063714D01*
X20099762Y-13063714D02*
X20109286Y-13082762D01*
X20109286Y-13082762D02*
X20109286Y-13101809D01*
X20109286Y-13101809D02*
X20014048Y-13120857D01*
X20185477Y-13178000D02*
X20204524Y-13187524D01*
X20204524Y-13187524D02*
X20242619Y-13187524D01*
X20242619Y-13187524D02*
X20261667Y-13178000D01*
X20261667Y-13178000D02*
X20271191Y-13158952D01*
X20271191Y-13158952D02*
X20271191Y-13149428D01*
X20271191Y-13149428D02*
X20261667Y-13130381D01*
X20261667Y-13130381D02*
X20242619Y-13120857D01*
X20242619Y-13120857D02*
X20214048Y-13120857D01*
X20214048Y-13120857D02*
X20195000Y-13111333D01*
X20195000Y-13111333D02*
X20185477Y-13092286D01*
X20185477Y-13092286D02*
X20185477Y-13082762D01*
X20185477Y-13082762D02*
X20195000Y-13063714D01*
X20195000Y-13063714D02*
X20214048Y-13054190D01*
X20214048Y-13054190D02*
X20242619Y-13054190D01*
X20242619Y-13054190D02*
X20261667Y-13063714D01*
X20337858Y-13263714D02*
X20347381Y-13254190D01*
X20347381Y-13254190D02*
X20366429Y-13225619D01*
X20366429Y-13225619D02*
X20375953Y-13206571D01*
X20375953Y-13206571D02*
X20385477Y-13178000D01*
X20385477Y-13178000D02*
X20395000Y-13130381D01*
X20395000Y-13130381D02*
X20395000Y-13092286D01*
X20395000Y-13092286D02*
X20385477Y-13044667D01*
X20385477Y-13044667D02*
X20375953Y-13016095D01*
X20375953Y-13016095D02*
X20366429Y-12997048D01*
X20366429Y-12997048D02*
X20347381Y-12968476D01*
X20347381Y-12968476D02*
X20337858Y-12958952D01*
D10*
X15195000Y-13359000D02*
G75*
G03*
X15195000Y-13359000I-50000J0D01*
G01*
D11*
X15547381Y-13451524D02*
X15433095Y-13451524D01*
X15490238Y-13451524D02*
X15490238Y-13251524D01*
X15490238Y-13251524D02*
X15471190Y-13280095D01*
X15471190Y-13280095D02*
X15452143Y-13299143D01*
X15452143Y-13299143D02*
X15433095Y-13308667D01*
X15633095Y-13432476D02*
X15642619Y-13442000D01*
X15642619Y-13442000D02*
X15633095Y-13451524D01*
X15633095Y-13451524D02*
X15623571Y-13442000D01*
X15623571Y-13442000D02*
X15633095Y-13432476D01*
X15633095Y-13432476D02*
X15633095Y-13451524D01*
X15766428Y-13251524D02*
X15785476Y-13251524D01*
X15785476Y-13251524D02*
X15804524Y-13261048D01*
X15804524Y-13261048D02*
X15814048Y-13270571D01*
X15814048Y-13270571D02*
X15823571Y-13289619D01*
X15823571Y-13289619D02*
X15833095Y-13327714D01*
X15833095Y-13327714D02*
X15833095Y-13375333D01*
X15833095Y-13375333D02*
X15823571Y-13413428D01*
X15823571Y-13413428D02*
X15814048Y-13432476D01*
X15814048Y-13432476D02*
X15804524Y-13442000D01*
X15804524Y-13442000D02*
X15785476Y-13451524D01*
X15785476Y-13451524D02*
X15766428Y-13451524D01*
X15766428Y-13451524D02*
X15747381Y-13442000D01*
X15747381Y-13442000D02*
X15737857Y-13432476D01*
X15737857Y-13432476D02*
X15728333Y-13413428D01*
X15728333Y-13413428D02*
X15718809Y-13375333D01*
X15718809Y-13375333D02*
X15718809Y-13327714D01*
X15718809Y-13327714D02*
X15728333Y-13289619D01*
X15728333Y-13289619D02*
X15737857Y-13270571D01*
X15737857Y-13270571D02*
X15747381Y-13261048D01*
X15747381Y-13261048D02*
X15766428Y-13251524D01*
X15956905Y-13251524D02*
X15975952Y-13251524D01*
X15975952Y-13251524D02*
X15995000Y-13261048D01*
X15995000Y-13261048D02*
X16004524Y-13270571D01*
X16004524Y-13270571D02*
X16014048Y-13289619D01*
X16014048Y-13289619D02*
X16023571Y-13327714D01*
X16023571Y-13327714D02*
X16023571Y-13375333D01*
X16023571Y-13375333D02*
X16014048Y-13413428D01*
X16014048Y-13413428D02*
X16004524Y-13432476D01*
X16004524Y-13432476D02*
X15995000Y-13442000D01*
X15995000Y-13442000D02*
X15975952Y-13451524D01*
X15975952Y-13451524D02*
X15956905Y-13451524D01*
X15956905Y-13451524D02*
X15937857Y-13442000D01*
X15937857Y-13442000D02*
X15928333Y-13432476D01*
X15928333Y-13432476D02*
X15918809Y-13413428D01*
X15918809Y-13413428D02*
X15909286Y-13375333D01*
X15909286Y-13375333D02*
X15909286Y-13327714D01*
X15909286Y-13327714D02*
X15918809Y-13289619D01*
X15918809Y-13289619D02*
X15928333Y-13270571D01*
X15928333Y-13270571D02*
X15937857Y-13261048D01*
X15937857Y-13261048D02*
X15956905Y-13251524D01*
X16147381Y-13251524D02*
X16166429Y-13251524D01*
X16166429Y-13251524D02*
X16185476Y-13261048D01*
X16185476Y-13261048D02*
X16195000Y-13270571D01*
X16195000Y-13270571D02*
X16204524Y-13289619D01*
X16204524Y-13289619D02*
X16214048Y-13327714D01*
X16214048Y-13327714D02*
X16214048Y-13375333D01*
X16214048Y-13375333D02*
X16204524Y-13413428D01*
X16204524Y-13413428D02*
X16195000Y-13432476D01*
X16195000Y-13432476D02*
X16185476Y-13442000D01*
X16185476Y-13442000D02*
X16166429Y-13451524D01*
X16166429Y-13451524D02*
X16147381Y-13451524D01*
X16147381Y-13451524D02*
X16128333Y-13442000D01*
X16128333Y-13442000D02*
X16118809Y-13432476D01*
X16118809Y-13432476D02*
X16109286Y-13413428D01*
X16109286Y-13413428D02*
X16099762Y-13375333D01*
X16099762Y-13375333D02*
X16099762Y-13327714D01*
X16099762Y-13327714D02*
X16109286Y-13289619D01*
X16109286Y-13289619D02*
X16118809Y-13270571D01*
X16118809Y-13270571D02*
X16128333Y-13261048D01*
X16128333Y-13261048D02*
X16147381Y-13251524D01*
X16299762Y-13451524D02*
X16299762Y-13318190D01*
X16299762Y-13337238D02*
X16309286Y-13327714D01*
X16309286Y-13327714D02*
X16328333Y-13318190D01*
X16328333Y-13318190D02*
X16356905Y-13318190D01*
X16356905Y-13318190D02*
X16375952Y-13327714D01*
X16375952Y-13327714D02*
X16385476Y-13346762D01*
X16385476Y-13346762D02*
X16385476Y-13451524D01*
X16385476Y-13346762D02*
X16395000Y-13327714D01*
X16395000Y-13327714D02*
X16414048Y-13318190D01*
X16414048Y-13318190D02*
X16442619Y-13318190D01*
X16442619Y-13318190D02*
X16461667Y-13327714D01*
X16461667Y-13327714D02*
X16471190Y-13346762D01*
X16471190Y-13346762D02*
X16471190Y-13451524D01*
X16566429Y-13451524D02*
X16566429Y-13318190D01*
X16566429Y-13337238D02*
X16575952Y-13327714D01*
X16575952Y-13327714D02*
X16595000Y-13318190D01*
X16595000Y-13318190D02*
X16623571Y-13318190D01*
X16623571Y-13318190D02*
X16642619Y-13327714D01*
X16642619Y-13327714D02*
X16652143Y-13346762D01*
X16652143Y-13346762D02*
X16652143Y-13451524D01*
X16652143Y-13346762D02*
X16661667Y-13327714D01*
X16661667Y-13327714D02*
X16680714Y-13318190D01*
X16680714Y-13318190D02*
X16709286Y-13318190D01*
X16709286Y-13318190D02*
X16728333Y-13327714D01*
X16728333Y-13327714D02*
X16737857Y-13346762D01*
X16737857Y-13346762D02*
X16737857Y-13451524D01*
X17128333Y-13242000D02*
X16956905Y-13499143D01*
X17385476Y-13251524D02*
X17404524Y-13251524D01*
X17404524Y-13251524D02*
X17423572Y-13261048D01*
X17423572Y-13261048D02*
X17433095Y-13270571D01*
X17433095Y-13270571D02*
X17442619Y-13289619D01*
X17442619Y-13289619D02*
X17452143Y-13327714D01*
X17452143Y-13327714D02*
X17452143Y-13375333D01*
X17452143Y-13375333D02*
X17442619Y-13413428D01*
X17442619Y-13413428D02*
X17433095Y-13432476D01*
X17433095Y-13432476D02*
X17423572Y-13442000D01*
X17423572Y-13442000D02*
X17404524Y-13451524D01*
X17404524Y-13451524D02*
X17385476Y-13451524D01*
X17385476Y-13451524D02*
X17366429Y-13442000D01*
X17366429Y-13442000D02*
X17356905Y-13432476D01*
X17356905Y-13432476D02*
X17347381Y-13413428D01*
X17347381Y-13413428D02*
X17337857Y-13375333D01*
X17337857Y-13375333D02*
X17337857Y-13327714D01*
X17337857Y-13327714D02*
X17347381Y-13289619D01*
X17347381Y-13289619D02*
X17356905Y-13270571D01*
X17356905Y-13270571D02*
X17366429Y-13261048D01*
X17366429Y-13261048D02*
X17385476Y-13251524D01*
X17537857Y-13432476D02*
X17547381Y-13442000D01*
X17547381Y-13442000D02*
X17537857Y-13451524D01*
X17537857Y-13451524D02*
X17528334Y-13442000D01*
X17528334Y-13442000D02*
X17537857Y-13432476D01*
X17537857Y-13432476D02*
X17537857Y-13451524D01*
X17671191Y-13251524D02*
X17690238Y-13251524D01*
X17690238Y-13251524D02*
X17709286Y-13261048D01*
X17709286Y-13261048D02*
X17718810Y-13270571D01*
X17718810Y-13270571D02*
X17728334Y-13289619D01*
X17728334Y-13289619D02*
X17737857Y-13327714D01*
X17737857Y-13327714D02*
X17737857Y-13375333D01*
X17737857Y-13375333D02*
X17728334Y-13413428D01*
X17728334Y-13413428D02*
X17718810Y-13432476D01*
X17718810Y-13432476D02*
X17709286Y-13442000D01*
X17709286Y-13442000D02*
X17690238Y-13451524D01*
X17690238Y-13451524D02*
X17671191Y-13451524D01*
X17671191Y-13451524D02*
X17652143Y-13442000D01*
X17652143Y-13442000D02*
X17642619Y-13432476D01*
X17642619Y-13432476D02*
X17633095Y-13413428D01*
X17633095Y-13413428D02*
X17623572Y-13375333D01*
X17623572Y-13375333D02*
X17623572Y-13327714D01*
X17623572Y-13327714D02*
X17633095Y-13289619D01*
X17633095Y-13289619D02*
X17642619Y-13270571D01*
X17642619Y-13270571D02*
X17652143Y-13261048D01*
X17652143Y-13261048D02*
X17671191Y-13251524D01*
X17804524Y-13251524D02*
X17928334Y-13251524D01*
X17928334Y-13251524D02*
X17861667Y-13327714D01*
X17861667Y-13327714D02*
X17890238Y-13327714D01*
X17890238Y-13327714D02*
X17909286Y-13337238D01*
X17909286Y-13337238D02*
X17918810Y-13346762D01*
X17918810Y-13346762D02*
X17928334Y-13365809D01*
X17928334Y-13365809D02*
X17928334Y-13413428D01*
X17928334Y-13413428D02*
X17918810Y-13432476D01*
X17918810Y-13432476D02*
X17909286Y-13442000D01*
X17909286Y-13442000D02*
X17890238Y-13451524D01*
X17890238Y-13451524D02*
X17833095Y-13451524D01*
X17833095Y-13451524D02*
X17814048Y-13442000D01*
X17814048Y-13442000D02*
X17804524Y-13432476D01*
X18023572Y-13451524D02*
X18061667Y-13451524D01*
X18061667Y-13451524D02*
X18080715Y-13442000D01*
X18080715Y-13442000D02*
X18090238Y-13432476D01*
X18090238Y-13432476D02*
X18109286Y-13403905D01*
X18109286Y-13403905D02*
X18118810Y-13365809D01*
X18118810Y-13365809D02*
X18118810Y-13289619D01*
X18118810Y-13289619D02*
X18109286Y-13270571D01*
X18109286Y-13270571D02*
X18099762Y-13261048D01*
X18099762Y-13261048D02*
X18080715Y-13251524D01*
X18080715Y-13251524D02*
X18042619Y-13251524D01*
X18042619Y-13251524D02*
X18023572Y-13261048D01*
X18023572Y-13261048D02*
X18014048Y-13270571D01*
X18014048Y-13270571D02*
X18004524Y-13289619D01*
X18004524Y-13289619D02*
X18004524Y-13337238D01*
X18004524Y-13337238D02*
X18014048Y-13356286D01*
X18014048Y-13356286D02*
X18023572Y-13365809D01*
X18023572Y-13365809D02*
X18042619Y-13375333D01*
X18042619Y-13375333D02*
X18080715Y-13375333D01*
X18080715Y-13375333D02*
X18099762Y-13365809D01*
X18099762Y-13365809D02*
X18109286Y-13356286D01*
X18109286Y-13356286D02*
X18118810Y-13337238D01*
X18290238Y-13318190D02*
X18290238Y-13451524D01*
X18242619Y-13242000D02*
X18195000Y-13384857D01*
X18195000Y-13384857D02*
X18318810Y-13384857D01*
X18385476Y-13251524D02*
X18385476Y-13289619D01*
X18461667Y-13251524D02*
X18461667Y-13289619D01*
X18756905Y-13527714D02*
X18747381Y-13518190D01*
X18747381Y-13518190D02*
X18728334Y-13489619D01*
X18728334Y-13489619D02*
X18718810Y-13470571D01*
X18718810Y-13470571D02*
X18709286Y-13442000D01*
X18709286Y-13442000D02*
X18699762Y-13394381D01*
X18699762Y-13394381D02*
X18699762Y-13356286D01*
X18699762Y-13356286D02*
X18709286Y-13308667D01*
X18709286Y-13308667D02*
X18718810Y-13280095D01*
X18718810Y-13280095D02*
X18728334Y-13261048D01*
X18728334Y-13261048D02*
X18747381Y-13232476D01*
X18747381Y-13232476D02*
X18756905Y-13222952D01*
X18823572Y-13270571D02*
X18833096Y-13261048D01*
X18833096Y-13261048D02*
X18852143Y-13251524D01*
X18852143Y-13251524D02*
X18899762Y-13251524D01*
X18899762Y-13251524D02*
X18918810Y-13261048D01*
X18918810Y-13261048D02*
X18928334Y-13270571D01*
X18928334Y-13270571D02*
X18937857Y-13289619D01*
X18937857Y-13289619D02*
X18937857Y-13308667D01*
X18937857Y-13308667D02*
X18928334Y-13337238D01*
X18928334Y-13337238D02*
X18814048Y-13451524D01*
X18814048Y-13451524D02*
X18937857Y-13451524D01*
X19061667Y-13251524D02*
X19080715Y-13251524D01*
X19080715Y-13251524D02*
X19099762Y-13261048D01*
X19099762Y-13261048D02*
X19109286Y-13270571D01*
X19109286Y-13270571D02*
X19118810Y-13289619D01*
X19118810Y-13289619D02*
X19128334Y-13327714D01*
X19128334Y-13327714D02*
X19128334Y-13375333D01*
X19128334Y-13375333D02*
X19118810Y-13413428D01*
X19118810Y-13413428D02*
X19109286Y-13432476D01*
X19109286Y-13432476D02*
X19099762Y-13442000D01*
X19099762Y-13442000D02*
X19080715Y-13451524D01*
X19080715Y-13451524D02*
X19061667Y-13451524D01*
X19061667Y-13451524D02*
X19042619Y-13442000D01*
X19042619Y-13442000D02*
X19033096Y-13432476D01*
X19033096Y-13432476D02*
X19023572Y-13413428D01*
X19023572Y-13413428D02*
X19014048Y-13375333D01*
X19014048Y-13375333D02*
X19014048Y-13327714D01*
X19014048Y-13327714D02*
X19023572Y-13289619D01*
X19023572Y-13289619D02*
X19033096Y-13270571D01*
X19033096Y-13270571D02*
X19042619Y-13261048D01*
X19042619Y-13261048D02*
X19061667Y-13251524D01*
X19366429Y-13451524D02*
X19366429Y-13251524D01*
X19452143Y-13451524D02*
X19452143Y-13346762D01*
X19452143Y-13346762D02*
X19442619Y-13327714D01*
X19442619Y-13327714D02*
X19423572Y-13318190D01*
X19423572Y-13318190D02*
X19395000Y-13318190D01*
X19395000Y-13318190D02*
X19375953Y-13327714D01*
X19375953Y-13327714D02*
X19366429Y-13337238D01*
X19575953Y-13451524D02*
X19556905Y-13442000D01*
X19556905Y-13442000D02*
X19547381Y-13432476D01*
X19547381Y-13432476D02*
X19537858Y-13413428D01*
X19537858Y-13413428D02*
X19537858Y-13356286D01*
X19537858Y-13356286D02*
X19547381Y-13337238D01*
X19547381Y-13337238D02*
X19556905Y-13327714D01*
X19556905Y-13327714D02*
X19575953Y-13318190D01*
X19575953Y-13318190D02*
X19604524Y-13318190D01*
X19604524Y-13318190D02*
X19623572Y-13327714D01*
X19623572Y-13327714D02*
X19633096Y-13337238D01*
X19633096Y-13337238D02*
X19642619Y-13356286D01*
X19642619Y-13356286D02*
X19642619Y-13413428D01*
X19642619Y-13413428D02*
X19633096Y-13432476D01*
X19633096Y-13432476D02*
X19623572Y-13442000D01*
X19623572Y-13442000D02*
X19604524Y-13451524D01*
X19604524Y-13451524D02*
X19575953Y-13451524D01*
X19756905Y-13451524D02*
X19737858Y-13442000D01*
X19737858Y-13442000D02*
X19728334Y-13422952D01*
X19728334Y-13422952D02*
X19728334Y-13251524D01*
X19909286Y-13442000D02*
X19890239Y-13451524D01*
X19890239Y-13451524D02*
X19852143Y-13451524D01*
X19852143Y-13451524D02*
X19833096Y-13442000D01*
X19833096Y-13442000D02*
X19823572Y-13422952D01*
X19823572Y-13422952D02*
X19823572Y-13346762D01*
X19823572Y-13346762D02*
X19833096Y-13327714D01*
X19833096Y-13327714D02*
X19852143Y-13318190D01*
X19852143Y-13318190D02*
X19890239Y-13318190D01*
X19890239Y-13318190D02*
X19909286Y-13327714D01*
X19909286Y-13327714D02*
X19918810Y-13346762D01*
X19918810Y-13346762D02*
X19918810Y-13365809D01*
X19918810Y-13365809D02*
X19823572Y-13384857D01*
X19995000Y-13442000D02*
X20014048Y-13451524D01*
X20014048Y-13451524D02*
X20052143Y-13451524D01*
X20052143Y-13451524D02*
X20071191Y-13442000D01*
X20071191Y-13442000D02*
X20080715Y-13422952D01*
X20080715Y-13422952D02*
X20080715Y-13413428D01*
X20080715Y-13413428D02*
X20071191Y-13394381D01*
X20071191Y-13394381D02*
X20052143Y-13384857D01*
X20052143Y-13384857D02*
X20023572Y-13384857D01*
X20023572Y-13384857D02*
X20004524Y-13375333D01*
X20004524Y-13375333D02*
X19995000Y-13356286D01*
X19995000Y-13356286D02*
X19995000Y-13346762D01*
X19995000Y-13346762D02*
X20004524Y-13327714D01*
X20004524Y-13327714D02*
X20023572Y-13318190D01*
X20023572Y-13318190D02*
X20052143Y-13318190D01*
X20052143Y-13318190D02*
X20071191Y-13327714D01*
X20147381Y-13527714D02*
X20156905Y-13518190D01*
X20156905Y-13518190D02*
X20175953Y-13489619D01*
X20175953Y-13489619D02*
X20185477Y-13470571D01*
X20185477Y-13470571D02*
X20195000Y-13442000D01*
X20195000Y-13442000D02*
X20204524Y-13394381D01*
X20204524Y-13394381D02*
X20204524Y-13356286D01*
X20204524Y-13356286D02*
X20195000Y-13308667D01*
X20195000Y-13308667D02*
X20185477Y-13280095D01*
X20185477Y-13280095D02*
X20175953Y-13261048D01*
X20175953Y-13261048D02*
X20156905Y-13232476D01*
X20156905Y-13232476D02*
X20147381Y-13222952D01*
D13*
X15130230Y-13558230D02*
X15130230Y-13687770D01*
X15065460Y-13623000D02*
X15195000Y-13623000D01*
D11*
X15547381Y-13715524D02*
X15433095Y-13715524D01*
X15490238Y-13715524D02*
X15490238Y-13515524D01*
X15490238Y-13515524D02*
X15471190Y-13544095D01*
X15471190Y-13544095D02*
X15452143Y-13563143D01*
X15452143Y-13563143D02*
X15433095Y-13572667D01*
X15633095Y-13696476D02*
X15642619Y-13706000D01*
X15642619Y-13706000D02*
X15633095Y-13715524D01*
X15633095Y-13715524D02*
X15623571Y-13706000D01*
X15623571Y-13706000D02*
X15633095Y-13696476D01*
X15633095Y-13696476D02*
X15633095Y-13715524D01*
X15718809Y-13534571D02*
X15728333Y-13525048D01*
X15728333Y-13525048D02*
X15747381Y-13515524D01*
X15747381Y-13515524D02*
X15795000Y-13515524D01*
X15795000Y-13515524D02*
X15814048Y-13525048D01*
X15814048Y-13525048D02*
X15823571Y-13534571D01*
X15823571Y-13534571D02*
X15833095Y-13553619D01*
X15833095Y-13553619D02*
X15833095Y-13572667D01*
X15833095Y-13572667D02*
X15823571Y-13601238D01*
X15823571Y-13601238D02*
X15709286Y-13715524D01*
X15709286Y-13715524D02*
X15833095Y-13715524D01*
X15928333Y-13715524D02*
X15966428Y-13715524D01*
X15966428Y-13715524D02*
X15985476Y-13706000D01*
X15985476Y-13706000D02*
X15995000Y-13696476D01*
X15995000Y-13696476D02*
X16014048Y-13667905D01*
X16014048Y-13667905D02*
X16023571Y-13629809D01*
X16023571Y-13629809D02*
X16023571Y-13553619D01*
X16023571Y-13553619D02*
X16014048Y-13534571D01*
X16014048Y-13534571D02*
X16004524Y-13525048D01*
X16004524Y-13525048D02*
X15985476Y-13515524D01*
X15985476Y-13515524D02*
X15947381Y-13515524D01*
X15947381Y-13515524D02*
X15928333Y-13525048D01*
X15928333Y-13525048D02*
X15918809Y-13534571D01*
X15918809Y-13534571D02*
X15909286Y-13553619D01*
X15909286Y-13553619D02*
X15909286Y-13601238D01*
X15909286Y-13601238D02*
X15918809Y-13620286D01*
X15918809Y-13620286D02*
X15928333Y-13629809D01*
X15928333Y-13629809D02*
X15947381Y-13639333D01*
X15947381Y-13639333D02*
X15985476Y-13639333D01*
X15985476Y-13639333D02*
X16004524Y-13629809D01*
X16004524Y-13629809D02*
X16014048Y-13620286D01*
X16014048Y-13620286D02*
X16023571Y-13601238D01*
X16204524Y-13515524D02*
X16109286Y-13515524D01*
X16109286Y-13515524D02*
X16099762Y-13610762D01*
X16099762Y-13610762D02*
X16109286Y-13601238D01*
X16109286Y-13601238D02*
X16128333Y-13591714D01*
X16128333Y-13591714D02*
X16175952Y-13591714D01*
X16175952Y-13591714D02*
X16195000Y-13601238D01*
X16195000Y-13601238D02*
X16204524Y-13610762D01*
X16204524Y-13610762D02*
X16214048Y-13629809D01*
X16214048Y-13629809D02*
X16214048Y-13677428D01*
X16214048Y-13677428D02*
X16204524Y-13696476D01*
X16204524Y-13696476D02*
X16195000Y-13706000D01*
X16195000Y-13706000D02*
X16175952Y-13715524D01*
X16175952Y-13715524D02*
X16128333Y-13715524D01*
X16128333Y-13715524D02*
X16109286Y-13706000D01*
X16109286Y-13706000D02*
X16099762Y-13696476D01*
X16299762Y-13715524D02*
X16299762Y-13582190D01*
X16299762Y-13601238D02*
X16309286Y-13591714D01*
X16309286Y-13591714D02*
X16328333Y-13582190D01*
X16328333Y-13582190D02*
X16356905Y-13582190D01*
X16356905Y-13582190D02*
X16375952Y-13591714D01*
X16375952Y-13591714D02*
X16385476Y-13610762D01*
X16385476Y-13610762D02*
X16385476Y-13715524D01*
X16385476Y-13610762D02*
X16395000Y-13591714D01*
X16395000Y-13591714D02*
X16414048Y-13582190D01*
X16414048Y-13582190D02*
X16442619Y-13582190D01*
X16442619Y-13582190D02*
X16461667Y-13591714D01*
X16461667Y-13591714D02*
X16471190Y-13610762D01*
X16471190Y-13610762D02*
X16471190Y-13715524D01*
X16566429Y-13715524D02*
X16566429Y-13582190D01*
X16566429Y-13601238D02*
X16575952Y-13591714D01*
X16575952Y-13591714D02*
X16595000Y-13582190D01*
X16595000Y-13582190D02*
X16623571Y-13582190D01*
X16623571Y-13582190D02*
X16642619Y-13591714D01*
X16642619Y-13591714D02*
X16652143Y-13610762D01*
X16652143Y-13610762D02*
X16652143Y-13715524D01*
X16652143Y-13610762D02*
X16661667Y-13591714D01*
X16661667Y-13591714D02*
X16680714Y-13582190D01*
X16680714Y-13582190D02*
X16709286Y-13582190D01*
X16709286Y-13582190D02*
X16728333Y-13591714D01*
X16728333Y-13591714D02*
X16737857Y-13610762D01*
X16737857Y-13610762D02*
X16737857Y-13715524D01*
X17128333Y-13506000D02*
X16956905Y-13763143D01*
X17385476Y-13515524D02*
X17404524Y-13515524D01*
X17404524Y-13515524D02*
X17423572Y-13525048D01*
X17423572Y-13525048D02*
X17433095Y-13534571D01*
X17433095Y-13534571D02*
X17442619Y-13553619D01*
X17442619Y-13553619D02*
X17452143Y-13591714D01*
X17452143Y-13591714D02*
X17452143Y-13639333D01*
X17452143Y-13639333D02*
X17442619Y-13677428D01*
X17442619Y-13677428D02*
X17433095Y-13696476D01*
X17433095Y-13696476D02*
X17423572Y-13706000D01*
X17423572Y-13706000D02*
X17404524Y-13715524D01*
X17404524Y-13715524D02*
X17385476Y-13715524D01*
X17385476Y-13715524D02*
X17366429Y-13706000D01*
X17366429Y-13706000D02*
X17356905Y-13696476D01*
X17356905Y-13696476D02*
X17347381Y-13677428D01*
X17347381Y-13677428D02*
X17337857Y-13639333D01*
X17337857Y-13639333D02*
X17337857Y-13591714D01*
X17337857Y-13591714D02*
X17347381Y-13553619D01*
X17347381Y-13553619D02*
X17356905Y-13534571D01*
X17356905Y-13534571D02*
X17366429Y-13525048D01*
X17366429Y-13525048D02*
X17385476Y-13515524D01*
X17537857Y-13696476D02*
X17547381Y-13706000D01*
X17547381Y-13706000D02*
X17537857Y-13715524D01*
X17537857Y-13715524D02*
X17528334Y-13706000D01*
X17528334Y-13706000D02*
X17537857Y-13696476D01*
X17537857Y-13696476D02*
X17537857Y-13715524D01*
X17671191Y-13515524D02*
X17690238Y-13515524D01*
X17690238Y-13515524D02*
X17709286Y-13525048D01*
X17709286Y-13525048D02*
X17718810Y-13534571D01*
X17718810Y-13534571D02*
X17728334Y-13553619D01*
X17728334Y-13553619D02*
X17737857Y-13591714D01*
X17737857Y-13591714D02*
X17737857Y-13639333D01*
X17737857Y-13639333D02*
X17728334Y-13677428D01*
X17728334Y-13677428D02*
X17718810Y-13696476D01*
X17718810Y-13696476D02*
X17709286Y-13706000D01*
X17709286Y-13706000D02*
X17690238Y-13715524D01*
X17690238Y-13715524D02*
X17671191Y-13715524D01*
X17671191Y-13715524D02*
X17652143Y-13706000D01*
X17652143Y-13706000D02*
X17642619Y-13696476D01*
X17642619Y-13696476D02*
X17633095Y-13677428D01*
X17633095Y-13677428D02*
X17623572Y-13639333D01*
X17623572Y-13639333D02*
X17623572Y-13591714D01*
X17623572Y-13591714D02*
X17633095Y-13553619D01*
X17633095Y-13553619D02*
X17642619Y-13534571D01*
X17642619Y-13534571D02*
X17652143Y-13525048D01*
X17652143Y-13525048D02*
X17671191Y-13515524D01*
X17918810Y-13515524D02*
X17823572Y-13515524D01*
X17823572Y-13515524D02*
X17814048Y-13610762D01*
X17814048Y-13610762D02*
X17823572Y-13601238D01*
X17823572Y-13601238D02*
X17842619Y-13591714D01*
X17842619Y-13591714D02*
X17890238Y-13591714D01*
X17890238Y-13591714D02*
X17909286Y-13601238D01*
X17909286Y-13601238D02*
X17918810Y-13610762D01*
X17918810Y-13610762D02*
X17928334Y-13629809D01*
X17928334Y-13629809D02*
X17928334Y-13677428D01*
X17928334Y-13677428D02*
X17918810Y-13696476D01*
X17918810Y-13696476D02*
X17909286Y-13706000D01*
X17909286Y-13706000D02*
X17890238Y-13715524D01*
X17890238Y-13715524D02*
X17842619Y-13715524D01*
X17842619Y-13715524D02*
X17823572Y-13706000D01*
X17823572Y-13706000D02*
X17814048Y-13696476D01*
X18118810Y-13715524D02*
X18004524Y-13715524D01*
X18061667Y-13715524D02*
X18061667Y-13515524D01*
X18061667Y-13515524D02*
X18042619Y-13544095D01*
X18042619Y-13544095D02*
X18023572Y-13563143D01*
X18023572Y-13563143D02*
X18004524Y-13572667D01*
X18242619Y-13515524D02*
X18261667Y-13515524D01*
X18261667Y-13515524D02*
X18280715Y-13525048D01*
X18280715Y-13525048D02*
X18290238Y-13534571D01*
X18290238Y-13534571D02*
X18299762Y-13553619D01*
X18299762Y-13553619D02*
X18309286Y-13591714D01*
X18309286Y-13591714D02*
X18309286Y-13639333D01*
X18309286Y-13639333D02*
X18299762Y-13677428D01*
X18299762Y-13677428D02*
X18290238Y-13696476D01*
X18290238Y-13696476D02*
X18280715Y-13706000D01*
X18280715Y-13706000D02*
X18261667Y-13715524D01*
X18261667Y-13715524D02*
X18242619Y-13715524D01*
X18242619Y-13715524D02*
X18223572Y-13706000D01*
X18223572Y-13706000D02*
X18214048Y-13696476D01*
X18214048Y-13696476D02*
X18204524Y-13677428D01*
X18204524Y-13677428D02*
X18195000Y-13639333D01*
X18195000Y-13639333D02*
X18195000Y-13591714D01*
X18195000Y-13591714D02*
X18204524Y-13553619D01*
X18204524Y-13553619D02*
X18214048Y-13534571D01*
X18214048Y-13534571D02*
X18223572Y-13525048D01*
X18223572Y-13525048D02*
X18242619Y-13515524D01*
X18385476Y-13515524D02*
X18385476Y-13553619D01*
X18461667Y-13515524D02*
X18461667Y-13553619D01*
X18756905Y-13791714D02*
X18747381Y-13782190D01*
X18747381Y-13782190D02*
X18728334Y-13753619D01*
X18728334Y-13753619D02*
X18718810Y-13734571D01*
X18718810Y-13734571D02*
X18709286Y-13706000D01*
X18709286Y-13706000D02*
X18699762Y-13658381D01*
X18699762Y-13658381D02*
X18699762Y-13620286D01*
X18699762Y-13620286D02*
X18709286Y-13572667D01*
X18709286Y-13572667D02*
X18718810Y-13544095D01*
X18718810Y-13544095D02*
X18728334Y-13525048D01*
X18728334Y-13525048D02*
X18747381Y-13496476D01*
X18747381Y-13496476D02*
X18756905Y-13486952D01*
X18814048Y-13515524D02*
X18937857Y-13515524D01*
X18937857Y-13515524D02*
X18871191Y-13591714D01*
X18871191Y-13591714D02*
X18899762Y-13591714D01*
X18899762Y-13591714D02*
X18918810Y-13601238D01*
X18918810Y-13601238D02*
X18928334Y-13610762D01*
X18928334Y-13610762D02*
X18937857Y-13629809D01*
X18937857Y-13629809D02*
X18937857Y-13677428D01*
X18937857Y-13677428D02*
X18928334Y-13696476D01*
X18928334Y-13696476D02*
X18918810Y-13706000D01*
X18918810Y-13706000D02*
X18899762Y-13715524D01*
X18899762Y-13715524D02*
X18842619Y-13715524D01*
X18842619Y-13715524D02*
X18823572Y-13706000D01*
X18823572Y-13706000D02*
X18814048Y-13696476D01*
X19014048Y-13534571D02*
X19023572Y-13525048D01*
X19023572Y-13525048D02*
X19042619Y-13515524D01*
X19042619Y-13515524D02*
X19090238Y-13515524D01*
X19090238Y-13515524D02*
X19109286Y-13525048D01*
X19109286Y-13525048D02*
X19118810Y-13534571D01*
X19118810Y-13534571D02*
X19128334Y-13553619D01*
X19128334Y-13553619D02*
X19128334Y-13572667D01*
X19128334Y-13572667D02*
X19118810Y-13601238D01*
X19118810Y-13601238D02*
X19004524Y-13715524D01*
X19004524Y-13715524D02*
X19128334Y-13715524D01*
X19366429Y-13715524D02*
X19366429Y-13515524D01*
X19452143Y-13715524D02*
X19452143Y-13610762D01*
X19452143Y-13610762D02*
X19442619Y-13591714D01*
X19442619Y-13591714D02*
X19423572Y-13582190D01*
X19423572Y-13582190D02*
X19395000Y-13582190D01*
X19395000Y-13582190D02*
X19375953Y-13591714D01*
X19375953Y-13591714D02*
X19366429Y-13601238D01*
X19575953Y-13715524D02*
X19556905Y-13706000D01*
X19556905Y-13706000D02*
X19547381Y-13696476D01*
X19547381Y-13696476D02*
X19537858Y-13677428D01*
X19537858Y-13677428D02*
X19537858Y-13620286D01*
X19537858Y-13620286D02*
X19547381Y-13601238D01*
X19547381Y-13601238D02*
X19556905Y-13591714D01*
X19556905Y-13591714D02*
X19575953Y-13582190D01*
X19575953Y-13582190D02*
X19604524Y-13582190D01*
X19604524Y-13582190D02*
X19623572Y-13591714D01*
X19623572Y-13591714D02*
X19633096Y-13601238D01*
X19633096Y-13601238D02*
X19642619Y-13620286D01*
X19642619Y-13620286D02*
X19642619Y-13677428D01*
X19642619Y-13677428D02*
X19633096Y-13696476D01*
X19633096Y-13696476D02*
X19623572Y-13706000D01*
X19623572Y-13706000D02*
X19604524Y-13715524D01*
X19604524Y-13715524D02*
X19575953Y-13715524D01*
X19756905Y-13715524D02*
X19737858Y-13706000D01*
X19737858Y-13706000D02*
X19728334Y-13686952D01*
X19728334Y-13686952D02*
X19728334Y-13515524D01*
X19909286Y-13706000D02*
X19890239Y-13715524D01*
X19890239Y-13715524D02*
X19852143Y-13715524D01*
X19852143Y-13715524D02*
X19833096Y-13706000D01*
X19833096Y-13706000D02*
X19823572Y-13686952D01*
X19823572Y-13686952D02*
X19823572Y-13610762D01*
X19823572Y-13610762D02*
X19833096Y-13591714D01*
X19833096Y-13591714D02*
X19852143Y-13582190D01*
X19852143Y-13582190D02*
X19890239Y-13582190D01*
X19890239Y-13582190D02*
X19909286Y-13591714D01*
X19909286Y-13591714D02*
X19918810Y-13610762D01*
X19918810Y-13610762D02*
X19918810Y-13629809D01*
X19918810Y-13629809D02*
X19823572Y-13648857D01*
X19995000Y-13706000D02*
X20014048Y-13715524D01*
X20014048Y-13715524D02*
X20052143Y-13715524D01*
X20052143Y-13715524D02*
X20071191Y-13706000D01*
X20071191Y-13706000D02*
X20080715Y-13686952D01*
X20080715Y-13686952D02*
X20080715Y-13677428D01*
X20080715Y-13677428D02*
X20071191Y-13658381D01*
X20071191Y-13658381D02*
X20052143Y-13648857D01*
X20052143Y-13648857D02*
X20023572Y-13648857D01*
X20023572Y-13648857D02*
X20004524Y-13639333D01*
X20004524Y-13639333D02*
X19995000Y-13620286D01*
X19995000Y-13620286D02*
X19995000Y-13610762D01*
X19995000Y-13610762D02*
X20004524Y-13591714D01*
X20004524Y-13591714D02*
X20023572Y-13582190D01*
X20023572Y-13582190D02*
X20052143Y-13582190D01*
X20052143Y-13582190D02*
X20071191Y-13591714D01*
X20147381Y-13791714D02*
X20156905Y-13782190D01*
X20156905Y-13782190D02*
X20175953Y-13753619D01*
X20175953Y-13753619D02*
X20185477Y-13734571D01*
X20185477Y-13734571D02*
X20195000Y-13706000D01*
X20195000Y-13706000D02*
X20204524Y-13658381D01*
X20204524Y-13658381D02*
X20204524Y-13620286D01*
X20204524Y-13620286D02*
X20195000Y-13572667D01*
X20195000Y-13572667D02*
X20185477Y-13544095D01*
X20185477Y-13544095D02*
X20175953Y-13525048D01*
X20175953Y-13525048D02*
X20156905Y-13496476D01*
X20156905Y-13496476D02*
X20147381Y-13486952D01*
D14*
X15175962Y-13932962D02*
X15175962Y-13841038D01*
X15084038Y-13841038D01*
X15084038Y-13932962D01*
X15175962Y-13932962D01*
D11*
X15547381Y-13979524D02*
X15433095Y-13979524D01*
X15490238Y-13979524D02*
X15490238Y-13779524D01*
X15490238Y-13779524D02*
X15471190Y-13808095D01*
X15471190Y-13808095D02*
X15452143Y-13827143D01*
X15452143Y-13827143D02*
X15433095Y-13836667D01*
X15633095Y-13960476D02*
X15642619Y-13970000D01*
X15642619Y-13970000D02*
X15633095Y-13979524D01*
X15633095Y-13979524D02*
X15623571Y-13970000D01*
X15623571Y-13970000D02*
X15633095Y-13960476D01*
X15633095Y-13960476D02*
X15633095Y-13979524D01*
X15709286Y-13779524D02*
X15833095Y-13779524D01*
X15833095Y-13779524D02*
X15766428Y-13855714D01*
X15766428Y-13855714D02*
X15795000Y-13855714D01*
X15795000Y-13855714D02*
X15814048Y-13865238D01*
X15814048Y-13865238D02*
X15823571Y-13874762D01*
X15823571Y-13874762D02*
X15833095Y-13893809D01*
X15833095Y-13893809D02*
X15833095Y-13941428D01*
X15833095Y-13941428D02*
X15823571Y-13960476D01*
X15823571Y-13960476D02*
X15814048Y-13970000D01*
X15814048Y-13970000D02*
X15795000Y-13979524D01*
X15795000Y-13979524D02*
X15737857Y-13979524D01*
X15737857Y-13979524D02*
X15718809Y-13970000D01*
X15718809Y-13970000D02*
X15709286Y-13960476D01*
X15956905Y-13779524D02*
X15975952Y-13779524D01*
X15975952Y-13779524D02*
X15995000Y-13789048D01*
X15995000Y-13789048D02*
X16004524Y-13798571D01*
X16004524Y-13798571D02*
X16014048Y-13817619D01*
X16014048Y-13817619D02*
X16023571Y-13855714D01*
X16023571Y-13855714D02*
X16023571Y-13903333D01*
X16023571Y-13903333D02*
X16014048Y-13941428D01*
X16014048Y-13941428D02*
X16004524Y-13960476D01*
X16004524Y-13960476D02*
X15995000Y-13970000D01*
X15995000Y-13970000D02*
X15975952Y-13979524D01*
X15975952Y-13979524D02*
X15956905Y-13979524D01*
X15956905Y-13979524D02*
X15937857Y-13970000D01*
X15937857Y-13970000D02*
X15928333Y-13960476D01*
X15928333Y-13960476D02*
X15918809Y-13941428D01*
X15918809Y-13941428D02*
X15909286Y-13903333D01*
X15909286Y-13903333D02*
X15909286Y-13855714D01*
X15909286Y-13855714D02*
X15918809Y-13817619D01*
X15918809Y-13817619D02*
X15928333Y-13798571D01*
X15928333Y-13798571D02*
X15937857Y-13789048D01*
X15937857Y-13789048D02*
X15956905Y-13779524D01*
X16147381Y-13779524D02*
X16166429Y-13779524D01*
X16166429Y-13779524D02*
X16185476Y-13789048D01*
X16185476Y-13789048D02*
X16195000Y-13798571D01*
X16195000Y-13798571D02*
X16204524Y-13817619D01*
X16204524Y-13817619D02*
X16214048Y-13855714D01*
X16214048Y-13855714D02*
X16214048Y-13903333D01*
X16214048Y-13903333D02*
X16204524Y-13941428D01*
X16204524Y-13941428D02*
X16195000Y-13960476D01*
X16195000Y-13960476D02*
X16185476Y-13970000D01*
X16185476Y-13970000D02*
X16166429Y-13979524D01*
X16166429Y-13979524D02*
X16147381Y-13979524D01*
X16147381Y-13979524D02*
X16128333Y-13970000D01*
X16128333Y-13970000D02*
X16118809Y-13960476D01*
X16118809Y-13960476D02*
X16109286Y-13941428D01*
X16109286Y-13941428D02*
X16099762Y-13903333D01*
X16099762Y-13903333D02*
X16099762Y-13855714D01*
X16099762Y-13855714D02*
X16109286Y-13817619D01*
X16109286Y-13817619D02*
X16118809Y-13798571D01*
X16118809Y-13798571D02*
X16128333Y-13789048D01*
X16128333Y-13789048D02*
X16147381Y-13779524D01*
X16299762Y-13979524D02*
X16299762Y-13846190D01*
X16299762Y-13865238D02*
X16309286Y-13855714D01*
X16309286Y-13855714D02*
X16328333Y-13846190D01*
X16328333Y-13846190D02*
X16356905Y-13846190D01*
X16356905Y-13846190D02*
X16375952Y-13855714D01*
X16375952Y-13855714D02*
X16385476Y-13874762D01*
X16385476Y-13874762D02*
X16385476Y-13979524D01*
X16385476Y-13874762D02*
X16395000Y-13855714D01*
X16395000Y-13855714D02*
X16414048Y-13846190D01*
X16414048Y-13846190D02*
X16442619Y-13846190D01*
X16442619Y-13846190D02*
X16461667Y-13855714D01*
X16461667Y-13855714D02*
X16471190Y-13874762D01*
X16471190Y-13874762D02*
X16471190Y-13979524D01*
X16566429Y-13979524D02*
X16566429Y-13846190D01*
X16566429Y-13865238D02*
X16575952Y-13855714D01*
X16575952Y-13855714D02*
X16595000Y-13846190D01*
X16595000Y-13846190D02*
X16623571Y-13846190D01*
X16623571Y-13846190D02*
X16642619Y-13855714D01*
X16642619Y-13855714D02*
X16652143Y-13874762D01*
X16652143Y-13874762D02*
X16652143Y-13979524D01*
X16652143Y-13874762D02*
X16661667Y-13855714D01*
X16661667Y-13855714D02*
X16680714Y-13846190D01*
X16680714Y-13846190D02*
X16709286Y-13846190D01*
X16709286Y-13846190D02*
X16728333Y-13855714D01*
X16728333Y-13855714D02*
X16737857Y-13874762D01*
X16737857Y-13874762D02*
X16737857Y-13979524D01*
X17128333Y-13770000D02*
X16956905Y-14027143D01*
X17385476Y-13779524D02*
X17404524Y-13779524D01*
X17404524Y-13779524D02*
X17423572Y-13789048D01*
X17423572Y-13789048D02*
X17433095Y-13798571D01*
X17433095Y-13798571D02*
X17442619Y-13817619D01*
X17442619Y-13817619D02*
X17452143Y-13855714D01*
X17452143Y-13855714D02*
X17452143Y-13903333D01*
X17452143Y-13903333D02*
X17442619Y-13941428D01*
X17442619Y-13941428D02*
X17433095Y-13960476D01*
X17433095Y-13960476D02*
X17423572Y-13970000D01*
X17423572Y-13970000D02*
X17404524Y-13979524D01*
X17404524Y-13979524D02*
X17385476Y-13979524D01*
X17385476Y-13979524D02*
X17366429Y-13970000D01*
X17366429Y-13970000D02*
X17356905Y-13960476D01*
X17356905Y-13960476D02*
X17347381Y-13941428D01*
X17347381Y-13941428D02*
X17337857Y-13903333D01*
X17337857Y-13903333D02*
X17337857Y-13855714D01*
X17337857Y-13855714D02*
X17347381Y-13817619D01*
X17347381Y-13817619D02*
X17356905Y-13798571D01*
X17356905Y-13798571D02*
X17366429Y-13789048D01*
X17366429Y-13789048D02*
X17385476Y-13779524D01*
X17537857Y-13960476D02*
X17547381Y-13970000D01*
X17547381Y-13970000D02*
X17537857Y-13979524D01*
X17537857Y-13979524D02*
X17528334Y-13970000D01*
X17528334Y-13970000D02*
X17537857Y-13960476D01*
X17537857Y-13960476D02*
X17537857Y-13979524D01*
X17671191Y-13779524D02*
X17690238Y-13779524D01*
X17690238Y-13779524D02*
X17709286Y-13789048D01*
X17709286Y-13789048D02*
X17718810Y-13798571D01*
X17718810Y-13798571D02*
X17728334Y-13817619D01*
X17728334Y-13817619D02*
X17737857Y-13855714D01*
X17737857Y-13855714D02*
X17737857Y-13903333D01*
X17737857Y-13903333D02*
X17728334Y-13941428D01*
X17728334Y-13941428D02*
X17718810Y-13960476D01*
X17718810Y-13960476D02*
X17709286Y-13970000D01*
X17709286Y-13970000D02*
X17690238Y-13979524D01*
X17690238Y-13979524D02*
X17671191Y-13979524D01*
X17671191Y-13979524D02*
X17652143Y-13970000D01*
X17652143Y-13970000D02*
X17642619Y-13960476D01*
X17642619Y-13960476D02*
X17633095Y-13941428D01*
X17633095Y-13941428D02*
X17623572Y-13903333D01*
X17623572Y-13903333D02*
X17623572Y-13855714D01*
X17623572Y-13855714D02*
X17633095Y-13817619D01*
X17633095Y-13817619D02*
X17642619Y-13798571D01*
X17642619Y-13798571D02*
X17652143Y-13789048D01*
X17652143Y-13789048D02*
X17671191Y-13779524D01*
X17918810Y-13779524D02*
X17823572Y-13779524D01*
X17823572Y-13779524D02*
X17814048Y-13874762D01*
X17814048Y-13874762D02*
X17823572Y-13865238D01*
X17823572Y-13865238D02*
X17842619Y-13855714D01*
X17842619Y-13855714D02*
X17890238Y-13855714D01*
X17890238Y-13855714D02*
X17909286Y-13865238D01*
X17909286Y-13865238D02*
X17918810Y-13874762D01*
X17918810Y-13874762D02*
X17928334Y-13893809D01*
X17928334Y-13893809D02*
X17928334Y-13941428D01*
X17928334Y-13941428D02*
X17918810Y-13960476D01*
X17918810Y-13960476D02*
X17909286Y-13970000D01*
X17909286Y-13970000D02*
X17890238Y-13979524D01*
X17890238Y-13979524D02*
X17842619Y-13979524D01*
X17842619Y-13979524D02*
X17823572Y-13970000D01*
X17823572Y-13970000D02*
X17814048Y-13960476D01*
X18118810Y-13979524D02*
X18004524Y-13979524D01*
X18061667Y-13979524D02*
X18061667Y-13779524D01*
X18061667Y-13779524D02*
X18042619Y-13808095D01*
X18042619Y-13808095D02*
X18023572Y-13827143D01*
X18023572Y-13827143D02*
X18004524Y-13836667D01*
X18195000Y-13798571D02*
X18204524Y-13789048D01*
X18204524Y-13789048D02*
X18223572Y-13779524D01*
X18223572Y-13779524D02*
X18271191Y-13779524D01*
X18271191Y-13779524D02*
X18290238Y-13789048D01*
X18290238Y-13789048D02*
X18299762Y-13798571D01*
X18299762Y-13798571D02*
X18309286Y-13817619D01*
X18309286Y-13817619D02*
X18309286Y-13836667D01*
X18309286Y-13836667D02*
X18299762Y-13865238D01*
X18299762Y-13865238D02*
X18185476Y-13979524D01*
X18185476Y-13979524D02*
X18309286Y-13979524D01*
X18385476Y-13779524D02*
X18385476Y-13817619D01*
X18461667Y-13779524D02*
X18461667Y-13817619D01*
X18756905Y-14055714D02*
X18747381Y-14046190D01*
X18747381Y-14046190D02*
X18728334Y-14017619D01*
X18728334Y-14017619D02*
X18718810Y-13998571D01*
X18718810Y-13998571D02*
X18709286Y-13970000D01*
X18709286Y-13970000D02*
X18699762Y-13922381D01*
X18699762Y-13922381D02*
X18699762Y-13884286D01*
X18699762Y-13884286D02*
X18709286Y-13836667D01*
X18709286Y-13836667D02*
X18718810Y-13808095D01*
X18718810Y-13808095D02*
X18728334Y-13789048D01*
X18728334Y-13789048D02*
X18747381Y-13760476D01*
X18747381Y-13760476D02*
X18756905Y-13750952D01*
X18814048Y-13779524D02*
X18937857Y-13779524D01*
X18937857Y-13779524D02*
X18871191Y-13855714D01*
X18871191Y-13855714D02*
X18899762Y-13855714D01*
X18899762Y-13855714D02*
X18918810Y-13865238D01*
X18918810Y-13865238D02*
X18928334Y-13874762D01*
X18928334Y-13874762D02*
X18937857Y-13893809D01*
X18937857Y-13893809D02*
X18937857Y-13941428D01*
X18937857Y-13941428D02*
X18928334Y-13960476D01*
X18928334Y-13960476D02*
X18918810Y-13970000D01*
X18918810Y-13970000D02*
X18899762Y-13979524D01*
X18899762Y-13979524D02*
X18842619Y-13979524D01*
X18842619Y-13979524D02*
X18823572Y-13970000D01*
X18823572Y-13970000D02*
X18814048Y-13960476D01*
X19175953Y-13979524D02*
X19175953Y-13779524D01*
X19261667Y-13979524D02*
X19261667Y-13874762D01*
X19261667Y-13874762D02*
X19252143Y-13855714D01*
X19252143Y-13855714D02*
X19233096Y-13846190D01*
X19233096Y-13846190D02*
X19204524Y-13846190D01*
X19204524Y-13846190D02*
X19185477Y-13855714D01*
X19185477Y-13855714D02*
X19175953Y-13865238D01*
X19385477Y-13979524D02*
X19366429Y-13970000D01*
X19366429Y-13970000D02*
X19356905Y-13960476D01*
X19356905Y-13960476D02*
X19347381Y-13941428D01*
X19347381Y-13941428D02*
X19347381Y-13884286D01*
X19347381Y-13884286D02*
X19356905Y-13865238D01*
X19356905Y-13865238D02*
X19366429Y-13855714D01*
X19366429Y-13855714D02*
X19385477Y-13846190D01*
X19385477Y-13846190D02*
X19414048Y-13846190D01*
X19414048Y-13846190D02*
X19433096Y-13855714D01*
X19433096Y-13855714D02*
X19442619Y-13865238D01*
X19442619Y-13865238D02*
X19452143Y-13884286D01*
X19452143Y-13884286D02*
X19452143Y-13941428D01*
X19452143Y-13941428D02*
X19442619Y-13960476D01*
X19442619Y-13960476D02*
X19433096Y-13970000D01*
X19433096Y-13970000D02*
X19414048Y-13979524D01*
X19414048Y-13979524D02*
X19385477Y-13979524D01*
X19566429Y-13979524D02*
X19547381Y-13970000D01*
X19547381Y-13970000D02*
X19537858Y-13950952D01*
X19537858Y-13950952D02*
X19537858Y-13779524D01*
X19718810Y-13970000D02*
X19699762Y-13979524D01*
X19699762Y-13979524D02*
X19661667Y-13979524D01*
X19661667Y-13979524D02*
X19642619Y-13970000D01*
X19642619Y-13970000D02*
X19633096Y-13950952D01*
X19633096Y-13950952D02*
X19633096Y-13874762D01*
X19633096Y-13874762D02*
X19642619Y-13855714D01*
X19642619Y-13855714D02*
X19661667Y-13846190D01*
X19661667Y-13846190D02*
X19699762Y-13846190D01*
X19699762Y-13846190D02*
X19718810Y-13855714D01*
X19718810Y-13855714D02*
X19728334Y-13874762D01*
X19728334Y-13874762D02*
X19728334Y-13893809D01*
X19728334Y-13893809D02*
X19633096Y-13912857D01*
X19804524Y-13970000D02*
X19823572Y-13979524D01*
X19823572Y-13979524D02*
X19861667Y-13979524D01*
X19861667Y-13979524D02*
X19880715Y-13970000D01*
X19880715Y-13970000D02*
X19890239Y-13950952D01*
X19890239Y-13950952D02*
X19890239Y-13941428D01*
X19890239Y-13941428D02*
X19880715Y-13922381D01*
X19880715Y-13922381D02*
X19861667Y-13912857D01*
X19861667Y-13912857D02*
X19833096Y-13912857D01*
X19833096Y-13912857D02*
X19814048Y-13903333D01*
X19814048Y-13903333D02*
X19804524Y-13884286D01*
X19804524Y-13884286D02*
X19804524Y-13874762D01*
X19804524Y-13874762D02*
X19814048Y-13855714D01*
X19814048Y-13855714D02*
X19833096Y-13846190D01*
X19833096Y-13846190D02*
X19861667Y-13846190D01*
X19861667Y-13846190D02*
X19880715Y-13855714D01*
X19956905Y-14055714D02*
X19966429Y-14046190D01*
X19966429Y-14046190D02*
X19985477Y-14017619D01*
X19985477Y-14017619D02*
X19995000Y-13998571D01*
X19995000Y-13998571D02*
X20004524Y-13970000D01*
X20004524Y-13970000D02*
X20014048Y-13922381D01*
X20014048Y-13922381D02*
X20014048Y-13884286D01*
X20014048Y-13884286D02*
X20004524Y-13836667D01*
X20004524Y-13836667D02*
X19995000Y-13808095D01*
X19995000Y-13808095D02*
X19985477Y-13789048D01*
X19985477Y-13789048D02*
X19966429Y-13760476D01*
X19966429Y-13760476D02*
X19956905Y-13750952D01*
D15*
X15129976Y-14216024D02*
X15195000Y-14151000D01*
X15129976Y-14085976D01*
X15064952Y-14151000D01*
X15129976Y-14216024D01*
D11*
X15547381Y-14243524D02*
X15433095Y-14243524D01*
X15490238Y-14243524D02*
X15490238Y-14043524D01*
X15490238Y-14043524D02*
X15471190Y-14072095D01*
X15471190Y-14072095D02*
X15452143Y-14091143D01*
X15452143Y-14091143D02*
X15433095Y-14100667D01*
X15633095Y-14224476D02*
X15642619Y-14234000D01*
X15642619Y-14234000D02*
X15633095Y-14243524D01*
X15633095Y-14243524D02*
X15623571Y-14234000D01*
X15623571Y-14234000D02*
X15633095Y-14224476D01*
X15633095Y-14224476D02*
X15633095Y-14243524D01*
X15709286Y-14043524D02*
X15833095Y-14043524D01*
X15833095Y-14043524D02*
X15766428Y-14119714D01*
X15766428Y-14119714D02*
X15795000Y-14119714D01*
X15795000Y-14119714D02*
X15814048Y-14129238D01*
X15814048Y-14129238D02*
X15823571Y-14138762D01*
X15823571Y-14138762D02*
X15833095Y-14157809D01*
X15833095Y-14157809D02*
X15833095Y-14205428D01*
X15833095Y-14205428D02*
X15823571Y-14224476D01*
X15823571Y-14224476D02*
X15814048Y-14234000D01*
X15814048Y-14234000D02*
X15795000Y-14243524D01*
X15795000Y-14243524D02*
X15737857Y-14243524D01*
X15737857Y-14243524D02*
X15718809Y-14234000D01*
X15718809Y-14234000D02*
X15709286Y-14224476D01*
X15956905Y-14043524D02*
X15975952Y-14043524D01*
X15975952Y-14043524D02*
X15995000Y-14053048D01*
X15995000Y-14053048D02*
X16004524Y-14062571D01*
X16004524Y-14062571D02*
X16014048Y-14081619D01*
X16014048Y-14081619D02*
X16023571Y-14119714D01*
X16023571Y-14119714D02*
X16023571Y-14167333D01*
X16023571Y-14167333D02*
X16014048Y-14205428D01*
X16014048Y-14205428D02*
X16004524Y-14224476D01*
X16004524Y-14224476D02*
X15995000Y-14234000D01*
X15995000Y-14234000D02*
X15975952Y-14243524D01*
X15975952Y-14243524D02*
X15956905Y-14243524D01*
X15956905Y-14243524D02*
X15937857Y-14234000D01*
X15937857Y-14234000D02*
X15928333Y-14224476D01*
X15928333Y-14224476D02*
X15918809Y-14205428D01*
X15918809Y-14205428D02*
X15909286Y-14167333D01*
X15909286Y-14167333D02*
X15909286Y-14119714D01*
X15909286Y-14119714D02*
X15918809Y-14081619D01*
X15918809Y-14081619D02*
X15928333Y-14062571D01*
X15928333Y-14062571D02*
X15937857Y-14053048D01*
X15937857Y-14053048D02*
X15956905Y-14043524D01*
X16147381Y-14043524D02*
X16166429Y-14043524D01*
X16166429Y-14043524D02*
X16185476Y-14053048D01*
X16185476Y-14053048D02*
X16195000Y-14062571D01*
X16195000Y-14062571D02*
X16204524Y-14081619D01*
X16204524Y-14081619D02*
X16214048Y-14119714D01*
X16214048Y-14119714D02*
X16214048Y-14167333D01*
X16214048Y-14167333D02*
X16204524Y-14205428D01*
X16204524Y-14205428D02*
X16195000Y-14224476D01*
X16195000Y-14224476D02*
X16185476Y-14234000D01*
X16185476Y-14234000D02*
X16166429Y-14243524D01*
X16166429Y-14243524D02*
X16147381Y-14243524D01*
X16147381Y-14243524D02*
X16128333Y-14234000D01*
X16128333Y-14234000D02*
X16118809Y-14224476D01*
X16118809Y-14224476D02*
X16109286Y-14205428D01*
X16109286Y-14205428D02*
X16099762Y-14167333D01*
X16099762Y-14167333D02*
X16099762Y-14119714D01*
X16099762Y-14119714D02*
X16109286Y-14081619D01*
X16109286Y-14081619D02*
X16118809Y-14062571D01*
X16118809Y-14062571D02*
X16128333Y-14053048D01*
X16128333Y-14053048D02*
X16147381Y-14043524D01*
X16299762Y-14243524D02*
X16299762Y-14110190D01*
X16299762Y-14129238D02*
X16309286Y-14119714D01*
X16309286Y-14119714D02*
X16328333Y-14110190D01*
X16328333Y-14110190D02*
X16356905Y-14110190D01*
X16356905Y-14110190D02*
X16375952Y-14119714D01*
X16375952Y-14119714D02*
X16385476Y-14138762D01*
X16385476Y-14138762D02*
X16385476Y-14243524D01*
X16385476Y-14138762D02*
X16395000Y-14119714D01*
X16395000Y-14119714D02*
X16414048Y-14110190D01*
X16414048Y-14110190D02*
X16442619Y-14110190D01*
X16442619Y-14110190D02*
X16461667Y-14119714D01*
X16461667Y-14119714D02*
X16471190Y-14138762D01*
X16471190Y-14138762D02*
X16471190Y-14243524D01*
X16566429Y-14243524D02*
X16566429Y-14110190D01*
X16566429Y-14129238D02*
X16575952Y-14119714D01*
X16575952Y-14119714D02*
X16595000Y-14110190D01*
X16595000Y-14110190D02*
X16623571Y-14110190D01*
X16623571Y-14110190D02*
X16642619Y-14119714D01*
X16642619Y-14119714D02*
X16652143Y-14138762D01*
X16652143Y-14138762D02*
X16652143Y-14243524D01*
X16652143Y-14138762D02*
X16661667Y-14119714D01*
X16661667Y-14119714D02*
X16680714Y-14110190D01*
X16680714Y-14110190D02*
X16709286Y-14110190D01*
X16709286Y-14110190D02*
X16728333Y-14119714D01*
X16728333Y-14119714D02*
X16737857Y-14138762D01*
X16737857Y-14138762D02*
X16737857Y-14243524D01*
X17128333Y-14034000D02*
X16956905Y-14291143D01*
X17385476Y-14043524D02*
X17404524Y-14043524D01*
X17404524Y-14043524D02*
X17423572Y-14053048D01*
X17423572Y-14053048D02*
X17433095Y-14062571D01*
X17433095Y-14062571D02*
X17442619Y-14081619D01*
X17442619Y-14081619D02*
X17452143Y-14119714D01*
X17452143Y-14119714D02*
X17452143Y-14167333D01*
X17452143Y-14167333D02*
X17442619Y-14205428D01*
X17442619Y-14205428D02*
X17433095Y-14224476D01*
X17433095Y-14224476D02*
X17423572Y-14234000D01*
X17423572Y-14234000D02*
X17404524Y-14243524D01*
X17404524Y-14243524D02*
X17385476Y-14243524D01*
X17385476Y-14243524D02*
X17366429Y-14234000D01*
X17366429Y-14234000D02*
X17356905Y-14224476D01*
X17356905Y-14224476D02*
X17347381Y-14205428D01*
X17347381Y-14205428D02*
X17337857Y-14167333D01*
X17337857Y-14167333D02*
X17337857Y-14119714D01*
X17337857Y-14119714D02*
X17347381Y-14081619D01*
X17347381Y-14081619D02*
X17356905Y-14062571D01*
X17356905Y-14062571D02*
X17366429Y-14053048D01*
X17366429Y-14053048D02*
X17385476Y-14043524D01*
X17537857Y-14224476D02*
X17547381Y-14234000D01*
X17547381Y-14234000D02*
X17537857Y-14243524D01*
X17537857Y-14243524D02*
X17528334Y-14234000D01*
X17528334Y-14234000D02*
X17537857Y-14224476D01*
X17537857Y-14224476D02*
X17537857Y-14243524D01*
X17671191Y-14043524D02*
X17690238Y-14043524D01*
X17690238Y-14043524D02*
X17709286Y-14053048D01*
X17709286Y-14053048D02*
X17718810Y-14062571D01*
X17718810Y-14062571D02*
X17728334Y-14081619D01*
X17728334Y-14081619D02*
X17737857Y-14119714D01*
X17737857Y-14119714D02*
X17737857Y-14167333D01*
X17737857Y-14167333D02*
X17728334Y-14205428D01*
X17728334Y-14205428D02*
X17718810Y-14224476D01*
X17718810Y-14224476D02*
X17709286Y-14234000D01*
X17709286Y-14234000D02*
X17690238Y-14243524D01*
X17690238Y-14243524D02*
X17671191Y-14243524D01*
X17671191Y-14243524D02*
X17652143Y-14234000D01*
X17652143Y-14234000D02*
X17642619Y-14224476D01*
X17642619Y-14224476D02*
X17633095Y-14205428D01*
X17633095Y-14205428D02*
X17623572Y-14167333D01*
X17623572Y-14167333D02*
X17623572Y-14119714D01*
X17623572Y-14119714D02*
X17633095Y-14081619D01*
X17633095Y-14081619D02*
X17642619Y-14062571D01*
X17642619Y-14062571D02*
X17652143Y-14053048D01*
X17652143Y-14053048D02*
X17671191Y-14043524D01*
X17918810Y-14043524D02*
X17823572Y-14043524D01*
X17823572Y-14043524D02*
X17814048Y-14138762D01*
X17814048Y-14138762D02*
X17823572Y-14129238D01*
X17823572Y-14129238D02*
X17842619Y-14119714D01*
X17842619Y-14119714D02*
X17890238Y-14119714D01*
X17890238Y-14119714D02*
X17909286Y-14129238D01*
X17909286Y-14129238D02*
X17918810Y-14138762D01*
X17918810Y-14138762D02*
X17928334Y-14157809D01*
X17928334Y-14157809D02*
X17928334Y-14205428D01*
X17928334Y-14205428D02*
X17918810Y-14224476D01*
X17918810Y-14224476D02*
X17909286Y-14234000D01*
X17909286Y-14234000D02*
X17890238Y-14243524D01*
X17890238Y-14243524D02*
X17842619Y-14243524D01*
X17842619Y-14243524D02*
X17823572Y-14234000D01*
X17823572Y-14234000D02*
X17814048Y-14224476D01*
X18118810Y-14243524D02*
X18004524Y-14243524D01*
X18061667Y-14243524D02*
X18061667Y-14043524D01*
X18061667Y-14043524D02*
X18042619Y-14072095D01*
X18042619Y-14072095D02*
X18023572Y-14091143D01*
X18023572Y-14091143D02*
X18004524Y-14100667D01*
X18195000Y-14062571D02*
X18204524Y-14053048D01*
X18204524Y-14053048D02*
X18223572Y-14043524D01*
X18223572Y-14043524D02*
X18271191Y-14043524D01*
X18271191Y-14043524D02*
X18290238Y-14053048D01*
X18290238Y-14053048D02*
X18299762Y-14062571D01*
X18299762Y-14062571D02*
X18309286Y-14081619D01*
X18309286Y-14081619D02*
X18309286Y-14100667D01*
X18309286Y-14100667D02*
X18299762Y-14129238D01*
X18299762Y-14129238D02*
X18185476Y-14243524D01*
X18185476Y-14243524D02*
X18309286Y-14243524D01*
X18385476Y-14043524D02*
X18385476Y-14081619D01*
X18461667Y-14043524D02*
X18461667Y-14081619D01*
X18756905Y-14319714D02*
X18747381Y-14310190D01*
X18747381Y-14310190D02*
X18728334Y-14281619D01*
X18728334Y-14281619D02*
X18718810Y-14262571D01*
X18718810Y-14262571D02*
X18709286Y-14234000D01*
X18709286Y-14234000D02*
X18699762Y-14186381D01*
X18699762Y-14186381D02*
X18699762Y-14148286D01*
X18699762Y-14148286D02*
X18709286Y-14100667D01*
X18709286Y-14100667D02*
X18718810Y-14072095D01*
X18718810Y-14072095D02*
X18728334Y-14053048D01*
X18728334Y-14053048D02*
X18747381Y-14024476D01*
X18747381Y-14024476D02*
X18756905Y-14014952D01*
X18937857Y-14243524D02*
X18823572Y-14243524D01*
X18880715Y-14243524D02*
X18880715Y-14043524D01*
X18880715Y-14043524D02*
X18861667Y-14072095D01*
X18861667Y-14072095D02*
X18842619Y-14091143D01*
X18842619Y-14091143D02*
X18823572Y-14100667D01*
X19118810Y-14043524D02*
X19023572Y-14043524D01*
X19023572Y-14043524D02*
X19014048Y-14138762D01*
X19014048Y-14138762D02*
X19023572Y-14129238D01*
X19023572Y-14129238D02*
X19042619Y-14119714D01*
X19042619Y-14119714D02*
X19090238Y-14119714D01*
X19090238Y-14119714D02*
X19109286Y-14129238D01*
X19109286Y-14129238D02*
X19118810Y-14138762D01*
X19118810Y-14138762D02*
X19128334Y-14157809D01*
X19128334Y-14157809D02*
X19128334Y-14205428D01*
X19128334Y-14205428D02*
X19118810Y-14224476D01*
X19118810Y-14224476D02*
X19109286Y-14234000D01*
X19109286Y-14234000D02*
X19090238Y-14243524D01*
X19090238Y-14243524D02*
X19042619Y-14243524D01*
X19042619Y-14243524D02*
X19023572Y-14234000D01*
X19023572Y-14234000D02*
X19014048Y-14224476D01*
X19366429Y-14243524D02*
X19366429Y-14043524D01*
X19452143Y-14243524D02*
X19452143Y-14138762D01*
X19452143Y-14138762D02*
X19442619Y-14119714D01*
X19442619Y-14119714D02*
X19423572Y-14110190D01*
X19423572Y-14110190D02*
X19395000Y-14110190D01*
X19395000Y-14110190D02*
X19375953Y-14119714D01*
X19375953Y-14119714D02*
X19366429Y-14129238D01*
X19575953Y-14243524D02*
X19556905Y-14234000D01*
X19556905Y-14234000D02*
X19547381Y-14224476D01*
X19547381Y-14224476D02*
X19537858Y-14205428D01*
X19537858Y-14205428D02*
X19537858Y-14148286D01*
X19537858Y-14148286D02*
X19547381Y-14129238D01*
X19547381Y-14129238D02*
X19556905Y-14119714D01*
X19556905Y-14119714D02*
X19575953Y-14110190D01*
X19575953Y-14110190D02*
X19604524Y-14110190D01*
X19604524Y-14110190D02*
X19623572Y-14119714D01*
X19623572Y-14119714D02*
X19633096Y-14129238D01*
X19633096Y-14129238D02*
X19642619Y-14148286D01*
X19642619Y-14148286D02*
X19642619Y-14205428D01*
X19642619Y-14205428D02*
X19633096Y-14224476D01*
X19633096Y-14224476D02*
X19623572Y-14234000D01*
X19623572Y-14234000D02*
X19604524Y-14243524D01*
X19604524Y-14243524D02*
X19575953Y-14243524D01*
X19756905Y-14243524D02*
X19737858Y-14234000D01*
X19737858Y-14234000D02*
X19728334Y-14214952D01*
X19728334Y-14214952D02*
X19728334Y-14043524D01*
X19909286Y-14234000D02*
X19890239Y-14243524D01*
X19890239Y-14243524D02*
X19852143Y-14243524D01*
X19852143Y-14243524D02*
X19833096Y-14234000D01*
X19833096Y-14234000D02*
X19823572Y-14214952D01*
X19823572Y-14214952D02*
X19823572Y-14138762D01*
X19823572Y-14138762D02*
X19833096Y-14119714D01*
X19833096Y-14119714D02*
X19852143Y-14110190D01*
X19852143Y-14110190D02*
X19890239Y-14110190D01*
X19890239Y-14110190D02*
X19909286Y-14119714D01*
X19909286Y-14119714D02*
X19918810Y-14138762D01*
X19918810Y-14138762D02*
X19918810Y-14157809D01*
X19918810Y-14157809D02*
X19823572Y-14176857D01*
X19995000Y-14234000D02*
X20014048Y-14243524D01*
X20014048Y-14243524D02*
X20052143Y-14243524D01*
X20052143Y-14243524D02*
X20071191Y-14234000D01*
X20071191Y-14234000D02*
X20080715Y-14214952D01*
X20080715Y-14214952D02*
X20080715Y-14205428D01*
X20080715Y-14205428D02*
X20071191Y-14186381D01*
X20071191Y-14186381D02*
X20052143Y-14176857D01*
X20052143Y-14176857D02*
X20023572Y-14176857D01*
X20023572Y-14176857D02*
X20004524Y-14167333D01*
X20004524Y-14167333D02*
X19995000Y-14148286D01*
X19995000Y-14148286D02*
X19995000Y-14138762D01*
X19995000Y-14138762D02*
X20004524Y-14119714D01*
X20004524Y-14119714D02*
X20023572Y-14110190D01*
X20023572Y-14110190D02*
X20052143Y-14110190D01*
X20052143Y-14110190D02*
X20071191Y-14119714D01*
X20147381Y-14319714D02*
X20156905Y-14310190D01*
X20156905Y-14310190D02*
X20175953Y-14281619D01*
X20175953Y-14281619D02*
X20185477Y-14262571D01*
X20185477Y-14262571D02*
X20195000Y-14234000D01*
X20195000Y-14234000D02*
X20204524Y-14186381D01*
X20204524Y-14186381D02*
X20204524Y-14148286D01*
X20204524Y-14148286D02*
X20195000Y-14100667D01*
X20195000Y-14100667D02*
X20185477Y-14072095D01*
X20185477Y-14072095D02*
X20175953Y-14053048D01*
X20175953Y-14053048D02*
X20156905Y-14024476D01*
X20156905Y-14024476D02*
X20147381Y-14014952D01*
X14995000Y-14315000D02*
X15195000Y-14515000D01*
X15195000Y-14315000D02*
X14995000Y-14515000D01*
X15195000Y-14415000D02*
G75*
G03*
X15195000Y-14415000I-100000J0D01*
G01*
X15433095Y-14326571D02*
X15442619Y-14317048D01*
X15442619Y-14317048D02*
X15461667Y-14307524D01*
X15461667Y-14307524D02*
X15509286Y-14307524D01*
X15509286Y-14307524D02*
X15528333Y-14317048D01*
X15528333Y-14317048D02*
X15537857Y-14326571D01*
X15537857Y-14326571D02*
X15547381Y-14345619D01*
X15547381Y-14345619D02*
X15547381Y-14364667D01*
X15547381Y-14364667D02*
X15537857Y-14393238D01*
X15537857Y-14393238D02*
X15423571Y-14507524D01*
X15423571Y-14507524D02*
X15547381Y-14507524D01*
X15633095Y-14488476D02*
X15642619Y-14498000D01*
X15642619Y-14498000D02*
X15633095Y-14507524D01*
X15633095Y-14507524D02*
X15623571Y-14498000D01*
X15623571Y-14498000D02*
X15633095Y-14488476D01*
X15633095Y-14488476D02*
X15633095Y-14507524D01*
X15814048Y-14374190D02*
X15814048Y-14507524D01*
X15766428Y-14298000D02*
X15718809Y-14440857D01*
X15718809Y-14440857D02*
X15842619Y-14440857D01*
X15956905Y-14307524D02*
X15975952Y-14307524D01*
X15975952Y-14307524D02*
X15995000Y-14317048D01*
X15995000Y-14317048D02*
X16004524Y-14326571D01*
X16004524Y-14326571D02*
X16014048Y-14345619D01*
X16014048Y-14345619D02*
X16023571Y-14383714D01*
X16023571Y-14383714D02*
X16023571Y-14431333D01*
X16023571Y-14431333D02*
X16014048Y-14469428D01*
X16014048Y-14469428D02*
X16004524Y-14488476D01*
X16004524Y-14488476D02*
X15995000Y-14498000D01*
X15995000Y-14498000D02*
X15975952Y-14507524D01*
X15975952Y-14507524D02*
X15956905Y-14507524D01*
X15956905Y-14507524D02*
X15937857Y-14498000D01*
X15937857Y-14498000D02*
X15928333Y-14488476D01*
X15928333Y-14488476D02*
X15918809Y-14469428D01*
X15918809Y-14469428D02*
X15909286Y-14431333D01*
X15909286Y-14431333D02*
X15909286Y-14383714D01*
X15909286Y-14383714D02*
X15918809Y-14345619D01*
X15918809Y-14345619D02*
X15928333Y-14326571D01*
X15928333Y-14326571D02*
X15937857Y-14317048D01*
X15937857Y-14317048D02*
X15956905Y-14307524D01*
X16147381Y-14307524D02*
X16166429Y-14307524D01*
X16166429Y-14307524D02*
X16185476Y-14317048D01*
X16185476Y-14317048D02*
X16195000Y-14326571D01*
X16195000Y-14326571D02*
X16204524Y-14345619D01*
X16204524Y-14345619D02*
X16214048Y-14383714D01*
X16214048Y-14383714D02*
X16214048Y-14431333D01*
X16214048Y-14431333D02*
X16204524Y-14469428D01*
X16204524Y-14469428D02*
X16195000Y-14488476D01*
X16195000Y-14488476D02*
X16185476Y-14498000D01*
X16185476Y-14498000D02*
X16166429Y-14507524D01*
X16166429Y-14507524D02*
X16147381Y-14507524D01*
X16147381Y-14507524D02*
X16128333Y-14498000D01*
X16128333Y-14498000D02*
X16118809Y-14488476D01*
X16118809Y-14488476D02*
X16109286Y-14469428D01*
X16109286Y-14469428D02*
X16099762Y-14431333D01*
X16099762Y-14431333D02*
X16099762Y-14383714D01*
X16099762Y-14383714D02*
X16109286Y-14345619D01*
X16109286Y-14345619D02*
X16118809Y-14326571D01*
X16118809Y-14326571D02*
X16128333Y-14317048D01*
X16128333Y-14317048D02*
X16147381Y-14307524D01*
X16299762Y-14507524D02*
X16299762Y-14374190D01*
X16299762Y-14393238D02*
X16309286Y-14383714D01*
X16309286Y-14383714D02*
X16328333Y-14374190D01*
X16328333Y-14374190D02*
X16356905Y-14374190D01*
X16356905Y-14374190D02*
X16375952Y-14383714D01*
X16375952Y-14383714D02*
X16385476Y-14402762D01*
X16385476Y-14402762D02*
X16385476Y-14507524D01*
X16385476Y-14402762D02*
X16395000Y-14383714D01*
X16395000Y-14383714D02*
X16414048Y-14374190D01*
X16414048Y-14374190D02*
X16442619Y-14374190D01*
X16442619Y-14374190D02*
X16461667Y-14383714D01*
X16461667Y-14383714D02*
X16471190Y-14402762D01*
X16471190Y-14402762D02*
X16471190Y-14507524D01*
X16566429Y-14507524D02*
X16566429Y-14374190D01*
X16566429Y-14393238D02*
X16575952Y-14383714D01*
X16575952Y-14383714D02*
X16595000Y-14374190D01*
X16595000Y-14374190D02*
X16623571Y-14374190D01*
X16623571Y-14374190D02*
X16642619Y-14383714D01*
X16642619Y-14383714D02*
X16652143Y-14402762D01*
X16652143Y-14402762D02*
X16652143Y-14507524D01*
X16652143Y-14402762D02*
X16661667Y-14383714D01*
X16661667Y-14383714D02*
X16680714Y-14374190D01*
X16680714Y-14374190D02*
X16709286Y-14374190D01*
X16709286Y-14374190D02*
X16728333Y-14383714D01*
X16728333Y-14383714D02*
X16737857Y-14402762D01*
X16737857Y-14402762D02*
X16737857Y-14507524D01*
X17128333Y-14298000D02*
X16956905Y-14555143D01*
X17385476Y-14307524D02*
X17404524Y-14307524D01*
X17404524Y-14307524D02*
X17423572Y-14317048D01*
X17423572Y-14317048D02*
X17433095Y-14326571D01*
X17433095Y-14326571D02*
X17442619Y-14345619D01*
X17442619Y-14345619D02*
X17452143Y-14383714D01*
X17452143Y-14383714D02*
X17452143Y-14431333D01*
X17452143Y-14431333D02*
X17442619Y-14469428D01*
X17442619Y-14469428D02*
X17433095Y-14488476D01*
X17433095Y-14488476D02*
X17423572Y-14498000D01*
X17423572Y-14498000D02*
X17404524Y-14507524D01*
X17404524Y-14507524D02*
X17385476Y-14507524D01*
X17385476Y-14507524D02*
X17366429Y-14498000D01*
X17366429Y-14498000D02*
X17356905Y-14488476D01*
X17356905Y-14488476D02*
X17347381Y-14469428D01*
X17347381Y-14469428D02*
X17337857Y-14431333D01*
X17337857Y-14431333D02*
X17337857Y-14383714D01*
X17337857Y-14383714D02*
X17347381Y-14345619D01*
X17347381Y-14345619D02*
X17356905Y-14326571D01*
X17356905Y-14326571D02*
X17366429Y-14317048D01*
X17366429Y-14317048D02*
X17385476Y-14307524D01*
X17537857Y-14488476D02*
X17547381Y-14498000D01*
X17547381Y-14498000D02*
X17537857Y-14507524D01*
X17537857Y-14507524D02*
X17528334Y-14498000D01*
X17528334Y-14498000D02*
X17537857Y-14488476D01*
X17537857Y-14488476D02*
X17537857Y-14507524D01*
X17671191Y-14307524D02*
X17690238Y-14307524D01*
X17690238Y-14307524D02*
X17709286Y-14317048D01*
X17709286Y-14317048D02*
X17718810Y-14326571D01*
X17718810Y-14326571D02*
X17728334Y-14345619D01*
X17728334Y-14345619D02*
X17737857Y-14383714D01*
X17737857Y-14383714D02*
X17737857Y-14431333D01*
X17737857Y-14431333D02*
X17728334Y-14469428D01*
X17728334Y-14469428D02*
X17718810Y-14488476D01*
X17718810Y-14488476D02*
X17709286Y-14498000D01*
X17709286Y-14498000D02*
X17690238Y-14507524D01*
X17690238Y-14507524D02*
X17671191Y-14507524D01*
X17671191Y-14507524D02*
X17652143Y-14498000D01*
X17652143Y-14498000D02*
X17642619Y-14488476D01*
X17642619Y-14488476D02*
X17633095Y-14469428D01*
X17633095Y-14469428D02*
X17623572Y-14431333D01*
X17623572Y-14431333D02*
X17623572Y-14383714D01*
X17623572Y-14383714D02*
X17633095Y-14345619D01*
X17633095Y-14345619D02*
X17642619Y-14326571D01*
X17642619Y-14326571D02*
X17652143Y-14317048D01*
X17652143Y-14317048D02*
X17671191Y-14307524D01*
X17833095Y-14507524D02*
X17871191Y-14507524D01*
X17871191Y-14507524D02*
X17890238Y-14498000D01*
X17890238Y-14498000D02*
X17899762Y-14488476D01*
X17899762Y-14488476D02*
X17918810Y-14459905D01*
X17918810Y-14459905D02*
X17928334Y-14421809D01*
X17928334Y-14421809D02*
X17928334Y-14345619D01*
X17928334Y-14345619D02*
X17918810Y-14326571D01*
X17918810Y-14326571D02*
X17909286Y-14317048D01*
X17909286Y-14317048D02*
X17890238Y-14307524D01*
X17890238Y-14307524D02*
X17852143Y-14307524D01*
X17852143Y-14307524D02*
X17833095Y-14317048D01*
X17833095Y-14317048D02*
X17823572Y-14326571D01*
X17823572Y-14326571D02*
X17814048Y-14345619D01*
X17814048Y-14345619D02*
X17814048Y-14393238D01*
X17814048Y-14393238D02*
X17823572Y-14412286D01*
X17823572Y-14412286D02*
X17833095Y-14421809D01*
X17833095Y-14421809D02*
X17852143Y-14431333D01*
X17852143Y-14431333D02*
X17890238Y-14431333D01*
X17890238Y-14431333D02*
X17909286Y-14421809D01*
X17909286Y-14421809D02*
X17918810Y-14412286D01*
X17918810Y-14412286D02*
X17928334Y-14393238D01*
X18099762Y-14374190D02*
X18099762Y-14507524D01*
X18052143Y-14298000D02*
X18004524Y-14440857D01*
X18004524Y-14440857D02*
X18128334Y-14440857D01*
X18299762Y-14307524D02*
X18204524Y-14307524D01*
X18204524Y-14307524D02*
X18195000Y-14402762D01*
X18195000Y-14402762D02*
X18204524Y-14393238D01*
X18204524Y-14393238D02*
X18223572Y-14383714D01*
X18223572Y-14383714D02*
X18271191Y-14383714D01*
X18271191Y-14383714D02*
X18290238Y-14393238D01*
X18290238Y-14393238D02*
X18299762Y-14402762D01*
X18299762Y-14402762D02*
X18309286Y-14421809D01*
X18309286Y-14421809D02*
X18309286Y-14469428D01*
X18309286Y-14469428D02*
X18299762Y-14488476D01*
X18299762Y-14488476D02*
X18290238Y-14498000D01*
X18290238Y-14498000D02*
X18271191Y-14507524D01*
X18271191Y-14507524D02*
X18223572Y-14507524D01*
X18223572Y-14507524D02*
X18204524Y-14498000D01*
X18204524Y-14498000D02*
X18195000Y-14488476D01*
X18385476Y-14307524D02*
X18385476Y-14345619D01*
X18461667Y-14307524D02*
X18461667Y-14345619D01*
X18756905Y-14583714D02*
X18747381Y-14574190D01*
X18747381Y-14574190D02*
X18728334Y-14545619D01*
X18728334Y-14545619D02*
X18718810Y-14526571D01*
X18718810Y-14526571D02*
X18709286Y-14498000D01*
X18709286Y-14498000D02*
X18699762Y-14450381D01*
X18699762Y-14450381D02*
X18699762Y-14412286D01*
X18699762Y-14412286D02*
X18709286Y-14364667D01*
X18709286Y-14364667D02*
X18718810Y-14336095D01*
X18718810Y-14336095D02*
X18728334Y-14317048D01*
X18728334Y-14317048D02*
X18747381Y-14288476D01*
X18747381Y-14288476D02*
X18756905Y-14278952D01*
X18937857Y-14507524D02*
X18823572Y-14507524D01*
X18880715Y-14507524D02*
X18880715Y-14307524D01*
X18880715Y-14307524D02*
X18861667Y-14336095D01*
X18861667Y-14336095D02*
X18842619Y-14355143D01*
X18842619Y-14355143D02*
X18823572Y-14364667D01*
X19014048Y-14326571D02*
X19023572Y-14317048D01*
X19023572Y-14317048D02*
X19042619Y-14307524D01*
X19042619Y-14307524D02*
X19090238Y-14307524D01*
X19090238Y-14307524D02*
X19109286Y-14317048D01*
X19109286Y-14317048D02*
X19118810Y-14326571D01*
X19118810Y-14326571D02*
X19128334Y-14345619D01*
X19128334Y-14345619D02*
X19128334Y-14364667D01*
X19128334Y-14364667D02*
X19118810Y-14393238D01*
X19118810Y-14393238D02*
X19004524Y-14507524D01*
X19004524Y-14507524D02*
X19128334Y-14507524D01*
X19366429Y-14507524D02*
X19366429Y-14307524D01*
X19452143Y-14507524D02*
X19452143Y-14402762D01*
X19452143Y-14402762D02*
X19442619Y-14383714D01*
X19442619Y-14383714D02*
X19423572Y-14374190D01*
X19423572Y-14374190D02*
X19395000Y-14374190D01*
X19395000Y-14374190D02*
X19375953Y-14383714D01*
X19375953Y-14383714D02*
X19366429Y-14393238D01*
X19575953Y-14507524D02*
X19556905Y-14498000D01*
X19556905Y-14498000D02*
X19547381Y-14488476D01*
X19547381Y-14488476D02*
X19537858Y-14469428D01*
X19537858Y-14469428D02*
X19537858Y-14412286D01*
X19537858Y-14412286D02*
X19547381Y-14393238D01*
X19547381Y-14393238D02*
X19556905Y-14383714D01*
X19556905Y-14383714D02*
X19575953Y-14374190D01*
X19575953Y-14374190D02*
X19604524Y-14374190D01*
X19604524Y-14374190D02*
X19623572Y-14383714D01*
X19623572Y-14383714D02*
X19633096Y-14393238D01*
X19633096Y-14393238D02*
X19642619Y-14412286D01*
X19642619Y-14412286D02*
X19642619Y-14469428D01*
X19642619Y-14469428D02*
X19633096Y-14488476D01*
X19633096Y-14488476D02*
X19623572Y-14498000D01*
X19623572Y-14498000D02*
X19604524Y-14507524D01*
X19604524Y-14507524D02*
X19575953Y-14507524D01*
X19756905Y-14507524D02*
X19737858Y-14498000D01*
X19737858Y-14498000D02*
X19728334Y-14478952D01*
X19728334Y-14478952D02*
X19728334Y-14307524D01*
X19909286Y-14498000D02*
X19890239Y-14507524D01*
X19890239Y-14507524D02*
X19852143Y-14507524D01*
X19852143Y-14507524D02*
X19833096Y-14498000D01*
X19833096Y-14498000D02*
X19823572Y-14478952D01*
X19823572Y-14478952D02*
X19823572Y-14402762D01*
X19823572Y-14402762D02*
X19833096Y-14383714D01*
X19833096Y-14383714D02*
X19852143Y-14374190D01*
X19852143Y-14374190D02*
X19890239Y-14374190D01*
X19890239Y-14374190D02*
X19909286Y-14383714D01*
X19909286Y-14383714D02*
X19918810Y-14402762D01*
X19918810Y-14402762D02*
X19918810Y-14421809D01*
X19918810Y-14421809D02*
X19823572Y-14440857D01*
X19995000Y-14498000D02*
X20014048Y-14507524D01*
X20014048Y-14507524D02*
X20052143Y-14507524D01*
X20052143Y-14507524D02*
X20071191Y-14498000D01*
X20071191Y-14498000D02*
X20080715Y-14478952D01*
X20080715Y-14478952D02*
X20080715Y-14469428D01*
X20080715Y-14469428D02*
X20071191Y-14450381D01*
X20071191Y-14450381D02*
X20052143Y-14440857D01*
X20052143Y-14440857D02*
X20023572Y-14440857D01*
X20023572Y-14440857D02*
X20004524Y-14431333D01*
X20004524Y-14431333D02*
X19995000Y-14412286D01*
X19995000Y-14412286D02*
X19995000Y-14402762D01*
X19995000Y-14402762D02*
X20004524Y-14383714D01*
X20004524Y-14383714D02*
X20023572Y-14374190D01*
X20023572Y-14374190D02*
X20052143Y-14374190D01*
X20052143Y-14374190D02*
X20071191Y-14383714D01*
X20147381Y-14583714D02*
X20156905Y-14574190D01*
X20156905Y-14574190D02*
X20175953Y-14545619D01*
X20175953Y-14545619D02*
X20185477Y-14526571D01*
X20185477Y-14526571D02*
X20195000Y-14498000D01*
X20195000Y-14498000D02*
X20204524Y-14450381D01*
X20204524Y-14450381D02*
X20204524Y-14412286D01*
X20204524Y-14412286D02*
X20195000Y-14364667D01*
X20195000Y-14364667D02*
X20185477Y-14336095D01*
X20185477Y-14336095D02*
X20175953Y-14317048D01*
X20175953Y-14317048D02*
X20156905Y-14288476D01*
X20156905Y-14288476D02*
X20147381Y-14278952D01*
X14995000Y-14635000D02*
X15195000Y-14835000D01*
X15195000Y-14635000D02*
X14995000Y-14835000D01*
X15095000Y-14635000D02*
X15095000Y-14835000D01*
X14995000Y-14735000D02*
X15195000Y-14735000D01*
X15423571Y-14627524D02*
X15547381Y-14627524D01*
X15547381Y-14627524D02*
X15480714Y-14703714D01*
X15480714Y-14703714D02*
X15509286Y-14703714D01*
X15509286Y-14703714D02*
X15528333Y-14713238D01*
X15528333Y-14713238D02*
X15537857Y-14722762D01*
X15537857Y-14722762D02*
X15547381Y-14741809D01*
X15547381Y-14741809D02*
X15547381Y-14789428D01*
X15547381Y-14789428D02*
X15537857Y-14808476D01*
X15537857Y-14808476D02*
X15528333Y-14818000D01*
X15528333Y-14818000D02*
X15509286Y-14827524D01*
X15509286Y-14827524D02*
X15452143Y-14827524D01*
X15452143Y-14827524D02*
X15433095Y-14818000D01*
X15433095Y-14818000D02*
X15423571Y-14808476D01*
X15633095Y-14808476D02*
X15642619Y-14818000D01*
X15642619Y-14818000D02*
X15633095Y-14827524D01*
X15633095Y-14827524D02*
X15623571Y-14818000D01*
X15623571Y-14818000D02*
X15633095Y-14808476D01*
X15633095Y-14808476D02*
X15633095Y-14827524D01*
X15709286Y-14627524D02*
X15833095Y-14627524D01*
X15833095Y-14627524D02*
X15766428Y-14703714D01*
X15766428Y-14703714D02*
X15795000Y-14703714D01*
X15795000Y-14703714D02*
X15814048Y-14713238D01*
X15814048Y-14713238D02*
X15823571Y-14722762D01*
X15823571Y-14722762D02*
X15833095Y-14741809D01*
X15833095Y-14741809D02*
X15833095Y-14789428D01*
X15833095Y-14789428D02*
X15823571Y-14808476D01*
X15823571Y-14808476D02*
X15814048Y-14818000D01*
X15814048Y-14818000D02*
X15795000Y-14827524D01*
X15795000Y-14827524D02*
X15737857Y-14827524D01*
X15737857Y-14827524D02*
X15718809Y-14818000D01*
X15718809Y-14818000D02*
X15709286Y-14808476D01*
X15956905Y-14627524D02*
X15975952Y-14627524D01*
X15975952Y-14627524D02*
X15995000Y-14637048D01*
X15995000Y-14637048D02*
X16004524Y-14646571D01*
X16004524Y-14646571D02*
X16014048Y-14665619D01*
X16014048Y-14665619D02*
X16023571Y-14703714D01*
X16023571Y-14703714D02*
X16023571Y-14751333D01*
X16023571Y-14751333D02*
X16014048Y-14789428D01*
X16014048Y-14789428D02*
X16004524Y-14808476D01*
X16004524Y-14808476D02*
X15995000Y-14818000D01*
X15995000Y-14818000D02*
X15975952Y-14827524D01*
X15975952Y-14827524D02*
X15956905Y-14827524D01*
X15956905Y-14827524D02*
X15937857Y-14818000D01*
X15937857Y-14818000D02*
X15928333Y-14808476D01*
X15928333Y-14808476D02*
X15918809Y-14789428D01*
X15918809Y-14789428D02*
X15909286Y-14751333D01*
X15909286Y-14751333D02*
X15909286Y-14703714D01*
X15909286Y-14703714D02*
X15918809Y-14665619D01*
X15918809Y-14665619D02*
X15928333Y-14646571D01*
X15928333Y-14646571D02*
X15937857Y-14637048D01*
X15937857Y-14637048D02*
X15956905Y-14627524D01*
X16147381Y-14627524D02*
X16166429Y-14627524D01*
X16166429Y-14627524D02*
X16185476Y-14637048D01*
X16185476Y-14637048D02*
X16195000Y-14646571D01*
X16195000Y-14646571D02*
X16204524Y-14665619D01*
X16204524Y-14665619D02*
X16214048Y-14703714D01*
X16214048Y-14703714D02*
X16214048Y-14751333D01*
X16214048Y-14751333D02*
X16204524Y-14789428D01*
X16204524Y-14789428D02*
X16195000Y-14808476D01*
X16195000Y-14808476D02*
X16185476Y-14818000D01*
X16185476Y-14818000D02*
X16166429Y-14827524D01*
X16166429Y-14827524D02*
X16147381Y-14827524D01*
X16147381Y-14827524D02*
X16128333Y-14818000D01*
X16128333Y-14818000D02*
X16118809Y-14808476D01*
X16118809Y-14808476D02*
X16109286Y-14789428D01*
X16109286Y-14789428D02*
X16099762Y-14751333D01*
X16099762Y-14751333D02*
X16099762Y-14703714D01*
X16099762Y-14703714D02*
X16109286Y-14665619D01*
X16109286Y-14665619D02*
X16118809Y-14646571D01*
X16118809Y-14646571D02*
X16128333Y-14637048D01*
X16128333Y-14637048D02*
X16147381Y-14627524D01*
X16299762Y-14827524D02*
X16299762Y-14694190D01*
X16299762Y-14713238D02*
X16309286Y-14703714D01*
X16309286Y-14703714D02*
X16328333Y-14694190D01*
X16328333Y-14694190D02*
X16356905Y-14694190D01*
X16356905Y-14694190D02*
X16375952Y-14703714D01*
X16375952Y-14703714D02*
X16385476Y-14722762D01*
X16385476Y-14722762D02*
X16385476Y-14827524D01*
X16385476Y-14722762D02*
X16395000Y-14703714D01*
X16395000Y-14703714D02*
X16414048Y-14694190D01*
X16414048Y-14694190D02*
X16442619Y-14694190D01*
X16442619Y-14694190D02*
X16461667Y-14703714D01*
X16461667Y-14703714D02*
X16471190Y-14722762D01*
X16471190Y-14722762D02*
X16471190Y-14827524D01*
X16566429Y-14827524D02*
X16566429Y-14694190D01*
X16566429Y-14713238D02*
X16575952Y-14703714D01*
X16575952Y-14703714D02*
X16595000Y-14694190D01*
X16595000Y-14694190D02*
X16623571Y-14694190D01*
X16623571Y-14694190D02*
X16642619Y-14703714D01*
X16642619Y-14703714D02*
X16652143Y-14722762D01*
X16652143Y-14722762D02*
X16652143Y-14827524D01*
X16652143Y-14722762D02*
X16661667Y-14703714D01*
X16661667Y-14703714D02*
X16680714Y-14694190D01*
X16680714Y-14694190D02*
X16709286Y-14694190D01*
X16709286Y-14694190D02*
X16728333Y-14703714D01*
X16728333Y-14703714D02*
X16737857Y-14722762D01*
X16737857Y-14722762D02*
X16737857Y-14827524D01*
X17128333Y-14618000D02*
X16956905Y-14875143D01*
X17385476Y-14627524D02*
X17404524Y-14627524D01*
X17404524Y-14627524D02*
X17423572Y-14637048D01*
X17423572Y-14637048D02*
X17433095Y-14646571D01*
X17433095Y-14646571D02*
X17442619Y-14665619D01*
X17442619Y-14665619D02*
X17452143Y-14703714D01*
X17452143Y-14703714D02*
X17452143Y-14751333D01*
X17452143Y-14751333D02*
X17442619Y-14789428D01*
X17442619Y-14789428D02*
X17433095Y-14808476D01*
X17433095Y-14808476D02*
X17423572Y-14818000D01*
X17423572Y-14818000D02*
X17404524Y-14827524D01*
X17404524Y-14827524D02*
X17385476Y-14827524D01*
X17385476Y-14827524D02*
X17366429Y-14818000D01*
X17366429Y-14818000D02*
X17356905Y-14808476D01*
X17356905Y-14808476D02*
X17347381Y-14789428D01*
X17347381Y-14789428D02*
X17337857Y-14751333D01*
X17337857Y-14751333D02*
X17337857Y-14703714D01*
X17337857Y-14703714D02*
X17347381Y-14665619D01*
X17347381Y-14665619D02*
X17356905Y-14646571D01*
X17356905Y-14646571D02*
X17366429Y-14637048D01*
X17366429Y-14637048D02*
X17385476Y-14627524D01*
X17537857Y-14808476D02*
X17547381Y-14818000D01*
X17547381Y-14818000D02*
X17537857Y-14827524D01*
X17537857Y-14827524D02*
X17528334Y-14818000D01*
X17528334Y-14818000D02*
X17537857Y-14808476D01*
X17537857Y-14808476D02*
X17537857Y-14827524D01*
X17737857Y-14827524D02*
X17623572Y-14827524D01*
X17680714Y-14827524D02*
X17680714Y-14627524D01*
X17680714Y-14627524D02*
X17661667Y-14656095D01*
X17661667Y-14656095D02*
X17642619Y-14675143D01*
X17642619Y-14675143D02*
X17623572Y-14684667D01*
X17814048Y-14646571D02*
X17823572Y-14637048D01*
X17823572Y-14637048D02*
X17842619Y-14627524D01*
X17842619Y-14627524D02*
X17890238Y-14627524D01*
X17890238Y-14627524D02*
X17909286Y-14637048D01*
X17909286Y-14637048D02*
X17918810Y-14646571D01*
X17918810Y-14646571D02*
X17928334Y-14665619D01*
X17928334Y-14665619D02*
X17928334Y-14684667D01*
X17928334Y-14684667D02*
X17918810Y-14713238D01*
X17918810Y-14713238D02*
X17804524Y-14827524D01*
X17804524Y-14827524D02*
X17928334Y-14827524D01*
X18023572Y-14827524D02*
X18061667Y-14827524D01*
X18061667Y-14827524D02*
X18080715Y-14818000D01*
X18080715Y-14818000D02*
X18090238Y-14808476D01*
X18090238Y-14808476D02*
X18109286Y-14779905D01*
X18109286Y-14779905D02*
X18118810Y-14741809D01*
X18118810Y-14741809D02*
X18118810Y-14665619D01*
X18118810Y-14665619D02*
X18109286Y-14646571D01*
X18109286Y-14646571D02*
X18099762Y-14637048D01*
X18099762Y-14637048D02*
X18080715Y-14627524D01*
X18080715Y-14627524D02*
X18042619Y-14627524D01*
X18042619Y-14627524D02*
X18023572Y-14637048D01*
X18023572Y-14637048D02*
X18014048Y-14646571D01*
X18014048Y-14646571D02*
X18004524Y-14665619D01*
X18004524Y-14665619D02*
X18004524Y-14713238D01*
X18004524Y-14713238D02*
X18014048Y-14732286D01*
X18014048Y-14732286D02*
X18023572Y-14741809D01*
X18023572Y-14741809D02*
X18042619Y-14751333D01*
X18042619Y-14751333D02*
X18080715Y-14751333D01*
X18080715Y-14751333D02*
X18099762Y-14741809D01*
X18099762Y-14741809D02*
X18109286Y-14732286D01*
X18109286Y-14732286D02*
X18118810Y-14713238D01*
X18214048Y-14827524D02*
X18252143Y-14827524D01*
X18252143Y-14827524D02*
X18271191Y-14818000D01*
X18271191Y-14818000D02*
X18280715Y-14808476D01*
X18280715Y-14808476D02*
X18299762Y-14779905D01*
X18299762Y-14779905D02*
X18309286Y-14741809D01*
X18309286Y-14741809D02*
X18309286Y-14665619D01*
X18309286Y-14665619D02*
X18299762Y-14646571D01*
X18299762Y-14646571D02*
X18290238Y-14637048D01*
X18290238Y-14637048D02*
X18271191Y-14627524D01*
X18271191Y-14627524D02*
X18233095Y-14627524D01*
X18233095Y-14627524D02*
X18214048Y-14637048D01*
X18214048Y-14637048D02*
X18204524Y-14646571D01*
X18204524Y-14646571D02*
X18195000Y-14665619D01*
X18195000Y-14665619D02*
X18195000Y-14713238D01*
X18195000Y-14713238D02*
X18204524Y-14732286D01*
X18204524Y-14732286D02*
X18214048Y-14741809D01*
X18214048Y-14741809D02*
X18233095Y-14751333D01*
X18233095Y-14751333D02*
X18271191Y-14751333D01*
X18271191Y-14751333D02*
X18290238Y-14741809D01*
X18290238Y-14741809D02*
X18299762Y-14732286D01*
X18299762Y-14732286D02*
X18309286Y-14713238D01*
X18385476Y-14627524D02*
X18385476Y-14665619D01*
X18461667Y-14627524D02*
X18461667Y-14665619D01*
X18756905Y-14903714D02*
X18747381Y-14894190D01*
X18747381Y-14894190D02*
X18728334Y-14865619D01*
X18728334Y-14865619D02*
X18718810Y-14846571D01*
X18718810Y-14846571D02*
X18709286Y-14818000D01*
X18709286Y-14818000D02*
X18699762Y-14770381D01*
X18699762Y-14770381D02*
X18699762Y-14732286D01*
X18699762Y-14732286D02*
X18709286Y-14684667D01*
X18709286Y-14684667D02*
X18718810Y-14656095D01*
X18718810Y-14656095D02*
X18728334Y-14637048D01*
X18728334Y-14637048D02*
X18747381Y-14608476D01*
X18747381Y-14608476D02*
X18756905Y-14598952D01*
X18823572Y-14646571D02*
X18833096Y-14637048D01*
X18833096Y-14637048D02*
X18852143Y-14627524D01*
X18852143Y-14627524D02*
X18899762Y-14627524D01*
X18899762Y-14627524D02*
X18918810Y-14637048D01*
X18918810Y-14637048D02*
X18928334Y-14646571D01*
X18928334Y-14646571D02*
X18937857Y-14665619D01*
X18937857Y-14665619D02*
X18937857Y-14684667D01*
X18937857Y-14684667D02*
X18928334Y-14713238D01*
X18928334Y-14713238D02*
X18814048Y-14827524D01*
X18814048Y-14827524D02*
X18937857Y-14827524D01*
X19061667Y-14627524D02*
X19080715Y-14627524D01*
X19080715Y-14627524D02*
X19099762Y-14637048D01*
X19099762Y-14637048D02*
X19109286Y-14646571D01*
X19109286Y-14646571D02*
X19118810Y-14665619D01*
X19118810Y-14665619D02*
X19128334Y-14703714D01*
X19128334Y-14703714D02*
X19128334Y-14751333D01*
X19128334Y-14751333D02*
X19118810Y-14789428D01*
X19118810Y-14789428D02*
X19109286Y-14808476D01*
X19109286Y-14808476D02*
X19099762Y-14818000D01*
X19099762Y-14818000D02*
X19080715Y-14827524D01*
X19080715Y-14827524D02*
X19061667Y-14827524D01*
X19061667Y-14827524D02*
X19042619Y-14818000D01*
X19042619Y-14818000D02*
X19033096Y-14808476D01*
X19033096Y-14808476D02*
X19023572Y-14789428D01*
X19023572Y-14789428D02*
X19014048Y-14751333D01*
X19014048Y-14751333D02*
X19014048Y-14703714D01*
X19014048Y-14703714D02*
X19023572Y-14665619D01*
X19023572Y-14665619D02*
X19033096Y-14646571D01*
X19033096Y-14646571D02*
X19042619Y-14637048D01*
X19042619Y-14637048D02*
X19061667Y-14627524D01*
X19366429Y-14827524D02*
X19366429Y-14627524D01*
X19452143Y-14827524D02*
X19452143Y-14722762D01*
X19452143Y-14722762D02*
X19442619Y-14703714D01*
X19442619Y-14703714D02*
X19423572Y-14694190D01*
X19423572Y-14694190D02*
X19395000Y-14694190D01*
X19395000Y-14694190D02*
X19375953Y-14703714D01*
X19375953Y-14703714D02*
X19366429Y-14713238D01*
X19575953Y-14827524D02*
X19556905Y-14818000D01*
X19556905Y-14818000D02*
X19547381Y-14808476D01*
X19547381Y-14808476D02*
X19537858Y-14789428D01*
X19537858Y-14789428D02*
X19537858Y-14732286D01*
X19537858Y-14732286D02*
X19547381Y-14713238D01*
X19547381Y-14713238D02*
X19556905Y-14703714D01*
X19556905Y-14703714D02*
X19575953Y-14694190D01*
X19575953Y-14694190D02*
X19604524Y-14694190D01*
X19604524Y-14694190D02*
X19623572Y-14703714D01*
X19623572Y-14703714D02*
X19633096Y-14713238D01*
X19633096Y-14713238D02*
X19642619Y-14732286D01*
X19642619Y-14732286D02*
X19642619Y-14789428D01*
X19642619Y-14789428D02*
X19633096Y-14808476D01*
X19633096Y-14808476D02*
X19623572Y-14818000D01*
X19623572Y-14818000D02*
X19604524Y-14827524D01*
X19604524Y-14827524D02*
X19575953Y-14827524D01*
X19756905Y-14827524D02*
X19737858Y-14818000D01*
X19737858Y-14818000D02*
X19728334Y-14798952D01*
X19728334Y-14798952D02*
X19728334Y-14627524D01*
X19909286Y-14818000D02*
X19890239Y-14827524D01*
X19890239Y-14827524D02*
X19852143Y-14827524D01*
X19852143Y-14827524D02*
X19833096Y-14818000D01*
X19833096Y-14818000D02*
X19823572Y-14798952D01*
X19823572Y-14798952D02*
X19823572Y-14722762D01*
X19823572Y-14722762D02*
X19833096Y-14703714D01*
X19833096Y-14703714D02*
X19852143Y-14694190D01*
X19852143Y-14694190D02*
X19890239Y-14694190D01*
X19890239Y-14694190D02*
X19909286Y-14703714D01*
X19909286Y-14703714D02*
X19918810Y-14722762D01*
X19918810Y-14722762D02*
X19918810Y-14741809D01*
X19918810Y-14741809D02*
X19823572Y-14760857D01*
X19995000Y-14818000D02*
X20014048Y-14827524D01*
X20014048Y-14827524D02*
X20052143Y-14827524D01*
X20052143Y-14827524D02*
X20071191Y-14818000D01*
X20071191Y-14818000D02*
X20080715Y-14798952D01*
X20080715Y-14798952D02*
X20080715Y-14789428D01*
X20080715Y-14789428D02*
X20071191Y-14770381D01*
X20071191Y-14770381D02*
X20052143Y-14760857D01*
X20052143Y-14760857D02*
X20023572Y-14760857D01*
X20023572Y-14760857D02*
X20004524Y-14751333D01*
X20004524Y-14751333D02*
X19995000Y-14732286D01*
X19995000Y-14732286D02*
X19995000Y-14722762D01*
X19995000Y-14722762D02*
X20004524Y-14703714D01*
X20004524Y-14703714D02*
X20023572Y-14694190D01*
X20023572Y-14694190D02*
X20052143Y-14694190D01*
X20052143Y-14694190D02*
X20071191Y-14703714D01*
X20147381Y-14903714D02*
X20156905Y-14894190D01*
X20156905Y-14894190D02*
X20175953Y-14865619D01*
X20175953Y-14865619D02*
X20185477Y-14846571D01*
X20185477Y-14846571D02*
X20195000Y-14818000D01*
X20195000Y-14818000D02*
X20204524Y-14770381D01*
X20204524Y-14770381D02*
X20204524Y-14732286D01*
X20204524Y-14732286D02*
X20195000Y-14684667D01*
X20195000Y-14684667D02*
X20185477Y-14656095D01*
X20185477Y-14656095D02*
X20175953Y-14637048D01*
X20175953Y-14637048D02*
X20156905Y-14608476D01*
X20156905Y-14608476D02*
X20147381Y-14598952D01*
M02*
