G04 #@! TF.GenerationSoftware,KiCad,Pcbnew,7.0.1*
G04 #@! TF.CreationDate,2023-05-14T23:30:35+02:00*
G04 #@! TF.ProjectId,K_relay,4b5f7265-6c61-4792-9e6b-696361645f70,rev?*
G04 #@! TF.SameCoordinates,Original*
G04 #@! TF.FileFunction,Paste,Bot*
G04 #@! TF.FilePolarity,Positive*
%FSLAX46Y46*%
G04 Gerber Fmt 4.6, Leading zero omitted, Abs format (unit mm)*
G04 Created by KiCad (PCBNEW 7.0.1) date 2023-05-14 23:30:35*
%MOMM*%
%LPD*%
G01*
G04 APERTURE LIST*
G04 Aperture macros list*
%AMRoundRect*
0 Rectangle with rounded corners*
0 $1 Rounding radius*
0 $2 $3 $4 $5 $6 $7 $8 $9 X,Y pos of 4 corners*
0 Add a 4 corners polygon primitive as box body*
4,1,4,$2,$3,$4,$5,$6,$7,$8,$9,$2,$3,0*
0 Add four circle primitives for the rounded corners*
1,1,$1+$1,$2,$3*
1,1,$1+$1,$4,$5*
1,1,$1+$1,$6,$7*
1,1,$1+$1,$8,$9*
0 Add four rect primitives between the rounded corners*
20,1,$1+$1,$2,$3,$4,$5,0*
20,1,$1+$1,$4,$5,$6,$7,0*
20,1,$1+$1,$6,$7,$8,$9,0*
20,1,$1+$1,$8,$9,$2,$3,0*%
G04 Aperture macros list end*
%ADD10RoundRect,0.250000X-0.337500X-0.475000X0.337500X-0.475000X0.337500X0.475000X-0.337500X0.475000X0*%
%ADD11RoundRect,0.250000X0.250000X-0.250000X0.250000X0.250000X-0.250000X0.250000X-0.250000X-0.250000X0*%
%ADD12RoundRect,0.250000X-0.250000X0.250000X-0.250000X-0.250000X0.250000X-0.250000X0.250000X0.250000X0*%
%ADD13RoundRect,0.250000X-0.250000X-0.250000X0.250000X-0.250000X0.250000X0.250000X-0.250000X0.250000X0*%
%ADD14RoundRect,0.250000X0.337500X0.475000X-0.337500X0.475000X-0.337500X-0.475000X0.337500X-0.475000X0*%
%ADD15RoundRect,0.250000X-0.475000X0.337500X-0.475000X-0.337500X0.475000X-0.337500X0.475000X0.337500X0*%
%ADD16RoundRect,0.250000X0.565685X0.070711X0.070711X0.565685X-0.565685X-0.070711X-0.070711X-0.565685X0*%
%ADD17RoundRect,0.250000X0.475000X-0.337500X0.475000X0.337500X-0.475000X0.337500X-0.475000X-0.337500X0*%
%ADD18RoundRect,0.250000X-0.565685X-0.070711X-0.070711X-0.565685X0.565685X0.070711X0.070711X0.565685X0*%
G04 APERTURE END LIST*
D10*
X231575000Y-92000000D03*
X229500000Y-92000000D03*
D11*
X155500000Y-85250000D03*
X155500000Y-82750000D03*
D12*
X251000000Y-97750000D03*
X251000000Y-100250000D03*
D13*
X189250000Y-63000000D03*
X191750000Y-63000000D03*
D14*
X248537500Y-103000000D03*
X246462500Y-103000000D03*
D15*
X238000000Y-57962500D03*
X238000000Y-60037500D03*
D12*
X240000000Y-62250000D03*
X240000000Y-64750000D03*
D16*
X241207107Y-68207107D03*
X239792893Y-66792893D03*
D14*
X224037500Y-80000000D03*
X221962500Y-80000000D03*
X224037500Y-88000000D03*
X221962500Y-88000000D03*
D17*
X240500000Y-49537500D03*
X240500000Y-47462500D03*
D18*
X237292893Y-69292893D03*
X238707107Y-70707107D03*
D14*
X239537500Y-92000000D03*
X237462500Y-92000000D03*
X248575000Y-95500000D03*
X246500000Y-95500000D03*
D10*
X249462500Y-89000000D03*
X251537500Y-89000000D03*
X157962500Y-88000000D03*
X160037500Y-88000000D03*
D17*
X233000000Y-49537500D03*
X233000000Y-47462500D03*
D15*
X236000000Y-57962500D03*
X236000000Y-60037500D03*
D10*
X239962500Y-60500000D03*
X242037500Y-60500000D03*
D17*
X235500000Y-49537500D03*
X235500000Y-47462500D03*
D15*
X232500000Y-57962500D03*
X232500000Y-60037500D03*
D12*
X226500000Y-82750000D03*
X226500000Y-85250000D03*
D15*
X247500000Y-83462500D03*
X247500000Y-85537500D03*
D10*
X157962500Y-80000000D03*
X160037500Y-80000000D03*
D15*
X186500000Y-65462500D03*
X186500000Y-67537500D03*
X194000000Y-65462500D03*
X194000000Y-67537500D03*
D14*
X235537500Y-92000000D03*
X233462500Y-92000000D03*
M02*
