G04 #@! TF.GenerationSoftware,KiCad,Pcbnew,7.0.1*
G04 #@! TF.CreationDate,2023-05-14T23:30:35+02:00*
G04 #@! TF.ProjectId,K_relay,4b5f7265-6c61-4792-9e6b-696361645f70,rev?*
G04 #@! TF.SameCoordinates,Original*
G04 #@! TF.FileFunction,Legend,Bot*
G04 #@! TF.FilePolarity,Positive*
%FSLAX46Y46*%
G04 Gerber Fmt 4.6, Leading zero omitted, Abs format (unit mm)*
G04 Created by KiCad (PCBNEW 7.0.1) date 2023-05-14 23:30:35*
%MOMM*%
%LPD*%
G01*
G04 APERTURE LIST*
G04 Aperture macros list*
%AMRoundRect*
0 Rectangle with rounded corners*
0 $1 Rounding radius*
0 $2 $3 $4 $5 $6 $7 $8 $9 X,Y pos of 4 corners*
0 Add a 4 corners polygon primitive as box body*
4,1,4,$2,$3,$4,$5,$6,$7,$8,$9,$2,$3,0*
0 Add four circle primitives for the rounded corners*
1,1,$1+$1,$2,$3*
1,1,$1+$1,$4,$5*
1,1,$1+$1,$6,$7*
1,1,$1+$1,$8,$9*
0 Add four rect primitives between the rounded corners*
20,1,$1+$1,$2,$3,$4,$5,0*
20,1,$1+$1,$4,$5,$6,$7,0*
20,1,$1+$1,$6,$7,$8,$9,0*
20,1,$1+$1,$8,$9,$2,$3,0*%
G04 Aperture macros list end*
%ADD10C,0.150000*%
%ADD11C,0.370000*%
%ADD12C,0.120000*%
%ADD13C,0.300000*%
%ADD14R,1.950000X1.950000*%
%ADD15C,3.600000*%
%ADD16C,1.803400*%
%ADD17R,1.500000X1.500000*%
%ADD18C,1.500000*%
%ADD19C,1.998980*%
%ADD20C,2.499360*%
%ADD21RoundRect,0.250000X0.600000X-0.600000X0.600000X0.600000X-0.600000X0.600000X-0.600000X-0.600000X0*%
%ADD22C,1.700000*%
%ADD23RoundRect,0.250000X-0.337500X-0.475000X0.337500X-0.475000X0.337500X0.475000X-0.337500X0.475000X0*%
%ADD24RoundRect,0.250000X0.250000X-0.250000X0.250000X0.250000X-0.250000X0.250000X-0.250000X-0.250000X0*%
%ADD25RoundRect,0.250000X-0.250000X0.250000X-0.250000X-0.250000X0.250000X-0.250000X0.250000X0.250000X0*%
%ADD26RoundRect,0.250000X-0.250000X-0.250000X0.250000X-0.250000X0.250000X0.250000X-0.250000X0.250000X0*%
%ADD27RoundRect,0.250000X0.337500X0.475000X-0.337500X0.475000X-0.337500X-0.475000X0.337500X-0.475000X0*%
%ADD28C,6.000000*%
%ADD29RoundRect,0.250000X-0.475000X0.337500X-0.475000X-0.337500X0.475000X-0.337500X0.475000X0.337500X0*%
%ADD30RoundRect,0.250000X0.565685X0.070711X0.070711X0.565685X-0.565685X-0.070711X-0.070711X-0.565685X0*%
%ADD31RoundRect,0.250000X0.475000X-0.337500X0.475000X0.337500X-0.475000X0.337500X-0.475000X-0.337500X0*%
%ADD32RoundRect,0.250000X-0.565685X-0.070711X-0.070711X-0.565685X0.565685X0.070711X0.070711X0.565685X0*%
G04 APERTURE END LIST*
D10*
X231242857Y-90367380D02*
X231290476Y-90415000D01*
X231290476Y-90415000D02*
X231433333Y-90462619D01*
X231433333Y-90462619D02*
X231528571Y-90462619D01*
X231528571Y-90462619D02*
X231671428Y-90415000D01*
X231671428Y-90415000D02*
X231766666Y-90319761D01*
X231766666Y-90319761D02*
X231814285Y-90224523D01*
X231814285Y-90224523D02*
X231861904Y-90034047D01*
X231861904Y-90034047D02*
X231861904Y-89891190D01*
X231861904Y-89891190D02*
X231814285Y-89700714D01*
X231814285Y-89700714D02*
X231766666Y-89605476D01*
X231766666Y-89605476D02*
X231671428Y-89510238D01*
X231671428Y-89510238D02*
X231528571Y-89462619D01*
X231528571Y-89462619D02*
X231433333Y-89462619D01*
X231433333Y-89462619D02*
X231290476Y-89510238D01*
X231290476Y-89510238D02*
X231242857Y-89557857D01*
X230861904Y-89557857D02*
X230814285Y-89510238D01*
X230814285Y-89510238D02*
X230719047Y-89462619D01*
X230719047Y-89462619D02*
X230480952Y-89462619D01*
X230480952Y-89462619D02*
X230385714Y-89510238D01*
X230385714Y-89510238D02*
X230338095Y-89557857D01*
X230338095Y-89557857D02*
X230290476Y-89653095D01*
X230290476Y-89653095D02*
X230290476Y-89748333D01*
X230290476Y-89748333D02*
X230338095Y-89891190D01*
X230338095Y-89891190D02*
X230909523Y-90462619D01*
X230909523Y-90462619D02*
X230290476Y-90462619D01*
X229671428Y-89462619D02*
X229576190Y-89462619D01*
X229576190Y-89462619D02*
X229480952Y-89510238D01*
X229480952Y-89510238D02*
X229433333Y-89557857D01*
X229433333Y-89557857D02*
X229385714Y-89653095D01*
X229385714Y-89653095D02*
X229338095Y-89843571D01*
X229338095Y-89843571D02*
X229338095Y-90081666D01*
X229338095Y-90081666D02*
X229385714Y-90272142D01*
X229385714Y-90272142D02*
X229433333Y-90367380D01*
X229433333Y-90367380D02*
X229480952Y-90415000D01*
X229480952Y-90415000D02*
X229576190Y-90462619D01*
X229576190Y-90462619D02*
X229671428Y-90462619D01*
X229671428Y-90462619D02*
X229766666Y-90415000D01*
X229766666Y-90415000D02*
X229814285Y-90367380D01*
X229814285Y-90367380D02*
X229861904Y-90272142D01*
X229861904Y-90272142D02*
X229909523Y-90081666D01*
X229909523Y-90081666D02*
X229909523Y-89843571D01*
X229909523Y-89843571D02*
X229861904Y-89653095D01*
X229861904Y-89653095D02*
X229814285Y-89557857D01*
X229814285Y-89557857D02*
X229766666Y-89510238D01*
X229766666Y-89510238D02*
X229671428Y-89462619D01*
X157812619Y-83261905D02*
X156812619Y-83261905D01*
X156812619Y-83261905D02*
X156812619Y-83500000D01*
X156812619Y-83500000D02*
X156860238Y-83642857D01*
X156860238Y-83642857D02*
X156955476Y-83738095D01*
X156955476Y-83738095D02*
X157050714Y-83785714D01*
X157050714Y-83785714D02*
X157241190Y-83833333D01*
X157241190Y-83833333D02*
X157384047Y-83833333D01*
X157384047Y-83833333D02*
X157574523Y-83785714D01*
X157574523Y-83785714D02*
X157669761Y-83738095D01*
X157669761Y-83738095D02*
X157765000Y-83642857D01*
X157765000Y-83642857D02*
X157812619Y-83500000D01*
X157812619Y-83500000D02*
X157812619Y-83261905D01*
X156812619Y-84166667D02*
X156812619Y-84785714D01*
X156812619Y-84785714D02*
X157193571Y-84452381D01*
X157193571Y-84452381D02*
X157193571Y-84595238D01*
X157193571Y-84595238D02*
X157241190Y-84690476D01*
X157241190Y-84690476D02*
X157288809Y-84738095D01*
X157288809Y-84738095D02*
X157384047Y-84785714D01*
X157384047Y-84785714D02*
X157622142Y-84785714D01*
X157622142Y-84785714D02*
X157717380Y-84738095D01*
X157717380Y-84738095D02*
X157765000Y-84690476D01*
X157765000Y-84690476D02*
X157812619Y-84595238D01*
X157812619Y-84595238D02*
X157812619Y-84309524D01*
X157812619Y-84309524D02*
X157765000Y-84214286D01*
X157765000Y-84214286D02*
X157717380Y-84166667D01*
X249612619Y-98261905D02*
X248612619Y-98261905D01*
X248612619Y-98261905D02*
X248612619Y-98500000D01*
X248612619Y-98500000D02*
X248660238Y-98642857D01*
X248660238Y-98642857D02*
X248755476Y-98738095D01*
X248755476Y-98738095D02*
X248850714Y-98785714D01*
X248850714Y-98785714D02*
X249041190Y-98833333D01*
X249041190Y-98833333D02*
X249184047Y-98833333D01*
X249184047Y-98833333D02*
X249374523Y-98785714D01*
X249374523Y-98785714D02*
X249469761Y-98738095D01*
X249469761Y-98738095D02*
X249565000Y-98642857D01*
X249565000Y-98642857D02*
X249612619Y-98500000D01*
X249612619Y-98500000D02*
X249612619Y-98261905D01*
X248612619Y-99690476D02*
X248612619Y-99500000D01*
X248612619Y-99500000D02*
X248660238Y-99404762D01*
X248660238Y-99404762D02*
X248707857Y-99357143D01*
X248707857Y-99357143D02*
X248850714Y-99261905D01*
X248850714Y-99261905D02*
X249041190Y-99214286D01*
X249041190Y-99214286D02*
X249422142Y-99214286D01*
X249422142Y-99214286D02*
X249517380Y-99261905D01*
X249517380Y-99261905D02*
X249565000Y-99309524D01*
X249565000Y-99309524D02*
X249612619Y-99404762D01*
X249612619Y-99404762D02*
X249612619Y-99595238D01*
X249612619Y-99595238D02*
X249565000Y-99690476D01*
X249565000Y-99690476D02*
X249517380Y-99738095D01*
X249517380Y-99738095D02*
X249422142Y-99785714D01*
X249422142Y-99785714D02*
X249184047Y-99785714D01*
X249184047Y-99785714D02*
X249088809Y-99738095D01*
X249088809Y-99738095D02*
X249041190Y-99690476D01*
X249041190Y-99690476D02*
X248993571Y-99595238D01*
X248993571Y-99595238D02*
X248993571Y-99404762D01*
X248993571Y-99404762D02*
X249041190Y-99309524D01*
X249041190Y-99309524D02*
X249088809Y-99261905D01*
X249088809Y-99261905D02*
X249184047Y-99214286D01*
X191238094Y-65312619D02*
X191238094Y-64312619D01*
X191238094Y-64312619D02*
X190999999Y-64312619D01*
X190999999Y-64312619D02*
X190857142Y-64360238D01*
X190857142Y-64360238D02*
X190761904Y-64455476D01*
X190761904Y-64455476D02*
X190714285Y-64550714D01*
X190714285Y-64550714D02*
X190666666Y-64741190D01*
X190666666Y-64741190D02*
X190666666Y-64884047D01*
X190666666Y-64884047D02*
X190714285Y-65074523D01*
X190714285Y-65074523D02*
X190761904Y-65169761D01*
X190761904Y-65169761D02*
X190857142Y-65265000D01*
X190857142Y-65265000D02*
X190999999Y-65312619D01*
X190999999Y-65312619D02*
X191238094Y-65312619D01*
X189809523Y-64645952D02*
X189809523Y-65312619D01*
X190047618Y-64265000D02*
X190285713Y-64979285D01*
X190285713Y-64979285D02*
X189666666Y-64979285D01*
X248142857Y-101687380D02*
X248190476Y-101735000D01*
X248190476Y-101735000D02*
X248333333Y-101782619D01*
X248333333Y-101782619D02*
X248428571Y-101782619D01*
X248428571Y-101782619D02*
X248571428Y-101735000D01*
X248571428Y-101735000D02*
X248666666Y-101639761D01*
X248666666Y-101639761D02*
X248714285Y-101544523D01*
X248714285Y-101544523D02*
X248761904Y-101354047D01*
X248761904Y-101354047D02*
X248761904Y-101211190D01*
X248761904Y-101211190D02*
X248714285Y-101020714D01*
X248714285Y-101020714D02*
X248666666Y-100925476D01*
X248666666Y-100925476D02*
X248571428Y-100830238D01*
X248571428Y-100830238D02*
X248428571Y-100782619D01*
X248428571Y-100782619D02*
X248333333Y-100782619D01*
X248333333Y-100782619D02*
X248190476Y-100830238D01*
X248190476Y-100830238D02*
X248142857Y-100877857D01*
X247190476Y-101782619D02*
X247761904Y-101782619D01*
X247476190Y-101782619D02*
X247476190Y-100782619D01*
X247476190Y-100782619D02*
X247571428Y-100925476D01*
X247571428Y-100925476D02*
X247666666Y-101020714D01*
X247666666Y-101020714D02*
X247761904Y-101068333D01*
X246238095Y-101782619D02*
X246809523Y-101782619D01*
X246523809Y-101782619D02*
X246523809Y-100782619D01*
X246523809Y-100782619D02*
X246619047Y-100925476D01*
X246619047Y-100925476D02*
X246714285Y-101020714D01*
X246714285Y-101020714D02*
X246809523Y-101068333D01*
D11*
X169399999Y-54632714D02*
X169399999Y-55918428D01*
X169399999Y-55918428D02*
X169485714Y-56175571D01*
X169485714Y-56175571D02*
X169657142Y-56347000D01*
X169657142Y-56347000D02*
X169914285Y-56432714D01*
X169914285Y-56432714D02*
X170085714Y-56432714D01*
X168628570Y-54804142D02*
X168542856Y-54718428D01*
X168542856Y-54718428D02*
X168371428Y-54632714D01*
X168371428Y-54632714D02*
X167942856Y-54632714D01*
X167942856Y-54632714D02*
X167771428Y-54718428D01*
X167771428Y-54718428D02*
X167685713Y-54804142D01*
X167685713Y-54804142D02*
X167599999Y-54975571D01*
X167599999Y-54975571D02*
X167599999Y-55147000D01*
X167599999Y-55147000D02*
X167685713Y-55404142D01*
X167685713Y-55404142D02*
X168714285Y-56432714D01*
X168714285Y-56432714D02*
X167599999Y-56432714D01*
X211599999Y-54432714D02*
X211599999Y-55718428D01*
X211599999Y-55718428D02*
X211685714Y-55975571D01*
X211685714Y-55975571D02*
X211857142Y-56147000D01*
X211857142Y-56147000D02*
X212114285Y-56232714D01*
X212114285Y-56232714D02*
X212285714Y-56232714D01*
X210914285Y-54432714D02*
X209799999Y-54432714D01*
X209799999Y-54432714D02*
X210399999Y-55118428D01*
X210399999Y-55118428D02*
X210142856Y-55118428D01*
X210142856Y-55118428D02*
X209971428Y-55204142D01*
X209971428Y-55204142D02*
X209885713Y-55289857D01*
X209885713Y-55289857D02*
X209799999Y-55461285D01*
X209799999Y-55461285D02*
X209799999Y-55889857D01*
X209799999Y-55889857D02*
X209885713Y-56061285D01*
X209885713Y-56061285D02*
X209971428Y-56147000D01*
X209971428Y-56147000D02*
X210142856Y-56232714D01*
X210142856Y-56232714D02*
X210657142Y-56232714D01*
X210657142Y-56232714D02*
X210828570Y-56147000D01*
X210828570Y-56147000D02*
X210914285Y-56061285D01*
X211199999Y-101032714D02*
X211199999Y-102318428D01*
X211199999Y-102318428D02*
X211285714Y-102575571D01*
X211285714Y-102575571D02*
X211457142Y-102747000D01*
X211457142Y-102747000D02*
X211714285Y-102832714D01*
X211714285Y-102832714D02*
X211885714Y-102832714D01*
X209571428Y-101632714D02*
X209571428Y-102832714D01*
X209999999Y-100947000D02*
X210428570Y-102232714D01*
X210428570Y-102232714D02*
X209314285Y-102232714D01*
D10*
X238367380Y-61857142D02*
X238415000Y-61809523D01*
X238415000Y-61809523D02*
X238462619Y-61666666D01*
X238462619Y-61666666D02*
X238462619Y-61571428D01*
X238462619Y-61571428D02*
X238415000Y-61428571D01*
X238415000Y-61428571D02*
X238319761Y-61333333D01*
X238319761Y-61333333D02*
X238224523Y-61285714D01*
X238224523Y-61285714D02*
X238034047Y-61238095D01*
X238034047Y-61238095D02*
X237891190Y-61238095D01*
X237891190Y-61238095D02*
X237700714Y-61285714D01*
X237700714Y-61285714D02*
X237605476Y-61333333D01*
X237605476Y-61333333D02*
X237510238Y-61428571D01*
X237510238Y-61428571D02*
X237462619Y-61571428D01*
X237462619Y-61571428D02*
X237462619Y-61666666D01*
X237462619Y-61666666D02*
X237510238Y-61809523D01*
X237510238Y-61809523D02*
X237557857Y-61857142D01*
X238462619Y-62809523D02*
X238462619Y-62238095D01*
X238462619Y-62523809D02*
X237462619Y-62523809D01*
X237462619Y-62523809D02*
X237605476Y-62428571D01*
X237605476Y-62428571D02*
X237700714Y-62333333D01*
X237700714Y-62333333D02*
X237748333Y-62238095D01*
X238462619Y-63285714D02*
X238462619Y-63476190D01*
X238462619Y-63476190D02*
X238415000Y-63571428D01*
X238415000Y-63571428D02*
X238367380Y-63619047D01*
X238367380Y-63619047D02*
X238224523Y-63714285D01*
X238224523Y-63714285D02*
X238034047Y-63761904D01*
X238034047Y-63761904D02*
X237653095Y-63761904D01*
X237653095Y-63761904D02*
X237557857Y-63714285D01*
X237557857Y-63714285D02*
X237510238Y-63666666D01*
X237510238Y-63666666D02*
X237462619Y-63571428D01*
X237462619Y-63571428D02*
X237462619Y-63380952D01*
X237462619Y-63380952D02*
X237510238Y-63285714D01*
X237510238Y-63285714D02*
X237557857Y-63238095D01*
X237557857Y-63238095D02*
X237653095Y-63190476D01*
X237653095Y-63190476D02*
X237891190Y-63190476D01*
X237891190Y-63190476D02*
X237986428Y-63238095D01*
X237986428Y-63238095D02*
X238034047Y-63285714D01*
X238034047Y-63285714D02*
X238081666Y-63380952D01*
X238081666Y-63380952D02*
X238081666Y-63571428D01*
X238081666Y-63571428D02*
X238034047Y-63666666D01*
X238034047Y-63666666D02*
X237986428Y-63714285D01*
X237986428Y-63714285D02*
X237891190Y-63761904D01*
X242262619Y-63061905D02*
X241262619Y-63061905D01*
X241262619Y-63061905D02*
X241262619Y-63300000D01*
X241262619Y-63300000D02*
X241310238Y-63442857D01*
X241310238Y-63442857D02*
X241405476Y-63538095D01*
X241405476Y-63538095D02*
X241500714Y-63585714D01*
X241500714Y-63585714D02*
X241691190Y-63633333D01*
X241691190Y-63633333D02*
X241834047Y-63633333D01*
X241834047Y-63633333D02*
X242024523Y-63585714D01*
X242024523Y-63585714D02*
X242119761Y-63538095D01*
X242119761Y-63538095D02*
X242215000Y-63442857D01*
X242215000Y-63442857D02*
X242262619Y-63300000D01*
X242262619Y-63300000D02*
X242262619Y-63061905D01*
X242262619Y-64585714D02*
X242262619Y-64014286D01*
X242262619Y-64300000D02*
X241262619Y-64300000D01*
X241262619Y-64300000D02*
X241405476Y-64204762D01*
X241405476Y-64204762D02*
X241500714Y-64109524D01*
X241500714Y-64109524D02*
X241548333Y-64014286D01*
X241457455Y-66778245D02*
X242029875Y-66677230D01*
X241861516Y-67182306D02*
X242568623Y-66475200D01*
X242568623Y-66475200D02*
X242299249Y-66205826D01*
X242299249Y-66205826D02*
X242198234Y-66172154D01*
X242198234Y-66172154D02*
X242130890Y-66172154D01*
X242130890Y-66172154D02*
X242029875Y-66205826D01*
X242029875Y-66205826D02*
X241928860Y-66306841D01*
X241928860Y-66306841D02*
X241895188Y-66407856D01*
X241895188Y-66407856D02*
X241895188Y-66475200D01*
X241895188Y-66475200D02*
X241928860Y-66576215D01*
X241928860Y-66576215D02*
X242198234Y-66845589D01*
X240784020Y-66104810D02*
X241188081Y-66508871D01*
X240986051Y-66306841D02*
X241693157Y-65599734D01*
X241693157Y-65599734D02*
X241659486Y-65768093D01*
X241659486Y-65768093D02*
X241659486Y-65902780D01*
X241659486Y-65902780D02*
X241693157Y-66003795D01*
X223166666Y-78687380D02*
X223214285Y-78735000D01*
X223214285Y-78735000D02*
X223357142Y-78782619D01*
X223357142Y-78782619D02*
X223452380Y-78782619D01*
X223452380Y-78782619D02*
X223595237Y-78735000D01*
X223595237Y-78735000D02*
X223690475Y-78639761D01*
X223690475Y-78639761D02*
X223738094Y-78544523D01*
X223738094Y-78544523D02*
X223785713Y-78354047D01*
X223785713Y-78354047D02*
X223785713Y-78211190D01*
X223785713Y-78211190D02*
X223738094Y-78020714D01*
X223738094Y-78020714D02*
X223690475Y-77925476D01*
X223690475Y-77925476D02*
X223595237Y-77830238D01*
X223595237Y-77830238D02*
X223452380Y-77782619D01*
X223452380Y-77782619D02*
X223357142Y-77782619D01*
X223357142Y-77782619D02*
X223214285Y-77830238D01*
X223214285Y-77830238D02*
X223166666Y-77877857D01*
X222595237Y-78211190D02*
X222690475Y-78163571D01*
X222690475Y-78163571D02*
X222738094Y-78115952D01*
X222738094Y-78115952D02*
X222785713Y-78020714D01*
X222785713Y-78020714D02*
X222785713Y-77973095D01*
X222785713Y-77973095D02*
X222738094Y-77877857D01*
X222738094Y-77877857D02*
X222690475Y-77830238D01*
X222690475Y-77830238D02*
X222595237Y-77782619D01*
X222595237Y-77782619D02*
X222404761Y-77782619D01*
X222404761Y-77782619D02*
X222309523Y-77830238D01*
X222309523Y-77830238D02*
X222261904Y-77877857D01*
X222261904Y-77877857D02*
X222214285Y-77973095D01*
X222214285Y-77973095D02*
X222214285Y-78020714D01*
X222214285Y-78020714D02*
X222261904Y-78115952D01*
X222261904Y-78115952D02*
X222309523Y-78163571D01*
X222309523Y-78163571D02*
X222404761Y-78211190D01*
X222404761Y-78211190D02*
X222595237Y-78211190D01*
X222595237Y-78211190D02*
X222690475Y-78258809D01*
X222690475Y-78258809D02*
X222738094Y-78306428D01*
X222738094Y-78306428D02*
X222785713Y-78401666D01*
X222785713Y-78401666D02*
X222785713Y-78592142D01*
X222785713Y-78592142D02*
X222738094Y-78687380D01*
X222738094Y-78687380D02*
X222690475Y-78735000D01*
X222690475Y-78735000D02*
X222595237Y-78782619D01*
X222595237Y-78782619D02*
X222404761Y-78782619D01*
X222404761Y-78782619D02*
X222309523Y-78735000D01*
X222309523Y-78735000D02*
X222261904Y-78687380D01*
X222261904Y-78687380D02*
X222214285Y-78592142D01*
X222214285Y-78592142D02*
X222214285Y-78401666D01*
X222214285Y-78401666D02*
X222261904Y-78306428D01*
X222261904Y-78306428D02*
X222309523Y-78258809D01*
X222309523Y-78258809D02*
X222404761Y-78211190D01*
X223166666Y-86687380D02*
X223214285Y-86735000D01*
X223214285Y-86735000D02*
X223357142Y-86782619D01*
X223357142Y-86782619D02*
X223452380Y-86782619D01*
X223452380Y-86782619D02*
X223595237Y-86735000D01*
X223595237Y-86735000D02*
X223690475Y-86639761D01*
X223690475Y-86639761D02*
X223738094Y-86544523D01*
X223738094Y-86544523D02*
X223785713Y-86354047D01*
X223785713Y-86354047D02*
X223785713Y-86211190D01*
X223785713Y-86211190D02*
X223738094Y-86020714D01*
X223738094Y-86020714D02*
X223690475Y-85925476D01*
X223690475Y-85925476D02*
X223595237Y-85830238D01*
X223595237Y-85830238D02*
X223452380Y-85782619D01*
X223452380Y-85782619D02*
X223357142Y-85782619D01*
X223357142Y-85782619D02*
X223214285Y-85830238D01*
X223214285Y-85830238D02*
X223166666Y-85877857D01*
X222690475Y-86782619D02*
X222499999Y-86782619D01*
X222499999Y-86782619D02*
X222404761Y-86735000D01*
X222404761Y-86735000D02*
X222357142Y-86687380D01*
X222357142Y-86687380D02*
X222261904Y-86544523D01*
X222261904Y-86544523D02*
X222214285Y-86354047D01*
X222214285Y-86354047D02*
X222214285Y-85973095D01*
X222214285Y-85973095D02*
X222261904Y-85877857D01*
X222261904Y-85877857D02*
X222309523Y-85830238D01*
X222309523Y-85830238D02*
X222404761Y-85782619D01*
X222404761Y-85782619D02*
X222595237Y-85782619D01*
X222595237Y-85782619D02*
X222690475Y-85830238D01*
X222690475Y-85830238D02*
X222738094Y-85877857D01*
X222738094Y-85877857D02*
X222785713Y-85973095D01*
X222785713Y-85973095D02*
X222785713Y-86211190D01*
X222785713Y-86211190D02*
X222738094Y-86306428D01*
X222738094Y-86306428D02*
X222690475Y-86354047D01*
X222690475Y-86354047D02*
X222595237Y-86401666D01*
X222595237Y-86401666D02*
X222404761Y-86401666D01*
X222404761Y-86401666D02*
X222309523Y-86354047D01*
X222309523Y-86354047D02*
X222261904Y-86306428D01*
X222261904Y-86306428D02*
X222214285Y-86211190D01*
X241142857Y-46367380D02*
X241190476Y-46415000D01*
X241190476Y-46415000D02*
X241333333Y-46462619D01*
X241333333Y-46462619D02*
X241428571Y-46462619D01*
X241428571Y-46462619D02*
X241571428Y-46415000D01*
X241571428Y-46415000D02*
X241666666Y-46319761D01*
X241666666Y-46319761D02*
X241714285Y-46224523D01*
X241714285Y-46224523D02*
X241761904Y-46034047D01*
X241761904Y-46034047D02*
X241761904Y-45891190D01*
X241761904Y-45891190D02*
X241714285Y-45700714D01*
X241714285Y-45700714D02*
X241666666Y-45605476D01*
X241666666Y-45605476D02*
X241571428Y-45510238D01*
X241571428Y-45510238D02*
X241428571Y-45462619D01*
X241428571Y-45462619D02*
X241333333Y-45462619D01*
X241333333Y-45462619D02*
X241190476Y-45510238D01*
X241190476Y-45510238D02*
X241142857Y-45557857D01*
X240190476Y-46462619D02*
X240761904Y-46462619D01*
X240476190Y-46462619D02*
X240476190Y-45462619D01*
X240476190Y-45462619D02*
X240571428Y-45605476D01*
X240571428Y-45605476D02*
X240666666Y-45700714D01*
X240666666Y-45700714D02*
X240761904Y-45748333D01*
X239333333Y-45795952D02*
X239333333Y-46462619D01*
X239571428Y-45415000D02*
X239809523Y-46129285D01*
X239809523Y-46129285D02*
X239190476Y-46129285D01*
X236624003Y-71611697D02*
X237196423Y-71510682D01*
X237028064Y-72015758D02*
X237735171Y-71308652D01*
X237735171Y-71308652D02*
X237465797Y-71039278D01*
X237465797Y-71039278D02*
X237364782Y-71005606D01*
X237364782Y-71005606D02*
X237297438Y-71005606D01*
X237297438Y-71005606D02*
X237196423Y-71039278D01*
X237196423Y-71039278D02*
X237095408Y-71140293D01*
X237095408Y-71140293D02*
X237061736Y-71241308D01*
X237061736Y-71241308D02*
X237061736Y-71308652D01*
X237061736Y-71308652D02*
X237095408Y-71409667D01*
X237095408Y-71409667D02*
X237364782Y-71679041D01*
X236994392Y-70702560D02*
X236994392Y-70635217D01*
X236994392Y-70635217D02*
X236960721Y-70534201D01*
X236960721Y-70534201D02*
X236792362Y-70365843D01*
X236792362Y-70365843D02*
X236691347Y-70332171D01*
X236691347Y-70332171D02*
X236624003Y-70332171D01*
X236624003Y-70332171D02*
X236522988Y-70365843D01*
X236522988Y-70365843D02*
X236455644Y-70433186D01*
X236455644Y-70433186D02*
X236388301Y-70567873D01*
X236388301Y-70567873D02*
X236388301Y-71375995D01*
X236388301Y-71375995D02*
X235950568Y-70938262D01*
X238666666Y-90687380D02*
X238714285Y-90735000D01*
X238714285Y-90735000D02*
X238857142Y-90782619D01*
X238857142Y-90782619D02*
X238952380Y-90782619D01*
X238952380Y-90782619D02*
X239095237Y-90735000D01*
X239095237Y-90735000D02*
X239190475Y-90639761D01*
X239190475Y-90639761D02*
X239238094Y-90544523D01*
X239238094Y-90544523D02*
X239285713Y-90354047D01*
X239285713Y-90354047D02*
X239285713Y-90211190D01*
X239285713Y-90211190D02*
X239238094Y-90020714D01*
X239238094Y-90020714D02*
X239190475Y-89925476D01*
X239190475Y-89925476D02*
X239095237Y-89830238D01*
X239095237Y-89830238D02*
X238952380Y-89782619D01*
X238952380Y-89782619D02*
X238857142Y-89782619D01*
X238857142Y-89782619D02*
X238714285Y-89830238D01*
X238714285Y-89830238D02*
X238666666Y-89877857D01*
X237714285Y-90782619D02*
X238285713Y-90782619D01*
X237999999Y-90782619D02*
X237999999Y-89782619D01*
X237999999Y-89782619D02*
X238095237Y-89925476D01*
X238095237Y-89925476D02*
X238190475Y-90020714D01*
X238190475Y-90020714D02*
X238285713Y-90068333D01*
X248180357Y-94187380D02*
X248227976Y-94235000D01*
X248227976Y-94235000D02*
X248370833Y-94282619D01*
X248370833Y-94282619D02*
X248466071Y-94282619D01*
X248466071Y-94282619D02*
X248608928Y-94235000D01*
X248608928Y-94235000D02*
X248704166Y-94139761D01*
X248704166Y-94139761D02*
X248751785Y-94044523D01*
X248751785Y-94044523D02*
X248799404Y-93854047D01*
X248799404Y-93854047D02*
X248799404Y-93711190D01*
X248799404Y-93711190D02*
X248751785Y-93520714D01*
X248751785Y-93520714D02*
X248704166Y-93425476D01*
X248704166Y-93425476D02*
X248608928Y-93330238D01*
X248608928Y-93330238D02*
X248466071Y-93282619D01*
X248466071Y-93282619D02*
X248370833Y-93282619D01*
X248370833Y-93282619D02*
X248227976Y-93330238D01*
X248227976Y-93330238D02*
X248180357Y-93377857D01*
X247227976Y-94282619D02*
X247799404Y-94282619D01*
X247513690Y-94282619D02*
X247513690Y-93282619D01*
X247513690Y-93282619D02*
X247608928Y-93425476D01*
X247608928Y-93425476D02*
X247704166Y-93520714D01*
X247704166Y-93520714D02*
X247799404Y-93568333D01*
X246608928Y-93282619D02*
X246513690Y-93282619D01*
X246513690Y-93282619D02*
X246418452Y-93330238D01*
X246418452Y-93330238D02*
X246370833Y-93377857D01*
X246370833Y-93377857D02*
X246323214Y-93473095D01*
X246323214Y-93473095D02*
X246275595Y-93663571D01*
X246275595Y-93663571D02*
X246275595Y-93901666D01*
X246275595Y-93901666D02*
X246323214Y-94092142D01*
X246323214Y-94092142D02*
X246370833Y-94187380D01*
X246370833Y-94187380D02*
X246418452Y-94235000D01*
X246418452Y-94235000D02*
X246513690Y-94282619D01*
X246513690Y-94282619D02*
X246608928Y-94282619D01*
X246608928Y-94282619D02*
X246704166Y-94235000D01*
X246704166Y-94235000D02*
X246751785Y-94187380D01*
X246751785Y-94187380D02*
X246799404Y-94092142D01*
X246799404Y-94092142D02*
X246847023Y-93901666D01*
X246847023Y-93901666D02*
X246847023Y-93663571D01*
X246847023Y-93663571D02*
X246799404Y-93473095D01*
X246799404Y-93473095D02*
X246751785Y-93377857D01*
X246751785Y-93377857D02*
X246704166Y-93330238D01*
X246704166Y-93330238D02*
X246608928Y-93282619D01*
X250666666Y-91047380D02*
X250714285Y-91095000D01*
X250714285Y-91095000D02*
X250857142Y-91142619D01*
X250857142Y-91142619D02*
X250952380Y-91142619D01*
X250952380Y-91142619D02*
X251095237Y-91095000D01*
X251095237Y-91095000D02*
X251190475Y-90999761D01*
X251190475Y-90999761D02*
X251238094Y-90904523D01*
X251238094Y-90904523D02*
X251285713Y-90714047D01*
X251285713Y-90714047D02*
X251285713Y-90571190D01*
X251285713Y-90571190D02*
X251238094Y-90380714D01*
X251238094Y-90380714D02*
X251190475Y-90285476D01*
X251190475Y-90285476D02*
X251095237Y-90190238D01*
X251095237Y-90190238D02*
X250952380Y-90142619D01*
X250952380Y-90142619D02*
X250857142Y-90142619D01*
X250857142Y-90142619D02*
X250714285Y-90190238D01*
X250714285Y-90190238D02*
X250666666Y-90237857D01*
X250333332Y-90142619D02*
X249714285Y-90142619D01*
X249714285Y-90142619D02*
X250047618Y-90523571D01*
X250047618Y-90523571D02*
X249904761Y-90523571D01*
X249904761Y-90523571D02*
X249809523Y-90571190D01*
X249809523Y-90571190D02*
X249761904Y-90618809D01*
X249761904Y-90618809D02*
X249714285Y-90714047D01*
X249714285Y-90714047D02*
X249714285Y-90952142D01*
X249714285Y-90952142D02*
X249761904Y-91047380D01*
X249761904Y-91047380D02*
X249809523Y-91095000D01*
X249809523Y-91095000D02*
X249904761Y-91142619D01*
X249904761Y-91142619D02*
X250190475Y-91142619D01*
X250190475Y-91142619D02*
X250285713Y-91095000D01*
X250285713Y-91095000D02*
X250333332Y-91047380D01*
X159166666Y-90047380D02*
X159214285Y-90095000D01*
X159214285Y-90095000D02*
X159357142Y-90142619D01*
X159357142Y-90142619D02*
X159452380Y-90142619D01*
X159452380Y-90142619D02*
X159595237Y-90095000D01*
X159595237Y-90095000D02*
X159690475Y-89999761D01*
X159690475Y-89999761D02*
X159738094Y-89904523D01*
X159738094Y-89904523D02*
X159785713Y-89714047D01*
X159785713Y-89714047D02*
X159785713Y-89571190D01*
X159785713Y-89571190D02*
X159738094Y-89380714D01*
X159738094Y-89380714D02*
X159690475Y-89285476D01*
X159690475Y-89285476D02*
X159595237Y-89190238D01*
X159595237Y-89190238D02*
X159452380Y-89142619D01*
X159452380Y-89142619D02*
X159357142Y-89142619D01*
X159357142Y-89142619D02*
X159214285Y-89190238D01*
X159214285Y-89190238D02*
X159166666Y-89237857D01*
X158309523Y-89475952D02*
X158309523Y-90142619D01*
X158547618Y-89095000D02*
X158785713Y-89809285D01*
X158785713Y-89809285D02*
X158166666Y-89809285D01*
X233142857Y-46367380D02*
X233190476Y-46415000D01*
X233190476Y-46415000D02*
X233333333Y-46462619D01*
X233333333Y-46462619D02*
X233428571Y-46462619D01*
X233428571Y-46462619D02*
X233571428Y-46415000D01*
X233571428Y-46415000D02*
X233666666Y-46319761D01*
X233666666Y-46319761D02*
X233714285Y-46224523D01*
X233714285Y-46224523D02*
X233761904Y-46034047D01*
X233761904Y-46034047D02*
X233761904Y-45891190D01*
X233761904Y-45891190D02*
X233714285Y-45700714D01*
X233714285Y-45700714D02*
X233666666Y-45605476D01*
X233666666Y-45605476D02*
X233571428Y-45510238D01*
X233571428Y-45510238D02*
X233428571Y-45462619D01*
X233428571Y-45462619D02*
X233333333Y-45462619D01*
X233333333Y-45462619D02*
X233190476Y-45510238D01*
X233190476Y-45510238D02*
X233142857Y-45557857D01*
X232190476Y-46462619D02*
X232761904Y-46462619D01*
X232476190Y-46462619D02*
X232476190Y-45462619D01*
X232476190Y-45462619D02*
X232571428Y-45605476D01*
X232571428Y-45605476D02*
X232666666Y-45700714D01*
X232666666Y-45700714D02*
X232761904Y-45748333D01*
X231333333Y-45462619D02*
X231523809Y-45462619D01*
X231523809Y-45462619D02*
X231619047Y-45510238D01*
X231619047Y-45510238D02*
X231666666Y-45557857D01*
X231666666Y-45557857D02*
X231761904Y-45700714D01*
X231761904Y-45700714D02*
X231809523Y-45891190D01*
X231809523Y-45891190D02*
X231809523Y-46272142D01*
X231809523Y-46272142D02*
X231761904Y-46367380D01*
X231761904Y-46367380D02*
X231714285Y-46415000D01*
X231714285Y-46415000D02*
X231619047Y-46462619D01*
X231619047Y-46462619D02*
X231428571Y-46462619D01*
X231428571Y-46462619D02*
X231333333Y-46415000D01*
X231333333Y-46415000D02*
X231285714Y-46367380D01*
X231285714Y-46367380D02*
X231238095Y-46272142D01*
X231238095Y-46272142D02*
X231238095Y-46034047D01*
X231238095Y-46034047D02*
X231285714Y-45938809D01*
X231285714Y-45938809D02*
X231333333Y-45891190D01*
X231333333Y-45891190D02*
X231428571Y-45843571D01*
X231428571Y-45843571D02*
X231619047Y-45843571D01*
X231619047Y-45843571D02*
X231714285Y-45891190D01*
X231714285Y-45891190D02*
X231761904Y-45938809D01*
X231761904Y-45938809D02*
X231809523Y-46034047D01*
X236867380Y-61894642D02*
X236915000Y-61847023D01*
X236915000Y-61847023D02*
X236962619Y-61704166D01*
X236962619Y-61704166D02*
X236962619Y-61608928D01*
X236962619Y-61608928D02*
X236915000Y-61466071D01*
X236915000Y-61466071D02*
X236819761Y-61370833D01*
X236819761Y-61370833D02*
X236724523Y-61323214D01*
X236724523Y-61323214D02*
X236534047Y-61275595D01*
X236534047Y-61275595D02*
X236391190Y-61275595D01*
X236391190Y-61275595D02*
X236200714Y-61323214D01*
X236200714Y-61323214D02*
X236105476Y-61370833D01*
X236105476Y-61370833D02*
X236010238Y-61466071D01*
X236010238Y-61466071D02*
X235962619Y-61608928D01*
X235962619Y-61608928D02*
X235962619Y-61704166D01*
X235962619Y-61704166D02*
X236010238Y-61847023D01*
X236010238Y-61847023D02*
X236057857Y-61894642D01*
X236962619Y-62847023D02*
X236962619Y-62275595D01*
X236962619Y-62561309D02*
X235962619Y-62561309D01*
X235962619Y-62561309D02*
X236105476Y-62466071D01*
X236105476Y-62466071D02*
X236200714Y-62370833D01*
X236200714Y-62370833D02*
X236248333Y-62275595D01*
X236391190Y-63418452D02*
X236343571Y-63323214D01*
X236343571Y-63323214D02*
X236295952Y-63275595D01*
X236295952Y-63275595D02*
X236200714Y-63227976D01*
X236200714Y-63227976D02*
X236153095Y-63227976D01*
X236153095Y-63227976D02*
X236057857Y-63275595D01*
X236057857Y-63275595D02*
X236010238Y-63323214D01*
X236010238Y-63323214D02*
X235962619Y-63418452D01*
X235962619Y-63418452D02*
X235962619Y-63608928D01*
X235962619Y-63608928D02*
X236010238Y-63704166D01*
X236010238Y-63704166D02*
X236057857Y-63751785D01*
X236057857Y-63751785D02*
X236153095Y-63799404D01*
X236153095Y-63799404D02*
X236200714Y-63799404D01*
X236200714Y-63799404D02*
X236295952Y-63751785D01*
X236295952Y-63751785D02*
X236343571Y-63704166D01*
X236343571Y-63704166D02*
X236391190Y-63608928D01*
X236391190Y-63608928D02*
X236391190Y-63418452D01*
X236391190Y-63418452D02*
X236438809Y-63323214D01*
X236438809Y-63323214D02*
X236486428Y-63275595D01*
X236486428Y-63275595D02*
X236581666Y-63227976D01*
X236581666Y-63227976D02*
X236772142Y-63227976D01*
X236772142Y-63227976D02*
X236867380Y-63275595D01*
X236867380Y-63275595D02*
X236915000Y-63323214D01*
X236915000Y-63323214D02*
X236962619Y-63418452D01*
X236962619Y-63418452D02*
X236962619Y-63608928D01*
X236962619Y-63608928D02*
X236915000Y-63704166D01*
X236915000Y-63704166D02*
X236867380Y-63751785D01*
X236867380Y-63751785D02*
X236772142Y-63799404D01*
X236772142Y-63799404D02*
X236581666Y-63799404D01*
X236581666Y-63799404D02*
X236486428Y-63751785D01*
X236486428Y-63751785D02*
X236438809Y-63704166D01*
X236438809Y-63704166D02*
X236391190Y-63608928D01*
X241842857Y-59167380D02*
X241890476Y-59215000D01*
X241890476Y-59215000D02*
X242033333Y-59262619D01*
X242033333Y-59262619D02*
X242128571Y-59262619D01*
X242128571Y-59262619D02*
X242271428Y-59215000D01*
X242271428Y-59215000D02*
X242366666Y-59119761D01*
X242366666Y-59119761D02*
X242414285Y-59024523D01*
X242414285Y-59024523D02*
X242461904Y-58834047D01*
X242461904Y-58834047D02*
X242461904Y-58691190D01*
X242461904Y-58691190D02*
X242414285Y-58500714D01*
X242414285Y-58500714D02*
X242366666Y-58405476D01*
X242366666Y-58405476D02*
X242271428Y-58310238D01*
X242271428Y-58310238D02*
X242128571Y-58262619D01*
X242128571Y-58262619D02*
X242033333Y-58262619D01*
X242033333Y-58262619D02*
X241890476Y-58310238D01*
X241890476Y-58310238D02*
X241842857Y-58357857D01*
X240890476Y-59262619D02*
X241461904Y-59262619D01*
X241176190Y-59262619D02*
X241176190Y-58262619D01*
X241176190Y-58262619D02*
X241271428Y-58405476D01*
X241271428Y-58405476D02*
X241366666Y-58500714D01*
X241366666Y-58500714D02*
X241461904Y-58548333D01*
X240509523Y-58357857D02*
X240461904Y-58310238D01*
X240461904Y-58310238D02*
X240366666Y-58262619D01*
X240366666Y-58262619D02*
X240128571Y-58262619D01*
X240128571Y-58262619D02*
X240033333Y-58310238D01*
X240033333Y-58310238D02*
X239985714Y-58357857D01*
X239985714Y-58357857D02*
X239938095Y-58453095D01*
X239938095Y-58453095D02*
X239938095Y-58548333D01*
X239938095Y-58548333D02*
X239985714Y-58691190D01*
X239985714Y-58691190D02*
X240557142Y-59262619D01*
X240557142Y-59262619D02*
X239938095Y-59262619D01*
X236642857Y-46367380D02*
X236690476Y-46415000D01*
X236690476Y-46415000D02*
X236833333Y-46462619D01*
X236833333Y-46462619D02*
X236928571Y-46462619D01*
X236928571Y-46462619D02*
X237071428Y-46415000D01*
X237071428Y-46415000D02*
X237166666Y-46319761D01*
X237166666Y-46319761D02*
X237214285Y-46224523D01*
X237214285Y-46224523D02*
X237261904Y-46034047D01*
X237261904Y-46034047D02*
X237261904Y-45891190D01*
X237261904Y-45891190D02*
X237214285Y-45700714D01*
X237214285Y-45700714D02*
X237166666Y-45605476D01*
X237166666Y-45605476D02*
X237071428Y-45510238D01*
X237071428Y-45510238D02*
X236928571Y-45462619D01*
X236928571Y-45462619D02*
X236833333Y-45462619D01*
X236833333Y-45462619D02*
X236690476Y-45510238D01*
X236690476Y-45510238D02*
X236642857Y-45557857D01*
X235690476Y-46462619D02*
X236261904Y-46462619D01*
X235976190Y-46462619D02*
X235976190Y-45462619D01*
X235976190Y-45462619D02*
X236071428Y-45605476D01*
X236071428Y-45605476D02*
X236166666Y-45700714D01*
X236166666Y-45700714D02*
X236261904Y-45748333D01*
X234785714Y-45462619D02*
X235261904Y-45462619D01*
X235261904Y-45462619D02*
X235309523Y-45938809D01*
X235309523Y-45938809D02*
X235261904Y-45891190D01*
X235261904Y-45891190D02*
X235166666Y-45843571D01*
X235166666Y-45843571D02*
X234928571Y-45843571D01*
X234928571Y-45843571D02*
X234833333Y-45891190D01*
X234833333Y-45891190D02*
X234785714Y-45938809D01*
X234785714Y-45938809D02*
X234738095Y-46034047D01*
X234738095Y-46034047D02*
X234738095Y-46272142D01*
X234738095Y-46272142D02*
X234785714Y-46367380D01*
X234785714Y-46367380D02*
X234833333Y-46415000D01*
X234833333Y-46415000D02*
X234928571Y-46462619D01*
X234928571Y-46462619D02*
X235166666Y-46462619D01*
X235166666Y-46462619D02*
X235261904Y-46415000D01*
X235261904Y-46415000D02*
X235309523Y-46367380D01*
X232867380Y-61857142D02*
X232915000Y-61809523D01*
X232915000Y-61809523D02*
X232962619Y-61666666D01*
X232962619Y-61666666D02*
X232962619Y-61571428D01*
X232962619Y-61571428D02*
X232915000Y-61428571D01*
X232915000Y-61428571D02*
X232819761Y-61333333D01*
X232819761Y-61333333D02*
X232724523Y-61285714D01*
X232724523Y-61285714D02*
X232534047Y-61238095D01*
X232534047Y-61238095D02*
X232391190Y-61238095D01*
X232391190Y-61238095D02*
X232200714Y-61285714D01*
X232200714Y-61285714D02*
X232105476Y-61333333D01*
X232105476Y-61333333D02*
X232010238Y-61428571D01*
X232010238Y-61428571D02*
X231962619Y-61571428D01*
X231962619Y-61571428D02*
X231962619Y-61666666D01*
X231962619Y-61666666D02*
X232010238Y-61809523D01*
X232010238Y-61809523D02*
X232057857Y-61857142D01*
X232962619Y-62809523D02*
X232962619Y-62238095D01*
X232962619Y-62523809D02*
X231962619Y-62523809D01*
X231962619Y-62523809D02*
X232105476Y-62428571D01*
X232105476Y-62428571D02*
X232200714Y-62333333D01*
X232200714Y-62333333D02*
X232248333Y-62238095D01*
X231962619Y-63142857D02*
X231962619Y-63809523D01*
X231962619Y-63809523D02*
X232962619Y-63380952D01*
X225112619Y-83261905D02*
X224112619Y-83261905D01*
X224112619Y-83261905D02*
X224112619Y-83500000D01*
X224112619Y-83500000D02*
X224160238Y-83642857D01*
X224160238Y-83642857D02*
X224255476Y-83738095D01*
X224255476Y-83738095D02*
X224350714Y-83785714D01*
X224350714Y-83785714D02*
X224541190Y-83833333D01*
X224541190Y-83833333D02*
X224684047Y-83833333D01*
X224684047Y-83833333D02*
X224874523Y-83785714D01*
X224874523Y-83785714D02*
X224969761Y-83738095D01*
X224969761Y-83738095D02*
X225065000Y-83642857D01*
X225065000Y-83642857D02*
X225112619Y-83500000D01*
X225112619Y-83500000D02*
X225112619Y-83261905D01*
X224112619Y-84738095D02*
X224112619Y-84261905D01*
X224112619Y-84261905D02*
X224588809Y-84214286D01*
X224588809Y-84214286D02*
X224541190Y-84261905D01*
X224541190Y-84261905D02*
X224493571Y-84357143D01*
X224493571Y-84357143D02*
X224493571Y-84595238D01*
X224493571Y-84595238D02*
X224541190Y-84690476D01*
X224541190Y-84690476D02*
X224588809Y-84738095D01*
X224588809Y-84738095D02*
X224684047Y-84785714D01*
X224684047Y-84785714D02*
X224922142Y-84785714D01*
X224922142Y-84785714D02*
X225017380Y-84738095D01*
X225017380Y-84738095D02*
X225065000Y-84690476D01*
X225065000Y-84690476D02*
X225112619Y-84595238D01*
X225112619Y-84595238D02*
X225112619Y-84357143D01*
X225112619Y-84357143D02*
X225065000Y-84261905D01*
X225065000Y-84261905D02*
X225017380Y-84214286D01*
X246187380Y-84333333D02*
X246235000Y-84285714D01*
X246235000Y-84285714D02*
X246282619Y-84142857D01*
X246282619Y-84142857D02*
X246282619Y-84047619D01*
X246282619Y-84047619D02*
X246235000Y-83904762D01*
X246235000Y-83904762D02*
X246139761Y-83809524D01*
X246139761Y-83809524D02*
X246044523Y-83761905D01*
X246044523Y-83761905D02*
X245854047Y-83714286D01*
X245854047Y-83714286D02*
X245711190Y-83714286D01*
X245711190Y-83714286D02*
X245520714Y-83761905D01*
X245520714Y-83761905D02*
X245425476Y-83809524D01*
X245425476Y-83809524D02*
X245330238Y-83904762D01*
X245330238Y-83904762D02*
X245282619Y-84047619D01*
X245282619Y-84047619D02*
X245282619Y-84142857D01*
X245282619Y-84142857D02*
X245330238Y-84285714D01*
X245330238Y-84285714D02*
X245377857Y-84333333D01*
X245377857Y-84714286D02*
X245330238Y-84761905D01*
X245330238Y-84761905D02*
X245282619Y-84857143D01*
X245282619Y-84857143D02*
X245282619Y-85095238D01*
X245282619Y-85095238D02*
X245330238Y-85190476D01*
X245330238Y-85190476D02*
X245377857Y-85238095D01*
X245377857Y-85238095D02*
X245473095Y-85285714D01*
X245473095Y-85285714D02*
X245568333Y-85285714D01*
X245568333Y-85285714D02*
X245711190Y-85238095D01*
X245711190Y-85238095D02*
X246282619Y-84666667D01*
X246282619Y-84666667D02*
X246282619Y-85285714D01*
X159166666Y-82047380D02*
X159214285Y-82095000D01*
X159214285Y-82095000D02*
X159357142Y-82142619D01*
X159357142Y-82142619D02*
X159452380Y-82142619D01*
X159452380Y-82142619D02*
X159595237Y-82095000D01*
X159595237Y-82095000D02*
X159690475Y-81999761D01*
X159690475Y-81999761D02*
X159738094Y-81904523D01*
X159738094Y-81904523D02*
X159785713Y-81714047D01*
X159785713Y-81714047D02*
X159785713Y-81571190D01*
X159785713Y-81571190D02*
X159738094Y-81380714D01*
X159738094Y-81380714D02*
X159690475Y-81285476D01*
X159690475Y-81285476D02*
X159595237Y-81190238D01*
X159595237Y-81190238D02*
X159452380Y-81142619D01*
X159452380Y-81142619D02*
X159357142Y-81142619D01*
X159357142Y-81142619D02*
X159214285Y-81190238D01*
X159214285Y-81190238D02*
X159166666Y-81237857D01*
X158261904Y-81142619D02*
X158738094Y-81142619D01*
X158738094Y-81142619D02*
X158785713Y-81618809D01*
X158785713Y-81618809D02*
X158738094Y-81571190D01*
X158738094Y-81571190D02*
X158642856Y-81523571D01*
X158642856Y-81523571D02*
X158404761Y-81523571D01*
X158404761Y-81523571D02*
X158309523Y-81571190D01*
X158309523Y-81571190D02*
X158261904Y-81618809D01*
X158261904Y-81618809D02*
X158214285Y-81714047D01*
X158214285Y-81714047D02*
X158214285Y-81952142D01*
X158214285Y-81952142D02*
X158261904Y-82047380D01*
X158261904Y-82047380D02*
X158309523Y-82095000D01*
X158309523Y-82095000D02*
X158404761Y-82142619D01*
X158404761Y-82142619D02*
X158642856Y-82142619D01*
X158642856Y-82142619D02*
X158738094Y-82095000D01*
X158738094Y-82095000D02*
X158785713Y-82047380D01*
X185187380Y-66333333D02*
X185235000Y-66285714D01*
X185235000Y-66285714D02*
X185282619Y-66142857D01*
X185282619Y-66142857D02*
X185282619Y-66047619D01*
X185282619Y-66047619D02*
X185235000Y-65904762D01*
X185235000Y-65904762D02*
X185139761Y-65809524D01*
X185139761Y-65809524D02*
X185044523Y-65761905D01*
X185044523Y-65761905D02*
X184854047Y-65714286D01*
X184854047Y-65714286D02*
X184711190Y-65714286D01*
X184711190Y-65714286D02*
X184520714Y-65761905D01*
X184520714Y-65761905D02*
X184425476Y-65809524D01*
X184425476Y-65809524D02*
X184330238Y-65904762D01*
X184330238Y-65904762D02*
X184282619Y-66047619D01*
X184282619Y-66047619D02*
X184282619Y-66142857D01*
X184282619Y-66142857D02*
X184330238Y-66285714D01*
X184330238Y-66285714D02*
X184377857Y-66333333D01*
X184282619Y-67190476D02*
X184282619Y-67000000D01*
X184282619Y-67000000D02*
X184330238Y-66904762D01*
X184330238Y-66904762D02*
X184377857Y-66857143D01*
X184377857Y-66857143D02*
X184520714Y-66761905D01*
X184520714Y-66761905D02*
X184711190Y-66714286D01*
X184711190Y-66714286D02*
X185092142Y-66714286D01*
X185092142Y-66714286D02*
X185187380Y-66761905D01*
X185187380Y-66761905D02*
X185235000Y-66809524D01*
X185235000Y-66809524D02*
X185282619Y-66904762D01*
X185282619Y-66904762D02*
X185282619Y-67095238D01*
X185282619Y-67095238D02*
X185235000Y-67190476D01*
X185235000Y-67190476D02*
X185187380Y-67238095D01*
X185187380Y-67238095D02*
X185092142Y-67285714D01*
X185092142Y-67285714D02*
X184854047Y-67285714D01*
X184854047Y-67285714D02*
X184758809Y-67238095D01*
X184758809Y-67238095D02*
X184711190Y-67190476D01*
X184711190Y-67190476D02*
X184663571Y-67095238D01*
X184663571Y-67095238D02*
X184663571Y-66904762D01*
X184663571Y-66904762D02*
X184711190Y-66809524D01*
X184711190Y-66809524D02*
X184758809Y-66761905D01*
X184758809Y-66761905D02*
X184854047Y-66714286D01*
D11*
X169399999Y-100832714D02*
X169399999Y-102118428D01*
X169399999Y-102118428D02*
X169485714Y-102375571D01*
X169485714Y-102375571D02*
X169657142Y-102547000D01*
X169657142Y-102547000D02*
X169914285Y-102632714D01*
X169914285Y-102632714D02*
X170085714Y-102632714D01*
X167599999Y-102632714D02*
X168628570Y-102632714D01*
X168114285Y-102632714D02*
X168114285Y-100832714D01*
X168114285Y-100832714D02*
X168285713Y-101089857D01*
X168285713Y-101089857D02*
X168457142Y-101261285D01*
X168457142Y-101261285D02*
X168628570Y-101347000D01*
D10*
X192687380Y-66333333D02*
X192735000Y-66285714D01*
X192735000Y-66285714D02*
X192782619Y-66142857D01*
X192782619Y-66142857D02*
X192782619Y-66047619D01*
X192782619Y-66047619D02*
X192735000Y-65904762D01*
X192735000Y-65904762D02*
X192639761Y-65809524D01*
X192639761Y-65809524D02*
X192544523Y-65761905D01*
X192544523Y-65761905D02*
X192354047Y-65714286D01*
X192354047Y-65714286D02*
X192211190Y-65714286D01*
X192211190Y-65714286D02*
X192020714Y-65761905D01*
X192020714Y-65761905D02*
X191925476Y-65809524D01*
X191925476Y-65809524D02*
X191830238Y-65904762D01*
X191830238Y-65904762D02*
X191782619Y-66047619D01*
X191782619Y-66047619D02*
X191782619Y-66142857D01*
X191782619Y-66142857D02*
X191830238Y-66285714D01*
X191830238Y-66285714D02*
X191877857Y-66333333D01*
X191782619Y-66666667D02*
X191782619Y-67333333D01*
X191782619Y-67333333D02*
X192782619Y-66904762D01*
X235142857Y-90687380D02*
X235190476Y-90735000D01*
X235190476Y-90735000D02*
X235333333Y-90782619D01*
X235333333Y-90782619D02*
X235428571Y-90782619D01*
X235428571Y-90782619D02*
X235571428Y-90735000D01*
X235571428Y-90735000D02*
X235666666Y-90639761D01*
X235666666Y-90639761D02*
X235714285Y-90544523D01*
X235714285Y-90544523D02*
X235761904Y-90354047D01*
X235761904Y-90354047D02*
X235761904Y-90211190D01*
X235761904Y-90211190D02*
X235714285Y-90020714D01*
X235714285Y-90020714D02*
X235666666Y-89925476D01*
X235666666Y-89925476D02*
X235571428Y-89830238D01*
X235571428Y-89830238D02*
X235428571Y-89782619D01*
X235428571Y-89782619D02*
X235333333Y-89782619D01*
X235333333Y-89782619D02*
X235190476Y-89830238D01*
X235190476Y-89830238D02*
X235142857Y-89877857D01*
X234190476Y-90782619D02*
X234761904Y-90782619D01*
X234476190Y-90782619D02*
X234476190Y-89782619D01*
X234476190Y-89782619D02*
X234571428Y-89925476D01*
X234571428Y-89925476D02*
X234666666Y-90020714D01*
X234666666Y-90020714D02*
X234761904Y-90068333D01*
X233857142Y-89782619D02*
X233238095Y-89782619D01*
X233238095Y-89782619D02*
X233571428Y-90163571D01*
X233571428Y-90163571D02*
X233428571Y-90163571D01*
X233428571Y-90163571D02*
X233333333Y-90211190D01*
X233333333Y-90211190D02*
X233285714Y-90258809D01*
X233285714Y-90258809D02*
X233238095Y-90354047D01*
X233238095Y-90354047D02*
X233238095Y-90592142D01*
X233238095Y-90592142D02*
X233285714Y-90687380D01*
X233285714Y-90687380D02*
X233333333Y-90735000D01*
X233333333Y-90735000D02*
X233428571Y-90782619D01*
X233428571Y-90782619D02*
X233714285Y-90782619D01*
X233714285Y-90782619D02*
X233809523Y-90735000D01*
X233809523Y-90735000D02*
X233857142Y-90687380D01*
D12*
X230276248Y-92735000D02*
X230798752Y-92735000D01*
X230276248Y-91265000D02*
X230798752Y-91265000D01*
X154650000Y-86010000D02*
X154650000Y-82750000D01*
X156350000Y-86010000D02*
X154650000Y-86010000D01*
X156350000Y-86010000D02*
X156350000Y-82750000D01*
X251850000Y-96990000D02*
X251850000Y-100250000D01*
X250150000Y-96990000D02*
X251850000Y-96990000D01*
X250150000Y-96990000D02*
X250150000Y-100250000D01*
X188490000Y-62150000D02*
X191750000Y-62150000D01*
X188490000Y-63850000D02*
X188490000Y-62150000D01*
X188490000Y-63850000D02*
X191750000Y-63850000D01*
X247761252Y-103735000D02*
X247238748Y-103735000D01*
X247761252Y-102265000D02*
X247238748Y-102265000D01*
D13*
X181691949Y-71599949D02*
X181591949Y-50792051D01*
X179051949Y-48252051D02*
X158647999Y-48255999D01*
X158744051Y-74139949D02*
X179151949Y-74139949D01*
X156107999Y-50795999D02*
X156204051Y-71599949D01*
X179151949Y-74139949D02*
G75*
G03*
X181691949Y-71599949I-1J2540001D01*
G01*
X181591949Y-50792051D02*
G75*
G03*
X179051949Y-48252051I-2540001J-1D01*
G01*
X156204051Y-71599949D02*
G75*
G03*
X158744051Y-74139949I2539999J-1D01*
G01*
X158647999Y-48255999D02*
G75*
G03*
X156107999Y-50795999I1J-2540001D01*
G01*
X171937044Y-61096000D02*
G75*
G03*
X171937044Y-61096000I-3189044J0D01*
G01*
X223979949Y-71311949D02*
X223879949Y-50504051D01*
X221339949Y-47964051D02*
X200935999Y-47967999D01*
X201032051Y-73851949D02*
X221439949Y-73851949D01*
X198395999Y-50507999D02*
X198492051Y-71311949D01*
X221439949Y-73851949D02*
G75*
G03*
X223979949Y-71311949I-1J2540001D01*
G01*
X223879949Y-50504051D02*
G75*
G03*
X221339949Y-47964051I-2540001J-1D01*
G01*
X198492051Y-71311949D02*
G75*
G03*
X201032051Y-73851949I2539999J-1D01*
G01*
X200935999Y-47967999D02*
G75*
G03*
X198395999Y-50507999I1J-2540001D01*
G01*
X214225044Y-60808000D02*
G75*
G03*
X214225044Y-60808000I-3189044J0D01*
G01*
X223691949Y-117599949D02*
X223591949Y-96792051D01*
X221051949Y-94252051D02*
X200647999Y-94255999D01*
X200744051Y-120139949D02*
X221151949Y-120139949D01*
X198107999Y-96795999D02*
X198204051Y-117599949D01*
X221151949Y-120139949D02*
G75*
G03*
X223691949Y-117599949I-1J2540001D01*
G01*
X223591949Y-96792051D02*
G75*
G03*
X221051949Y-94252051I-2540001J-1D01*
G01*
X198204051Y-117599949D02*
G75*
G03*
X200744051Y-120139949I2539999J-1D01*
G01*
X200647999Y-94255999D02*
G75*
G03*
X198107999Y-96795999I1J-2540001D01*
G01*
X213937044Y-107096000D02*
G75*
G03*
X213937044Y-107096000I-3189044J0D01*
G01*
D12*
X238735000Y-58738748D02*
X238735000Y-59261252D01*
X237265000Y-58738748D02*
X237265000Y-59261252D01*
X240850000Y-61490000D02*
X240850000Y-64750000D01*
X239150000Y-61490000D02*
X240850000Y-61490000D01*
X239150000Y-61490000D02*
X239150000Y-64750000D01*
X240140835Y-68180282D02*
X239819718Y-67859165D01*
X241180282Y-67140835D02*
X240859165Y-66819718D01*
X223261252Y-80735000D02*
X222738748Y-80735000D01*
X223261252Y-79265000D02*
X222738748Y-79265000D01*
X223261252Y-88735000D02*
X222738748Y-88735000D01*
X223261252Y-87265000D02*
X222738748Y-87265000D01*
X239765000Y-48761252D02*
X239765000Y-48238748D01*
X241235000Y-48761252D02*
X241235000Y-48238748D01*
X238359165Y-69319718D02*
X238680282Y-69640835D01*
X237319718Y-70359165D02*
X237640835Y-70680282D01*
X238761252Y-92735000D02*
X238238748Y-92735000D01*
X238761252Y-91265000D02*
X238238748Y-91265000D01*
X247798752Y-96235000D02*
X247276248Y-96235000D01*
X247798752Y-94765000D02*
X247276248Y-94765000D01*
X250238748Y-88265000D02*
X250761252Y-88265000D01*
X250238748Y-89735000D02*
X250761252Y-89735000D01*
X158738748Y-87265000D02*
X159261252Y-87265000D01*
X158738748Y-88735000D02*
X159261252Y-88735000D01*
X232265000Y-48761252D02*
X232265000Y-48238748D01*
X233735000Y-48761252D02*
X233735000Y-48238748D01*
X236735000Y-58738748D02*
X236735000Y-59261252D01*
X235265000Y-58738748D02*
X235265000Y-59261252D01*
X240738748Y-59765000D02*
X241261252Y-59765000D01*
X240738748Y-61235000D02*
X241261252Y-61235000D01*
X234765000Y-48761252D02*
X234765000Y-48238748D01*
X236235000Y-48761252D02*
X236235000Y-48238748D01*
X233235000Y-58738748D02*
X233235000Y-59261252D01*
X231765000Y-58738748D02*
X231765000Y-59261252D01*
X227350000Y-81990000D02*
X227350000Y-85250000D01*
X225650000Y-81990000D02*
X227350000Y-81990000D01*
X225650000Y-81990000D02*
X225650000Y-85250000D01*
X248235000Y-84238748D02*
X248235000Y-84761252D01*
X246765000Y-84238748D02*
X246765000Y-84761252D01*
X158738748Y-79265000D02*
X159261252Y-79265000D01*
X158738748Y-80735000D02*
X159261252Y-80735000D01*
X187235000Y-66238748D02*
X187235000Y-66761252D01*
X185765000Y-66238748D02*
X185765000Y-66761252D01*
D13*
X181979949Y-117599949D02*
X181879949Y-96792051D01*
X179339949Y-94252051D02*
X158935999Y-94255999D01*
X159032051Y-120139949D02*
X179439949Y-120139949D01*
X156395999Y-96795999D02*
X156492051Y-117599949D01*
X179439949Y-120139949D02*
G75*
G03*
X181979949Y-117599949I-1J2540001D01*
G01*
X181879949Y-96792051D02*
G75*
G03*
X179339949Y-94252051I-2540001J-1D01*
G01*
X156492051Y-117599949D02*
G75*
G03*
X159032051Y-120139949I2539999J-1D01*
G01*
X158935999Y-94255999D02*
G75*
G03*
X156395999Y-96795999I1J-2540001D01*
G01*
X172225044Y-107096000D02*
G75*
G03*
X172225044Y-107096000I-3189044J0D01*
G01*
D12*
X194735000Y-66238748D02*
X194735000Y-66761252D01*
X193265000Y-66238748D02*
X193265000Y-66761252D01*
X234761252Y-92735000D02*
X234238748Y-92735000D01*
X234761252Y-91265000D02*
X234238748Y-91265000D01*
%LPC*%
D14*
X190000000Y-106560000D03*
D15*
X186560000Y-103120000D03*
X186560000Y-110000000D03*
X193440000Y-103120000D03*
X193440000Y-110000000D03*
D16*
X226199996Y-80250000D03*
X211199996Y-80250000D03*
X206199995Y-80250000D03*
X201199995Y-80250000D03*
X201199995Y-87750000D03*
X206199995Y-87750000D03*
X211199996Y-87750000D03*
X226199996Y-87750000D03*
D17*
X247160000Y-81380000D03*
D18*
X244620000Y-81380000D03*
X242080000Y-81380000D03*
X239540000Y-81380000D03*
X237000000Y-81380000D03*
X237000000Y-89000000D03*
X239540000Y-89000000D03*
X242080000Y-89000000D03*
X244620000Y-89000000D03*
X247160000Y-89000000D03*
D19*
X247540000Y-68540000D03*
D20*
X245000000Y-66000000D03*
X245000000Y-71080000D03*
X250080000Y-66000000D03*
X250080000Y-71080000D03*
D16*
X186500000Y-63000000D03*
X186500000Y-78000000D03*
X186500000Y-83000001D03*
X186500000Y-88000001D03*
X194000000Y-88000001D03*
X194000000Y-83000001D03*
X194000000Y-78000000D03*
X194000000Y-63000000D03*
D14*
X260000000Y-118000000D03*
D15*
X256560000Y-114560000D03*
X256560000Y-121440000D03*
X263440000Y-114560000D03*
X263440000Y-121440000D03*
D14*
X238000000Y-118000000D03*
D15*
X234560000Y-114560000D03*
X234560000Y-121440000D03*
X241440000Y-114560000D03*
X241440000Y-121440000D03*
D21*
X232840000Y-55000000D03*
D22*
X232840000Y-52460000D03*
X235380000Y-55000000D03*
X235380000Y-52460000D03*
X237920000Y-55000000D03*
X237920000Y-52460000D03*
X240460000Y-55000000D03*
X240460000Y-52460000D03*
X243000000Y-55000000D03*
X243000000Y-52460000D03*
D19*
X232000000Y-68540000D03*
D20*
X229460000Y-66000000D03*
X229460000Y-71080000D03*
X234540000Y-66000000D03*
X234540000Y-71080000D03*
D19*
X259500000Y-76250000D03*
D20*
X256960000Y-73710000D03*
X256960000Y-78790000D03*
X262040000Y-73710000D03*
X262040000Y-78790000D03*
D16*
X155800004Y-87750000D03*
X170800004Y-87750000D03*
X175800005Y-87750000D03*
X180800005Y-87750000D03*
X180800005Y-80250000D03*
X175800005Y-80250000D03*
X170800004Y-80250000D03*
X155800004Y-80250000D03*
X251000000Y-95250000D03*
X236000000Y-95250000D03*
X230999999Y-95250000D03*
X225999999Y-95250000D03*
X225999999Y-102750000D03*
X230999999Y-102750000D03*
X236000000Y-102750000D03*
X251000000Y-102750000D03*
D23*
X231575000Y-92000000D03*
X229500000Y-92000000D03*
D24*
X155500000Y-85250000D03*
X155500000Y-82750000D03*
D25*
X251000000Y-97750000D03*
X251000000Y-100250000D03*
D26*
X189250000Y-63000000D03*
X191750000Y-63000000D03*
D27*
X248537500Y-103000000D03*
X246462500Y-103000000D03*
D28*
X168748000Y-61096000D03*
X178000000Y-70288000D03*
X178000000Y-52000000D03*
X159712000Y-70288000D03*
X159712000Y-52000000D03*
X211036000Y-60808000D03*
X220288000Y-70000000D03*
X220288000Y-51712000D03*
X202000000Y-70000000D03*
X202000000Y-51712000D03*
X210748000Y-107096000D03*
X220000000Y-116288000D03*
X220000000Y-98000000D03*
X201712000Y-116288000D03*
X201712000Y-98000000D03*
D29*
X238000000Y-57962500D03*
X238000000Y-60037500D03*
D25*
X240000000Y-62250000D03*
X240000000Y-64750000D03*
D30*
X241207107Y-68207107D03*
X239792893Y-66792893D03*
D27*
X224037500Y-80000000D03*
X221962500Y-80000000D03*
X224037500Y-88000000D03*
X221962500Y-88000000D03*
D31*
X240500000Y-49537500D03*
X240500000Y-47462500D03*
D32*
X237292893Y-69292893D03*
X238707107Y-70707107D03*
D27*
X239537500Y-92000000D03*
X237462500Y-92000000D03*
X248575000Y-95500000D03*
X246500000Y-95500000D03*
D23*
X249462500Y-89000000D03*
X251537500Y-89000000D03*
X157962500Y-88000000D03*
X160037500Y-88000000D03*
D31*
X233000000Y-49537500D03*
X233000000Y-47462500D03*
D29*
X236000000Y-57962500D03*
X236000000Y-60037500D03*
D23*
X239962500Y-60500000D03*
X242037500Y-60500000D03*
D31*
X235500000Y-49537500D03*
X235500000Y-47462500D03*
D29*
X232500000Y-57962500D03*
X232500000Y-60037500D03*
D25*
X226500000Y-82750000D03*
X226500000Y-85250000D03*
D29*
X247500000Y-83462500D03*
X247500000Y-85537500D03*
D23*
X157962500Y-80000000D03*
X160037500Y-80000000D03*
D29*
X186500000Y-65462500D03*
X186500000Y-67537500D03*
D28*
X169036000Y-107096000D03*
X178288000Y-116288000D03*
X178288000Y-98000000D03*
X160000000Y-116288000D03*
X160000000Y-98000000D03*
D29*
X194000000Y-65462500D03*
X194000000Y-67537500D03*
D27*
X235537500Y-92000000D03*
X233462500Y-92000000D03*
M02*
