%TF.GenerationSoftware,KiCad,Pcbnew,7.0.1*%
%TF.CreationDate,2023-05-14T23:30:54+02:00*%
%TF.ProjectId,K_relay,4b5f7265-6c61-4792-9e6b-696361645f70,rev?*%
%TF.SameCoordinates,Original*%
%TF.FileFunction,Drillmap*%
%TF.FilePolarity,Positive*%
%FSLAX45Y45*%
G04 Gerber Fmt 4.5, Leading zero omitted, Abs format (unit mm)*
G04 Created by KiCad (PCBNEW 7.0.1) date 2023-05-14 23:30:54*
%MOMM*%
%LPD*%
G01*
G04 APERTURE LIST*
%ADD10C,0.100000*%
%ADD11C,0.200000*%
G04 APERTURE END LIST*
D10*
X26800000Y-12450000D02*
X15200000Y-12400000D01*
X26800000Y-4250000D02*
X26800000Y-12450000D01*
X15200000Y-4250000D02*
X15200000Y-12400000D01*
X15200000Y-4250000D02*
X26800000Y-4250000D01*
D11*
X15442619Y-12767524D02*
X15442619Y-12567524D01*
X15442619Y-12567524D02*
X15490238Y-12567524D01*
X15490238Y-12567524D02*
X15518809Y-12577048D01*
X15518809Y-12577048D02*
X15537857Y-12596095D01*
X15537857Y-12596095D02*
X15547381Y-12615143D01*
X15547381Y-12615143D02*
X15556905Y-12653238D01*
X15556905Y-12653238D02*
X15556905Y-12681809D01*
X15556905Y-12681809D02*
X15547381Y-12719905D01*
X15547381Y-12719905D02*
X15537857Y-12738952D01*
X15537857Y-12738952D02*
X15518809Y-12758000D01*
X15518809Y-12758000D02*
X15490238Y-12767524D01*
X15490238Y-12767524D02*
X15442619Y-12767524D01*
X15642619Y-12767524D02*
X15642619Y-12634190D01*
X15642619Y-12672286D02*
X15652143Y-12653238D01*
X15652143Y-12653238D02*
X15661667Y-12643714D01*
X15661667Y-12643714D02*
X15680714Y-12634190D01*
X15680714Y-12634190D02*
X15699762Y-12634190D01*
X15766428Y-12767524D02*
X15766428Y-12634190D01*
X15766428Y-12567524D02*
X15756905Y-12577048D01*
X15756905Y-12577048D02*
X15766428Y-12586571D01*
X15766428Y-12586571D02*
X15775952Y-12577048D01*
X15775952Y-12577048D02*
X15766428Y-12567524D01*
X15766428Y-12567524D02*
X15766428Y-12586571D01*
X15890238Y-12767524D02*
X15871190Y-12758000D01*
X15871190Y-12758000D02*
X15861667Y-12738952D01*
X15861667Y-12738952D02*
X15861667Y-12567524D01*
X15995000Y-12767524D02*
X15975952Y-12758000D01*
X15975952Y-12758000D02*
X15966428Y-12738952D01*
X15966428Y-12738952D02*
X15966428Y-12567524D01*
X16223571Y-12767524D02*
X16223571Y-12567524D01*
X16223571Y-12567524D02*
X16290238Y-12710381D01*
X16290238Y-12710381D02*
X16356905Y-12567524D01*
X16356905Y-12567524D02*
X16356905Y-12767524D01*
X16537857Y-12767524D02*
X16537857Y-12662762D01*
X16537857Y-12662762D02*
X16528333Y-12643714D01*
X16528333Y-12643714D02*
X16509286Y-12634190D01*
X16509286Y-12634190D02*
X16471190Y-12634190D01*
X16471190Y-12634190D02*
X16452143Y-12643714D01*
X16537857Y-12758000D02*
X16518809Y-12767524D01*
X16518809Y-12767524D02*
X16471190Y-12767524D01*
X16471190Y-12767524D02*
X16452143Y-12758000D01*
X16452143Y-12758000D02*
X16442619Y-12738952D01*
X16442619Y-12738952D02*
X16442619Y-12719905D01*
X16442619Y-12719905D02*
X16452143Y-12700857D01*
X16452143Y-12700857D02*
X16471190Y-12691333D01*
X16471190Y-12691333D02*
X16518809Y-12691333D01*
X16518809Y-12691333D02*
X16537857Y-12681809D01*
X16633095Y-12634190D02*
X16633095Y-12834190D01*
X16633095Y-12643714D02*
X16652143Y-12634190D01*
X16652143Y-12634190D02*
X16690238Y-12634190D01*
X16690238Y-12634190D02*
X16709286Y-12643714D01*
X16709286Y-12643714D02*
X16718809Y-12653238D01*
X16718809Y-12653238D02*
X16728333Y-12672286D01*
X16728333Y-12672286D02*
X16728333Y-12729428D01*
X16728333Y-12729428D02*
X16718809Y-12748476D01*
X16718809Y-12748476D02*
X16709286Y-12758000D01*
X16709286Y-12758000D02*
X16690238Y-12767524D01*
X16690238Y-12767524D02*
X16652143Y-12767524D01*
X16652143Y-12767524D02*
X16633095Y-12758000D01*
X16814048Y-12748476D02*
X16823571Y-12758000D01*
X16823571Y-12758000D02*
X16814048Y-12767524D01*
X16814048Y-12767524D02*
X16804524Y-12758000D01*
X16804524Y-12758000D02*
X16814048Y-12748476D01*
X16814048Y-12748476D02*
X16814048Y-12767524D01*
X16814048Y-12643714D02*
X16823571Y-12653238D01*
X16823571Y-12653238D02*
X16814048Y-12662762D01*
X16814048Y-12662762D02*
X16804524Y-12653238D01*
X16804524Y-12653238D02*
X16814048Y-12643714D01*
X16814048Y-12643714D02*
X16814048Y-12662762D01*
M02*
